solid hopper_holder
facet normal 0.0 0.0 -1.0
  outer loop
    vertex 1.9734783310981108 0.3957424010979922 0.84375
    vertex 1.7547283310981108 -0.6042575989020078 0.84375
    vertex 1.7547283310981108 0.3957424010979922 0.84375
  endloop
endfacet
facet normal 0.0 0.0 -1.0
  outer loop
    vertex 1.7547283310981108 -0.6042575989020078 0.84375
    vertex 1.9734783310981108 0.3957424010979922 0.84375
    vertex 1.9734783310981108 -0.6042575989020078 0.84375
  endloop
endfacet
facet normal 0.0 0.0 1.0
  outer loop
    vertex 1.9734783310981108 -0.6042575989020078 2.15625
    vertex 1.7547283310981108 1.8957424010979922 2.15625
    vertex 1.7547283310981108 -0.6042575989020078 2.15625
  endloop
endfacet
facet normal 0.0 0.0 1.0
  outer loop
    vertex 1.7547283310981108 1.8957424010979922 2.15625
    vertex 1.9734783310981108 -0.6042575989020078 2.15625
    vertex 1.9734783310981108 1.8957424010979922 2.15625
  endloop
endfacet
facet normal -0.0 1.0 -0.0
  outer loop
    vertex 1.7078533310981108 1.8957424010979922 2.109375
    vertex 2.0203533310981108 1.8957424010979922 1.0
    vertex 1.7078533310981108 1.8957424010979922 1.0
  endloop
endfacet
facet normal -0.0 1.0 -0.0
  outer loop
    vertex 2.0203533310981108 1.8957424010979922 1.0
    vertex 1.7078533310981108 1.8957424010979922 2.109375
    vertex 2.0203533310981108 1.8957424010979922 2.109375
  endloop
endfacet
facet normal -0.0 1.0 -0.0
  outer loop
    vertex 2.0203533310981108 1.8957424010979922 2.109375
    vertex 1.7078533310981108 1.8957424010979922 2.109375
    vertex 1.7547283310981108 1.8957424010979922 2.15625
  endloop
endfacet
facet normal -0.0 1.0 -0.0
  outer loop
    vertex 2.0203533310981108 1.8957424010979922 2.109375
    vertex 1.7547283310981108 1.8957424010979922 2.15625
    vertex 1.9734783310981108 1.8957424010979922 2.15625
  endloop
endfacet
facet normal -1.0 0.0 0.0
  outer loop
    vertex 1.7078533310981108 1.8957424010979922 2.109375
    vertex 1.7078533310981108 -0.6042575989020078 0.890625
    vertex 1.7078533310981108 -0.6042575989020078 2.109375
  endloop
endfacet
facet normal -1.0 0.0 0.0
  outer loop
    vertex 1.7078533310981108 -0.6042575989020078 0.890625
    vertex 1.7078533310981108 1.8957424010979922 2.109375
    vertex 1.7078533310981108 0.3957424010979922 1.0
  endloop
endfacet
facet normal -1.0 0.0 0.0
  outer loop
    vertex 1.7078533310981108 0.3957424010979922 1.0
    vertex 1.7078533310981108 1.8957424010979922 2.109375
    vertex 1.7078533310981108 1.4797137618249747 1.7971476485034474
  endloop
endfacet
facet normal -1.0 0.0 0.0
  outer loop
    vertex 1.7078533310981108 0.3957424010979922 1.0
    vertex 1.7078533310981108 1.4797137618249747 1.7971476485034474
    vertex 1.7078533310981108 1.4689090694421958 1.7849221380997808
  endloop
endfacet
facet normal -1.0 0.0 0.0
  outer loop
    vertex 1.7078533310981108 0.3957424010979922 1.0
    vertex 1.7078533310981108 1.4689090694421958 1.7849221380997808
    vertex 1.7078533310981108 1.4616367329531277 1.770316741696176
  endloop
endfacet
facet normal -1.0 0.0 0.0
  outer loop
    vertex 1.7078533310981108 0.3957424010979922 1.0
    vertex 1.7078533310981108 1.4616367329531277 1.770316741696176
    vertex 1.7078533310981108 1.4583923500713973 1.75432679292098
  endloop
endfacet
facet normal -1.0 0.0 0.0
  outer loop
    vertex 1.7078533310981108 1.4797137618249747 1.7971476485034474
    vertex 1.7078533310981108 1.8957424010979922 2.109375
    vertex 1.7078533310981108 1.4933144881711786 1.8061601245767769
  endloop
endfacet
facet normal -1.0 0.0 0.0
  outer loop
    vertex 1.7078533310981108 1.4933144881711786 1.8061601245767769
    vertex 1.7078533310981108 1.8957424010979922 2.109375
    vertex 1.7078533310981108 1.5087843814565753 1.8113453809691933
  endloop
endfacet
facet normal -1.0 0.0 0.0
  outer loop
    vertex 1.7078533310981108 1.5087843814565753 1.8113453809691933
    vertex 1.7078533310981108 1.8957424010979922 2.109375
    vertex 1.7078533310981108 1.5250691940189725 1.8123500510265944
  endloop
endfacet
facet normal -1.0 0.0 0.0
  outer loop
    vertex 1.7078533310981108 1.5250691940189725 1.8123500510265944
    vertex 1.7078533310981108 1.8957424010979922 2.109375
    vertex 1.7078533310981108 1.541059142794169 1.8091056681448643
  endloop
endfacet
facet normal -1.0 0.0 0.0
  outer loop
    vertex 1.7078533310981108 1.541059142794169 1.8091056681448643
    vertex 1.7078533310981108 1.8957424010979922 2.109375
    vertex 1.7078533310981108 1.5556645391977735 1.8018333316557964
  endloop
endfacet
facet normal -1.0 0.0 0.0
  outer loop
    vertex 1.7078533310981108 1.5556645391977735 1.8018333316557964
    vertex 1.7078533310981108 1.8957424010979922 2.109375
    vertex 1.7078533310981108 1.5678900496014399 1.791028639273017
  endloop
endfacet
facet normal -1.0 0.0 0.0
  outer loop
    vertex 1.7078533310981108 1.5678900496014399 1.791028639273017
    vertex 1.7078533310981108 1.8957424010979922 2.109375
    vertex 1.7078533310981108 1.5769025256747693 1.7774279129268133
  endloop
endfacet
facet normal -1.0 0.0 0.0
  outer loop
    vertex 1.7078533310981108 1.5769025256747693 1.7774279129268133
    vertex 1.7078533310981108 1.8957424010979922 2.109375
    vertex 1.7078533310981108 1.5820877820671855 1.7619580196414166
  endloop
endfacet
facet normal -1.0 0.0 0.0
  outer loop
    vertex 1.7078533310981108 1.5820877820671855 1.7619580196414166
    vertex 1.7078533310981108 1.8957424010979922 2.109375
    vertex 1.7078533310981108 1.583092452124587 1.7456732070790193
  endloop
endfacet
facet normal -1.0 0.0 0.0
  outer loop
    vertex 1.7078533310981108 0.3957424010979922 1.0
    vertex 1.7078533310981108 1.464582276521215 1.7225720870731862
    vertex 1.7078533310981108 1.8957424010979922 1.0
  endloop
endfacet
facet normal -1.0 0.0 0.0
  outer loop
    vertex 1.7078533310981108 1.464582276521215 1.7225720870731862
    vertex 1.7078533310981108 0.3957424010979922 1.0
    vertex 1.7078533310981108 1.459397020128799 1.7380419803585827
  endloop
endfacet
facet normal -1.0 0.0 0.0
  outer loop
    vertex 1.7078533310981108 1.459397020128799 1.7380419803585827
    vertex 1.7078533310981108 0.3957424010979922 1.0
    vertex 1.7078533310981108 1.4583923500713973 1.75432679292098
  endloop
endfacet
facet normal -1.0 0.0 0.0
  outer loop
    vertex 1.7078533310981108 1.8957424010979922 1.0
    vertex 1.7078533310981108 1.464582276521215 1.7225720870731862
    vertex 1.7078533310981108 1.4735947525945445 1.7089713607269825
  endloop
endfacet
facet normal -1.0 0.0 0.0
  outer loop
    vertex 1.7078533310981108 1.8957424010979922 1.0
    vertex 1.7078533310981108 1.4735947525945445 1.7089713607269825
    vertex 1.7078533310981108 1.485820262998211 1.6981666683442032
  endloop
endfacet
facet normal -1.0 0.0 0.0
  outer loop
    vertex 1.7078533310981108 1.8957424010979922 1.0
    vertex 1.7078533310981108 1.485820262998211 1.6981666683442032
    vertex 1.7078533310981108 1.5004256594018155 1.6908943318551353
  endloop
endfacet
facet normal -1.0 0.0 0.0
  outer loop
    vertex 1.7078533310981108 1.8957424010979922 1.0
    vertex 1.7078533310981108 1.5004256594018155 1.6908943318551353
    vertex 1.7078533310981108 1.516415608177012 1.6876499489734051
  endloop
endfacet
facet normal -1.0 0.0 0.0
  outer loop
    vertex 1.7078533310981108 1.8957424010979922 1.0
    vertex 1.7078533310981108 1.516415608177012 1.6876499489734051
    vertex 1.7078533310981108 1.532700420739409 1.6886546190308063
  endloop
endfacet
facet normal -1.0 0.0 0.0
  outer loop
    vertex 1.7078533310981108 1.8957424010979922 1.0
    vertex 1.7078533310981108 1.532700420739409 1.6886546190308063
    vertex 1.7078533310981108 1.5481703140248058 1.6938398754232227
  endloop
endfacet
facet normal -1.0 0.0 0.0
  outer loop
    vertex 1.7078533310981108 1.8957424010979922 1.0
    vertex 1.7078533310981108 1.5481703140248058 1.6938398754232227
    vertex 1.7078533310981108 1.5617710403710097 1.7028523514965521
  endloop
endfacet
facet normal -1.0 0.0 0.0
  outer loop
    vertex 1.7078533310981108 1.8957424010979922 1.0
    vertex 1.7078533310981108 1.5617710403710097 1.7028523514965521
    vertex 1.7078533310981108 1.5725757327537886 1.7150778619002187
  endloop
endfacet
facet normal -1.0 0.0 0.0
  outer loop
    vertex 1.7078533310981108 1.8957424010979922 1.0
    vertex 1.7078533310981108 1.5725757327537886 1.7150778619002187
    vertex 1.7078533310981108 1.5798480692428567 1.7296832583038233
  endloop
endfacet
facet normal -1.0 0.0 0.0
  outer loop
    vertex 1.7078533310981108 1.8957424010979922 1.0
    vertex 1.7078533310981108 1.5798480692428567 1.7296832583038233
    vertex 1.7078533310981108 1.583092452124587 1.7456732070790193
  endloop
endfacet
facet normal -1.0 0.0 0.0
  outer loop
    vertex 1.7078533310981108 1.8957424010979922 1.0
    vertex 1.7078533310981108 1.583092452124587 1.7456732070790193
    vertex 1.7078533310981108 1.8957424010979922 2.109375
  endloop
endfacet
facet normal -1.0 0.0 0.0
  outer loop
    vertex 1.7078533310981108 0.3957424010979922 0.890625
    vertex 1.7078533310981108 -0.6042575989020078 0.890625
    vertex 1.7078533310981108 0.3957424010979922 1.0
  endloop
endfacet
facet normal 0.0 0.8293333064927514 -0.5587542095964916
  outer loop
    vertex 1.7078533310981108 1.4689090694421958 1.7849221380997808
    vertex 2.0203533310981108 1.4616367329531277 1.770316741696176
    vertex 1.7078533310981108 1.4616367329531277 1.770316741696176
  endloop
endfacet
facet normal 3.562755882550496e-17 0.9456906903178312 -0.32506786713882396
  outer loop
    vertex 2.0203533310981108 1.4616367329531277 1.770316741696176
    vertex 1.7078533310981108 1.4689090694421958 1.7849221380997808
    vertex 2.0203533310981108 1.4689090694421958 1.7849221380997808
  endloop
endfacet
facet normal 3.562755882550496e-17 0.9456906903178312 -0.32506786713882396
  outer loop
    vertex 1.7078533310981108 1.4616367329531277 1.770316741696176
    vertex 2.0203533310981108 1.4583923500713973 1.7543267929209803
    vertex 1.7078533310981108 1.4583923500713973 1.75432679292098
  endloop
endfacet
facet normal 2.459497023312471e-17 0.9976008164255146 -0.06922868673568054
  outer loop
    vertex 2.0203533310981108 1.4583923500713973 1.7543267929209803
    vertex 1.7078533310981108 1.4616367329531277 1.770316741696176
    vertex 2.0203533310981108 1.4616367329531277 1.770316741696176
  endloop
endfacet
facet normal 2.459497023312467e-17 0.9976008164255146 -0.06922868673568043
  outer loop
    vertex 1.7078533310981108 1.4583923500713973 1.75432679292098
    vertex 2.0203533310981108 1.459397020128799 1.7380419803585827
    vertex 1.7078533310981108 1.459397020128799 1.7380419803585827
  endloop
endfacet
facet normal -1.1032588592380262e-17 0.981526095507095 0.19132831426267508
  outer loop
    vertex 2.0203533310981108 1.459397020128799 1.7380419803585827
    vertex 1.7078533310981108 1.4583923500713973 1.75432679292098
    vertex 2.0203533310981108 1.4583923500713973 1.7543267929209803
  endloop
endfacet
facet normal -1.1032588592380262e-17 0.981526095507095 0.19132831426267508
  outer loop
    vertex 1.7078533310981108 1.459397020128799 1.7380419803585827
    vertex 2.0203533310981108 1.464582276521215 1.7225720870731862
    vertex 1.7078533310981108 1.464582276521215 1.7225720870731862
  endloop
endfacet
facet normal 0.0 0.8985619932284393 0.4388466068290081
  outer loop
    vertex 2.0203533310981108 1.464582276521215 1.7225720870731862
    vertex 1.7078533310981108 1.459397020128799 1.7380419803585827
    vertex 2.0203533310981108 1.459397020128799 1.7380419803585827
  endloop
endfacet
facet normal 0.0 0.8985619932284393 0.4388466068290081
  outer loop
    vertex 1.7078533310981108 1.464582276521215 1.7225720870731862
    vertex 2.0203533310981108 1.4735947525945445 1.7089713607269825
    vertex 1.7078533310981108 1.4735947525945445 1.7089713607269825
  endloop
endfacet
facet normal 0.0 0.7543623760551602 0.656458228368274
  outer loop
    vertex 2.0203533310981108 1.4735947525945445 1.7089713607269825
    vertex 1.7078533310981108 1.464582276521215 1.7225720870731862
    vertex 2.0203533310981108 1.464582276521215 1.7225720870731862
  endloop
endfacet
facet normal 0.0 0.7543623760551602 0.656458228368274
  outer loop
    vertex 2.0203533310981108 1.4735947525945445 1.7089713607269825
    vertex 1.7078533310981108 1.485820262998211 1.6981666683442032
    vertex 1.7078533310981108 1.4735947525945445 1.7089713607269825
  endloop
endfacet
facet normal 0.0 0.5587542095964942 0.8293333064927498
  outer loop
    vertex 1.7078533310981108 1.485820262998211 1.6981666683442032
    vertex 2.0203533310981108 1.4735947525945445 1.7089713607269825
    vertex 2.0203533310981108 1.485820262998211 1.6981666683442032
  endloop
endfacet
facet normal 0.0 0.5587542095964942 0.8293333064927498
  outer loop
    vertex 2.0203533310981108 1.485820262998211 1.6981666683442032
    vertex 1.7078533310981108 1.5004256594018155 1.6908943318551353
    vertex 1.7078533310981108 1.485820262998211 1.6981666683442032
  endloop
endfacet
facet normal 0.0 0.3250678671388263 0.9456906903178304
  outer loop
    vertex 1.7078533310981108 1.5004256594018155 1.6908943318551353
    vertex 2.0203533310981108 1.485820262998211 1.6981666683442032
    vertex 2.0203533310981108 1.5004256594018155 1.6908943318551353
  endloop
endfacet
facet normal 0.0 0.3250678671388263 0.9456906903178304
  outer loop
    vertex 2.0203533310981108 1.5004256594018155 1.6908943318551353
    vertex 1.7078533310981108 1.516415608177012 1.6876499489734051
    vertex 1.7078533310981108 1.5004256594018155 1.6908943318551353
  endloop
endfacet
facet normal 0.0 0.06922868673568638 0.9976008164255142
  outer loop
    vertex 1.7078533310981108 1.516415608177012 1.6876499489734051
    vertex 2.0203533310981108 1.5004256594018155 1.6908943318551353
    vertex 2.0203533310981108 1.516415608177012 1.6876499489734051
  endloop
endfacet
facet normal 0.0 0.06922868673568638 0.9976008164255142
  outer loop
    vertex 2.0203533310981108 1.516415608177012 1.6876499489734051
    vertex 1.7078533310981108 1.532700420739409 1.6886546190308063
    vertex 1.7078533310981108 1.516415608177012 1.6876499489734051
  endloop
endfacet
facet normal 0.0 -0.19132831426267288 0.9815260955070955
  outer loop
    vertex 1.7078533310981108 1.532700420739409 1.6886546190308063
    vertex 2.0203533310981108 1.516415608177012 1.6876499489734051
    vertex 2.0203533310981108 1.532700420739409 1.6886546190308063
  endloop
endfacet
facet normal 0.0 -0.19132831426267288 0.9815260955070955
  outer loop
    vertex 2.0203533310981108 1.532700420739409 1.6886546190308063
    vertex 1.7078533310981108 1.5481703140248058 1.6938398754232227
    vertex 1.7078533310981108 1.532700420739409 1.6886546190308063
  endloop
endfacet
facet normal 0.0 -0.43884660682901205 0.8985619932284377
  outer loop
    vertex 1.7078533310981108 1.5481703140248058 1.6938398754232227
    vertex 2.0203533310981108 1.532700420739409 1.6886546190308063
    vertex 2.0203533310981108 1.5481703140248058 1.6938398754232227
  endloop
endfacet
facet normal 0.0 -0.43884660682901205 0.8985619932284377
  outer loop
    vertex 2.0203533310981108 1.5481703140248058 1.6938398754232227
    vertex 1.7078533310981108 1.5617710403710097 1.7028523514965521
    vertex 1.7078533310981108 1.5481703140248058 1.6938398754232227
  endloop
endfacet
facet normal 0.0 -0.656458228368274 0.7543623760551602
  outer loop
    vertex 1.7078533310981108 1.5617710403710097 1.7028523514965521
    vertex 2.0203533310981108 1.5481703140248058 1.6938398754232227
    vertex 2.0203533310981108 1.5617710403710097 1.7028523514965521
  endloop
endfacet
facet normal 0.0 -0.8293333064927498 0.5587542095964942
  outer loop
    vertex 2.0203533310981108 1.5725757327537886 1.7150778619002187
    vertex 1.7078533310981108 1.5617710403710097 1.7028523514965521
    vertex 2.0203533310981108 1.5617710403710097 1.7028523514965521
  endloop
endfacet
facet normal 0.0 -0.656458228368274 0.7543623760551602
  outer loop
    vertex 1.7078533310981108 1.5617710403710097 1.7028523514965521
    vertex 2.0203533310981108 1.5725757327537886 1.7150778619002187
    vertex 1.7078533310981108 1.5725757327537886 1.7150778619002187
  endloop
endfacet
facet normal 0.0 -0.9456906903178304 0.3250678671388263
  outer loop
    vertex 2.0203533310981108 1.5798480692428567 1.7296832583038233
    vertex 1.7078533310981108 1.5725757327537886 1.7150778619002187
    vertex 2.0203533310981108 1.5725757327537886 1.7150778619002187
  endloop
endfacet
facet normal 0.0 -0.8293333064927498 0.5587542095964942
  outer loop
    vertex 1.7078533310981108 1.5725757327537886 1.7150778619002187
    vertex 2.0203533310981108 1.5798480692428567 1.7296832583038233
    vertex 1.7078533310981108 1.5798480692428567 1.7296832583038233
  endloop
endfacet
facet normal 0.0 -0.9976008164255142 0.06922868673568638
  outer loop
    vertex 2.0203533310981108 1.583092452124587 1.7456732070790193
    vertex 1.7078533310981108 1.5798480692428567 1.7296832583038233
    vertex 2.0203533310981108 1.5798480692428567 1.7296832583038233
  endloop
endfacet
facet normal 0.0 -0.9456906903178304 0.3250678671388263
  outer loop
    vertex 1.7078533310981108 1.5798480692428567 1.7296832583038233
    vertex 2.0203533310981108 1.583092452124587 1.7456732070790193
    vertex 1.7078533310981108 1.583092452124587 1.7456732070790193
  endloop
endfacet
facet normal 0.0 -0.9815260955070955 -0.19132831426267283
  outer loop
    vertex 2.0203533310981108 1.5820877820671855 1.7619580196414166
    vertex 1.7078533310981108 1.583092452124587 1.7456732070790193
    vertex 2.0203533310981108 1.583092452124587 1.7456732070790193
  endloop
endfacet
facet normal 0.0 -0.9976008164255142 0.06922868673568638
  outer loop
    vertex 1.7078533310981108 1.583092452124587 1.7456732070790193
    vertex 2.0203533310981108 1.5820877820671855 1.7619580196414166
    vertex 1.7078533310981108 1.5820877820671855 1.7619580196414166
  endloop
endfacet
facet normal 0.0 -0.8985619932284377 -0.43884660682901205
  outer loop
    vertex 2.0203533310981108 1.5769025256747693 1.7774279129268133
    vertex 1.7078533310981108 1.5820877820671855 1.7619580196414166
    vertex 2.0203533310981108 1.5820877820671855 1.7619580196414166
  endloop
endfacet
facet normal 0.0 -0.9815260955070955 -0.19132831426267283
  outer loop
    vertex 1.7078533310981108 1.5820877820671855 1.7619580196414166
    vertex 2.0203533310981108 1.5769025256747693 1.7774279129268133
    vertex 1.7078533310981108 1.5769025256747693 1.7774279129268133
  endloop
endfacet
facet normal 0.0 -0.7543623760551602 -0.656458228368274
  outer loop
    vertex 2.0203533310981108 1.5678900496014399 1.791028639273017
    vertex 1.7078533310981108 1.5769025256747693 1.7774279129268133
    vertex 2.0203533310981108 1.5769025256747693 1.7774279129268133
  endloop
endfacet
facet normal 0.0 -0.8985619932284377 -0.43884660682901205
  outer loop
    vertex 1.7078533310981108 1.5769025256747693 1.7774279129268133
    vertex 2.0203533310981108 1.5678900496014399 1.791028639273017
    vertex 1.7078533310981108 1.5678900496014399 1.791028639273017
  endloop
endfacet
facet normal 0.0 -0.7543623760551602 -0.656458228368274
  outer loop
    vertex 2.0203533310981108 1.5678900496014399 1.791028639273017
    vertex 1.7078533310981108 1.5556645391977735 1.8018333316557964
    vertex 1.7078533310981108 1.5678900496014399 1.791028639273017
  endloop
endfacet
facet normal 0.0 -0.5587542095964942 -0.8293333064927498
  outer loop
    vertex 1.7078533310981108 1.5556645391977735 1.8018333316557964
    vertex 2.0203533310981108 1.5678900496014399 1.791028639273017
    vertex 2.0203533310981108 1.5556645391977735 1.8018333316557964
  endloop
endfacet
facet normal 0.0 -0.5587542095964942 -0.8293333064927498
  outer loop
    vertex 2.0203533310981108 1.5556645391977735 1.8018333316557964
    vertex 1.7078533310981108 1.541059142794169 1.8091056681448643
    vertex 1.7078533310981108 1.5556645391977735 1.8018333316557964
  endloop
endfacet
facet normal 0.0 -0.3250678671388263 -0.9456906903178304
  outer loop
    vertex 1.7078533310981108 1.541059142794169 1.8091056681448643
    vertex 2.0203533310981108 1.5556645391977735 1.8018333316557964
    vertex 2.0203533310981108 1.541059142794169 1.8091056681448643
  endloop
endfacet
facet normal 0.0 -0.3250678671388263 -0.9456906903178304
  outer loop
    vertex 2.0203533310981108 1.541059142794169 1.8091056681448643
    vertex 1.7078533310981108 1.5250691940189725 1.8123500510265944
    vertex 1.7078533310981108 1.541059142794169 1.8091056681448643
  endloop
endfacet
facet normal 0.0 -0.06922868673568638 -0.9976008164255142
  outer loop
    vertex 1.7078533310981108 1.5250691940189725 1.8123500510265944
    vertex 2.0203533310981108 1.541059142794169 1.8091056681448643
    vertex 2.0203533310981108 1.5250691940189725 1.8123500510265944
  endloop
endfacet
facet normal 0.0 -0.06922868673568638 -0.9976008164255142
  outer loop
    vertex 2.0203533310981108 1.5250691940189725 1.8123500510265944
    vertex 1.7078533310981108 1.5087843814565753 1.8113453809691933
    vertex 1.7078533310981108 1.5250691940189725 1.8123500510265944
  endloop
endfacet
facet normal 0.0 0.19132831426267283 -0.9815260955070955
  outer loop
    vertex 1.7078533310981108 1.5087843814565753 1.8113453809691933
    vertex 2.0203533310981108 1.5250691940189725 1.8123500510265944
    vertex 2.0203533310981108 1.5087843814565753 1.8113453809691933
  endloop
endfacet
facet normal 0.0 0.19132831426267283 -0.9815260955070955
  outer loop
    vertex 2.0203533310981108 1.5087843814565753 1.8113453809691933
    vertex 1.7078533310981108 1.4933144881711786 1.8061601245767769
    vertex 1.7078533310981108 1.5087843814565753 1.8113453809691933
  endloop
endfacet
facet normal 0.0 0.43884660682901205 -0.8985619932284377
  outer loop
    vertex 1.7078533310981108 1.4933144881711786 1.8061601245767769
    vertex 2.0203533310981108 1.5087843814565753 1.8113453809691933
    vertex 2.0203533310981108 1.4933144881711786 1.8061601245767769
  endloop
endfacet
facet normal 0.0 0.43884660682901205 -0.8985619932284377
  outer loop
    vertex 2.0203533310981108 1.4933144881711786 1.8061601245767769
    vertex 1.7078533310981108 1.4797137618249747 1.7971476485034474
    vertex 1.7078533310981108 1.4933144881711786 1.8061601245767769
  endloop
endfacet
facet normal 0.0 0.656458228368274 -0.7543623760551602
  outer loop
    vertex 1.7078533310981108 1.4797137618249747 1.7971476485034474
    vertex 2.0203533310981108 1.4933144881711786 1.8061601245767769
    vertex 2.0203533310981108 1.4797137618249747 1.7971476485034474
  endloop
endfacet
facet normal 0.0 0.656458228368274 -0.7543623760551602
  outer loop
    vertex 1.7078533310981108 1.4797137618249747 1.7971476485034474
    vertex 2.0203533310981108 1.4689090694421958 1.7849221380997808
    vertex 1.7078533310981108 1.4689090694421958 1.7849221380997808
  endloop
endfacet
facet normal 0.0 0.8293333064927514 -0.5587542095964916
  outer loop
    vertex 2.0203533310981108 1.4689090694421958 1.7849221380997808
    vertex 1.7078533310981108 1.4797137618249747 1.7971476485034474
    vertex 2.0203533310981108 1.4797137618249747 1.7971476485034474
  endloop
endfacet
facet normal 0.0 -1.0 0.0
  outer loop
    vertex 1.8888569643848514 0.3957424010979922 1.9355930311293448
    vertex 1.8533371219250647 0.3957424010979922 1.9318451121338887
    vertex 1.8713437546032115 0.3957424010979922 1.9313809336447458
  endloop
endfacet
facet normal 0.0 -1.0 0.0
  outer loop
    vertex 1.8533371219250647 0.3957424010979922 1.9318451121338887
    vertex 1.8888569643848514 0.3957424010979922 1.9355930311293448
    vertex 1.8360641886100588 0.3957424010979922 1.9369539335998294
  endloop
endfacet
facet normal 0.0 -1.0 0.0
  outer loop
    vertex 1.8360641886100588 0.3957424010979922 1.9369539335998294
    vertex 1.8888569643848514 0.3957424010979922 1.9355930311293448
    vertex 1.9046832549653132 0.3957424010979922 1.94419435710493
  endloop
endfacet
facet normal 0.0 -1.0 0.0
  outer loop
    vertex 1.8360641886100588 0.3957424010979922 1.9369539335998294
    vertex 1.9046832549653132 0.3957424010979922 1.94419435710493
    vertex 1.82070207651874 0.3957424010979922 1.9463592403023908
  endloop
endfacet
facet normal 0.0 -1.0 0.0
  outer loop
    vertex 1.82070207651874 0.3957424010979922 1.9463592403023908
    vertex 1.9046832549653132 0.3957424010979922 1.94419435710493
    vertex 1.91774409079572 0.3957424010979922 1.9565987454206293
  endloop
endfacet
facet normal 0.0 -1.0 0.0
  outer loop
    vertex 1.82070207651874 0.3957424010979922 1.9463592403023908
    vertex 1.91774409079572 0.3957424010979922 1.9565987454206293
    vertex 1.8082976882030408 0.3957424010979922 1.9594200761327976
  endloop
endfacet
facet normal 0.0 -1.0 0.0
  outer loop
    vertex 1.8082976882030408 0.3957424010979922 1.9594200761327976
    vertex 1.91774409079572 0.3957424010979922 1.9565987454206293
    vertex 1.9271493974982814 0.3957424010979922 1.9719608575119483
  endloop
endfacet
facet normal 0.0 -1.0 0.0
  outer loop
    vertex 1.8082976882030408 0.3957424010979922 1.9594200761327976
    vertex 1.9271493974982814 0.3957424010979922 1.9719608575119483
    vertex 1.7996963622274555 0.3957424010979922 1.9752463667132594
  endloop
endfacet
facet normal 0.0 -1.0 0.0
  outer loop
    vertex 1.7996963622274555 0.3957424010979922 1.9752463667132594
    vertex 1.9271493974982814 0.3957424010979922 1.9719608575119483
    vertex 1.9322582189642221 0.3957424010979922 1.989233790826954
  endloop
endfacet
facet normal 0.0 -1.0 0.0
  outer loop
    vertex 1.7996963622274555 0.3957424010979922 1.9752463667132594
    vertex 1.9322582189642221 0.3957424010979922 1.989233790826954
    vertex 1.7954842647428566 0.3957424010979922 1.9927595764948993
  endloop
endfacet
facet normal 0.0 -1.0 0.0
  outer loop
    vertex 1.7954842647428566 0.3957424010979922 1.9927595764948993
    vertex 1.9322582189642221 0.3957424010979922 1.989233790826954
    vertex 1.932722397453365 0.3957424010979922 2.0072404235051007
  endloop
endfacet
facet normal 0.0 -1.0 0.0
  outer loop
    vertex 1.7954842647428566 0.3957424010979922 1.9927595764948993
    vertex 1.932722397453365 0.3957424010979922 2.0072404235051007
    vertex 1.7959484432319994 0.3957424010979922 2.0107662091730463
  endloop
endfacet
facet normal 0.0 -1.0 0.0
  outer loop
    vertex 1.7959484432319994 0.3957424010979922 2.0107662091730463
    vertex 1.932722397453365 0.3957424010979922 2.0072404235051007
    vertex 1.928510299968766 0.3957424010979922 2.024753633286741
  endloop
endfacet
facet normal 0.0 -1.0 0.0
  outer loop
    vertex 1.7959484432319994 0.3957424010979922 2.0107662091730463
    vertex 1.928510299968766 0.3957424010979922 2.024753633286741
    vertex 1.8010572646979401 0.3957424010979922 2.0280391424880517
  endloop
endfacet
facet normal 0.0 -1.0 0.0
  outer loop
    vertex 1.8010572646979401 0.3957424010979922 2.0280391424880517
    vertex 1.928510299968766 0.3957424010979922 2.024753633286741
    vertex 1.9199089739931807 0.3957424010979922 2.0405799238672024
  endloop
endfacet
facet normal 0.0 -1.0 0.0
  outer loop
    vertex 1.8010572646979401 0.3957424010979922 2.0280391424880517
    vertex 1.9199089739931807 0.3957424010979922 2.0405799238672024
    vertex 1.8104625714005016 0.3957424010979922 2.0434012545793707
  endloop
endfacet
facet normal 0.0 -1.0 0.0
  outer loop
    vertex 1.8104625714005016 0.3957424010979922 2.0434012545793707
    vertex 1.9199089739931807 0.3957424010979922 2.0405799238672024
    vertex 1.9075045856774815 0.3957424010979922 2.0536407596976094
  endloop
endfacet
facet normal 0.0 -1.0 0.0
  outer loop
    vertex 1.8104625714005016 0.3957424010979922 2.0434012545793707
    vertex 1.9075045856774815 0.3957424010979922 2.0536407596976094
    vertex 1.8235234072309083 0.3957424010979922 2.05580564289507
  endloop
endfacet
facet normal 0.0 -1.0 0.0
  outer loop
    vertex 1.8235234072309083 0.3957424010979922 2.05580564289507
    vertex 1.9075045856774815 0.3957424010979922 2.0536407596976094
    vertex 1.8921424735861627 0.3957424010979922 2.0630460664001706
  endloop
endfacet
facet normal 0.0 -1.0 0.0
  outer loop
    vertex 1.8235234072309083 0.3957424010979922 2.05580564289507
    vertex 1.8921424735861627 0.3957424010979922 2.0630460664001706
    vertex 1.8393496978113701 0.3957424010979922 2.0644069688706552
  endloop
endfacet
facet normal 0.0 -1.0 0.0
  outer loop
    vertex 1.8393496978113701 0.3957424010979922 2.0644069688706552
    vertex 1.8921424735861627 0.3957424010979922 2.0630460664001706
    vertex 1.8748695402711568 0.3957424010979922 2.0681548878661116
  endloop
endfacet
facet normal 0.0 -1.0 0.0
  outer loop
    vertex 1.8393496978113701 0.3957424010979922 2.0644069688706552
    vertex 1.8748695402711568 0.3957424010979922 2.0681548878661116
    vertex 1.8568629075930099 0.3957424010979922 2.068619066355254
  endloop
endfacet
facet normal -0.5881148386551043 0.0 0.8087774332618838
  outer loop
    vertex 1.9046832549653132 -0.6042575989020078 1.94419435710493
    vertex 1.8888569643848514 0.3957424010979922 1.9355930311293448
    vertex 1.8888569643848514 -0.6042575989020078 1.9355930311293448
  endloop
endfacet
facet normal -0.3587483085034824 0.0 0.933434331458775
  outer loop
    vertex 1.8888569643848514 0.3957424010979922 1.9355930311293448
    vertex 1.9046832549653132 -0.6042575989020078 1.94419435710493
    vertex 1.9046832549653132 0.3957424010979922 1.94419435710493
  endloop
endfacet
facet normal -0.7774023144581076 0.0 0.629003689556093
  outer loop
    vertex 1.91774409079572 -0.6042575989020078 1.9565987454206293
    vertex 1.9046832549653132 0.3957424010979922 1.94419435710493
    vertex 1.9046832549653132 -0.6042575989020078 1.94419435710493
  endloop
endfacet
facet normal -0.5881148386551043 0.0 0.8087774332618838
  outer loop
    vertex 1.9046832549653132 0.3957424010979922 1.94419435710493
    vertex 1.91774409079572 -0.6042575989020078 1.9565987454206293
    vertex 1.91774409079572 0.3957424010979922 1.9565987454206293
  endloop
endfacet
facet normal -0.9137111072488511 0.0 0.4063643838848073
  outer loop
    vertex 1.9271493974982814 0.3957424010979922 1.9719608575119483
    vertex 1.91774409079572 -0.6042575989020078 1.9565987454206293
    vertex 1.9271493974982814 -0.6042575989020078 1.9719608575119483
  endloop
endfacet
facet normal -0.7774023144581076 0.0 0.629003689556093
  outer loop
    vertex 1.91774409079572 -0.6042575989020078 1.9565987454206293
    vertex 1.9271493974982814 0.3957424010979922 1.9719608575119483
    vertex 1.91774409079572 0.3957424010979922 1.9565987454206293
  endloop
endfacet
facet normal -0.9877519980595857 0.0 0.1560320170006674
  outer loop
    vertex 1.9322582189642221 0.3957424010979922 1.989233790826954
    vertex 1.9271493974982814 -0.6042575989020078 1.9719608575119483
    vertex 1.9322582189642221 -0.6042575989020078 1.989233790826954
  endloop
endfacet
facet normal -0.9137111072488511 0.0 0.4063643838848073
  outer loop
    vertex 1.9271493974982814 -0.6042575989020078 1.9719608575119483
    vertex 1.9322582189642221 0.3957424010979922 1.989233790826954
    vertex 1.9271493974982814 0.3957424010979922 1.9719608575119483
  endloop
endfacet
facet normal -0.9944792225399166 0.0 -0.10493367398696762
  outer loop
    vertex 1.932722397453365 0.3957424010979922 2.0072404235051007
    vertex 1.9322582189642221 -0.6042575989020078 1.989233790826954
    vertex 1.932722397453365 -0.6042575989020078 2.0072404235051007
  endloop
endfacet
facet normal -0.9877519980595857 0.0 0.1560320170006674
  outer loop
    vertex 1.9322582189642221 -0.6042575989020078 1.989233790826954
    vertex 1.932722397453365 0.3957424010979922 2.0072404235051007
    vertex 1.9322582189642221 0.3957424010979922 1.989233790826954
  endloop
endfacet
facet normal -0.9334343314587746 0.0 -0.3587483085034838
  outer loop
    vertex 1.928510299968766 0.3957424010979922 2.024753633286741
    vertex 1.932722397453365 -0.6042575989020078 2.0072404235051007
    vertex 1.928510299968766 -0.6042575989020078 2.024753633286741
  endloop
endfacet
facet normal -0.9944792225399166 0.0 -0.10493367398696762
  outer loop
    vertex 1.932722397453365 -0.6042575989020078 2.0072404235051007
    vertex 1.928510299968766 0.3957424010979922 2.024753633286741
    vertex 1.932722397453365 0.3957424010979922 2.0072404235051007
  endloop
endfacet
facet normal -0.8087774332618844 0.0 -0.5881148386551032
  outer loop
    vertex 1.9199089739931807 0.3957424010979922 2.0405799238672024
    vertex 1.928510299968766 -0.6042575989020078 2.024753633286741
    vertex 1.9199089739931807 -0.6042575989020078 2.0405799238672024
  endloop
endfacet
facet normal -0.9334343314587746 0.0 -0.3587483085034838
  outer loop
    vertex 1.928510299968766 -0.6042575989020078 2.024753633286741
    vertex 1.9199089739931807 0.3957424010979922 2.0405799238672024
    vertex 1.928510299968766 0.3957424010979922 2.024753633286741
  endloop
endfacet
facet normal -0.6290036895560946 0.0 -0.7774023144581064
  outer loop
    vertex 1.9075045856774815 0.3957424010979922 2.0536407596976094
    vertex 1.9199089739931807 -0.6042575989020078 2.0405799238672024
    vertex 1.9075045856774815 -0.6042575989020078 2.0536407596976094
  endloop
endfacet
facet normal -0.8087774332618844 0.0 -0.5881148386551032
  outer loop
    vertex 1.9199089739931807 -0.6042575989020078 2.0405799238672024
    vertex 1.9075045856774815 0.3957424010979922 2.0536407596976094
    vertex 1.9199089739931807 0.3957424010979922 2.0405799238672024
  endloop
endfacet
facet normal -0.6290036895560946 0.0 -0.7774023144581064
  outer loop
    vertex 1.9075045856774815 0.3957424010979922 2.0536407596976094
    vertex 1.8921424735861627 -0.6042575989020078 2.0630460664001706
    vertex 1.8921424735861627 0.3957424010979922 2.0630460664001706
  endloop
endfacet
facet normal -0.4063643838848092 0.0 -0.9137111072488501
  outer loop
    vertex 1.8921424735861627 -0.6042575989020078 2.0630460664001706
    vertex 1.9075045856774815 0.3957424010979922 2.0536407596976094
    vertex 1.9075045856774815 -0.6042575989020078 2.0536407596976094
  endloop
endfacet
facet normal -0.4063643838848092 0.0 -0.9137111072488501
  outer loop
    vertex 1.8921424735861627 0.3957424010979922 2.0630460664001706
    vertex 1.8748695402711568 -0.6042575989020078 2.0681548878661116
    vertex 1.8748695402711568 0.3957424010979922 2.0681548878661116
  endloop
endfacet
facet normal -0.15603201700066527 0.0 -0.987751998059586
  outer loop
    vertex 1.8748695402711568 -0.6042575989020078 2.0681548878661116
    vertex 1.8921424735861627 0.3957424010979922 2.0630460664001706
    vertex 1.8921424735861627 -0.6042575989020078 2.0630460664001706
  endloop
endfacet
facet normal -0.15603201700066527 0.0 -0.987751998059586
  outer loop
    vertex 1.8748695402711568 0.3957424010979922 2.0681548878661116
    vertex 1.8568629075930099 -0.6042575989020078 2.068619066355254
    vertex 1.8568629075930099 0.3957424010979922 2.068619066355254
  endloop
endfacet
facet normal 0.10493367398697674 0.0 -0.9944792225399156
  outer loop
    vertex 1.8568629075930099 -0.6042575989020078 2.068619066355254
    vertex 1.8748695402711568 0.3957424010979922 2.0681548878661116
    vertex 1.8748695402711568 -0.6042575989020078 2.0681548878661116
  endloop
endfacet
facet normal 0.10493367398697674 0.0 -0.9944792225399156
  outer loop
    vertex 1.8568629075930099 0.3957424010979922 2.068619066355254
    vertex 1.8393496978113701 -0.6042575989020078 2.0644069688706552
    vertex 1.8393496978113701 0.3957424010979922 2.0644069688706552
  endloop
endfacet
facet normal 0.3587483085034836 0.0 -0.9334343314587745
  outer loop
    vertex 1.8393496978113701 -0.6042575989020078 2.0644069688706552
    vertex 1.8568629075930099 0.3957424010979922 2.068619066355254
    vertex 1.8568629075930099 -0.6042575989020078 2.068619066355254
  endloop
endfacet
facet normal 0.3587483085034836 0.0 -0.9334343314587745
  outer loop
    vertex 1.8393496978113701 0.3957424010979922 2.0644069688706552
    vertex 1.8235234072309083 -0.6042575989020078 2.05580564289507
    vertex 1.8235234072309083 0.3957424010979922 2.05580564289507
  endloop
endfacet
facet normal 0.5881148386551043 0.0 -0.8087774332618838
  outer loop
    vertex 1.8235234072309083 -0.6042575989020078 2.05580564289507
    vertex 1.8393496978113701 0.3957424010979922 2.0644069688706552
    vertex 1.8393496978113701 -0.6042575989020078 2.0644069688706552
  endloop
endfacet
facet normal 0.5881148386551043 0.0 -0.8087774332618838
  outer loop
    vertex 1.8235234072309083 0.3957424010979922 2.05580564289507
    vertex 1.8104625714005016 -0.6042575989020078 2.0434012545793707
    vertex 1.8104625714005016 0.3957424010979922 2.0434012545793707
  endloop
endfacet
facet normal 0.7774023144581076 0.0 -0.629003689556093
  outer loop
    vertex 1.8104625714005016 -0.6042575989020078 2.0434012545793707
    vertex 1.8235234072309083 0.3957424010979922 2.05580564289507
    vertex 1.8235234072309083 -0.6042575989020078 2.05580564289507
  endloop
endfacet
facet normal 0.9137111072488502 0.0 -0.4063643838848087
  outer loop
    vertex 1.8010572646979401 0.3957424010979922 2.0280391424880517
    vertex 1.8104625714005016 -0.6042575989020078 2.0434012545793707
    vertex 1.8010572646979401 -0.6042575989020078 2.0280391424880517
  endloop
endfacet
facet normal 0.7774023144581076 0.0 -0.629003689556093
  outer loop
    vertex 1.8104625714005016 -0.6042575989020078 2.0434012545793707
    vertex 1.8010572646979401 0.3957424010979922 2.0280391424880517
    vertex 1.8104625714005016 0.3957424010979922 2.0434012545793707
  endloop
endfacet
facet normal 0.9877519980595854 0.0 -0.15603201700066896
  outer loop
    vertex 1.7959484432319994 0.3957424010979922 2.0107662091730463
    vertex 1.8010572646979401 -0.6042575989020078 2.0280391424880517
    vertex 1.7959484432319994 -0.6042575989020078 2.0107662091730463
  endloop
endfacet
facet normal 0.9137111072488502 0.0 -0.4063643838848087
  outer loop
    vertex 1.8010572646979401 -0.6042575989020078 2.0280391424880517
    vertex 1.7959484432319994 0.3957424010979922 2.0107662091730463
    vertex 1.8010572646979401 0.3957424010979922 2.0280391424880517
  endloop
endfacet
facet normal 0.9944792225399164 0.0 0.1049336739869692
  outer loop
    vertex 1.7954842647428566 0.3957424010979922 1.9927595764948993
    vertex 1.7959484432319994 -0.6042575989020078 2.0107662091730463
    vertex 1.7954842647428566 -0.6042575989020078 1.9927595764948993
  endloop
endfacet
facet normal 0.9877519980595854 0.0 -0.15603201700066896
  outer loop
    vertex 1.7959484432319994 -0.6042575989020078 2.0107662091730463
    vertex 1.7954842647428566 0.3957424010979922 1.9927595764948993
    vertex 1.7959484432319994 0.3957424010979922 2.0107662091730463
  endloop
endfacet
facet normal 0.933434331458775 0.0 0.3587483085034824
  outer loop
    vertex 1.7996963622274555 0.3957424010979922 1.9752463667132594
    vertex 1.7954842647428566 -0.6042575989020078 1.9927595764948993
    vertex 1.7996963622274555 -0.6042575989020078 1.9752463667132594
  endloop
endfacet
facet normal 0.9944792225399164 0.0 0.1049336739869692
  outer loop
    vertex 1.7954842647428566 -0.6042575989020078 1.9927595764948993
    vertex 1.7996963622274555 0.3957424010979922 1.9752463667132594
    vertex 1.7954842647428566 0.3957424010979922 1.9927595764948993
  endloop
endfacet
facet normal 0.8087774332618838 0.0 0.5881148386551043
  outer loop
    vertex 1.8082976882030408 0.3957424010979922 1.9594200761327976
    vertex 1.7996963622274555 -0.6042575989020078 1.9752463667132594
    vertex 1.8082976882030408 -0.6042575989020078 1.9594200761327976
  endloop
endfacet
facet normal 0.933434331458775 0.0 0.3587483085034824
  outer loop
    vertex 1.7996963622274555 -0.6042575989020078 1.9752463667132594
    vertex 1.8082976882030408 0.3957424010979922 1.9594200761327976
    vertex 1.7996963622274555 0.3957424010979922 1.9752463667132594
  endloop
endfacet
facet normal 0.6290036895560954 0.0 0.7774023144581055
  outer loop
    vertex 1.82070207651874 0.3957424010979922 1.9463592403023908
    vertex 1.8082976882030408 -0.6042575989020078 1.9594200761327976
    vertex 1.82070207651874 -0.6042575989020078 1.9463592403023908
  endloop
endfacet
facet normal 0.8087774332618838 0.0 0.5881148386551043
  outer loop
    vertex 1.8082976882030408 -0.6042575989020078 1.9594200761327976
    vertex 1.82070207651874 0.3957424010979922 1.9463592403023908
    vertex 1.8082976882030408 0.3957424010979922 1.9594200761327976
  endloop
endfacet
facet normal 0.40636438388480856 0.0 0.9137111072488503
  outer loop
    vertex 1.8360641886100588 -0.6042575989020078 1.9369539335998294
    vertex 1.82070207651874 0.3957424010979922 1.9463592403023908
    vertex 1.82070207651874 -0.6042575989020078 1.9463592403023908
  endloop
endfacet
facet normal 0.6290036895560954 0.0 0.7774023144581055
  outer loop
    vertex 1.82070207651874 0.3957424010979922 1.9463592403023908
    vertex 1.8360641886100588 -0.6042575989020078 1.9369539335998294
    vertex 1.8360641886100588 0.3957424010979922 1.9369539335998294
  endloop
endfacet
facet normal 0.15603201700066563 0.0 0.9877519980595858
  outer loop
    vertex 1.8533371219250647 -0.6042575989020078 1.9318451121338887
    vertex 1.8360641886100588 0.3957424010979922 1.9369539335998294
    vertex 1.8360641886100588 -0.6042575989020078 1.9369539335998294
  endloop
endfacet
facet normal 0.40636438388480856 0.0 0.9137111072488503
  outer loop
    vertex 1.8360641886100588 0.3957424010979922 1.9369539335998294
    vertex 1.8533371219250647 -0.6042575989020078 1.9318451121338887
    vertex 1.8533371219250647 0.3957424010979922 1.9318451121338887
  endloop
endfacet
facet normal -0.10493367398696904 0.0 0.9944792225399164
  outer loop
    vertex 1.8713437546032115 -0.6042575989020078 1.9313809336447458
    vertex 1.8533371219250647 0.3957424010979922 1.9318451121338887
    vertex 1.8533371219250647 -0.6042575989020078 1.9318451121338887
  endloop
endfacet
facet normal 0.15603201700066563 0.0 0.9877519980595858
  outer loop
    vertex 1.8533371219250647 0.3957424010979922 1.9318451121338887
    vertex 1.8713437546032115 -0.6042575989020078 1.9313809336447458
    vertex 1.8713437546032115 0.3957424010979922 1.9313809336447458
  endloop
endfacet
facet normal -0.3587483085034824 0.0 0.933434331458775
  outer loop
    vertex 1.8888569643848514 -0.6042575989020078 1.9355930311293448
    vertex 1.8713437546032115 0.3957424010979922 1.9313809336447458
    vertex 1.8713437546032115 -0.6042575989020078 1.9313809336447458
  endloop
endfacet
facet normal -0.10493367398696904 0.0 0.9944792225399164
  outer loop
    vertex 1.8713437546032115 0.3957424010979922 1.9313809336447458
    vertex 1.8888569643848514 -0.6042575989020078 1.9355930311293448
    vertex 1.8888569643848514 0.3957424010979922 1.9355930311293448
  endloop
endfacet
facet normal 0.0 -1.0 0.0
  outer loop
    vertex 1.8805501762010726 0.3957424010979922 0.9329887973085158
    vertex 1.8448411154236413 0.3957424010979922 0.9337431735795456
    vertex 1.8626459880522561 0.3957424010979922 0.9310153919251063
  endloop
endfacet
facet normal 0.0 -1.0 0.0
  outer loop
    vertex 1.8448411154236413 0.3957424010979922 0.9337431735795456
    vertex 1.8805501762010726 0.3957424010979922 0.9329887973085158
    vertex 1.8973335390358188 0.3957424010979922 0.9395289054141015
  endloop
endfacet
facet normal 0.0 -1.0 0.0
  outer loop
    vertex 1.8448411154236413 0.3957424010979922 0.9337431735795456
    vertex 1.8973335390358188 0.3957424010979922 0.9395289054141015
    vertex 1.828348930960925 0.3957424010979922 0.9409862484599563
  endloop
endfacet
facet normal 0.0 -1.0 0.0
  outer loop
    vertex 1.828348930960925 0.3957424010979922 0.9409862484599563
    vertex 1.8973335390358188 0.3957424010979922 0.9395289054141015
    vertex 1.9118523181151255 0.3957424010979922 0.9501900186825074
  endloop
endfacet
facet normal 0.0 -1.0 0.0
  outer loop
    vertex 1.828348930960925 0.3957424010979922 0.9409862484599563
    vertex 1.9118523181151255 0.3957424010979922 0.9501900186825074
    vertex 1.8142933497806182 0.3957424010979922 0.9522510129829853
  endloop
endfacet
facet normal 0.0 -1.0 0.0
  outer loop
    vertex 1.8142933497806182 0.3957424010979922 0.9522510129829853
    vertex 1.9118523181151255 0.3957424010979922 0.9501900186825074
    vertex 1.9231170826381545 0.3957424010979922 0.9642455998628143
  endloop
endfacet
facet normal 0.0 -1.0 0.0
  outer loop
    vertex 1.8142933497806182 0.3957424010979922 0.9522510129829853
    vertex 1.9231170826381545 0.3957424010979922 0.9642455998628143
    vertex 1.8036322365122124 0.3957424010979922 0.9667697920622919
  endloop
endfacet
facet normal 0.0 -1.0 0.0
  outer loop
    vertex 1.8036322365122124 0.3957424010979922 0.9667697920622919
    vertex 1.9231170826381545 0.3957424010979922 0.9642455998628143
    vertex 1.9303601575185652 0.3957424010979922 0.9807377843255305
  endloop
endfacet
facet normal 0.0 -1.0 0.0
  outer loop
    vertex 1.8036322365122124 0.3957424010979922 0.9667697920622919
    vertex 1.9303601575185652 0.3957424010979922 0.9807377843255305
    vertex 1.7970921284066266 0.3957424010979922 0.9835531548970382
  endloop
endfacet
facet normal 0.0 -1.0 0.0
  outer loop
    vertex 1.7970921284066266 0.3957424010979922 0.9835531548970382
    vertex 1.9303601575185652 0.3957424010979922 0.9807377843255305
    vertex 1.9330879391730045 0.3957424010979922 0.9985426569541452
  endloop
endfacet
facet normal 0.0 -1.0 0.0
  outer loop
    vertex 1.7970921284066266 0.3957424010979922 0.9835531548970382
    vertex 1.9330879391730045 0.3957424010979922 0.9985426569541452
    vertex 1.795279351843036 0.3957424010979922 1.0
  endloop
endfacet
facet normal 0.0 -1.0 0.0
  outer loop
    vertex 1.795279351843036 0.3957424010979922 1.0
    vertex 1.9330879391730045 0.3957424010979922 0.9985426569541452
    vertex 1.9329273103531854 0.3957424010979922 1.0
  endloop
endfacet
facet normal -0.23836007395596692 0.0 0.9711768506012209
  outer loop
    vertex 1.8805501762010726 -0.6042575989020078 0.9329887973085158
    vertex 1.8626459880522561 0.3957424010979922 0.9310153919251063
    vertex 1.8626459880522561 -0.6042575989020078 0.9310153919251063
  endloop
endfacet
facet normal 0.0211209137080382 0.0 0.999776928621649
  outer loop
    vertex 1.8626459880522561 0.3957424010979922 0.9310153919251063
    vertex 1.8805501762010726 -0.6042575989020078 0.9329887973085158
    vertex 1.8805501762010726 0.3957424010979922 0.9329887973085158
  endloop
endfacet
facet normal -0.4815972164885225 0.0 0.8763926751579496
  outer loop
    vertex 1.8973335390358188 -0.6042575989020078 0.9395289054141015
    vertex 1.8805501762010726 0.3957424010979922 0.9329887973085158
    vertex 1.8805501762010726 -0.6042575989020078 0.9329887973085158
  endloop
endfacet
facet normal -0.23836007395596692 0.0 0.9711768506012209
  outer loop
    vertex 1.8805501762010726 0.3957424010979922 0.9329887973085158
    vertex 1.8973335390358188 -0.6042575989020078 0.9395289054141015
    vertex 1.8973335390358188 0.3957424010979922 0.9395289054141015
  endloop
endfacet
facet normal -0.6920143045944158 0.0 0.7218837872100378
  outer loop
    vertex 1.9118523181151255 -0.6042575989020078 0.9501900186825074
    vertex 1.8973335390358188 0.3957424010979922 0.9395289054141015
    vertex 1.8973335390358188 -0.6042575989020078 0.9395289054141015
  endloop
endfacet
facet normal -0.4815972164885225 0.0 0.8763926751579496
  outer loop
    vertex 1.8973335390358188 0.3957424010979922 0.9395289054141015
    vertex 1.9118523181151255 -0.6042575989020078 0.9501900186825074
    vertex 1.9118523181151255 0.3957424010979922 0.9501900186825074
  endloop
endfacet
facet normal -0.8552717614499092 0.0 0.5181797121331263
  outer loop
    vertex 1.9231170826381545 0.3957424010979922 0.9642455998628143
    vertex 1.9118523181151255 -0.6042575989020078 0.9501900186825074
    vertex 1.9231170826381545 -0.6042575989020078 0.9642455998628143
  endloop
endfacet
facet normal -0.6920143045944158 0.0 0.7218837872100378
  outer loop
    vertex 1.9118523181151255 -0.6042575989020078 0.9501900186825074
    vertex 1.9231170826381545 0.3957424010979922 0.9642455998628143
    vertex 1.9118523181151255 0.3957424010979922 0.9501900186825074
  endloop
endfacet
facet normal -0.9602438611660059 0.0 0.27916254600680346
  outer loop
    vertex 1.9303601575185652 0.3957424010979922 0.9807377843255305
    vertex 1.9231170826381545 -0.6042575989020078 0.9642455998628143
    vertex 1.9303601575185652 -0.6042575989020078 0.9807377843255305
  endloop
endfacet
facet normal -0.8552717614499092 0.0 0.5181797121331263
  outer loop
    vertex 1.9231170826381545 -0.6042575989020078 0.9642455998628143
    vertex 1.9303601575185652 0.3957424010979922 0.9807377843255305
    vertex 1.9231170826381545 0.3957424010979922 0.9642455998628143
  endloop
endfacet
facet normal -0.9997769286216488 1.445446911012701e-17 0.021120913708038345
  outer loop
    vertex 1.9330879391730045 0.3957424010979922 0.9985426569541452
    vertex 1.9303601575185652 -0.6042575989020078 0.9807377843255305
    vertex 1.9330879391730045 -0.6042575989020078 0.9985426569541452
  endloop
endfacet
facet normal -0.9602438611660059 0.0 0.27916254600680346
  outer loop
    vertex 1.9303601575185652 -0.6042575989020078 0.9807377843255305
    vertex 1.9330879391730045 0.3957424010979922 0.9985426569541452
    vertex 1.9303601575185652 0.3957424010979922 0.9807377843255305
  endloop
endfacet
facet normal -0.9711768506012202 1.4454469110127023e-17 -0.23836007395597
  outer loop
    vertex 1.931114533789595 0.3957424010979922 1.0164468451029618
    vertex 1.9330879391730045 -0.6042575989020078 0.9985426569541452
    vertex 1.931114533789595 -0.6042575989020078 1.0164468451029618
  endloop
endfacet
facet normal -0.9997769286216488 1.445446911012701e-17 0.021120913708038345
  outer loop
    vertex 1.9330879391730045 -0.6042575989020078 0.9985426569541452
    vertex 1.931114533789595 0.3957424010979922 1.0164468451029618
    vertex 1.9330879391730045 0.3957424010979922 0.9985426569541452
  endloop
endfacet
facet normal -0.9997769286216488 1.445446911012701e-17 0.021120913708038345
  outer loop
    vertex 1.9330879391730045 0.3957424010979922 0.9985426569541452
    vertex 1.931114533789595 0.3957424010979922 1.0164468451029618
    vertex 1.9329273103531854 0.3957424010979922 1.0
  endloop
endfacet
facet normal -0.8763926751579494 0.0 -0.4815972164885228
  outer loop
    vertex 1.9245744256840092 0.3957424010979922 1.033230207937708
    vertex 1.931114533789595 -0.6042575989020078 1.0164468451029618
    vertex 1.9245744256840092 -0.6042575989020078 1.033230207937708
  endloop
endfacet
facet normal -0.9711768506012202 1.4454469110127023e-17 -0.23836007395597
  outer loop
    vertex 1.931114533789595 -0.6042575989020078 1.0164468451029618
    vertex 1.9245744256840092 0.3957424010979922 1.033230207937708
    vertex 1.931114533789595 0.3957424010979922 1.0164468451029618
  endloop
endfacet
facet normal -0.7218837872100395 0.0 -0.6920143045944139
  outer loop
    vertex 1.9139133124156034 0.3957424010979922 1.0477489870170147
    vertex 1.9245744256840092 -0.6042575989020078 1.033230207937708
    vertex 1.9139133124156034 -0.6042575989020078 1.0477489870170147
  endloop
endfacet
facet normal -0.8763926751579494 0.0 -0.4815972164885228
  outer loop
    vertex 1.9245744256840092 -0.6042575989020078 1.033230207937708
    vertex 1.9139133124156034 0.3957424010979922 1.0477489870170147
    vertex 1.9245744256840092 0.3957424010979922 1.033230207937708
  endloop
endfacet
facet normal -0.7218837872100395 0.0 -0.6920143045944139
  outer loop
    vertex 1.9139133124156034 0.3957424010979922 1.0477489870170147
    vertex 1.8998577312352964 -0.6042575989020078 1.0590137515400437
    vertex 1.8998577312352964 0.3957424010979922 1.0590137515400437
  endloop
endfacet
facet normal -0.5181797121331263 0.0 -0.8552717614499092
  outer loop
    vertex 1.8998577312352964 -0.6042575989020078 1.0590137515400437
    vertex 1.9139133124156034 0.3957424010979922 1.0477489870170147
    vertex 1.9139133124156034 -0.6042575989020078 1.0477489870170147
  endloop
endfacet
facet normal -0.5181797121331263 0.0 -0.8552717614499092
  outer loop
    vertex 1.8998577312352964 0.3957424010979922 1.0590137515400437
    vertex 1.8833655467725803 -0.6042575989020078 1.0662568264204544
    vertex 1.8833655467725803 0.3957424010979922 1.0662568264204544
  endloop
endfacet
facet normal -0.279162546006803 0.0 -0.9602438611660059
  outer loop
    vertex 1.8833655467725803 -0.6042575989020078 1.0662568264204544
    vertex 1.8998577312352964 0.3957424010979922 1.0590137515400437
    vertex 1.8998577312352964 -0.6042575989020078 1.0590137515400437
  endloop
endfacet
facet normal -0.279162546006803 0.0 -0.9602438611660059
  outer loop
    vertex 1.8833655467725803 0.3957424010979922 1.0662568264204544
    vertex 1.8655606741439654 -0.6042575989020078 1.0689846080748937
    vertex 1.8655606741439654 0.3957424010979922 1.0689846080748937
  endloop
endfacet
facet normal -0.0211209137080382 0.0 -0.999776928621649
  outer loop
    vertex 1.8655606741439654 -0.6042575989020078 1.0689846080748937
    vertex 1.8833655467725803 0.3957424010979922 1.0662568264204544
    vertex 1.8833655467725803 -0.6042575989020078 1.0662568264204544
  endloop
endfacet
facet normal -0.0211209137080382 0.0 -0.999776928621649
  outer loop
    vertex 1.8655606741439654 0.3957424010979922 1.0689846080748937
    vertex 1.847656485995149 -0.6042575989020078 1.0670112026914842
    vertex 1.847656485995149 0.3957424010979922 1.0670112026914842
  endloop
endfacet
facet normal 0.2383600739559697 0.0 -0.9711768506012202
  outer loop
    vertex 1.847656485995149 -0.6042575989020078 1.0670112026914842
    vertex 1.8655606741439654 0.3957424010979922 1.0689846080748937
    vertex 1.8655606741439654 -0.6042575989020078 1.0689846080748937
  endloop
endfacet
facet normal 0.2383600739559697 0.0 -0.9711768506012202
  outer loop
    vertex 1.847656485995149 0.3957424010979922 1.0670112026914842
    vertex 1.8308731231604027 -0.6042575989020078 1.0604710945858984
    vertex 1.8308731231604027 0.3957424010979922 1.0604710945858984
  endloop
endfacet
facet normal 0.4815972164885228 0.0 -0.8763926751579494
  outer loop
    vertex 1.8308731231604027 -0.6042575989020078 1.0604710945858984
    vertex 1.847656485995149 0.3957424010979922 1.0670112026914842
    vertex 1.847656485995149 -0.6042575989020078 1.0670112026914842
  endloop
endfacet
facet normal 0.4815972164885228 0.0 -0.8763926751579494
  outer loop
    vertex 1.8308731231604027 0.3957424010979922 1.0604710945858984
    vertex 1.816354344081096 -0.6042575989020078 1.0498099813174926
    vertex 1.816354344081096 0.3957424010979922 1.0498099813174926
  endloop
endfacet
facet normal 0.6920143045944139 0.0 -0.7218837872100395
  outer loop
    vertex 1.816354344081096 -0.6042575989020078 1.0498099813174926
    vertex 1.8308731231604027 0.3957424010979922 1.0604710945858984
    vertex 1.8308731231604027 -0.6042575989020078 1.0604710945858984
  endloop
endfacet
facet normal 0.8552717614499092 0.0 -0.5181797121331263
  outer loop
    vertex 1.805089579558067 0.3957424010979922 1.0357544001371857
    vertex 1.816354344081096 -0.6042575989020078 1.0498099813174926
    vertex 1.805089579558067 -0.6042575989020078 1.0357544001371857
  endloop
endfacet
facet normal 0.6920143045944139 0.0 -0.7218837872100395
  outer loop
    vertex 1.816354344081096 -0.6042575989020078 1.0498099813174926
    vertex 1.805089579558067 0.3957424010979922 1.0357544001371857
    vertex 1.816354344081096 0.3957424010979922 1.0498099813174926
  endloop
endfacet
facet normal 0.9602438611660059 0.0 -0.279162546006803
  outer loop
    vertex 1.7978465046776564 0.3957424010979922 1.0192622156744695
    vertex 1.805089579558067 -0.6042575989020078 1.0357544001371857
    vertex 1.7978465046776564 -0.6042575989020078 1.0192622156744695
  endloop
endfacet
facet normal 0.8552717614499092 0.0 -0.5181797121331263
  outer loop
    vertex 1.805089579558067 -0.6042575989020078 1.0357544001371857
    vertex 1.7978465046776564 0.3957424010979922 1.0192622156744695
    vertex 1.805089579558067 0.3957424010979922 1.0357544001371857
  endloop
endfacet
facet normal 0.999776928621649 1.2724874515752965e-17 -0.0211209137080376
  outer loop
    vertex 1.795118723023217 0.3957424010979922 1.0014573430458547
    vertex 1.7978465046776564 -0.6042575989020078 1.0192622156744695
    vertex 1.795118723023217 -0.6042575989020078 1.0014573430458547
  endloop
endfacet
facet normal 0.9602438611660059 0.0 -0.279162546006803
  outer loop
    vertex 1.7978465046776564 -0.6042575989020078 1.0192622156744695
    vertex 1.795118723023217 0.3957424010979922 1.0014573430458547
    vertex 1.7978465046776564 0.3957424010979922 1.0192622156744695
  endloop
endfacet
facet normal 0.9711768506012204 1.2724874515752973e-17 0.2383600739559692
  outer loop
    vertex 1.7970921284066266 0.3957424010979922 0.9835531548970382
    vertex 1.795118723023217 -0.6042575989020078 1.0014573430458547
    vertex 1.7970921284066266 -0.6042575989020078 0.9835531548970382
  endloop
endfacet
facet normal 0.999776928621649 1.2724874515752965e-17 -0.0211209137080376
  outer loop
    vertex 1.795118723023217 -0.6042575989020078 1.0014573430458547
    vertex 1.7970921284066266 0.3957424010979922 0.9835531548970382
    vertex 1.795118723023217 0.3957424010979922 1.0014573430458547
  endloop
endfacet
facet normal 0.999776928621649 1.2724874515752965e-17 -0.0211209137080376
  outer loop
    vertex 1.795118723023217 0.3957424010979922 1.0014573430458547
    vertex 1.7970921284066266 0.3957424010979922 0.9835531548970382
    vertex 1.795279351843036 0.3957424010979922 1.0
  endloop
endfacet
facet normal 0.876392675157949 0.0 0.4815972164885235
  outer loop
    vertex 1.8036322365122124 0.3957424010979922 0.9667697920622919
    vertex 1.7970921284066266 -0.6042575989020078 0.9835531548970382
    vertex 1.8036322365122124 -0.6042575989020078 0.9667697920622919
  endloop
endfacet
facet normal 0.9711768506012204 1.2724874515752973e-17 0.2383600739559692
  outer loop
    vertex 1.7970921284066266 -0.6042575989020078 0.9835531548970382
    vertex 1.8036322365122124 0.3957424010979922 0.9667697920622919
    vertex 1.7970921284066266 0.3957424010979922 0.9835531548970382
  endloop
endfacet
facet normal 0.7218837872100383 0.0 0.6920143045944153
  outer loop
    vertex 1.8142933497806182 0.3957424010979922 0.9522510129829853
    vertex 1.8036322365122124 -0.6042575989020078 0.9667697920622919
    vertex 1.8142933497806182 -0.6042575989020078 0.9522510129829853
  endloop
endfacet
facet normal 0.876392675157949 0.0 0.4815972164885235
  outer loop
    vertex 1.8036322365122124 -0.6042575989020078 0.9667697920622919
    vertex 1.8142933497806182 0.3957424010979922 0.9522510129829853
    vertex 1.8036322365122124 0.3957424010979922 0.9667697920622919
  endloop
endfacet
facet normal 0.5181797121331263 0.0 0.8552717614499092
  outer loop
    vertex 1.828348930960925 -0.6042575989020078 0.9409862484599563
    vertex 1.8142933497806182 0.3957424010979922 0.9522510129829853
    vertex 1.8142933497806182 -0.6042575989020078 0.9522510129829853
  endloop
endfacet
facet normal 0.7218837872100383 0.0 0.6920143045944153
  outer loop
    vertex 1.8142933497806182 0.3957424010979922 0.9522510129829853
    vertex 1.828348930960925 -0.6042575989020078 0.9409862484599563
    vertex 1.828348930960925 0.3957424010979922 0.9409862484599563
  endloop
endfacet
facet normal 0.279162546006803 0.0 0.9602438611660059
  outer loop
    vertex 1.8448411154236413 -0.6042575989020078 0.9337431735795456
    vertex 1.828348930960925 0.3957424010979922 0.9409862484599563
    vertex 1.828348930960925 -0.6042575989020078 0.9409862484599563
  endloop
endfacet
facet normal 0.5181797121331263 0.0 0.8552717614499092
  outer loop
    vertex 1.828348930960925 0.3957424010979922 0.9409862484599563
    vertex 1.8448411154236413 -0.6042575989020078 0.9337431735795456
    vertex 1.8448411154236413 0.3957424010979922 0.9337431735795456
  endloop
endfacet
facet normal 0.0211209137080382 0.0 0.999776928621649
  outer loop
    vertex 1.8626459880522561 -0.6042575989020078 0.9310153919251063
    vertex 1.8448411154236413 0.3957424010979922 0.9337431735795456
    vertex 1.8448411154236413 -0.6042575989020078 0.9337431735795456
  endloop
endfacet
facet normal 0.279162546006803 0.0 0.9602438611660059
  outer loop
    vertex 1.8448411154236413 0.3957424010979922 0.9337431735795456
    vertex 1.8626459880522561 -0.6042575989020078 0.9310153919251063
    vertex 1.8626459880522561 0.3957424010979922 0.9310153919251063
  endloop
endfacet
facet normal 0.0 0.0 -1.0
  outer loop
    vertex 2.0203533310981108 1.8957424010979922 1.0
    vertex 1.7078533310981108 0.3957424010979922 1.0
    vertex 1.7078533310981108 1.8957424010979922 1.0
  endloop
endfacet
facet normal 0.0 0.0 -1.0
  outer loop
    vertex 1.7078533310981108 0.3957424010979922 1.0
    vertex 2.0203533310981108 1.8957424010979922 1.0
    vertex 1.795279351843036 0.3957424010979922 1.0
  endloop
endfacet
facet normal 0.0 0.0 -1.0
  outer loop
    vertex 1.795279351843036 0.3957424010979922 1.0
    vertex 2.0203533310981108 1.8957424010979922 1.0
    vertex 1.9329273103531854 0.3957424010979922 1.0
  endloop
endfacet
facet normal 0.0 0.0 -1.0
  outer loop
    vertex 1.9329273103531854 0.3957424010979922 1.0
    vertex 2.0203533310981108 1.8957424010979922 1.0
    vertex 2.0203533310981108 0.3957424010979922 1.0
  endloop
endfacet
facet normal -0.0 1.0 -0.0
  outer loop
    vertex 1.7078533310981108 0.3957424010979922 0.890625
    vertex 1.9734783310981108 0.3957424010979922 0.84375
    vertex 1.7547283310981108 0.3957424010979922 0.84375
  endloop
endfacet
facet normal -0.0 1.0 -0.0
  outer loop
    vertex 1.9734783310981108 0.3957424010979922 0.84375
    vertex 1.7078533310981108 0.3957424010979922 0.890625
    vertex 2.0203533310981108 0.3957424010979922 0.890625
  endloop
endfacet
facet normal -0.0 1.0 -0.0
  outer loop
    vertex 2.0203533310981108 0.3957424010979922 0.890625
    vertex 1.7078533310981108 0.3957424010979922 0.890625
    vertex 1.8448411154236413 0.3957424010979922 0.9337431735795456
  endloop
endfacet
facet normal -0.0 1.0 -0.0
  outer loop
    vertex 1.8448411154236413 0.3957424010979922 0.9337431735795456
    vertex 1.7078533310981108 0.3957424010979922 0.890625
    vertex 1.828348930960925 0.3957424010979922 0.9409862484599563
  endloop
endfacet
facet normal -0.0 1.0 -0.0
  outer loop
    vertex 1.828348930960925 0.3957424010979922 0.9409862484599563
    vertex 1.7078533310981108 0.3957424010979922 0.890625
    vertex 1.7078533310981108 0.3957424010979922 1.0
  endloop
endfacet
facet normal -0.0 1.0 -0.0
  outer loop
    vertex 2.0203533310981108 0.3957424010979922 0.890625
    vertex 1.8448411154236413 0.3957424010979922 0.9337431735795456
    vertex 1.8626459880522561 0.3957424010979922 0.9310153919251063
  endloop
endfacet
facet normal -0.0 1.0 -0.0
  outer loop
    vertex 1.828348930960925 0.3957424010979922 0.9409862484599563
    vertex 1.7078533310981108 0.3957424010979922 1.0
    vertex 1.8142933497806182 0.3957424010979922 0.9522510129829853
  endloop
endfacet
facet normal -0.0 1.0 -0.0
  outer loop
    vertex 1.8142933497806182 0.3957424010979922 0.9522510129829853
    vertex 1.7078533310981108 0.3957424010979922 1.0
    vertex 1.8036322365122124 0.3957424010979922 0.9667697920622919
  endloop
endfacet
facet normal -0.0 1.0 -0.0
  outer loop
    vertex 1.8036322365122124 0.3957424010979922 0.9667697920622919
    vertex 1.7078533310981108 0.3957424010979922 1.0
    vertex 1.7970921284066266 0.3957424010979922 0.9835531548970382
  endloop
endfacet
facet normal -0.0 1.0 -0.0
  outer loop
    vertex 1.7970921284066266 0.3957424010979922 0.9835531548970382
    vertex 1.7078533310981108 0.3957424010979922 1.0
    vertex 1.795279351843036 0.3957424010979922 1.0
  endloop
endfacet
facet normal -0.0 1.0 -0.0
  outer loop
    vertex 2.0203533310981108 0.3957424010979922 0.890625
    vertex 1.8973335390358188 0.3957424010979922 0.9395289054141015
    vertex 2.0203533310981108 0.3957424010979922 1.0
  endloop
endfacet
facet normal -0.0 1.0 -0.0
  outer loop
    vertex 1.8973335390358188 0.3957424010979922 0.9395289054141015
    vertex 2.0203533310981108 0.3957424010979922 0.890625
    vertex 1.8805501762010726 0.3957424010979922 0.9329887973085158
  endloop
endfacet
facet normal -0.0 1.0 -0.0
  outer loop
    vertex 1.8805501762010726 0.3957424010979922 0.9329887973085158
    vertex 2.0203533310981108 0.3957424010979922 0.890625
    vertex 1.8626459880522561 0.3957424010979922 0.9310153919251063
  endloop
endfacet
facet normal -0.0 1.0 -0.0
  outer loop
    vertex 2.0203533310981108 0.3957424010979922 1.0
    vertex 1.8973335390358188 0.3957424010979922 0.9395289054141015
    vertex 1.9118523181151255 0.3957424010979922 0.9501900186825074
  endloop
endfacet
facet normal -0.0 1.0 -0.0
  outer loop
    vertex 2.0203533310981108 0.3957424010979922 1.0
    vertex 1.9118523181151255 0.3957424010979922 0.9501900186825074
    vertex 1.9231170826381545 0.3957424010979922 0.9642455998628143
  endloop
endfacet
facet normal -0.0 1.0 -0.0
  outer loop
    vertex 2.0203533310981108 0.3957424010979922 1.0
    vertex 1.9231170826381545 0.3957424010979922 0.9642455998628143
    vertex 1.9303601575185652 0.3957424010979922 0.9807377843255305
  endloop
endfacet
facet normal -0.0 1.0 -0.0
  outer loop
    vertex 2.0203533310981108 0.3957424010979922 1.0
    vertex 1.9303601575185652 0.3957424010979922 0.9807377843255305
    vertex 1.9330879391730045 0.3957424010979922 0.9985426569541452
  endloop
endfacet
facet normal -0.0 1.0 -0.0
  outer loop
    vertex 2.0203533310981108 0.3957424010979922 1.0
    vertex 1.9330879391730045 0.3957424010979922 0.9985426569541452
    vertex 1.9329273103531854 0.3957424010979922 1.0
  endloop
endfacet
facet normal 0.0 -1.0 0.0
  outer loop
    vertex 1.931114533789595 0.3957424010979922 1.0164468451029618
    vertex 1.795279351843036 0.3957424010979922 1.0
    vertex 1.9329273103531854 0.3957424010979922 1.0
  endloop
endfacet
facet normal 0.0 -1.0 0.0
  outer loop
    vertex 1.795279351843036 0.3957424010979922 1.0
    vertex 1.931114533789595 0.3957424010979922 1.0164468451029618
    vertex 1.795118723023217 0.3957424010979922 1.0014573430458547
  endloop
endfacet
facet normal 0.0 -1.0 0.0
  outer loop
    vertex 1.795118723023217 0.3957424010979922 1.0014573430458547
    vertex 1.931114533789595 0.3957424010979922 1.0164468451029618
    vertex 1.7978465046776564 0.3957424010979922 1.0192622156744695
  endloop
endfacet
facet normal 0.0 -1.0 0.0
  outer loop
    vertex 1.7978465046776564 0.3957424010979922 1.0192622156744695
    vertex 1.931114533789595 0.3957424010979922 1.0164468451029618
    vertex 1.9245744256840092 0.3957424010979922 1.033230207937708
  endloop
endfacet
facet normal 0.0 -1.0 0.0
  outer loop
    vertex 1.7978465046776564 0.3957424010979922 1.0192622156744695
    vertex 1.9245744256840092 0.3957424010979922 1.033230207937708
    vertex 1.805089579558067 0.3957424010979922 1.0357544001371857
  endloop
endfacet
facet normal 0.0 -1.0 0.0
  outer loop
    vertex 1.805089579558067 0.3957424010979922 1.0357544001371857
    vertex 1.9245744256840092 0.3957424010979922 1.033230207937708
    vertex 1.9139133124156034 0.3957424010979922 1.0477489870170147
  endloop
endfacet
facet normal 0.0 -1.0 0.0
  outer loop
    vertex 1.805089579558067 0.3957424010979922 1.0357544001371857
    vertex 1.9139133124156034 0.3957424010979922 1.0477489870170147
    vertex 1.816354344081096 0.3957424010979922 1.0498099813174926
  endloop
endfacet
facet normal 0.0 -1.0 0.0
  outer loop
    vertex 1.816354344081096 0.3957424010979922 1.0498099813174926
    vertex 1.9139133124156034 0.3957424010979922 1.0477489870170147
    vertex 1.8998577312352964 0.3957424010979922 1.0590137515400437
  endloop
endfacet
facet normal 0.0 -1.0 0.0
  outer loop
    vertex 1.816354344081096 0.3957424010979922 1.0498099813174926
    vertex 1.8998577312352964 0.3957424010979922 1.0590137515400437
    vertex 1.8308731231604027 0.3957424010979922 1.0604710945858984
  endloop
endfacet
facet normal 0.0 -1.0 0.0
  outer loop
    vertex 1.8308731231604027 0.3957424010979922 1.0604710945858984
    vertex 1.8998577312352964 0.3957424010979922 1.0590137515400437
    vertex 1.8833655467725803 0.3957424010979922 1.0662568264204544
  endloop
endfacet
facet normal 0.0 -1.0 0.0
  outer loop
    vertex 1.8308731231604027 0.3957424010979922 1.0604710945858984
    vertex 1.8833655467725803 0.3957424010979922 1.0662568264204544
    vertex 1.847656485995149 0.3957424010979922 1.0670112026914842
  endloop
endfacet
facet normal 0.0 -1.0 0.0
  outer loop
    vertex 1.847656485995149 0.3957424010979922 1.0670112026914842
    vertex 1.8833655467725803 0.3957424010979922 1.0662568264204544
    vertex 1.8655606741439654 0.3957424010979922 1.0689846080748937
  endloop
endfacet
facet normal 1.0 0.0 0.0
  outer loop
    vertex 2.0203533310981108 0.3957424010979922 1.0
    vertex 2.0203533310981108 1.459397020128799 1.7380419803585827
    vertex 2.0203533310981108 1.4583923500713973 1.7543267929209803
  endloop
endfacet
facet normal 1.0 0.0 0.0
  outer loop
    vertex 2.0203533310981108 1.459397020128799 1.7380419803585827
    vertex 2.0203533310981108 0.3957424010979922 1.0
    vertex 2.0203533310981108 1.464582276521215 1.7225720870731862
  endloop
endfacet
facet normal 1.0 0.0 0.0
  outer loop
    vertex 2.0203533310981108 1.464582276521215 1.7225720870731862
    vertex 2.0203533310981108 0.3957424010979922 1.0
    vertex 2.0203533310981108 1.8957424010979922 1.0
  endloop
endfacet
facet normal 1.0 0.0 0.0
  outer loop
    vertex 2.0203533310981108 1.464582276521215 1.7225720870731862
    vertex 2.0203533310981108 1.8957424010979922 1.0
    vertex 2.0203533310981108 1.4735947525945445 1.7089713607269825
  endloop
endfacet
facet normal 1.0 0.0 0.0
  outer loop
    vertex 2.0203533310981108 1.4735947525945445 1.7089713607269825
    vertex 2.0203533310981108 1.8957424010979922 1.0
    vertex 2.0203533310981108 1.485820262998211 1.6981666683442032
  endloop
endfacet
facet normal 1.0 0.0 0.0
  outer loop
    vertex 2.0203533310981108 1.485820262998211 1.6981666683442032
    vertex 2.0203533310981108 1.8957424010979922 1.0
    vertex 2.0203533310981108 1.5004256594018155 1.6908943318551353
  endloop
endfacet
facet normal 1.0 0.0 0.0
  outer loop
    vertex 2.0203533310981108 1.5004256594018155 1.6908943318551353
    vertex 2.0203533310981108 1.8957424010979922 1.0
    vertex 2.0203533310981108 1.516415608177012 1.6876499489734051
  endloop
endfacet
facet normal 1.0 0.0 0.0
  outer loop
    vertex 2.0203533310981108 1.516415608177012 1.6876499489734051
    vertex 2.0203533310981108 1.8957424010979922 1.0
    vertex 2.0203533310981108 1.532700420739409 1.6886546190308063
  endloop
endfacet
facet normal 1.0 0.0 0.0
  outer loop
    vertex 2.0203533310981108 1.532700420739409 1.6886546190308063
    vertex 2.0203533310981108 1.8957424010979922 1.0
    vertex 2.0203533310981108 1.5481703140248058 1.6938398754232227
  endloop
endfacet
facet normal 1.0 0.0 0.0
  outer loop
    vertex 2.0203533310981108 1.5481703140248058 1.6938398754232227
    vertex 2.0203533310981108 1.8957424010979922 1.0
    vertex 2.0203533310981108 1.5617710403710097 1.7028523514965521
  endloop
endfacet
facet normal 1.0 0.0 0.0
  outer loop
    vertex 2.0203533310981108 1.5617710403710097 1.7028523514965521
    vertex 2.0203533310981108 1.8957424010979922 1.0
    vertex 2.0203533310981108 1.5725757327537886 1.7150778619002187
  endloop
endfacet
facet normal 1.0 0.0 0.0
  outer loop
    vertex 2.0203533310981108 1.5725757327537886 1.7150778619002187
    vertex 2.0203533310981108 1.8957424010979922 1.0
    vertex 2.0203533310981108 1.5798480692428567 1.7296832583038233
  endloop
endfacet
facet normal 1.0 0.0 0.0
  outer loop
    vertex 2.0203533310981108 1.5798480692428567 1.7296832583038233
    vertex 2.0203533310981108 1.8957424010979922 1.0
    vertex 2.0203533310981108 1.583092452124587 1.7456732070790193
  endloop
endfacet
facet normal 1.0 0.0 0.0
  outer loop
    vertex 2.0203533310981108 0.3957424010979922 0.890625
    vertex 2.0203533310981108 -0.6042575989020078 2.109375
    vertex 2.0203533310981108 -0.6042575989020078 0.890625
  endloop
endfacet
facet normal 1.0 0.0 0.0
  outer loop
    vertex 2.0203533310981108 -0.6042575989020078 2.109375
    vertex 2.0203533310981108 0.3957424010979922 0.890625
    vertex 2.0203533310981108 0.3957424010979922 1.0
  endloop
endfacet
facet normal 1.0 0.0 0.0
  outer loop
    vertex 2.0203533310981108 -0.6042575989020078 2.109375
    vertex 2.0203533310981108 0.3957424010979922 1.0
    vertex 2.0203533310981108 1.8957424010979922 2.109375
  endloop
endfacet
facet normal 1.0 0.0 0.0
  outer loop
    vertex 2.0203533310981108 1.8957424010979922 2.109375
    vertex 2.0203533310981108 0.3957424010979922 1.0
    vertex 2.0203533310981108 1.4797137618249747 1.7971476485034474
  endloop
endfacet
facet normal 1.0 0.0 0.0
  outer loop
    vertex 2.0203533310981108 1.4797137618249747 1.7971476485034474
    vertex 2.0203533310981108 0.3957424010979922 1.0
    vertex 2.0203533310981108 1.4689090694421958 1.7849221380997808
  endloop
endfacet
facet normal 1.0 0.0 0.0
  outer loop
    vertex 2.0203533310981108 1.4689090694421958 1.7849221380997808
    vertex 2.0203533310981108 0.3957424010979922 1.0
    vertex 2.0203533310981108 1.4616367329531277 1.770316741696176
  endloop
endfacet
facet normal 1.0 0.0 0.0
  outer loop
    vertex 2.0203533310981108 1.4616367329531277 1.770316741696176
    vertex 2.0203533310981108 0.3957424010979922 1.0
    vertex 2.0203533310981108 1.4583923500713973 1.7543267929209803
  endloop
endfacet
facet normal 1.0 0.0 0.0
  outer loop
    vertex 2.0203533310981108 1.8957424010979922 2.109375
    vertex 2.0203533310981108 1.4797137618249747 1.7971476485034474
    vertex 2.0203533310981108 1.4933144881711786 1.8061601245767769
  endloop
endfacet
facet normal 1.0 0.0 0.0
  outer loop
    vertex 2.0203533310981108 1.8957424010979922 2.109375
    vertex 2.0203533310981108 1.4933144881711786 1.8061601245767769
    vertex 2.0203533310981108 1.5087843814565753 1.8113453809691933
  endloop
endfacet
facet normal 1.0 0.0 0.0
  outer loop
    vertex 2.0203533310981108 1.8957424010979922 2.109375
    vertex 2.0203533310981108 1.5087843814565753 1.8113453809691933
    vertex 2.0203533310981108 1.5250691940189725 1.8123500510265944
  endloop
endfacet
facet normal 1.0 0.0 0.0
  outer loop
    vertex 2.0203533310981108 1.8957424010979922 2.109375
    vertex 2.0203533310981108 1.5250691940189725 1.8123500510265944
    vertex 2.0203533310981108 1.541059142794169 1.8091056681448643
  endloop
endfacet
facet normal 1.0 0.0 0.0
  outer loop
    vertex 2.0203533310981108 1.8957424010979922 2.109375
    vertex 2.0203533310981108 1.541059142794169 1.8091056681448643
    vertex 2.0203533310981108 1.5556645391977735 1.8018333316557964
  endloop
endfacet
facet normal 1.0 0.0 0.0
  outer loop
    vertex 2.0203533310981108 1.8957424010979922 2.109375
    vertex 2.0203533310981108 1.5556645391977735 1.8018333316557964
    vertex 2.0203533310981108 1.5678900496014399 1.791028639273017
  endloop
endfacet
facet normal 1.0 0.0 0.0
  outer loop
    vertex 2.0203533310981108 1.8957424010979922 2.109375
    vertex 2.0203533310981108 1.5678900496014399 1.791028639273017
    vertex 2.0203533310981108 1.5769025256747693 1.7774279129268133
  endloop
endfacet
facet normal 1.0 0.0 0.0
  outer loop
    vertex 2.0203533310981108 1.8957424010979922 2.109375
    vertex 2.0203533310981108 1.5769025256747693 1.7774279129268133
    vertex 2.0203533310981108 1.5820877820671855 1.7619580196414166
  endloop
endfacet
facet normal 1.0 0.0 0.0
  outer loop
    vertex 2.0203533310981108 1.8957424010979922 2.109375
    vertex 2.0203533310981108 1.5820877820671855 1.7619580196414166
    vertex 2.0203533310981108 1.583092452124587 1.7456732070790193
  endloop
endfacet
facet normal 1.0 0.0 0.0
  outer loop
    vertex 2.0203533310981108 1.8957424010979922 2.109375
    vertex 2.0203533310981108 1.583092452124587 1.7456732070790193
    vertex 2.0203533310981108 1.8957424010979922 1.0
  endloop
endfacet
facet normal -0.7071067811865476 0.0 0.7071067811865476
  outer loop
    vertex 1.7547283310981108 1.8957424010979922 2.15625
    vertex 1.7078533310981108 -0.6042575989020078 2.109375
    vertex 1.7547283310981108 -0.6042575989020078 2.15625
  endloop
endfacet
facet normal -0.7071067811865476 0.0 0.7071067811865476
  outer loop
    vertex 1.7078533310981108 -0.6042575989020078 2.109375
    vertex 1.7547283310981108 1.8957424010979922 2.15625
    vertex 1.7078533310981108 1.8957424010979922 2.109375
  endloop
endfacet
facet normal 0.7071067811865476 -0.0 0.7071067811865476
  outer loop
    vertex 2.0203533310981108 1.8957424010979922 2.109375
    vertex 1.9734783310981108 -0.6042575989020078 2.15625
    vertex 2.0203533310981108 -0.6042575989020078 2.109375
  endloop
endfacet
facet normal 0.7071067811865476 -0.0 0.7071067811865476
  outer loop
    vertex 1.9734783310981108 -0.6042575989020078 2.15625
    vertex 2.0203533310981108 1.8957424010979922 2.109375
    vertex 1.9734783310981108 1.8957424010979922 2.15625
  endloop
endfacet
facet normal 0.0 -1.0 0.0
  outer loop
    vertex 2.0203533310981108 -0.6042575989020078 0.890625
    vertex 1.7547283310981108 -0.6042575989020078 0.84375
    vertex 1.9734783310981108 -0.6042575989020078 0.84375
  endloop
endfacet
facet normal 0.0 -1.0 0.0
  outer loop
    vertex 1.7547283310981108 -0.6042575989020078 0.84375
    vertex 2.0203533310981108 -0.6042575989020078 0.890625
    vertex 1.7078533310981108 -0.6042575989020078 0.890625
  endloop
endfacet
facet normal 0.0 -1.0 0.0
  outer loop
    vertex 1.7078533310981108 -0.6042575989020078 0.890625
    vertex 2.0203533310981108 -0.6042575989020078 0.890625
    vertex 1.8805501762010726 -0.6042575989020078 0.9329887973085158
  endloop
endfacet
facet normal 0.0 -1.0 0.0
  outer loop
    vertex 1.8805501762010726 -0.6042575989020078 0.9329887973085158
    vertex 2.0203533310981108 -0.6042575989020078 0.890625
    vertex 1.8973335390358188 -0.6042575989020078 0.9395289054141015
  endloop
endfacet
facet normal 0.0 -1.0 0.0
  outer loop
    vertex 1.8973335390358188 -0.6042575989020078 0.9395289054141015
    vertex 2.0203533310981108 -0.6042575989020078 0.890625
    vertex 1.9118523181151255 -0.6042575989020078 0.9501900186825074
  endloop
endfacet
facet normal 0.0 -1.0 0.0
  outer loop
    vertex 1.9118523181151255 -0.6042575989020078 0.9501900186825074
    vertex 2.0203533310981108 -0.6042575989020078 0.890625
    vertex 1.9231170826381545 -0.6042575989020078 0.9642455998628143
  endloop
endfacet
facet normal 0.0 -1.0 0.0
  outer loop
    vertex 1.9231170826381545 -0.6042575989020078 0.9642455998628143
    vertex 2.0203533310981108 -0.6042575989020078 0.890625
    vertex 1.9303601575185652 -0.6042575989020078 0.9807377843255305
  endloop
endfacet
facet normal 0.0 -1.0 0.0
  outer loop
    vertex 1.9303601575185652 -0.6042575989020078 0.9807377843255305
    vertex 2.0203533310981108 -0.6042575989020078 0.890625
    vertex 1.9330879391730045 -0.6042575989020078 0.9985426569541452
  endloop
endfacet
facet normal 0.0 -1.0 0.0
  outer loop
    vertex 1.9330879391730045 -0.6042575989020078 0.9985426569541452
    vertex 2.0203533310981108 -0.6042575989020078 0.890625
    vertex 2.0203533310981108 -0.6042575989020078 2.109375
  endloop
endfacet
facet normal 0.0 -1.0 0.0
  outer loop
    vertex 1.7078533310981108 -0.6042575989020078 0.890625
    vertex 1.8805501762010726 -0.6042575989020078 0.9329887973085158
    vertex 1.8626459880522561 -0.6042575989020078 0.9310153919251063
  endloop
endfacet
facet normal 0.0 -1.0 0.0
  outer loop
    vertex 1.9330879391730045 -0.6042575989020078 0.9985426569541452
    vertex 2.0203533310981108 -0.6042575989020078 2.109375
    vertex 1.931114533789595 -0.6042575989020078 1.0164468451029618
  endloop
endfacet
facet normal 0.0 -1.0 0.0
  outer loop
    vertex 1.931114533789595 -0.6042575989020078 1.0164468451029618
    vertex 2.0203533310981108 -0.6042575989020078 2.109375
    vertex 1.9245744256840092 -0.6042575989020078 1.033230207937708
  endloop
endfacet
facet normal 0.0 -1.0 0.0
  outer loop
    vertex 1.9245744256840092 -0.6042575989020078 1.033230207937708
    vertex 2.0203533310981108 -0.6042575989020078 2.109375
    vertex 1.9139133124156034 -0.6042575989020078 1.0477489870170147
  endloop
endfacet
facet normal 0.0 -1.0 0.0
  outer loop
    vertex 1.9139133124156034 -0.6042575989020078 1.0477489870170147
    vertex 2.0203533310981108 -0.6042575989020078 2.109375
    vertex 1.8998577312352964 -0.6042575989020078 1.0590137515400437
  endloop
endfacet
facet normal 0.0 -1.0 0.0
  outer loop
    vertex 1.8998577312352964 -0.6042575989020078 1.0590137515400437
    vertex 2.0203533310981108 -0.6042575989020078 2.109375
    vertex 1.8833655467725803 -0.6042575989020078 1.0662568264204544
  endloop
endfacet
facet normal 0.0 -1.0 0.0
  outer loop
    vertex 1.8833655467725803 -0.6042575989020078 1.0662568264204544
    vertex 2.0203533310981108 -0.6042575989020078 2.109375
    vertex 1.8655606741439654 -0.6042575989020078 1.0689846080748937
  endloop
endfacet
facet normal 0.0 -1.0 0.0
  outer loop
    vertex 1.8655606741439654 -0.6042575989020078 1.0689846080748937
    vertex 2.0203533310981108 -0.6042575989020078 2.109375
    vertex 1.91774409079572 -0.6042575989020078 1.9565987454206293
  endloop
endfacet
facet normal 0.0 -1.0 0.0
  outer loop
    vertex 1.8655606741439654 -0.6042575989020078 1.0689846080748937
    vertex 1.91774409079572 -0.6042575989020078 1.9565987454206293
    vertex 1.9046832549653132 -0.6042575989020078 1.94419435710493
  endloop
endfacet
facet normal 0.0 -1.0 0.0
  outer loop
    vertex 1.8655606741439654 -0.6042575989020078 1.0689846080748937
    vertex 1.9046832549653132 -0.6042575989020078 1.94419435710493
    vertex 1.8888569643848514 -0.6042575989020078 1.9355930311293448
  endloop
endfacet
facet normal 0.0 -1.0 0.0
  outer loop
    vertex 1.8655606741439654 -0.6042575989020078 1.0689846080748937
    vertex 1.8888569643848514 -0.6042575989020078 1.9355930311293448
    vertex 1.8713437546032115 -0.6042575989020078 1.9313809336447458
  endloop
endfacet
facet normal 0.0 -1.0 0.0
  outer loop
    vertex 1.91774409079572 -0.6042575989020078 1.9565987454206293
    vertex 2.0203533310981108 -0.6042575989020078 2.109375
    vertex 1.9271493974982814 -0.6042575989020078 1.9719608575119483
  endloop
endfacet
facet normal 0.0 -1.0 0.0
  outer loop
    vertex 1.9271493974982814 -0.6042575989020078 1.9719608575119483
    vertex 2.0203533310981108 -0.6042575989020078 2.109375
    vertex 1.9322582189642221 -0.6042575989020078 1.989233790826954
  endloop
endfacet
facet normal 0.0 -1.0 0.0
  outer loop
    vertex 1.9322582189642221 -0.6042575989020078 1.989233790826954
    vertex 2.0203533310981108 -0.6042575989020078 2.109375
    vertex 1.932722397453365 -0.6042575989020078 2.0072404235051007
  endloop
endfacet
facet normal 0.0 -1.0 0.0
  outer loop
    vertex 1.932722397453365 -0.6042575989020078 2.0072404235051007
    vertex 2.0203533310981108 -0.6042575989020078 2.109375
    vertex 1.928510299968766 -0.6042575989020078 2.024753633286741
  endloop
endfacet
facet normal 0.0 -1.0 0.0
  outer loop
    vertex 1.928510299968766 -0.6042575989020078 2.024753633286741
    vertex 2.0203533310981108 -0.6042575989020078 2.109375
    vertex 1.9199089739931807 -0.6042575989020078 2.0405799238672024
  endloop
endfacet
facet normal 0.0 -1.0 0.0
  outer loop
    vertex 1.9199089739931807 -0.6042575989020078 2.0405799238672024
    vertex 2.0203533310981108 -0.6042575989020078 2.109375
    vertex 1.9075045856774815 -0.6042575989020078 2.0536407596976094
  endloop
endfacet
facet normal 0.0 -1.0 0.0
  outer loop
    vertex 1.9075045856774815 -0.6042575989020078 2.0536407596976094
    vertex 2.0203533310981108 -0.6042575989020078 2.109375
    vertex 1.8921424735861627 -0.6042575989020078 2.0630460664001706
  endloop
endfacet
facet normal 0.0 -1.0 0.0
  outer loop
    vertex 1.8921424735861627 -0.6042575989020078 2.0630460664001706
    vertex 2.0203533310981108 -0.6042575989020078 2.109375
    vertex 1.8748695402711568 -0.6042575989020078 2.0681548878661116
  endloop
endfacet
facet normal 0.0 -1.0 0.0
  outer loop
    vertex 1.8748695402711568 -0.6042575989020078 2.0681548878661116
    vertex 2.0203533310981108 -0.6042575989020078 2.109375
    vertex 1.8568629075930099 -0.6042575989020078 2.068619066355254
  endloop
endfacet
facet normal 0.0 -1.0 0.0
  outer loop
    vertex 1.7078533310981108 -0.6042575989020078 0.890625
    vertex 1.795118723023217 -0.6042575989020078 1.0014573430458547
    vertex 1.7078533310981108 -0.6042575989020078 2.109375
  endloop
endfacet
facet normal 0.0 -1.0 0.0
  outer loop
    vertex 1.795118723023217 -0.6042575989020078 1.0014573430458547
    vertex 1.7078533310981108 -0.6042575989020078 0.890625
    vertex 1.7970921284066266 -0.6042575989020078 0.9835531548970382
  endloop
endfacet
facet normal 0.0 -1.0 0.0
  outer loop
    vertex 1.7970921284066266 -0.6042575989020078 0.9835531548970382
    vertex 1.7078533310981108 -0.6042575989020078 0.890625
    vertex 1.8036322365122124 -0.6042575989020078 0.9667697920622919
  endloop
endfacet
facet normal 0.0 -1.0 0.0
  outer loop
    vertex 1.8036322365122124 -0.6042575989020078 0.9667697920622919
    vertex 1.7078533310981108 -0.6042575989020078 0.890625
    vertex 1.8142933497806182 -0.6042575989020078 0.9522510129829853
  endloop
endfacet
facet normal 0.0 -1.0 0.0
  outer loop
    vertex 1.8142933497806182 -0.6042575989020078 0.9522510129829853
    vertex 1.7078533310981108 -0.6042575989020078 0.890625
    vertex 1.828348930960925 -0.6042575989020078 0.9409862484599563
  endloop
endfacet
facet normal 0.0 -1.0 0.0
  outer loop
    vertex 1.828348930960925 -0.6042575989020078 0.9409862484599563
    vertex 1.7078533310981108 -0.6042575989020078 0.890625
    vertex 1.8448411154236413 -0.6042575989020078 0.9337431735795456
  endloop
endfacet
facet normal 0.0 -1.0 0.0
  outer loop
    vertex 1.8448411154236413 -0.6042575989020078 0.9337431735795456
    vertex 1.7078533310981108 -0.6042575989020078 0.890625
    vertex 1.8626459880522561 -0.6042575989020078 0.9310153919251063
  endloop
endfacet
facet normal 0.0 -1.0 0.0
  outer loop
    vertex 1.7078533310981108 -0.6042575989020078 2.109375
    vertex 1.795118723023217 -0.6042575989020078 1.0014573430458547
    vertex 1.7978465046776564 -0.6042575989020078 1.0192622156744695
  endloop
endfacet
facet normal 0.0 -1.0 0.0
  outer loop
    vertex 1.7078533310981108 -0.6042575989020078 2.109375
    vertex 1.7978465046776564 -0.6042575989020078 1.0192622156744695
    vertex 1.805089579558067 -0.6042575989020078 1.0357544001371857
  endloop
endfacet
facet normal 0.0 -1.0 0.0
  outer loop
    vertex 1.7078533310981108 -0.6042575989020078 2.109375
    vertex 1.805089579558067 -0.6042575989020078 1.0357544001371857
    vertex 1.816354344081096 -0.6042575989020078 1.0498099813174926
  endloop
endfacet
facet normal 0.0 -1.0 0.0
  outer loop
    vertex 1.7078533310981108 -0.6042575989020078 2.109375
    vertex 1.816354344081096 -0.6042575989020078 1.0498099813174926
    vertex 1.8308731231604027 -0.6042575989020078 1.0604710945858984
  endloop
endfacet
facet normal 0.0 -1.0 0.0
  outer loop
    vertex 1.7078533310981108 -0.6042575989020078 2.109375
    vertex 1.8308731231604027 -0.6042575989020078 1.0604710945858984
    vertex 1.847656485995149 -0.6042575989020078 1.0670112026914842
  endloop
endfacet
facet normal 0.0 -1.0 0.0
  outer loop
    vertex 1.7078533310981108 -0.6042575989020078 2.109375
    vertex 1.847656485995149 -0.6042575989020078 1.0670112026914842
    vertex 1.8655606741439654 -0.6042575989020078 1.0689846080748937
  endloop
endfacet
facet normal 0.0 -1.0 0.0
  outer loop
    vertex 1.7078533310981108 -0.6042575989020078 2.109375
    vertex 1.8655606741439654 -0.6042575989020078 1.0689846080748937
    vertex 1.8082976882030408 -0.6042575989020078 1.9594200761327976
  endloop
endfacet
facet normal 0.0 -1.0 0.0
  outer loop
    vertex 1.8082976882030408 -0.6042575989020078 1.9594200761327976
    vertex 1.8655606741439654 -0.6042575989020078 1.0689846080748937
    vertex 1.82070207651874 -0.6042575989020078 1.9463592403023908
  endloop
endfacet
facet normal 0.0 -1.0 0.0
  outer loop
    vertex 1.82070207651874 -0.6042575989020078 1.9463592403023908
    vertex 1.8655606741439654 -0.6042575989020078 1.0689846080748937
    vertex 1.8360641886100588 -0.6042575989020078 1.9369539335998294
  endloop
endfacet
facet normal 0.0 -1.0 0.0
  outer loop
    vertex 1.8360641886100588 -0.6042575989020078 1.9369539335998294
    vertex 1.8655606741439654 -0.6042575989020078 1.0689846080748937
    vertex 1.8533371219250647 -0.6042575989020078 1.9318451121338887
  endloop
endfacet
facet normal 0.0 -1.0 0.0
  outer loop
    vertex 1.8533371219250647 -0.6042575989020078 1.9318451121338887
    vertex 1.8655606741439654 -0.6042575989020078 1.0689846080748937
    vertex 1.8713437546032115 -0.6042575989020078 1.9313809336447458
  endloop
endfacet
facet normal 0.0 -1.0 0.0
  outer loop
    vertex 1.7078533310981108 -0.6042575989020078 2.109375
    vertex 1.8082976882030408 -0.6042575989020078 1.9594200761327976
    vertex 1.7996963622274555 -0.6042575989020078 1.9752463667132594
  endloop
endfacet
facet normal 0.0 -1.0 0.0
  outer loop
    vertex 1.7078533310981108 -0.6042575989020078 2.109375
    vertex 1.7996963622274555 -0.6042575989020078 1.9752463667132594
    vertex 1.7954842647428566 -0.6042575989020078 1.9927595764948993
  endloop
endfacet
facet normal 0.0 -1.0 0.0
  outer loop
    vertex 1.7078533310981108 -0.6042575989020078 2.109375
    vertex 1.7954842647428566 -0.6042575989020078 1.9927595764948993
    vertex 1.7959484432319994 -0.6042575989020078 2.0107662091730463
  endloop
endfacet
facet normal 0.0 -1.0 0.0
  outer loop
    vertex 1.7078533310981108 -0.6042575989020078 2.109375
    vertex 1.7959484432319994 -0.6042575989020078 2.0107662091730463
    vertex 1.8010572646979401 -0.6042575989020078 2.0280391424880517
  endloop
endfacet
facet normal 0.0 -1.0 0.0
  outer loop
    vertex 1.7078533310981108 -0.6042575989020078 2.109375
    vertex 1.8010572646979401 -0.6042575989020078 2.0280391424880517
    vertex 1.8104625714005016 -0.6042575989020078 2.0434012545793707
  endloop
endfacet
facet normal 0.0 -1.0 0.0
  outer loop
    vertex 1.7078533310981108 -0.6042575989020078 2.109375
    vertex 1.8104625714005016 -0.6042575989020078 2.0434012545793707
    vertex 1.8235234072309083 -0.6042575989020078 2.05580564289507
  endloop
endfacet
facet normal 0.0 -1.0 0.0
  outer loop
    vertex 1.7078533310981108 -0.6042575989020078 2.109375
    vertex 1.8235234072309083 -0.6042575989020078 2.05580564289507
    vertex 1.8393496978113701 -0.6042575989020078 2.0644069688706552
  endloop
endfacet
facet normal 0.0 -1.0 0.0
  outer loop
    vertex 1.7078533310981108 -0.6042575989020078 2.109375
    vertex 1.8393496978113701 -0.6042575989020078 2.0644069688706552
    vertex 1.8568629075930099 -0.6042575989020078 2.068619066355254
  endloop
endfacet
facet normal 0.0 -1.0 0.0
  outer loop
    vertex 1.7078533310981108 -0.6042575989020078 2.109375
    vertex 1.8568629075930099 -0.6042575989020078 2.068619066355254
    vertex 2.0203533310981108 -0.6042575989020078 2.109375
  endloop
endfacet
facet normal 0.0 -1.0 0.0
  outer loop
    vertex 1.7078533310981108 -0.6042575989020078 2.109375
    vertex 2.0203533310981108 -0.6042575989020078 2.109375
    vertex 1.9734783310981108 -0.6042575989020078 2.15625
  endloop
endfacet
facet normal 0.0 -1.0 0.0
  outer loop
    vertex 1.7078533310981108 -0.6042575989020078 2.109375
    vertex 1.9734783310981108 -0.6042575989020078 2.15625
    vertex 1.7547283310981108 -0.6042575989020078 2.15625
  endloop
endfacet
facet normal -0.7071067811865476 0.0 -0.7071067811865476
  outer loop
    vertex 1.7078533310981108 0.3957424010979922 0.890625
    vertex 1.7547283310981108 -0.6042575989020078 0.84375
    vertex 1.7078533310981108 -0.6042575989020078 0.890625
  endloop
endfacet
facet normal -0.7071067811865476 0.0 -0.7071067811865476
  outer loop
    vertex 1.7547283310981108 -0.6042575989020078 0.84375
    vertex 1.7078533310981108 0.3957424010979922 0.890625
    vertex 1.7547283310981108 0.3957424010979922 0.84375
  endloop
endfacet
facet normal 0.7071067811865476 0.0 -0.7071067811865476
  outer loop
    vertex 1.9734783310981108 0.3957424010979922 0.84375
    vertex 2.0203533310981108 -0.6042575989020078 0.890625
    vertex 1.9734783310981108 -0.6042575989020078 0.84375
  endloop
endfacet
facet normal 0.7071067811865476 0.0 -0.7071067811865476
  outer loop
    vertex 2.0203533310981108 -0.6042575989020078 0.890625
    vertex 1.9734783310981108 0.3957424010979922 0.84375
    vertex 2.0203533310981108 0.3957424010979922 0.890625
  endloop
endfacet
endsolid hopper_holder
