G75*
%MOIN*%
%OFA0B0*%
%FSLAX24Y24*%
%IPPOS*%
%LPD*%
%AMOC8*
5,1,8,0,0,1.08239X$1,22.5*
%
%ADD10C,0.0071*%
%ADD11C,0.0671*%
%ADD12C,0.1380*%
%ADD13R,0.0474X0.0513*%
D10*
X000445Y001152D02*
X000445Y001874D01*
X000731Y001874D01*
X000731Y001152D01*
X000445Y001152D01*
X000445Y001222D02*
X000731Y001222D01*
X000731Y001292D02*
X000445Y001292D01*
X000445Y001362D02*
X000731Y001362D01*
X000731Y001432D02*
X000445Y001432D01*
X000445Y001502D02*
X000731Y001502D01*
X000731Y001572D02*
X000445Y001572D01*
X000445Y001642D02*
X000731Y001642D01*
X000731Y001712D02*
X000445Y001712D01*
X000445Y001782D02*
X000731Y001782D01*
X000731Y001852D02*
X000445Y001852D01*
X000878Y001874D02*
X000878Y001152D01*
X000878Y001874D02*
X001164Y001874D01*
X001164Y001152D01*
X000878Y001152D01*
X000878Y001222D02*
X001164Y001222D01*
X001164Y001292D02*
X000878Y001292D01*
X000878Y001362D02*
X001164Y001362D01*
X001164Y001432D02*
X000878Y001432D01*
X000878Y001502D02*
X001164Y001502D01*
X001164Y001572D02*
X000878Y001572D01*
X000878Y001642D02*
X001164Y001642D01*
X001164Y001712D02*
X000878Y001712D01*
X000878Y001782D02*
X001164Y001782D01*
X001164Y001852D02*
X000878Y001852D01*
X001311Y001874D02*
X001311Y001152D01*
X001311Y001874D02*
X001597Y001874D01*
X001597Y001152D01*
X001311Y001152D01*
X001311Y001222D02*
X001597Y001222D01*
X001597Y001292D02*
X001311Y001292D01*
X001311Y001362D02*
X001597Y001362D01*
X001597Y001432D02*
X001311Y001432D01*
X001311Y001502D02*
X001597Y001502D01*
X001597Y001572D02*
X001311Y001572D01*
X001311Y001642D02*
X001597Y001642D01*
X001597Y001712D02*
X001311Y001712D01*
X001311Y001782D02*
X001597Y001782D01*
X001597Y001852D02*
X001311Y001852D01*
X001311Y002713D02*
X001311Y003435D01*
X001597Y003435D01*
X001597Y002713D01*
X001311Y002713D01*
X001311Y002783D02*
X001597Y002783D01*
X001597Y002853D02*
X001311Y002853D01*
X001311Y002923D02*
X001597Y002923D01*
X001597Y002993D02*
X001311Y002993D01*
X001311Y003063D02*
X001597Y003063D01*
X001597Y003133D02*
X001311Y003133D01*
X001311Y003203D02*
X001597Y003203D01*
X001597Y003273D02*
X001311Y003273D01*
X001311Y003343D02*
X001597Y003343D01*
X001597Y003413D02*
X001311Y003413D01*
X000878Y003435D02*
X000878Y002713D01*
X000878Y003435D02*
X001164Y003435D01*
X001164Y002713D01*
X000878Y002713D01*
X000878Y002783D02*
X001164Y002783D01*
X001164Y002853D02*
X000878Y002853D01*
X000878Y002923D02*
X001164Y002923D01*
X001164Y002993D02*
X000878Y002993D01*
X000878Y003063D02*
X001164Y003063D01*
X001164Y003133D02*
X000878Y003133D01*
X000878Y003203D02*
X001164Y003203D01*
X001164Y003273D02*
X000878Y003273D01*
X000878Y003343D02*
X001164Y003343D01*
X001164Y003413D02*
X000878Y003413D01*
X000445Y003435D02*
X000445Y002713D01*
X000445Y003435D02*
X000731Y003435D01*
X000731Y002713D01*
X000445Y002713D01*
X000445Y002783D02*
X000731Y002783D01*
X000731Y002853D02*
X000445Y002853D01*
X000445Y002923D02*
X000731Y002923D01*
X000731Y002993D02*
X000445Y002993D01*
X000445Y003063D02*
X000731Y003063D01*
X000731Y003133D02*
X000445Y003133D01*
X000445Y003203D02*
X000731Y003203D01*
X000731Y003273D02*
X000445Y003273D01*
X000445Y003343D02*
X000731Y003343D01*
X000731Y003413D02*
X000445Y003413D01*
D11*
X003305Y003902D02*
X003895Y003902D01*
X003895Y002902D02*
X003305Y002902D01*
X003305Y001902D02*
X003895Y001902D01*
X003895Y000902D02*
X003305Y000902D01*
D12*
X006100Y002402D03*
D13*
X002685Y002027D03*
X002015Y002027D03*
X002015Y003027D03*
X002685Y003027D03*
X002685Y004027D03*
X002015Y004027D03*
M02*
