G75*
%MOIN*%
%OFA0B0*%
%FSLAX24Y24*%
%IPPOS*%
%LPD*%
%AMOC8*
5,1,8,0,0,1.08239X$1,22.5*
%
%ADD10C,0.0030*%
%ADD11C,0.0591*%
D10*
X004311Y000270D02*
X004311Y000318D01*
X004360Y000367D01*
X004505Y000367D01*
X004505Y000270D01*
X004456Y000222D01*
X004360Y000222D01*
X004311Y000270D01*
X004408Y000464D02*
X004505Y000367D01*
X004408Y000464D02*
X004311Y000512D01*
X004703Y000512D02*
X004703Y000222D01*
X004799Y000222D02*
X004606Y000222D01*
X004799Y000415D02*
X004703Y000512D01*
X004900Y000367D02*
X005094Y000367D01*
X005195Y000415D02*
X005243Y000367D01*
X005195Y000318D01*
X005195Y000270D01*
X005243Y000222D01*
X005340Y000222D01*
X005389Y000270D01*
X005490Y000270D02*
X005538Y000222D01*
X005635Y000222D01*
X005683Y000270D01*
X005490Y000464D01*
X005490Y000270D01*
X005292Y000367D02*
X005243Y000367D01*
X005195Y000415D02*
X005195Y000464D01*
X005243Y000512D01*
X005340Y000512D01*
X005389Y000464D01*
X005490Y000464D02*
X005538Y000512D01*
X005635Y000512D01*
X005683Y000464D01*
X005683Y000270D01*
X005784Y000367D02*
X005978Y000367D01*
X006079Y000367D02*
X006079Y000270D01*
X006127Y000222D01*
X006224Y000222D01*
X006273Y000270D01*
X006374Y000222D02*
X006567Y000222D01*
X006668Y000270D02*
X006717Y000222D01*
X006813Y000222D01*
X006862Y000270D01*
X006668Y000464D01*
X006668Y000270D01*
X006567Y000415D02*
X006470Y000512D01*
X006470Y000222D01*
X006273Y000367D02*
X006176Y000415D01*
X006127Y000415D01*
X006079Y000367D01*
X006079Y000512D02*
X006273Y000512D01*
X006273Y000367D01*
X006668Y000464D02*
X006717Y000512D01*
X006813Y000512D01*
X006862Y000464D01*
X006862Y000270D01*
X006963Y000222D02*
X007157Y000222D01*
X006963Y000415D01*
X006963Y000464D01*
X007011Y000512D01*
X007108Y000512D01*
X007157Y000464D01*
D11*
X003895Y000902D02*
X003305Y000902D01*
X003305Y001902D02*
X003895Y001902D01*
X003895Y002902D02*
X003305Y002902D01*
X003305Y003902D02*
X003895Y003902D01*
M02*
