G75*
%MOIN*%
%OFA0B0*%
%FSLAX24Y24*%
%IPPOS*%
%LPD*%
%AMOC8*
5,1,8,0,0,1.08239X$1,22.5*
%
%ADD10C,0.0010*%
%ADD11C,0.0591*%
D10*
X005767Y000393D02*
X005792Y000368D01*
X005842Y000368D01*
X005867Y000393D01*
X005767Y000493D01*
X005767Y000393D01*
X005867Y000393D02*
X005867Y000493D01*
X005842Y000518D01*
X005792Y000518D01*
X005767Y000493D01*
X005915Y000368D02*
X006015Y000368D01*
X005965Y000368D02*
X005965Y000518D01*
X006015Y000468D01*
X006062Y000443D02*
X006162Y000443D01*
X006209Y000443D02*
X006209Y000393D01*
X006234Y000368D01*
X006284Y000368D01*
X006309Y000393D01*
X006357Y000393D02*
X006382Y000368D01*
X006432Y000368D01*
X006457Y000393D01*
X006357Y000493D01*
X006357Y000393D01*
X006309Y000443D02*
X006259Y000468D01*
X006234Y000468D01*
X006209Y000443D01*
X006209Y000518D02*
X006309Y000518D01*
X006309Y000443D01*
X006357Y000493D02*
X006382Y000518D01*
X006432Y000518D01*
X006457Y000493D01*
X006457Y000393D01*
X006504Y000443D02*
X006604Y000443D01*
X006651Y000443D02*
X006751Y000443D01*
X006676Y000518D01*
X006676Y000368D01*
X006799Y000368D02*
X006899Y000368D01*
X006849Y000368D02*
X006849Y000518D01*
X006899Y000468D01*
X006946Y000493D02*
X006946Y000393D01*
X006971Y000368D01*
X007021Y000368D01*
X007046Y000393D01*
X006946Y000493D01*
X006971Y000518D01*
X007021Y000518D01*
X007046Y000493D01*
X007046Y000393D01*
X007093Y000368D02*
X007193Y000368D01*
X007093Y000468D01*
X007093Y000493D01*
X007118Y000518D01*
X007168Y000518D01*
X007193Y000493D01*
D11*
X003895Y000898D02*
X003305Y000898D01*
X003305Y001898D02*
X003895Y001898D01*
X003895Y002898D02*
X003305Y002898D01*
X003305Y003898D02*
X003895Y003898D01*
M02*
