G75*
%MOIN*%
%OFA0B0*%
%FSLAX24Y24*%
%IPPOS*%
%LPD*%
%AMOC8*
5,1,8,0,0,1.08239X$1,22.5*
%
%ADD10C,0.0071*%
%ADD11C,0.0671*%
%ADD12C,0.1380*%
D10*
X000889Y001364D02*
X000889Y002086D01*
X000889Y001364D02*
X000603Y001364D01*
X000603Y002086D01*
X000889Y002086D01*
X000889Y001434D02*
X000603Y001434D01*
X000603Y001504D02*
X000889Y001504D01*
X000889Y001574D02*
X000603Y001574D01*
X000603Y001644D02*
X000889Y001644D01*
X000889Y001714D02*
X000603Y001714D01*
X000603Y001784D02*
X000889Y001784D01*
X000889Y001854D02*
X000603Y001854D01*
X000603Y001924D02*
X000889Y001924D01*
X000889Y001994D02*
X000603Y001994D01*
X000603Y002064D02*
X000889Y002064D01*
X001322Y002086D02*
X001322Y001364D01*
X001036Y001364D01*
X001036Y002086D01*
X001322Y002086D01*
X001322Y001434D02*
X001036Y001434D01*
X001036Y001504D02*
X001322Y001504D01*
X001322Y001574D02*
X001036Y001574D01*
X001036Y001644D02*
X001322Y001644D01*
X001322Y001714D02*
X001036Y001714D01*
X001036Y001784D02*
X001322Y001784D01*
X001322Y001854D02*
X001036Y001854D01*
X001036Y001924D02*
X001322Y001924D01*
X001322Y001994D02*
X001036Y001994D01*
X001036Y002064D02*
X001322Y002064D01*
X001755Y002086D02*
X001755Y001364D01*
X001469Y001364D01*
X001469Y002086D01*
X001755Y002086D01*
X001755Y001434D02*
X001469Y001434D01*
X001469Y001504D02*
X001755Y001504D01*
X001755Y001574D02*
X001469Y001574D01*
X001469Y001644D02*
X001755Y001644D01*
X001755Y001714D02*
X001469Y001714D01*
X001469Y001784D02*
X001755Y001784D01*
X001755Y001854D02*
X001469Y001854D01*
X001469Y001924D02*
X001755Y001924D01*
X001755Y001994D02*
X001469Y001994D01*
X001469Y002064D02*
X001755Y002064D01*
X001755Y002926D02*
X001755Y003648D01*
X001755Y002926D02*
X001469Y002926D01*
X001469Y003648D01*
X001755Y003648D01*
X001755Y002996D02*
X001469Y002996D01*
X001469Y003066D02*
X001755Y003066D01*
X001755Y003136D02*
X001469Y003136D01*
X001469Y003206D02*
X001755Y003206D01*
X001755Y003276D02*
X001469Y003276D01*
X001469Y003346D02*
X001755Y003346D01*
X001755Y003416D02*
X001469Y003416D01*
X001469Y003486D02*
X001755Y003486D01*
X001755Y003556D02*
X001469Y003556D01*
X001469Y003626D02*
X001755Y003626D01*
X001322Y003648D02*
X001322Y002926D01*
X001036Y002926D01*
X001036Y003648D01*
X001322Y003648D01*
X001322Y002996D02*
X001036Y002996D01*
X001036Y003066D02*
X001322Y003066D01*
X001322Y003136D02*
X001036Y003136D01*
X001036Y003206D02*
X001322Y003206D01*
X001322Y003276D02*
X001036Y003276D01*
X001036Y003346D02*
X001322Y003346D01*
X001322Y003416D02*
X001036Y003416D01*
X001036Y003486D02*
X001322Y003486D01*
X001322Y003556D02*
X001036Y003556D01*
X001036Y003626D02*
X001322Y003626D01*
X000889Y003648D02*
X000889Y002926D01*
X000603Y002926D01*
X000603Y003648D01*
X000889Y003648D01*
X000889Y002996D02*
X000603Y002996D01*
X000603Y003066D02*
X000889Y003066D01*
X000889Y003136D02*
X000603Y003136D01*
X000603Y003206D02*
X000889Y003206D01*
X000889Y003276D02*
X000603Y003276D01*
X000603Y003346D02*
X000889Y003346D01*
X000889Y003416D02*
X000603Y003416D01*
X000603Y003486D02*
X000889Y003486D01*
X000889Y003556D02*
X000603Y003556D01*
X000603Y003626D02*
X000889Y003626D01*
D11*
X003305Y003898D02*
X003895Y003898D01*
X003895Y002898D02*
X003305Y002898D01*
X003305Y001898D02*
X003895Y001898D01*
X003895Y000898D02*
X003305Y000898D01*
D12*
X006100Y002398D03*
M02*
