G75*
%MOIN*%
%OFA0B0*%
%FSLAX24Y24*%
%IPPOS*%
%LPD*%
%AMOC8*
5,1,8,0,0,1.08239X$1,22.5*
%
%ADD10R,0.0007X0.0034*%
%ADD11R,0.0007X0.0027*%
%ADD12R,0.0007X0.0047*%
%ADD13R,0.0007X0.0006*%
%ADD14R,0.0007X0.0060*%
%ADD15R,0.0007X0.0080*%
%ADD16R,0.0007X0.0033*%
%ADD17R,0.0007X0.0187*%
%ADD18R,0.0007X0.0060*%
%ADD19R,0.0007X0.0180*%
%ADD20R,0.0007X0.0067*%
%ADD21R,0.0007X0.0167*%
%ADD22R,0.0007X0.0046*%
%ADD23R,0.0007X0.0040*%
%ADD24R,0.0007X0.0053*%
%ADD25R,0.0007X0.0067*%
%ADD26R,0.0007X0.0026*%
%ADD27R,0.0007X0.0034*%
%ADD28R,0.0007X0.0040*%
%ADD29R,0.0007X0.0087*%
%ADD30R,0.0007X0.0080*%
%ADD31R,0.0007X0.0093*%
%ADD32R,0.0007X0.0026*%
%ADD33R,0.0007X0.0160*%
%ADD34R,0.0007X0.0100*%
%ADD35R,0.0007X0.0027*%
%ADD36R,0.0007X0.0047*%
%ADD37R,0.0007X0.0154*%
%ADD38R,0.0007X0.0086*%
%ADD39R,0.0007X0.0133*%
%ADD40R,0.0007X0.0087*%
%ADD41R,0.0007X0.0020*%
%ADD42R,0.0007X0.0073*%
%ADD43R,0.0007X0.0033*%
%ADD44R,0.0007X0.0053*%
%ADD45R,0.0007X0.0054*%
%ADD46R,0.0007X0.0020*%
%ADD47R,0.0007X0.0114*%
%ADD48R,0.0007X0.0127*%
%ADD49R,0.0007X0.0014*%
%ADD50R,0.0007X0.0046*%
%ADD51R,0.0007X0.0127*%
%ADD52R,0.0007X0.0140*%
%ADD53R,0.0007X0.0133*%
%ADD54C,0.0050*%
%ADD55C,0.0020*%
%ADD56C,0.0098*%
%ADD57C,0.0030*%
D10*
X005864Y003887D03*
X005884Y003867D03*
X005904Y003847D03*
X006277Y004107D03*
X006304Y004087D03*
X006544Y004067D03*
X006477Y003567D03*
D11*
X006457Y003583D03*
X006424Y003610D03*
X006404Y003623D03*
X006397Y003630D03*
X006377Y003643D03*
X006364Y003650D03*
X006357Y003650D03*
X006317Y003670D03*
X006277Y003683D03*
X006257Y003690D03*
X006217Y003703D03*
X006197Y003710D03*
X006157Y003723D03*
X006144Y003730D03*
X006117Y003743D03*
X006104Y003750D03*
X006097Y003750D03*
X006077Y003763D03*
X006064Y003770D03*
X006057Y003770D03*
X006024Y003783D03*
X006017Y003783D03*
X006004Y003790D03*
X005997Y003790D03*
X005964Y003803D03*
X005957Y003810D03*
X005924Y003830D03*
X005857Y003890D03*
X005844Y003903D03*
X005837Y003903D03*
X005824Y003910D03*
X005757Y003923D03*
X005744Y003930D03*
X005737Y003930D03*
X005724Y003943D03*
X005717Y003943D03*
X005757Y004170D03*
X005817Y004163D03*
X005877Y004163D03*
X006137Y004163D03*
X006204Y004143D03*
X006244Y004130D03*
X006257Y004123D03*
X006284Y004103D03*
X006297Y004090D03*
X006464Y004003D03*
X006437Y003983D03*
X006424Y003970D03*
X006437Y003950D03*
X006437Y003903D03*
X006417Y003890D03*
X006437Y003870D03*
X006397Y003923D03*
X006377Y003910D03*
X006537Y003930D03*
X006497Y003550D03*
X006504Y003543D03*
D12*
X006357Y004000D03*
X006344Y004020D03*
X006337Y004033D03*
X006324Y004060D03*
X006537Y004060D03*
X005684Y004153D03*
X005664Y004000D03*
D13*
X006530Y003547D03*
D14*
X006530Y003947D03*
X006490Y003960D03*
D15*
X006530Y004057D03*
X005730Y004224D03*
D16*
X005664Y004120D03*
X005677Y003980D03*
X005684Y003973D03*
X005697Y003960D03*
X005877Y003873D03*
X005897Y003853D03*
X005917Y003833D03*
X005937Y003820D03*
X006404Y003760D03*
X006424Y003733D03*
X006437Y003720D03*
X006444Y003713D03*
X006484Y003613D03*
X006444Y003593D03*
X006437Y003600D03*
X006484Y003560D03*
X006524Y003553D03*
X006504Y003980D03*
D17*
X006524Y004010D03*
D18*
X006504Y004054D03*
X006444Y003894D03*
X006484Y003854D03*
X006357Y003887D03*
X006517Y003560D03*
X005657Y004014D03*
X005637Y004067D03*
X005737Y004207D03*
D19*
X006517Y004014D03*
D20*
X006510Y003563D03*
D21*
X006510Y004020D03*
D22*
X006444Y003667D03*
X006504Y003587D03*
D23*
X006497Y003597D03*
X006477Y003624D03*
X006437Y003670D03*
X006417Y003744D03*
X006397Y003770D03*
X006377Y003964D03*
X006317Y004070D03*
X005677Y004137D03*
X005657Y004110D03*
D24*
X005744Y004190D03*
X006397Y003863D03*
X006404Y003870D03*
X006404Y003943D03*
X006417Y003950D03*
X006497Y003970D03*
D25*
X006444Y003970D03*
X006497Y004050D03*
X006364Y003883D03*
X005717Y004263D03*
D26*
X005730Y003937D03*
X005770Y003917D03*
X005850Y003897D03*
X006090Y003757D03*
X006130Y003737D03*
X006230Y003697D03*
X006350Y003657D03*
X006490Y003557D03*
X006410Y003857D03*
X006390Y003877D03*
X006390Y003917D03*
X006430Y003977D03*
X006450Y003957D03*
X006450Y003877D03*
X006290Y004097D03*
D27*
X006470Y004007D03*
X006430Y003727D03*
X006450Y003707D03*
X006430Y003607D03*
X006490Y003607D03*
X005690Y003967D03*
X005670Y003987D03*
D28*
X005670Y004130D03*
X005750Y004177D03*
X006410Y003750D03*
X006490Y003844D03*
X006470Y003630D03*
D29*
X006490Y004053D03*
D30*
X006484Y003950D03*
D31*
X006484Y004050D03*
D32*
X006457Y003997D03*
X006397Y003957D03*
X006384Y003917D03*
X006264Y004117D03*
X006224Y004137D03*
X006164Y004157D03*
X005704Y003957D03*
X005944Y003817D03*
X005984Y003797D03*
X006044Y003777D03*
X006124Y003737D03*
X006177Y003717D03*
X006237Y003697D03*
X006297Y003677D03*
X006344Y003657D03*
X006384Y003637D03*
X006417Y003617D03*
X006464Y003577D03*
X006477Y003677D03*
D33*
X006477Y003904D03*
D34*
X006377Y003827D03*
X006477Y004047D03*
X005644Y004060D03*
D35*
X005710Y003950D03*
X005750Y003923D03*
X005930Y003823D03*
X005950Y003810D03*
X005970Y003803D03*
X006110Y003743D03*
X006190Y003710D03*
X006210Y003703D03*
X006250Y003690D03*
X006270Y003683D03*
X006330Y003663D03*
X006370Y003643D03*
X006410Y003623D03*
X006450Y003590D03*
X006470Y003570D03*
X006410Y003930D03*
X006430Y003943D03*
X006410Y003963D03*
X006450Y003990D03*
X006210Y004143D03*
X006190Y004150D03*
X006130Y004163D03*
X005810Y004163D03*
D36*
X005710Y004273D03*
X006390Y003780D03*
X006470Y003680D03*
X006450Y003660D03*
D37*
X006470Y003907D03*
D38*
X006464Y003667D03*
X005724Y004247D03*
D39*
X006464Y003910D03*
D40*
X006457Y003673D03*
D41*
X006424Y003674D03*
X006337Y003660D03*
X006324Y003667D03*
X006304Y003674D03*
X006284Y003680D03*
X006264Y003687D03*
X006244Y003694D03*
X006224Y003700D03*
X006204Y003707D03*
X006184Y003714D03*
X006164Y003720D03*
X006137Y003734D03*
X006084Y003760D03*
X006037Y003780D03*
X005977Y003800D03*
X005817Y003914D03*
X005804Y003914D03*
X005797Y003914D03*
X005784Y003914D03*
X005777Y003914D03*
X005764Y003920D03*
X005764Y004167D03*
X005777Y004167D03*
X005784Y004167D03*
X005797Y004167D03*
X005804Y004167D03*
X005824Y004160D03*
X005837Y004160D03*
X005844Y004160D03*
X005857Y004160D03*
X005864Y004160D03*
X005884Y004167D03*
X005897Y004167D03*
X005904Y004167D03*
X005917Y004167D03*
X005924Y004167D03*
X005937Y004167D03*
X005944Y004167D03*
X005957Y004167D03*
X005964Y004167D03*
X005977Y004167D03*
X005984Y004167D03*
X005997Y004167D03*
X006004Y004167D03*
X006017Y004167D03*
X006024Y004167D03*
X006037Y004167D03*
X006044Y004167D03*
X006057Y004167D03*
X006064Y004167D03*
X006077Y004167D03*
X006084Y004167D03*
X006097Y004167D03*
X006104Y004167D03*
X006117Y004167D03*
X006124Y004167D03*
X006144Y004160D03*
X006157Y004160D03*
X006177Y004154D03*
X006184Y004154D03*
X006197Y004147D03*
X006217Y004140D03*
X006237Y004134D03*
X006384Y003954D03*
X006424Y003940D03*
X006457Y003880D03*
X006417Y003860D03*
D42*
X006457Y003940D03*
D43*
X006450Y003913D03*
X006310Y004080D03*
X006270Y004113D03*
X005890Y003860D03*
X005870Y003880D03*
X005910Y003840D03*
X006390Y003633D03*
X006430Y003673D03*
D44*
X006430Y003883D03*
X006370Y003970D03*
X006350Y004010D03*
D45*
X006364Y003977D03*
X006424Y003877D03*
D46*
X006410Y003887D03*
X006390Y003847D03*
X006390Y003954D03*
X006250Y004127D03*
X006230Y004134D03*
X006170Y004154D03*
X006150Y004160D03*
X006110Y004167D03*
X006090Y004167D03*
X006070Y004167D03*
X006050Y004167D03*
X006030Y004167D03*
X006010Y004167D03*
X005990Y004167D03*
X005970Y004167D03*
X005950Y004167D03*
X005930Y004167D03*
X005910Y004167D03*
X005890Y004167D03*
X005870Y004160D03*
X005850Y004160D03*
X005830Y004160D03*
X005790Y004167D03*
X005770Y004167D03*
X005790Y003914D03*
X005810Y003914D03*
X005830Y003907D03*
X005990Y003794D03*
X006010Y003787D03*
X006030Y003780D03*
X006050Y003774D03*
X006070Y003767D03*
X006150Y003727D03*
X006170Y003720D03*
X006290Y003680D03*
X006310Y003674D03*
D47*
X006384Y003827D03*
D48*
X006370Y003853D03*
X005650Y004060D03*
D49*
X006364Y003817D03*
D50*
X006330Y004047D03*
D51*
X005704Y004233D03*
D52*
X005697Y004220D03*
D53*
X005690Y004203D03*
D54*
X001690Y002670D02*
X001690Y001720D01*
X001691Y001724D02*
X001686Y001705D01*
X001678Y001687D01*
X001666Y001671D01*
X001651Y001657D01*
X001634Y001647D01*
X001615Y001640D01*
X001595Y001637D01*
X001575Y001638D01*
X000452Y001634D01*
X000434Y001633D01*
X000415Y001636D01*
X000398Y001642D01*
X000382Y001650D01*
X000368Y001662D01*
X000356Y001676D01*
X000346Y001691D01*
X000339Y001708D01*
X000336Y001726D01*
X000336Y002825D01*
X000338Y002844D01*
X000344Y002863D01*
X000353Y002880D01*
X000365Y002896D01*
X000379Y002909D01*
X000395Y002920D01*
X000413Y002928D01*
X000432Y002932D01*
X000452Y002933D01*
X001401Y002933D01*
X001690Y002670D01*
D55*
X001860Y001757D02*
X001860Y001537D01*
X001860Y001610D02*
X001970Y001610D01*
X002007Y001647D01*
X002007Y001720D01*
X001970Y001757D01*
X001860Y001757D01*
X002081Y001720D02*
X002118Y001757D01*
X002191Y001757D01*
X002228Y001720D01*
X002228Y001683D01*
X002191Y001647D01*
X002228Y001610D01*
X002228Y001573D01*
X002191Y001537D01*
X002118Y001537D01*
X002081Y001573D01*
X002007Y001537D02*
X001933Y001610D01*
X002154Y001647D02*
X002191Y001647D01*
X001556Y002151D02*
X001556Y002261D01*
X001520Y002298D01*
X001483Y002298D01*
X001446Y002261D01*
X001446Y002151D01*
X001556Y002151D02*
X001336Y002151D01*
X001336Y002261D01*
X001373Y002298D01*
X001410Y002298D01*
X001446Y002261D01*
X001230Y002101D02*
X001230Y001954D01*
X001303Y002028D02*
X001156Y002028D01*
X001087Y002151D02*
X000940Y002151D01*
X000903Y002188D01*
X000903Y002261D01*
X000940Y002298D01*
X001013Y002298D02*
X001013Y002225D01*
X001087Y002151D02*
X001123Y002188D01*
X001123Y002261D01*
X001087Y002298D01*
X001013Y002298D01*
X000797Y002368D02*
X000797Y002515D01*
X000690Y002298D02*
X000617Y002225D01*
X000617Y002261D02*
X000617Y002151D01*
X000690Y002151D02*
X000470Y002151D01*
X000470Y002261D01*
X000507Y002298D01*
X000580Y002298D01*
X000617Y002261D01*
X001735Y003287D02*
X001735Y003507D01*
X001845Y003507D01*
X001882Y003470D01*
X001882Y003397D01*
X001845Y003360D01*
X001735Y003360D01*
X001808Y003360D02*
X001882Y003287D01*
X001956Y003287D02*
X002103Y003433D01*
X002103Y003470D01*
X002066Y003507D01*
X001993Y003507D01*
X001956Y003470D01*
X001956Y003287D02*
X002103Y003287D01*
X002610Y003287D02*
X002757Y003287D01*
X002683Y003287D02*
X002683Y003507D01*
X002610Y003433D01*
X002831Y003470D02*
X002831Y003323D01*
X002868Y003287D01*
X002941Y003287D01*
X002978Y003323D01*
X002978Y003470D01*
X002831Y003323D01*
X002831Y003470D02*
X002868Y003507D01*
X002941Y003507D01*
X002978Y003470D01*
X002941Y004287D02*
X002868Y004287D01*
X002831Y004323D01*
X002757Y004323D02*
X002720Y004287D01*
X002647Y004287D01*
X002610Y004323D01*
X002683Y004397D02*
X002720Y004397D01*
X002757Y004360D01*
X002757Y004323D01*
X002720Y004397D02*
X002757Y004433D01*
X002757Y004470D01*
X002720Y004507D01*
X002647Y004507D01*
X002610Y004470D01*
X002831Y004470D02*
X002868Y004507D01*
X002941Y004507D01*
X002978Y004470D01*
X002978Y004433D01*
X002941Y004397D01*
X002978Y004360D01*
X002978Y004323D01*
X002941Y004287D01*
X002941Y004397D02*
X002904Y004397D01*
X002103Y004287D02*
X001956Y004287D01*
X002029Y004287D02*
X002029Y004507D01*
X001956Y004433D01*
X001882Y004397D02*
X001845Y004360D01*
X001735Y004360D01*
X001735Y004287D02*
X001735Y004507D01*
X001845Y004507D01*
X001882Y004470D01*
X001882Y004397D01*
X001808Y004360D02*
X001882Y004287D01*
X002433Y002507D02*
X002433Y002287D01*
X002360Y002287D02*
X002507Y002287D01*
X002581Y002397D02*
X002728Y002397D01*
X002802Y002470D02*
X002802Y002323D01*
X002949Y002470D01*
X002949Y002323D01*
X002912Y002287D01*
X002839Y002287D01*
X002802Y002323D01*
X002691Y002287D02*
X002691Y002507D01*
X002581Y002397D01*
X002433Y002507D02*
X002360Y002433D01*
X002802Y002470D02*
X002839Y002507D01*
X002912Y002507D01*
X002949Y002470D01*
D56*
X001749Y002962D02*
X001751Y002976D01*
X001757Y002989D01*
X001766Y003000D01*
X001777Y003008D01*
X001790Y003013D01*
X001805Y003014D01*
X001818Y003011D01*
X001831Y003004D01*
X001841Y002995D01*
X001849Y002983D01*
X001853Y002969D01*
X001853Y002955D01*
X001849Y002941D01*
X001841Y002929D01*
X001831Y002920D01*
X001818Y002913D01*
X001805Y002910D01*
X001790Y002911D01*
X001777Y002916D01*
X001766Y002924D01*
X001757Y002935D01*
X001751Y002948D01*
X001749Y002962D01*
D57*
X001364Y003558D02*
X001073Y003558D01*
X001364Y003558D02*
X001364Y003752D01*
X001364Y003853D02*
X001364Y004046D01*
X001364Y004148D02*
X001364Y004293D01*
X001315Y004341D01*
X001122Y004341D01*
X001073Y004293D01*
X001073Y004148D01*
X001364Y004148D01*
X001219Y003950D02*
X001219Y003853D01*
X001364Y003853D02*
X001073Y003853D01*
X001073Y004046D01*
M02*
