G75*
%MOIN*%
%OFA0B0*%
%FSLAX24Y24*%
%IPPOS*%
%LPD*%
%AMOC8*
5,1,8,0,0,1.08239X$1,22.5*
%
%ADD10C,0.0000*%
D10*
X000100Y000148D02*
X000100Y004644D01*
X007345Y004644D01*
X007345Y000148D01*
X000100Y000148D01*
X005450Y002398D02*
X005452Y002448D01*
X005458Y002498D01*
X005468Y002548D01*
X005481Y002596D01*
X005498Y002644D01*
X005519Y002690D01*
X005543Y002734D01*
X005571Y002776D01*
X005602Y002816D01*
X005636Y002853D01*
X005673Y002888D01*
X005712Y002919D01*
X005753Y002948D01*
X005797Y002973D01*
X005843Y002995D01*
X005890Y003013D01*
X005938Y003027D01*
X005987Y003038D01*
X006037Y003045D01*
X006087Y003048D01*
X006138Y003047D01*
X006188Y003042D01*
X006238Y003033D01*
X006286Y003021D01*
X006334Y003004D01*
X006380Y002984D01*
X006425Y002961D01*
X006468Y002934D01*
X006508Y002904D01*
X006546Y002871D01*
X006581Y002835D01*
X006614Y002796D01*
X006643Y002755D01*
X006669Y002712D01*
X006692Y002667D01*
X006711Y002620D01*
X006726Y002572D01*
X006738Y002523D01*
X006746Y002473D01*
X006750Y002423D01*
X006750Y002373D01*
X006746Y002323D01*
X006738Y002273D01*
X006726Y002224D01*
X006711Y002176D01*
X006692Y002129D01*
X006669Y002084D01*
X006643Y002041D01*
X006614Y002000D01*
X006581Y001961D01*
X006546Y001925D01*
X006508Y001892D01*
X006468Y001862D01*
X006425Y001835D01*
X006380Y001812D01*
X006334Y001792D01*
X006286Y001775D01*
X006238Y001763D01*
X006188Y001754D01*
X006138Y001749D01*
X006087Y001748D01*
X006037Y001751D01*
X005987Y001758D01*
X005938Y001769D01*
X005890Y001783D01*
X005843Y001801D01*
X005797Y001823D01*
X005753Y001848D01*
X005712Y001877D01*
X005673Y001908D01*
X005636Y001943D01*
X005602Y001980D01*
X005571Y002020D01*
X005543Y002062D01*
X005519Y002106D01*
X005498Y002152D01*
X005481Y002200D01*
X005468Y002248D01*
X005458Y002298D01*
X005452Y002348D01*
X005450Y002398D01*
M02*
