G75*
%MOIN*%
%OFA0B0*%
%FSLAX24Y24*%
%IPPOS*%
%LPD*%
%AMOC8*
5,1,8,0,0,1.08239X$1,22.5*
%
%ADD10R,0.0007X0.0034*%
%ADD11R,0.0007X0.0027*%
%ADD12R,0.0007X0.0047*%
%ADD13R,0.0007X0.0006*%
%ADD14R,0.0007X0.0060*%
%ADD15R,0.0007X0.0080*%
%ADD16R,0.0007X0.0033*%
%ADD17R,0.0007X0.0187*%
%ADD18R,0.0007X0.0060*%
%ADD19R,0.0007X0.0180*%
%ADD20R,0.0007X0.0067*%
%ADD21R,0.0007X0.0167*%
%ADD22R,0.0007X0.0046*%
%ADD23R,0.0007X0.0040*%
%ADD24R,0.0007X0.0053*%
%ADD25R,0.0007X0.0067*%
%ADD26R,0.0007X0.0026*%
%ADD27R,0.0007X0.0034*%
%ADD28R,0.0007X0.0040*%
%ADD29R,0.0007X0.0087*%
%ADD30R,0.0007X0.0080*%
%ADD31R,0.0007X0.0093*%
%ADD32R,0.0007X0.0026*%
%ADD33R,0.0007X0.0160*%
%ADD34R,0.0007X0.0100*%
%ADD35R,0.0007X0.0027*%
%ADD36R,0.0007X0.0047*%
%ADD37R,0.0007X0.0154*%
%ADD38R,0.0007X0.0086*%
%ADD39R,0.0007X0.0133*%
%ADD40R,0.0007X0.0087*%
%ADD41R,0.0007X0.0020*%
%ADD42R,0.0007X0.0073*%
%ADD43R,0.0007X0.0033*%
%ADD44R,0.0007X0.0053*%
%ADD45R,0.0007X0.0054*%
%ADD46R,0.0007X0.0020*%
%ADD47R,0.0007X0.0114*%
%ADD48R,0.0007X0.0127*%
%ADD49R,0.0007X0.0014*%
%ADD50R,0.0007X0.0046*%
%ADD51R,0.0007X0.0127*%
%ADD52R,0.0007X0.0140*%
%ADD53R,0.0007X0.0133*%
%ADD54C,0.0050*%
%ADD55C,0.0020*%
%ADD56C,0.0098*%
%ADD57C,0.0030*%
D10*
X005864Y003883D03*
X005884Y003863D03*
X005904Y003843D03*
X006277Y004103D03*
X006304Y004083D03*
X006544Y004063D03*
X006477Y003563D03*
D11*
X006457Y003579D03*
X006424Y003606D03*
X006404Y003619D03*
X006397Y003626D03*
X006377Y003639D03*
X006364Y003646D03*
X006357Y003646D03*
X006317Y003666D03*
X006277Y003679D03*
X006257Y003686D03*
X006217Y003699D03*
X006197Y003706D03*
X006157Y003719D03*
X006144Y003726D03*
X006117Y003739D03*
X006104Y003746D03*
X006097Y003746D03*
X006077Y003759D03*
X006064Y003766D03*
X006057Y003766D03*
X006024Y003779D03*
X006017Y003779D03*
X006004Y003786D03*
X005997Y003786D03*
X005964Y003799D03*
X005957Y003806D03*
X005924Y003826D03*
X005857Y003886D03*
X005844Y003899D03*
X005837Y003899D03*
X005824Y003906D03*
X005757Y003919D03*
X005744Y003926D03*
X005737Y003926D03*
X005724Y003939D03*
X005717Y003939D03*
X005757Y004166D03*
X005817Y004159D03*
X005877Y004159D03*
X006137Y004159D03*
X006204Y004139D03*
X006244Y004126D03*
X006257Y004119D03*
X006284Y004099D03*
X006297Y004086D03*
X006464Y003999D03*
X006437Y003979D03*
X006424Y003966D03*
X006437Y003946D03*
X006437Y003899D03*
X006417Y003886D03*
X006437Y003866D03*
X006397Y003919D03*
X006377Y003906D03*
X006537Y003926D03*
X006497Y003546D03*
X006504Y003539D03*
D12*
X006357Y003996D03*
X006344Y004016D03*
X006337Y004029D03*
X006324Y004056D03*
X006537Y004056D03*
X005684Y004149D03*
X005664Y003996D03*
D13*
X006530Y003543D03*
D14*
X006530Y003943D03*
X006490Y003956D03*
D15*
X006530Y004053D03*
X005730Y004220D03*
D16*
X005664Y004116D03*
X005677Y003976D03*
X005684Y003969D03*
X005697Y003956D03*
X005877Y003869D03*
X005897Y003849D03*
X005917Y003829D03*
X005937Y003816D03*
X006404Y003756D03*
X006424Y003729D03*
X006437Y003716D03*
X006444Y003709D03*
X006484Y003609D03*
X006444Y003589D03*
X006437Y003596D03*
X006484Y003556D03*
X006524Y003549D03*
X006504Y003976D03*
D17*
X006524Y004006D03*
D18*
X006504Y004050D03*
X006444Y003890D03*
X006484Y003850D03*
X006357Y003883D03*
X006517Y003556D03*
X005657Y004010D03*
X005637Y004063D03*
X005737Y004203D03*
D19*
X006517Y004010D03*
D20*
X006510Y003559D03*
D21*
X006510Y004016D03*
D22*
X006444Y003663D03*
X006504Y003583D03*
D23*
X006497Y003593D03*
X006477Y003620D03*
X006437Y003666D03*
X006417Y003740D03*
X006397Y003766D03*
X006377Y003960D03*
X006317Y004066D03*
X005677Y004133D03*
X005657Y004106D03*
D24*
X005744Y004186D03*
X006397Y003859D03*
X006404Y003866D03*
X006404Y003939D03*
X006417Y003946D03*
X006497Y003966D03*
D25*
X006444Y003966D03*
X006497Y004046D03*
X006364Y003879D03*
X005717Y004259D03*
D26*
X005730Y003933D03*
X005770Y003913D03*
X005850Y003893D03*
X006090Y003753D03*
X006130Y003733D03*
X006230Y003693D03*
X006350Y003653D03*
X006490Y003553D03*
X006410Y003853D03*
X006390Y003873D03*
X006390Y003913D03*
X006430Y003973D03*
X006450Y003953D03*
X006450Y003873D03*
X006290Y004093D03*
D27*
X006470Y004003D03*
X006430Y003723D03*
X006450Y003703D03*
X006430Y003603D03*
X006490Y003603D03*
X005690Y003963D03*
X005670Y003983D03*
D28*
X005670Y004126D03*
X005750Y004173D03*
X006410Y003746D03*
X006490Y003840D03*
X006470Y003626D03*
D29*
X006490Y004049D03*
D30*
X006484Y003946D03*
D31*
X006484Y004046D03*
D32*
X006457Y003993D03*
X006397Y003953D03*
X006384Y003913D03*
X006264Y004113D03*
X006224Y004133D03*
X006164Y004153D03*
X005704Y003953D03*
X005944Y003813D03*
X005984Y003793D03*
X006044Y003773D03*
X006124Y003733D03*
X006177Y003713D03*
X006237Y003693D03*
X006297Y003673D03*
X006344Y003653D03*
X006384Y003633D03*
X006417Y003613D03*
X006464Y003573D03*
X006477Y003673D03*
D33*
X006477Y003900D03*
D34*
X006377Y003823D03*
X006477Y004043D03*
X005644Y004056D03*
D35*
X005710Y003946D03*
X005750Y003919D03*
X005930Y003819D03*
X005950Y003806D03*
X005970Y003799D03*
X006110Y003739D03*
X006190Y003706D03*
X006210Y003699D03*
X006250Y003686D03*
X006270Y003679D03*
X006330Y003659D03*
X006370Y003639D03*
X006410Y003619D03*
X006450Y003586D03*
X006470Y003566D03*
X006410Y003926D03*
X006430Y003939D03*
X006410Y003959D03*
X006450Y003986D03*
X006210Y004139D03*
X006190Y004146D03*
X006130Y004159D03*
X005810Y004159D03*
D36*
X005710Y004269D03*
X006390Y003776D03*
X006470Y003676D03*
X006450Y003656D03*
D37*
X006470Y003903D03*
D38*
X006464Y003663D03*
X005724Y004243D03*
D39*
X006464Y003906D03*
D40*
X006457Y003669D03*
D41*
X006424Y003670D03*
X006337Y003656D03*
X006324Y003663D03*
X006304Y003670D03*
X006284Y003676D03*
X006264Y003683D03*
X006244Y003690D03*
X006224Y003696D03*
X006204Y003703D03*
X006184Y003710D03*
X006164Y003716D03*
X006137Y003730D03*
X006084Y003756D03*
X006037Y003776D03*
X005977Y003796D03*
X005817Y003910D03*
X005804Y003910D03*
X005797Y003910D03*
X005784Y003910D03*
X005777Y003910D03*
X005764Y003916D03*
X005764Y004163D03*
X005777Y004163D03*
X005784Y004163D03*
X005797Y004163D03*
X005804Y004163D03*
X005824Y004156D03*
X005837Y004156D03*
X005844Y004156D03*
X005857Y004156D03*
X005864Y004156D03*
X005884Y004163D03*
X005897Y004163D03*
X005904Y004163D03*
X005917Y004163D03*
X005924Y004163D03*
X005937Y004163D03*
X005944Y004163D03*
X005957Y004163D03*
X005964Y004163D03*
X005977Y004163D03*
X005984Y004163D03*
X005997Y004163D03*
X006004Y004163D03*
X006017Y004163D03*
X006024Y004163D03*
X006037Y004163D03*
X006044Y004163D03*
X006057Y004163D03*
X006064Y004163D03*
X006077Y004163D03*
X006084Y004163D03*
X006097Y004163D03*
X006104Y004163D03*
X006117Y004163D03*
X006124Y004163D03*
X006144Y004156D03*
X006157Y004156D03*
X006177Y004150D03*
X006184Y004150D03*
X006197Y004143D03*
X006217Y004136D03*
X006237Y004130D03*
X006384Y003950D03*
X006424Y003936D03*
X006457Y003876D03*
X006417Y003856D03*
D42*
X006457Y003936D03*
D43*
X006450Y003909D03*
X006310Y004076D03*
X006270Y004109D03*
X005890Y003856D03*
X005910Y003836D03*
X005870Y003876D03*
X006390Y003629D03*
X006430Y003669D03*
D44*
X006430Y003879D03*
X006370Y003966D03*
X006350Y004006D03*
D45*
X006364Y003973D03*
X006424Y003873D03*
D46*
X006410Y003883D03*
X006390Y003843D03*
X006390Y003950D03*
X006250Y004123D03*
X006230Y004130D03*
X006170Y004150D03*
X006150Y004156D03*
X006110Y004163D03*
X006090Y004163D03*
X006070Y004163D03*
X006050Y004163D03*
X006030Y004163D03*
X006010Y004163D03*
X005990Y004163D03*
X005970Y004163D03*
X005950Y004163D03*
X005930Y004163D03*
X005910Y004163D03*
X005890Y004163D03*
X005870Y004156D03*
X005850Y004156D03*
X005830Y004156D03*
X005790Y004163D03*
X005770Y004163D03*
X005790Y003910D03*
X005810Y003910D03*
X005830Y003903D03*
X005990Y003790D03*
X006010Y003783D03*
X006030Y003776D03*
X006050Y003770D03*
X006070Y003763D03*
X006150Y003723D03*
X006170Y003716D03*
X006290Y003676D03*
X006310Y003670D03*
D47*
X006384Y003823D03*
D48*
X006370Y003849D03*
X005650Y004056D03*
D49*
X006364Y003813D03*
D50*
X006330Y004043D03*
D51*
X005704Y004229D03*
D52*
X005697Y004216D03*
D53*
X005690Y004199D03*
D54*
X001864Y003073D02*
X001864Y001974D01*
X001862Y001955D01*
X001856Y001936D01*
X001847Y001919D01*
X001835Y001903D01*
X001821Y001890D01*
X001805Y001879D01*
X001787Y001871D01*
X001768Y001867D01*
X001748Y001866D01*
X000799Y001866D01*
X000510Y002130D01*
X000510Y003079D01*
X000509Y003075D02*
X000513Y003092D01*
X000520Y003108D01*
X000530Y003123D01*
X000542Y003136D01*
X000557Y003147D01*
X000572Y003155D01*
X000589Y003160D01*
X000607Y003162D01*
X000625Y003161D01*
X000625Y003162D02*
X001748Y003166D01*
X001766Y003167D01*
X001785Y003164D01*
X001802Y003158D01*
X001818Y003150D01*
X001832Y003138D01*
X001844Y003124D01*
X001854Y003109D01*
X001861Y003092D01*
X001864Y003074D01*
D55*
X001730Y002594D02*
X001656Y002521D01*
X001656Y002557D02*
X001656Y002447D01*
X001730Y002447D02*
X001510Y002447D01*
X001510Y002557D01*
X001546Y002594D01*
X001620Y002594D01*
X001656Y002557D01*
X001403Y002377D02*
X001403Y002231D01*
X001260Y002447D02*
X001113Y002447D01*
X001077Y002484D01*
X001077Y002557D01*
X001113Y002594D01*
X001187Y002594D02*
X001187Y002521D01*
X001187Y002594D02*
X001260Y002594D01*
X001297Y002557D01*
X001297Y002484D01*
X001260Y002447D01*
X000970Y002644D02*
X000970Y002791D01*
X000897Y002717D02*
X001043Y002717D01*
X000864Y002557D02*
X000827Y002594D01*
X000790Y002594D01*
X000754Y002557D01*
X000754Y002447D01*
X000864Y002447D02*
X000864Y002557D01*
X000754Y002557D02*
X000717Y002594D01*
X000680Y002594D01*
X000643Y002557D01*
X000643Y002447D01*
X000864Y002447D01*
D56*
X000347Y001838D02*
X000349Y001852D01*
X000355Y001865D01*
X000364Y001876D01*
X000375Y001884D01*
X000388Y001889D01*
X000403Y001890D01*
X000416Y001887D01*
X000429Y001880D01*
X000439Y001871D01*
X000447Y001859D01*
X000451Y001845D01*
X000451Y001831D01*
X000447Y001817D01*
X000439Y001805D01*
X000429Y001796D01*
X000416Y001789D01*
X000403Y001786D01*
X000388Y001787D01*
X000375Y001792D01*
X000364Y001800D01*
X000355Y001811D01*
X000349Y001824D01*
X000347Y001838D01*
D57*
X000336Y000387D02*
X000626Y000387D01*
X000626Y000581D01*
X000626Y000682D02*
X000626Y000875D01*
X000626Y000977D02*
X000626Y001122D01*
X000578Y001170D01*
X000384Y001170D01*
X000336Y001122D01*
X000336Y000977D01*
X000626Y000977D01*
X000481Y000779D02*
X000481Y000682D01*
X000336Y000682D02*
X000626Y000682D01*
X000336Y000682D02*
X000336Y000875D01*
M02*
