G75*
%MOIN*%
%OFA0B0*%
%FSLAX24Y24*%
%IPPOS*%
%LPD*%
%AMOC8*
5,1,8,0,0,1.08239X$1,22.5*
%
%ADD10C,0.0055*%
D10*
X000857Y001396D02*
X000857Y002054D01*
X000857Y001396D02*
X000635Y001396D01*
X000635Y002054D01*
X000857Y002054D01*
X000857Y001450D02*
X000635Y001450D01*
X000635Y001504D02*
X000857Y001504D01*
X000857Y001558D02*
X000635Y001558D01*
X000635Y001612D02*
X000857Y001612D01*
X000857Y001666D02*
X000635Y001666D01*
X000635Y001720D02*
X000857Y001720D01*
X000857Y001774D02*
X000635Y001774D01*
X000635Y001828D02*
X000857Y001828D01*
X000857Y001882D02*
X000635Y001882D01*
X000635Y001936D02*
X000857Y001936D01*
X000857Y001990D02*
X000635Y001990D01*
X000635Y002044D02*
X000857Y002044D01*
X001290Y002054D02*
X001290Y001396D01*
X001068Y001396D01*
X001068Y002054D01*
X001290Y002054D01*
X001290Y001450D02*
X001068Y001450D01*
X001068Y001504D02*
X001290Y001504D01*
X001290Y001558D02*
X001068Y001558D01*
X001068Y001612D02*
X001290Y001612D01*
X001290Y001666D02*
X001068Y001666D01*
X001068Y001720D02*
X001290Y001720D01*
X001290Y001774D02*
X001068Y001774D01*
X001068Y001828D02*
X001290Y001828D01*
X001290Y001882D02*
X001068Y001882D01*
X001068Y001936D02*
X001290Y001936D01*
X001290Y001990D02*
X001068Y001990D01*
X001068Y002044D02*
X001290Y002044D01*
X001723Y002054D02*
X001723Y001396D01*
X001501Y001396D01*
X001501Y002054D01*
X001723Y002054D01*
X001723Y001450D02*
X001501Y001450D01*
X001501Y001504D02*
X001723Y001504D01*
X001723Y001558D02*
X001501Y001558D01*
X001501Y001612D02*
X001723Y001612D01*
X001723Y001666D02*
X001501Y001666D01*
X001501Y001720D02*
X001723Y001720D01*
X001723Y001774D02*
X001501Y001774D01*
X001501Y001828D02*
X001723Y001828D01*
X001723Y001882D02*
X001501Y001882D01*
X001501Y001936D02*
X001723Y001936D01*
X001723Y001990D02*
X001501Y001990D01*
X001501Y002044D02*
X001723Y002044D01*
X001723Y002958D02*
X001723Y003616D01*
X001723Y002958D02*
X001501Y002958D01*
X001501Y003616D01*
X001723Y003616D01*
X001723Y003012D02*
X001501Y003012D01*
X001501Y003066D02*
X001723Y003066D01*
X001723Y003120D02*
X001501Y003120D01*
X001501Y003174D02*
X001723Y003174D01*
X001723Y003228D02*
X001501Y003228D01*
X001501Y003282D02*
X001723Y003282D01*
X001723Y003336D02*
X001501Y003336D01*
X001501Y003390D02*
X001723Y003390D01*
X001723Y003444D02*
X001501Y003444D01*
X001501Y003498D02*
X001723Y003498D01*
X001723Y003552D02*
X001501Y003552D01*
X001501Y003606D02*
X001723Y003606D01*
X001290Y003616D02*
X001290Y002958D01*
X001068Y002958D01*
X001068Y003616D01*
X001290Y003616D01*
X001290Y003012D02*
X001068Y003012D01*
X001068Y003066D02*
X001290Y003066D01*
X001290Y003120D02*
X001068Y003120D01*
X001068Y003174D02*
X001290Y003174D01*
X001290Y003228D02*
X001068Y003228D01*
X001068Y003282D02*
X001290Y003282D01*
X001290Y003336D02*
X001068Y003336D01*
X001068Y003390D02*
X001290Y003390D01*
X001290Y003444D02*
X001068Y003444D01*
X001068Y003498D02*
X001290Y003498D01*
X001290Y003552D02*
X001068Y003552D01*
X001068Y003606D02*
X001290Y003606D01*
X000857Y003616D02*
X000857Y002958D01*
X000635Y002958D01*
X000635Y003616D01*
X000857Y003616D01*
X000857Y003012D02*
X000635Y003012D01*
X000635Y003066D02*
X000857Y003066D01*
X000857Y003120D02*
X000635Y003120D01*
X000635Y003174D02*
X000857Y003174D01*
X000857Y003228D02*
X000635Y003228D01*
X000635Y003282D02*
X000857Y003282D01*
X000857Y003336D02*
X000635Y003336D01*
X000635Y003390D02*
X000857Y003390D01*
X000857Y003444D02*
X000635Y003444D01*
X000635Y003498D02*
X000857Y003498D01*
X000857Y003552D02*
X000635Y003552D01*
X000635Y003606D02*
X000857Y003606D01*
M02*
