G75*
%MOIN*%
%OFA0B0*%
%FSLAX24Y24*%
%IPPOS*%
%LPD*%
%AMOC8*
5,1,8,0,0,1.08239X$1,22.5*
%
%ADD10R,0.0177X0.0394*%
%ADD11R,0.0474X0.0513*%
%ADD12R,0.0671X0.0671*%
%ADD13C,0.0671*%
%ADD14C,0.1740*%
%ADD15C,0.1700*%
%ADD16R,0.1143X0.0710*%
%ADD17R,0.0300X0.0860*%
%ADD18R,0.1060X0.0870*%
%ADD19R,0.0513X0.0474*%
%ADD20R,0.0808X0.1419*%
%ADD21R,0.0789X0.0710*%
%ADD22C,0.0671*%
%ADD23R,0.0513X0.0631*%
%ADD24R,0.0960X0.0560*%
%ADD25R,0.0946X0.1497*%
%ADD26R,0.0395X0.0395*%
%ADD27R,0.0946X0.0316*%
%ADD28R,0.0870X0.0510*%
%ADD29R,0.0631X0.0631*%
%ADD30OC8,0.1085*%
%ADD31R,0.1024X0.1024*%
%ADD32R,0.0157X0.0433*%
%ADD33R,0.0433X0.0157*%
%ADD34R,0.0710X0.0790*%
%ADD35C,0.0417*%
%ADD36C,0.0350*%
%ADD37C,0.0456*%
D10*
X005182Y004098D03*
X005438Y004098D03*
X005694Y004098D03*
X005950Y004098D03*
X006206Y004098D03*
X006462Y004098D03*
X006718Y004098D03*
X006718Y006402D03*
X006462Y006402D03*
X006206Y006402D03*
X005950Y006402D03*
X005694Y006402D03*
X005438Y006402D03*
X005182Y006402D03*
X005932Y008348D03*
X006188Y008348D03*
X006444Y008348D03*
X006700Y008348D03*
X006956Y008348D03*
X007212Y008348D03*
X007468Y008348D03*
X007468Y010652D03*
X007212Y010652D03*
X006956Y010652D03*
X006700Y010652D03*
X006444Y010652D03*
X006188Y010652D03*
X005932Y010652D03*
D11*
X004535Y010000D03*
X003865Y010000D03*
X003865Y009500D03*
X003865Y009000D03*
X004535Y009000D03*
X004535Y009500D03*
X004535Y008250D03*
X004535Y007750D03*
X003865Y007750D03*
X003865Y008250D03*
X003865Y007250D03*
X004535Y007250D03*
X004535Y005750D03*
X004535Y005250D03*
X004535Y004750D03*
X003865Y004750D03*
X003865Y005250D03*
X003865Y005750D03*
X009365Y010500D03*
X010035Y010500D03*
X012365Y010500D03*
X013035Y010500D03*
X014865Y010500D03*
X015535Y010500D03*
X017865Y010500D03*
X018535Y010500D03*
X019950Y013165D03*
X019950Y013835D03*
X020950Y014915D03*
X020950Y015585D03*
X019450Y017415D03*
X018950Y017415D03*
X018950Y018085D03*
X019450Y018085D03*
X013035Y013250D03*
X012365Y013250D03*
X012365Y012500D03*
X013035Y012500D03*
X013035Y011750D03*
X012365Y011750D03*
X012365Y006500D03*
X013035Y006500D03*
X014865Y006500D03*
X015535Y006500D03*
X017865Y006500D03*
X018535Y006500D03*
X024615Y006933D03*
X025285Y006933D03*
X025285Y010500D03*
X024615Y010500D03*
X024615Y003250D03*
X025285Y003250D03*
X003535Y015750D03*
X002865Y015750D03*
X002865Y016385D03*
X003535Y016385D03*
X004950Y018665D03*
X005700Y018665D03*
X005700Y019335D03*
X004950Y019335D03*
D12*
X026700Y021250D03*
X026700Y002250D03*
D13*
X004700Y001250D03*
X005700Y001250D03*
X006700Y001250D03*
X007700Y001250D03*
X008700Y001250D03*
X009700Y001250D03*
X010700Y001250D03*
X011700Y001250D03*
X012700Y001250D03*
X013700Y001250D03*
X014700Y001250D03*
X015700Y001250D03*
X016700Y001250D03*
X017700Y001250D03*
X018700Y001250D03*
X019700Y001250D03*
X020700Y001250D03*
X021700Y001250D03*
X022700Y001250D03*
X023700Y001250D03*
X024700Y001250D03*
X025700Y001250D03*
X026700Y001250D03*
X025700Y002250D03*
X024700Y002250D03*
X023700Y002250D03*
X022700Y002250D03*
X021700Y002250D03*
X020700Y002250D03*
X019700Y002250D03*
X018700Y002250D03*
X017700Y002250D03*
X016700Y002250D03*
X015700Y002250D03*
X014700Y002250D03*
X013700Y002250D03*
X012700Y002250D03*
X011700Y002250D03*
X010700Y002250D03*
X009700Y002250D03*
X008700Y002250D03*
X007700Y002250D03*
X006700Y002250D03*
X005700Y002250D03*
X004700Y002250D03*
X004700Y020250D03*
X005700Y020250D03*
X006700Y020250D03*
X007700Y020250D03*
X008700Y020250D03*
X009700Y020250D03*
X010700Y020250D03*
X011700Y020250D03*
X012700Y020250D03*
X013700Y020250D03*
X014700Y020250D03*
X015700Y020250D03*
X016700Y020250D03*
X017700Y020250D03*
X018700Y020250D03*
X019700Y020250D03*
X020700Y020250D03*
X021700Y020250D03*
X022700Y020250D03*
X023700Y020250D03*
X024700Y020250D03*
X025700Y020250D03*
X026700Y020250D03*
X025700Y021250D03*
X024700Y021250D03*
X023700Y021250D03*
X022700Y021250D03*
X021700Y021250D03*
X020700Y021250D03*
X019700Y021250D03*
X018700Y021250D03*
X017700Y021250D03*
X016700Y021250D03*
X015700Y021250D03*
X014700Y021250D03*
X013700Y021250D03*
X012700Y021250D03*
X011700Y021250D03*
X010700Y021250D03*
X009700Y021250D03*
X008700Y021250D03*
X007700Y021250D03*
X006700Y021250D03*
X005700Y021250D03*
X004700Y021250D03*
D14*
X023486Y016250D03*
D15*
X026369Y016260D03*
X024737Y018231D03*
D16*
X021750Y015801D03*
X021750Y014699D03*
D17*
X020450Y014530D03*
X019950Y014530D03*
X019450Y014530D03*
X018950Y014530D03*
X018950Y016470D03*
X019450Y016470D03*
X019950Y016470D03*
X020450Y016470D03*
D18*
X019700Y015500D03*
D19*
X019950Y017415D03*
X020450Y017415D03*
X020950Y017415D03*
X020950Y018085D03*
X020450Y018085D03*
X019950Y018085D03*
X013700Y018085D03*
X012950Y018085D03*
X012950Y017415D03*
X013700Y017415D03*
X011950Y017415D03*
X011200Y017415D03*
X011200Y018085D03*
X011950Y018085D03*
X007285Y016500D03*
X006615Y016500D03*
X009133Y014735D03*
X009768Y014735D03*
X010403Y014735D03*
X010403Y014065D03*
X009768Y014065D03*
X009133Y014065D03*
X009115Y011500D03*
X009785Y011500D03*
X019950Y011165D03*
X019950Y011835D03*
X019950Y009585D03*
X019950Y008915D03*
X019950Y006585D03*
X019950Y005915D03*
D20*
X019263Y012868D03*
X017098Y012868D03*
D21*
X016300Y013449D03*
X015450Y013449D03*
X015450Y014551D03*
X016300Y014551D03*
D22*
X008995Y017250D02*
X008405Y017250D01*
X008405Y018250D02*
X008995Y018250D01*
X002495Y015000D02*
X001905Y015000D01*
X001905Y014000D02*
X002495Y014000D01*
X002495Y013000D02*
X001905Y013000D01*
X001905Y012000D02*
X002495Y012000D01*
X002495Y010750D02*
X001905Y010750D01*
X001905Y009750D02*
X002495Y009750D01*
X002495Y008750D02*
X001905Y008750D01*
X001905Y007750D02*
X002495Y007750D01*
X002495Y006500D02*
X001905Y006500D01*
X001905Y005500D02*
X002495Y005500D01*
X002495Y004500D02*
X001905Y004500D01*
X001905Y003500D02*
X002495Y003500D01*
X009200Y004455D02*
X009200Y005045D01*
X010200Y005045D02*
X010200Y004455D01*
X011200Y004455D02*
X011200Y005045D01*
X012200Y005045D02*
X012200Y004455D01*
X013200Y004455D02*
X013200Y005045D01*
X014700Y005045D02*
X014700Y004455D01*
X015700Y004455D02*
X015700Y005045D01*
X016700Y005045D02*
X016700Y004455D01*
X017700Y004455D02*
X017700Y005045D01*
X018700Y005045D02*
X018700Y004455D01*
X024383Y004570D02*
X024383Y005160D01*
X025383Y005160D02*
X025383Y004570D01*
X025500Y008199D02*
X025500Y008790D01*
X024500Y008790D02*
X024500Y008199D01*
X024450Y011955D02*
X024450Y012545D01*
X025450Y012545D02*
X025450Y011955D01*
X018700Y009045D02*
X018700Y008455D01*
X017700Y008455D02*
X017700Y009045D01*
X016700Y009045D02*
X016700Y008455D01*
X015700Y008455D02*
X015700Y009045D01*
X014700Y009045D02*
X014700Y008455D01*
X013200Y008455D02*
X013200Y009045D01*
X012200Y009045D02*
X012200Y008455D01*
X011200Y008455D02*
X011200Y009045D01*
X010200Y009045D02*
X010200Y008455D01*
X009200Y008455D02*
X009200Y009045D01*
X002245Y017250D02*
X001655Y017250D01*
X001655Y018250D02*
X002245Y018250D01*
D23*
X009306Y006500D03*
X010094Y006500D03*
D24*
X020980Y006660D03*
X020980Y005750D03*
X020980Y004840D03*
X020980Y007840D03*
X020980Y008750D03*
X020980Y009660D03*
X020980Y010840D03*
X020980Y011750D03*
X020980Y012660D03*
D25*
X023420Y011750D03*
X023420Y008750D03*
X023420Y005750D03*
D26*
X023405Y006933D03*
X023995Y006933D03*
X023995Y010500D03*
X023405Y010500D03*
X017245Y010500D03*
X016655Y010500D03*
X011745Y010500D03*
X011155Y010500D03*
X011155Y006500D03*
X011745Y006500D03*
X016655Y006500D03*
X017245Y006500D03*
X023405Y003250D03*
X023995Y003250D03*
D27*
X010974Y012000D03*
X010974Y012500D03*
X010974Y013000D03*
X010974Y013500D03*
X008926Y013500D03*
X008926Y013000D03*
X008926Y012500D03*
X008926Y012000D03*
D28*
X007720Y012250D03*
X007720Y013250D03*
X004180Y013250D03*
X004180Y012250D03*
D29*
X012300Y014100D03*
D30*
X002574Y019851D03*
X027700Y019000D03*
X027581Y004565D03*
D31*
X005200Y017250D03*
D32*
X005200Y016423D03*
X005003Y016423D03*
X004806Y016423D03*
X005397Y016423D03*
X005594Y016423D03*
X005594Y018077D03*
X005397Y018077D03*
X005200Y018077D03*
X005003Y018077D03*
X004806Y018077D03*
D33*
X004373Y017644D03*
X004373Y017447D03*
X004373Y017250D03*
X004373Y017053D03*
X004373Y016856D03*
X006027Y016856D03*
X006027Y017053D03*
X006027Y017250D03*
X006027Y017447D03*
X006027Y017644D03*
D34*
X008140Y019250D03*
X009260Y019250D03*
D35*
X010450Y016500D03*
X011200Y014750D03*
X015300Y015150D03*
X015700Y015150D03*
X016100Y015150D03*
X016500Y015150D03*
X019500Y015250D03*
X019900Y015250D03*
X019900Y015650D03*
X019500Y015650D03*
X021550Y016350D03*
X021950Y016350D03*
X021750Y016750D03*
X021600Y018050D03*
X008200Y011500D03*
X005700Y011000D03*
X005200Y012750D03*
X007450Y009000D03*
X006700Y003500D03*
D36*
X011950Y011750D03*
X011950Y012500D03*
X011200Y016000D03*
X011200Y016500D03*
X012450Y016500D03*
X012950Y016000D03*
X019450Y018500D03*
X004200Y015750D03*
X003950Y016385D03*
D37*
X003450Y017000D03*
X010200Y019500D03*
X015700Y019500D03*
X019200Y019068D03*
X018950Y011000D03*
X020450Y010250D03*
X020450Y007250D03*
X021700Y004000D03*
X014200Y011000D03*
M02*
