G75*
%MOIN*%
%OFA0B0*%
%FSLAX25Y25*%
%IPPOS*%
%LPD*%
%AMOC8*
5,1,8,0,0,1.08239X$1,22.5*
%
%ADD10R,0.01378X0.03543*%
%ADD11R,0.10630X0.06299*%
%ADD12R,0.03937X0.04331*%
%ADD13R,0.02200X0.07800*%
%ADD14R,0.09800X0.07900*%
%ADD15R,0.04331X0.03937*%
%ADD16R,0.07283X0.13386*%
%ADD17R,0.07087X0.06299*%
%ADD18R,0.04331X0.05512*%
%ADD19R,0.08799X0.04799*%
%ADD20R,0.08661X0.14173*%
%ADD21R,0.03150X0.03150*%
%ADD22R,0.08661X0.02362*%
%ADD23R,0.07900X0.04300*%
%ADD24R,0.03937X0.01181*%
%ADD25R,0.01181X0.03937*%
%ADD26R,0.06299X0.07098*%
D10*
X0041823Y0040984D03*
X0044382Y0040984D03*
X0046941Y0040984D03*
X0049500Y0040984D03*
X0052059Y0040984D03*
X0054618Y0040984D03*
X0057177Y0040984D03*
X0057177Y0064016D03*
X0054618Y0064016D03*
X0052059Y0064016D03*
X0049500Y0064016D03*
X0046941Y0064016D03*
X0044382Y0064016D03*
X0041823Y0064016D03*
X0051823Y0083484D03*
X0054382Y0083484D03*
X0056941Y0083484D03*
X0059500Y0083484D03*
X0062059Y0083484D03*
X0064618Y0083484D03*
X0067177Y0083484D03*
X0067177Y0106516D03*
X0064618Y0106516D03*
X0062059Y0106516D03*
X0059500Y0106516D03*
X0056941Y0106516D03*
X0054382Y0106516D03*
X0051823Y0106516D03*
D11*
X0217500Y0146988D03*
X0217500Y0158012D03*
D12*
X0209500Y0155846D03*
X0209500Y0149154D03*
X0199500Y0138346D03*
X0199500Y0131654D03*
X0246154Y0105000D03*
X0252846Y0105000D03*
X0252846Y0069325D03*
X0246154Y0069325D03*
X0246154Y0032500D03*
X0252846Y0032500D03*
X0130346Y0117500D03*
X0123654Y0117500D03*
X0123654Y0125000D03*
X0130346Y0125000D03*
X0130346Y0132500D03*
X0123654Y0132500D03*
X0189500Y0174154D03*
X0194500Y0174154D03*
X0194500Y0180846D03*
X0189500Y0180846D03*
X0057000Y0186654D03*
X0049500Y0186654D03*
X0049500Y0193346D03*
X0057000Y0193346D03*
X0035346Y0163850D03*
X0028654Y0163850D03*
X0028654Y0157500D03*
X0035346Y0157500D03*
D13*
X0189500Y0164700D03*
X0194500Y0164700D03*
X0199500Y0164700D03*
X0204500Y0164700D03*
X0204500Y0145300D03*
X0199500Y0145300D03*
X0194500Y0145300D03*
X0189500Y0145300D03*
D14*
X0197000Y0155000D03*
D15*
X0199500Y0174154D03*
X0204500Y0174154D03*
X0209500Y0174154D03*
X0209500Y0180846D03*
X0204500Y0180846D03*
X0199500Y0180846D03*
X0137000Y0180846D03*
X0129500Y0180846D03*
X0129500Y0174154D03*
X0137000Y0174154D03*
X0119500Y0174154D03*
X0112000Y0174154D03*
X0112000Y0180846D03*
X0119500Y0180846D03*
X0072846Y0165000D03*
X0066154Y0165000D03*
X0091325Y0147346D03*
X0097675Y0147346D03*
X0104025Y0147346D03*
X0104025Y0140654D03*
X0097675Y0140654D03*
X0091325Y0140654D03*
X0091154Y0115000D03*
X0097846Y0115000D03*
X0199500Y0111654D03*
X0199500Y0118346D03*
X0199500Y0095846D03*
X0199500Y0089154D03*
X0199500Y0065846D03*
X0199500Y0059154D03*
D16*
X0192630Y0128681D03*
X0170976Y0128681D03*
D17*
X0163000Y0134488D03*
X0154500Y0134488D03*
X0154500Y0145512D03*
X0163000Y0145512D03*
D18*
X0155937Y0105000D03*
X0148063Y0105000D03*
X0125937Y0105000D03*
X0118063Y0105000D03*
X0095937Y0105000D03*
X0088063Y0105000D03*
X0088063Y0065000D03*
X0095937Y0065000D03*
X0118063Y0065000D03*
X0125937Y0065000D03*
X0148063Y0065000D03*
X0155937Y0065000D03*
X0178063Y0065000D03*
X0185937Y0065000D03*
X0185937Y0105000D03*
X0178063Y0105000D03*
D19*
X0209799Y0108402D03*
X0209799Y0117500D03*
X0209799Y0126598D03*
X0209799Y0096598D03*
X0209799Y0087500D03*
X0209799Y0078402D03*
X0209799Y0066598D03*
X0209799Y0057500D03*
X0209799Y0048402D03*
D20*
X0234201Y0057500D03*
X0234201Y0087500D03*
X0234201Y0117500D03*
D21*
X0234047Y0105000D03*
X0239953Y0105000D03*
X0239953Y0069325D03*
X0234047Y0069325D03*
X0234047Y0032500D03*
X0239953Y0032500D03*
X0172453Y0065000D03*
X0166547Y0065000D03*
X0112453Y0065000D03*
X0106547Y0065000D03*
X0106547Y0105000D03*
X0112453Y0105000D03*
X0166547Y0105000D03*
X0172453Y0105000D03*
X0055150Y0169350D03*
X0048850Y0169350D03*
X0048850Y0175650D03*
X0055150Y0175650D03*
D22*
X0089264Y0135000D03*
X0089264Y0130000D03*
X0089264Y0125000D03*
X0089264Y0120000D03*
X0109736Y0120000D03*
X0109736Y0125000D03*
X0109736Y0130000D03*
X0109736Y0135000D03*
D23*
X0077200Y0132500D03*
X0077200Y0122500D03*
X0041800Y0122500D03*
X0041800Y0132500D03*
D24*
X0043732Y0168563D03*
X0043732Y0170531D03*
X0043732Y0172500D03*
X0043732Y0174469D03*
X0043732Y0176437D03*
X0060268Y0176437D03*
X0060268Y0174469D03*
X0060268Y0172500D03*
X0060268Y0170531D03*
X0060268Y0168563D03*
D25*
X0055937Y0164232D03*
X0053969Y0164232D03*
X0052000Y0164232D03*
X0050031Y0164232D03*
X0048063Y0164232D03*
X0048063Y0180768D03*
X0050031Y0180768D03*
X0052000Y0180768D03*
X0053969Y0180768D03*
X0055937Y0180768D03*
D26*
X0081402Y0192500D03*
X0092598Y0192500D03*
M02*
