G75*
%MOIN*%
%OFA0B0*%
%FSLAX25Y25*%
%IPPOS*%
%LPD*%
%AMOC8*
5,1,8,0,0,1.08239X$1,22.5*
%
%ADD10R,0.06706X0.06706*%
%ADD11C,0.06706*%
%ADD12C,0.17398*%
%ADD13C,0.17000*%
%ADD14C,0.06706*%
%ADD15OC8,0.10850*%
%ADD16C,0.04169*%
%ADD17C,0.03500*%
%ADD18C,0.04562*%
D10*
X0267000Y0022500D03*
X0267000Y0212500D03*
D11*
X0047000Y0012500D03*
X0057000Y0012500D03*
X0067000Y0012500D03*
X0077000Y0012500D03*
X0087000Y0012500D03*
X0097000Y0012500D03*
X0107000Y0012500D03*
X0117000Y0012500D03*
X0127000Y0012500D03*
X0137000Y0012500D03*
X0147000Y0012500D03*
X0157000Y0012500D03*
X0167000Y0012500D03*
X0177000Y0012500D03*
X0187000Y0012500D03*
X0197000Y0012500D03*
X0207000Y0012500D03*
X0217000Y0012500D03*
X0227000Y0012500D03*
X0237000Y0012500D03*
X0247000Y0012500D03*
X0257000Y0012500D03*
X0267000Y0012500D03*
X0257000Y0022500D03*
X0247000Y0022500D03*
X0237000Y0022500D03*
X0227000Y0022500D03*
X0217000Y0022500D03*
X0207000Y0022500D03*
X0197000Y0022500D03*
X0187000Y0022500D03*
X0177000Y0022500D03*
X0167000Y0022500D03*
X0157000Y0022500D03*
X0147000Y0022500D03*
X0137000Y0022500D03*
X0127000Y0022500D03*
X0117000Y0022500D03*
X0107000Y0022500D03*
X0097000Y0022500D03*
X0087000Y0022500D03*
X0077000Y0022500D03*
X0067000Y0022500D03*
X0057000Y0022500D03*
X0047000Y0022500D03*
X0047000Y0202500D03*
X0057000Y0202500D03*
X0067000Y0202500D03*
X0077000Y0202500D03*
X0087000Y0202500D03*
X0097000Y0202500D03*
X0107000Y0202500D03*
X0117000Y0202500D03*
X0127000Y0202500D03*
X0137000Y0202500D03*
X0147000Y0202500D03*
X0157000Y0202500D03*
X0167000Y0202500D03*
X0177000Y0202500D03*
X0187000Y0202500D03*
X0197000Y0202500D03*
X0207000Y0202500D03*
X0217000Y0202500D03*
X0227000Y0202500D03*
X0237000Y0202500D03*
X0247000Y0202500D03*
X0257000Y0202500D03*
X0267000Y0202500D03*
X0257000Y0212500D03*
X0247000Y0212500D03*
X0237000Y0212500D03*
X0227000Y0212500D03*
X0217000Y0212500D03*
X0207000Y0212500D03*
X0197000Y0212500D03*
X0187000Y0212500D03*
X0177000Y0212500D03*
X0167000Y0212500D03*
X0157000Y0212500D03*
X0147000Y0212500D03*
X0137000Y0212500D03*
X0127000Y0212500D03*
X0117000Y0212500D03*
X0107000Y0212500D03*
X0097000Y0212500D03*
X0087000Y0212500D03*
X0077000Y0212500D03*
X0067000Y0212500D03*
X0057000Y0212500D03*
X0047000Y0212500D03*
D12*
X0234863Y0162500D03*
D13*
X0263685Y0162600D03*
X0247374Y0182309D03*
D14*
X0244500Y0125453D02*
X0244500Y0119547D01*
X0254500Y0119547D02*
X0254500Y0125453D01*
X0255000Y0087896D02*
X0255000Y0081990D01*
X0245000Y0081990D02*
X0245000Y0087896D01*
X0243825Y0051603D02*
X0243825Y0045697D01*
X0253825Y0045697D02*
X0253825Y0051603D01*
X0187000Y0050453D02*
X0187000Y0044547D01*
X0177000Y0044547D02*
X0177000Y0050453D01*
X0167000Y0050453D02*
X0167000Y0044547D01*
X0157000Y0044547D02*
X0157000Y0050453D01*
X0147000Y0050453D02*
X0147000Y0044547D01*
X0127000Y0044547D02*
X0127000Y0050453D01*
X0117000Y0050453D02*
X0117000Y0044547D01*
X0107000Y0044547D02*
X0107000Y0050453D01*
X0097000Y0050453D02*
X0097000Y0044547D01*
X0087000Y0044547D02*
X0087000Y0050453D01*
X0087000Y0084547D02*
X0087000Y0090453D01*
X0097000Y0090453D02*
X0097000Y0084547D01*
X0107000Y0084547D02*
X0107000Y0090453D01*
X0117000Y0090453D02*
X0117000Y0084547D01*
X0127000Y0084547D02*
X0127000Y0090453D01*
X0147000Y0090453D02*
X0147000Y0084547D01*
X0157000Y0084547D02*
X0157000Y0090453D01*
X0167000Y0090453D02*
X0167000Y0084547D01*
X0177000Y0084547D02*
X0177000Y0090453D01*
X0187000Y0090453D02*
X0187000Y0084547D01*
X0089953Y0172500D02*
X0084047Y0172500D01*
X0084047Y0182500D02*
X0089953Y0182500D01*
X0024953Y0150000D02*
X0019047Y0150000D01*
X0019047Y0140000D02*
X0024953Y0140000D01*
X0024953Y0130000D02*
X0019047Y0130000D01*
X0019047Y0120000D02*
X0024953Y0120000D01*
X0024953Y0107500D02*
X0019047Y0107500D01*
X0019047Y0097500D02*
X0024953Y0097500D01*
X0024953Y0087500D02*
X0019047Y0087500D01*
X0019047Y0077500D02*
X0024953Y0077500D01*
X0024953Y0065000D02*
X0019047Y0065000D01*
X0019047Y0055000D02*
X0024953Y0055000D01*
X0024953Y0045000D02*
X0019047Y0045000D01*
X0019047Y0035000D02*
X0024953Y0035000D01*
X0022453Y0172500D02*
X0016547Y0172500D01*
X0016547Y0182500D02*
X0022453Y0182500D01*
D15*
X0025743Y0198508D03*
X0277000Y0190000D03*
X0275806Y0045648D03*
D16*
X0112000Y0147500D03*
X0104500Y0165000D03*
X0153000Y0151500D03*
X0157000Y0151500D03*
X0161000Y0151500D03*
X0165000Y0151500D03*
X0195000Y0152500D03*
X0199000Y0152500D03*
X0199000Y0156500D03*
X0195000Y0156500D03*
X0215500Y0163500D03*
X0219500Y0163500D03*
X0217500Y0167500D03*
X0216000Y0180500D03*
X0082000Y0115000D03*
X0052000Y0127500D03*
X0049500Y0110000D03*
X0067000Y0090000D03*
X0057000Y0035000D03*
D17*
X0119500Y0117500D03*
X0119500Y0125000D03*
X0112000Y0160000D03*
X0112000Y0165000D03*
X0124500Y0165000D03*
X0129500Y0160000D03*
X0194500Y0185000D03*
X0042000Y0157500D03*
X0039500Y0163850D03*
D18*
X0034500Y0170000D03*
X0102000Y0195000D03*
X0157000Y0195000D03*
X0192000Y0190675D03*
X0189500Y0110000D03*
X0204500Y0102500D03*
X0204500Y0072500D03*
X0217000Y0040000D03*
X0142000Y0110000D03*
M02*
