G75*
%MOIN*%
%OFA0B0*%
%FSLAX24Y24*%
%IPPOS*%
%LPD*%
%AMOC8*
5,1,8,0,0,1.08239X$1,22.5*
%
%ADD10C,0.0030*%
%ADD11R,0.0591X0.0591*%
%ADD12C,0.0591*%
%ADD13C,0.1660*%
%ADD14C,0.1620*%
%ADD15C,0.0591*%
%ADD16OC8,0.1005*%
%ADD17C,0.0337*%
%ADD18C,0.0270*%
%ADD19C,0.0376*%
%ADD20C,0.0120*%
%ADD21C,0.0100*%
%ADD22C,0.0160*%
%ADD23C,0.0320*%
D10*
X000415Y011865D02*
X000662Y012112D01*
X000724Y012112D01*
X000785Y012050D01*
X000785Y011927D01*
X000724Y011865D01*
X000415Y011865D02*
X000415Y012112D01*
X000477Y012233D02*
X000724Y012480D01*
X000477Y012480D01*
X000415Y012418D01*
X000415Y012295D01*
X000477Y012233D01*
X000724Y012233D01*
X000785Y012295D01*
X000785Y012418D01*
X000724Y012480D01*
X000662Y012602D02*
X000785Y012725D01*
X000415Y012725D01*
X000415Y012602D02*
X000415Y012849D01*
X000600Y012970D02*
X000600Y013217D01*
X000600Y013338D02*
X000600Y013585D01*
X000477Y013707D02*
X000415Y013707D01*
X000477Y013707D02*
X000724Y013953D01*
X000785Y013953D01*
X000785Y013707D01*
X000785Y013155D02*
X000415Y013155D01*
X000600Y012970D02*
X000785Y013155D01*
D11*
X026700Y021250D03*
X026700Y002250D03*
D12*
X025700Y002250D03*
X024700Y002250D03*
X023700Y002250D03*
X022700Y002250D03*
X021700Y002250D03*
X020700Y002250D03*
X019700Y002250D03*
X018700Y002250D03*
X017700Y002250D03*
X016700Y002250D03*
X015700Y002250D03*
X014700Y002250D03*
X013700Y002250D03*
X012700Y002250D03*
X011700Y002250D03*
X010700Y002250D03*
X009700Y002250D03*
X008700Y002250D03*
X007700Y002250D03*
X006700Y002250D03*
X005700Y002250D03*
X004700Y002250D03*
X004700Y001250D03*
X005700Y001250D03*
X006700Y001250D03*
X007700Y001250D03*
X008700Y001250D03*
X009700Y001250D03*
X010700Y001250D03*
X011700Y001250D03*
X012700Y001250D03*
X013700Y001250D03*
X014700Y001250D03*
X015700Y001250D03*
X016700Y001250D03*
X017700Y001250D03*
X018700Y001250D03*
X019700Y001250D03*
X020700Y001250D03*
X021700Y001250D03*
X022700Y001250D03*
X023700Y001250D03*
X024700Y001250D03*
X025700Y001250D03*
X026700Y001250D03*
X026700Y020250D03*
X025700Y020250D03*
X024700Y020250D03*
X023700Y020250D03*
X022700Y020250D03*
X021700Y020250D03*
X020700Y020250D03*
X019700Y020250D03*
X018700Y020250D03*
X017700Y020250D03*
X016700Y020250D03*
X015700Y020250D03*
X014700Y020250D03*
X013700Y020250D03*
X012700Y020250D03*
X011700Y020250D03*
X010700Y020250D03*
X009700Y020250D03*
X008700Y020250D03*
X007700Y020250D03*
X006700Y020250D03*
X005700Y020250D03*
X004700Y020250D03*
X004700Y021250D03*
X005700Y021250D03*
X006700Y021250D03*
X007700Y021250D03*
X008700Y021250D03*
X009700Y021250D03*
X010700Y021250D03*
X011700Y021250D03*
X012700Y021250D03*
X013700Y021250D03*
X014700Y021250D03*
X015700Y021250D03*
X016700Y021250D03*
X017700Y021250D03*
X018700Y021250D03*
X019700Y021250D03*
X020700Y021250D03*
X021700Y021250D03*
X022700Y021250D03*
X023700Y021250D03*
X024700Y021250D03*
X025700Y021250D03*
D13*
X023486Y016250D03*
D14*
X026369Y016260D03*
X024737Y018231D03*
D15*
X024450Y012545D02*
X024450Y011955D01*
X025450Y011955D02*
X025450Y012545D01*
X025500Y008790D02*
X025500Y008199D01*
X024500Y008199D02*
X024500Y008790D01*
X024383Y005160D02*
X024383Y004570D01*
X025383Y004570D02*
X025383Y005160D01*
X018700Y005045D02*
X018700Y004455D01*
X017700Y004455D02*
X017700Y005045D01*
X016700Y005045D02*
X016700Y004455D01*
X015700Y004455D02*
X015700Y005045D01*
X014700Y005045D02*
X014700Y004455D01*
X013200Y004455D02*
X013200Y005045D01*
X012200Y005045D02*
X012200Y004455D01*
X011200Y004455D02*
X011200Y005045D01*
X010200Y005045D02*
X010200Y004455D01*
X009200Y004455D02*
X009200Y005045D01*
X009200Y008455D02*
X009200Y009045D01*
X010200Y009045D02*
X010200Y008455D01*
X011200Y008455D02*
X011200Y009045D01*
X012200Y009045D02*
X012200Y008455D01*
X013200Y008455D02*
X013200Y009045D01*
X014700Y009045D02*
X014700Y008455D01*
X015700Y008455D02*
X015700Y009045D01*
X016700Y009045D02*
X016700Y008455D01*
X017700Y008455D02*
X017700Y009045D01*
X018700Y009045D02*
X018700Y008455D01*
X008995Y017250D02*
X008405Y017250D01*
X008405Y018250D02*
X008995Y018250D01*
X002495Y015000D02*
X001905Y015000D01*
X001905Y014000D02*
X002495Y014000D01*
X002495Y013000D02*
X001905Y013000D01*
X001905Y012000D02*
X002495Y012000D01*
X002495Y010750D02*
X001905Y010750D01*
X001905Y009750D02*
X002495Y009750D01*
X002495Y008750D02*
X001905Y008750D01*
X001905Y007750D02*
X002495Y007750D01*
X002495Y006500D02*
X001905Y006500D01*
X001905Y005500D02*
X002495Y005500D01*
X002495Y004500D02*
X001905Y004500D01*
X001905Y003500D02*
X002495Y003500D01*
X002245Y017250D02*
X001655Y017250D01*
X001655Y018250D02*
X002245Y018250D01*
D16*
X002574Y019851D03*
X027700Y019000D03*
X027581Y004565D03*
D17*
X011200Y014750D03*
X010450Y016500D03*
X015300Y015150D03*
X015700Y015150D03*
X016100Y015150D03*
X016500Y015150D03*
X019500Y015250D03*
X019900Y015250D03*
X019900Y015650D03*
X019500Y015650D03*
X021550Y016350D03*
X021950Y016350D03*
X021750Y016750D03*
X021600Y018050D03*
X008200Y011500D03*
X005700Y011000D03*
X005200Y012750D03*
X007450Y009000D03*
X006700Y003500D03*
D18*
X011950Y011750D03*
X011950Y012500D03*
X011200Y016000D03*
X011200Y016500D03*
X012450Y016500D03*
X012950Y016000D03*
X019450Y018500D03*
X004200Y015750D03*
X003950Y016385D03*
D19*
X003450Y017000D03*
X010200Y019500D03*
X015700Y019500D03*
X019200Y019068D03*
X018950Y011000D03*
X020450Y010250D03*
X020450Y007250D03*
X021700Y004000D03*
X014200Y011000D03*
D20*
X006200Y016500D02*
X004287Y016500D01*
X004251Y016586D01*
X004151Y016686D01*
X004021Y016740D01*
X003950Y016740D01*
X003950Y016750D01*
X002385Y016750D01*
X002537Y016813D01*
X002682Y016958D01*
X002761Y017148D01*
X002761Y017352D01*
X002682Y017542D01*
X002537Y017687D01*
X002385Y017750D01*
X002537Y017813D01*
X002682Y017958D01*
X002761Y018148D01*
X002761Y018352D01*
X002682Y018542D01*
X002537Y018687D01*
X002348Y018765D01*
X001552Y018765D01*
X001363Y018687D01*
X001218Y018542D01*
X001200Y018499D01*
X001200Y019559D01*
X001584Y020088D01*
X002112Y020616D01*
X002297Y020750D01*
X003950Y020750D01*
X003950Y019500D01*
X009792Y019500D01*
X009792Y019419D01*
X009854Y019269D01*
X009969Y019154D01*
X010119Y019092D01*
X010281Y019092D01*
X010431Y019154D01*
X010450Y019173D01*
X010450Y017000D01*
X009449Y017000D01*
X009511Y017148D01*
X009511Y017352D01*
X009432Y017542D01*
X009287Y017687D01*
X009135Y017750D01*
X009287Y017813D01*
X009432Y017958D01*
X009511Y018148D01*
X009511Y018352D01*
X009432Y018542D01*
X009287Y018687D01*
X009098Y018765D01*
X008302Y018765D01*
X008113Y018687D01*
X007968Y018542D01*
X007889Y018352D01*
X007889Y018148D01*
X007968Y017958D01*
X008113Y017813D01*
X008265Y017750D01*
X008113Y017687D01*
X007968Y017542D01*
X007889Y017352D01*
X007889Y017148D01*
X007951Y017000D01*
X006200Y017000D01*
X006200Y016500D01*
X006200Y016511D02*
X004282Y016511D01*
X004208Y016629D02*
X006200Y016629D01*
X006200Y016748D02*
X003950Y016748D01*
X002742Y017103D02*
X007908Y017103D01*
X007889Y017222D02*
X002761Y017222D01*
X002761Y017340D02*
X007889Y017340D01*
X007933Y017459D02*
X002717Y017459D01*
X002647Y017577D02*
X008003Y017577D01*
X008134Y017696D02*
X002516Y017696D01*
X002538Y017814D02*
X008112Y017814D01*
X007993Y017933D02*
X002657Y017933D01*
X002721Y018051D02*
X007929Y018051D01*
X007889Y018170D02*
X002761Y018170D01*
X002761Y018288D02*
X007889Y018288D01*
X007912Y018407D02*
X002738Y018407D01*
X002689Y018525D02*
X007961Y018525D01*
X008070Y018644D02*
X002580Y018644D01*
X002356Y018762D02*
X008294Y018762D01*
X009106Y018762D02*
X010450Y018762D01*
X010450Y018644D02*
X009330Y018644D01*
X009439Y018525D02*
X010450Y018525D01*
X010450Y018407D02*
X009488Y018407D01*
X009511Y018288D02*
X010450Y018288D01*
X010450Y018170D02*
X009511Y018170D01*
X009471Y018051D02*
X010450Y018051D01*
X010450Y017933D02*
X009407Y017933D01*
X009288Y017814D02*
X010450Y017814D01*
X010450Y017696D02*
X009266Y017696D01*
X009397Y017577D02*
X010450Y017577D01*
X010450Y017459D02*
X009467Y017459D01*
X009511Y017340D02*
X010450Y017340D01*
X010450Y017222D02*
X009511Y017222D01*
X009492Y017103D02*
X010450Y017103D01*
X010450Y018881D02*
X001200Y018881D01*
X001200Y018999D02*
X010450Y018999D01*
X010450Y019118D02*
X010343Y019118D01*
X010057Y019118D02*
X001200Y019118D01*
X001200Y019236D02*
X002252Y019236D01*
X002300Y019188D02*
X002514Y019188D01*
X002514Y019791D01*
X001912Y019791D01*
X001912Y019576D01*
X002300Y019188D01*
X002514Y019236D02*
X002634Y019236D01*
X002634Y019188D02*
X002849Y019188D01*
X003237Y019576D01*
X003237Y019791D01*
X002634Y019791D01*
X002634Y019188D01*
X002634Y019355D02*
X002514Y019355D01*
X002514Y019473D02*
X002634Y019473D01*
X002634Y019592D02*
X002514Y019592D01*
X002514Y019710D02*
X002634Y019710D01*
X002634Y019791D02*
X002514Y019791D01*
X002514Y019911D01*
X001912Y019911D01*
X001912Y020125D01*
X002300Y020513D01*
X002514Y020513D01*
X002514Y019911D01*
X002634Y019911D01*
X002634Y020513D01*
X002849Y020513D01*
X003237Y020125D01*
X003237Y019911D01*
X002634Y019911D01*
X002634Y019791D01*
X002634Y019829D02*
X003950Y019829D01*
X003950Y019947D02*
X003237Y019947D01*
X003237Y020066D02*
X003950Y020066D01*
X003950Y020184D02*
X003178Y020184D01*
X003060Y020303D02*
X003950Y020303D01*
X003950Y020421D02*
X002941Y020421D01*
X002634Y020421D02*
X002514Y020421D01*
X002514Y020303D02*
X002634Y020303D01*
X002634Y020184D02*
X002514Y020184D01*
X002514Y020066D02*
X002634Y020066D01*
X002634Y019947D02*
X002514Y019947D01*
X002514Y019829D02*
X001396Y019829D01*
X001482Y019947D02*
X001912Y019947D01*
X001912Y020066D02*
X001568Y020066D01*
X001680Y020184D02*
X001971Y020184D01*
X002089Y020303D02*
X001799Y020303D01*
X001917Y020421D02*
X002208Y020421D01*
X002036Y020540D02*
X003950Y020540D01*
X003950Y020658D02*
X002170Y020658D01*
X001912Y019710D02*
X001310Y019710D01*
X001223Y019592D02*
X001912Y019592D01*
X002015Y019473D02*
X001200Y019473D01*
X001200Y019355D02*
X002134Y019355D01*
X002897Y019236D02*
X009887Y019236D01*
X009819Y019355D02*
X003015Y019355D01*
X003134Y019473D02*
X009792Y019473D01*
X007450Y021750D02*
X007200Y021500D01*
X007450Y021750D02*
X018950Y021750D01*
X019200Y021500D01*
X006200Y016985D02*
X002693Y016985D01*
X002590Y016866D02*
X006200Y016866D01*
X003950Y019592D02*
X003237Y019592D01*
X003237Y019710D02*
X003950Y019710D01*
X001544Y018762D02*
X001200Y018762D01*
X001200Y018644D02*
X001320Y018644D01*
X001211Y018525D02*
X001200Y018525D01*
D21*
X001200Y016500D02*
X001200Y003000D01*
X001791Y003000D01*
X001619Y003072D01*
X001476Y003214D01*
X001399Y003399D01*
X001399Y003601D01*
X001476Y003786D01*
X001619Y003928D01*
X001791Y004000D01*
X001619Y004072D01*
X001476Y004214D01*
X001399Y004399D01*
X001399Y004601D01*
X001476Y004786D01*
X001619Y004928D01*
X001791Y005000D01*
X001619Y005072D01*
X001476Y005214D01*
X001399Y005399D01*
X001399Y005601D01*
X001476Y005786D01*
X001619Y005928D01*
X001791Y006000D01*
X001619Y006072D01*
X001476Y006214D01*
X001399Y006399D01*
X001399Y006601D01*
X001476Y006786D01*
X001619Y006928D01*
X001804Y007005D01*
X002596Y007005D01*
X002781Y006928D01*
X002924Y006786D01*
X003001Y006601D01*
X003001Y006399D01*
X002924Y006214D01*
X002781Y006072D01*
X002609Y006000D01*
X002781Y005928D01*
X002924Y005786D01*
X003001Y005601D01*
X003001Y005399D01*
X002924Y005214D01*
X002781Y005072D01*
X002609Y005000D01*
X002781Y004928D01*
X002924Y004786D01*
X003001Y004601D01*
X003001Y004399D01*
X002924Y004214D01*
X002781Y004072D01*
X002609Y004000D01*
X002781Y003928D01*
X002924Y003786D01*
X003001Y003601D01*
X003001Y003399D01*
X002924Y003214D01*
X002781Y003072D01*
X002609Y003000D01*
X026200Y003000D01*
X026200Y002363D01*
X026205Y002351D01*
X026205Y002149D01*
X026200Y002137D01*
X026200Y001363D01*
X026205Y001351D01*
X026205Y001149D01*
X026200Y001137D01*
X026200Y000750D01*
X028200Y000750D01*
X026200Y000750D01*
X026200Y000849D02*
X028200Y000849D01*
X028200Y000947D02*
X026200Y000947D01*
X026200Y001046D02*
X028200Y001046D01*
X028200Y001144D02*
X026203Y001144D01*
X026205Y001243D02*
X028200Y001243D01*
X028200Y001341D02*
X026205Y001341D01*
X026200Y001440D02*
X028200Y001440D01*
X028200Y001538D02*
X026200Y001538D01*
X026200Y001637D02*
X028200Y001637D01*
X028200Y001735D02*
X026200Y001735D01*
X026200Y001834D02*
X028200Y001834D01*
X028200Y001932D02*
X026200Y001932D01*
X026200Y002031D02*
X028200Y002031D01*
X028200Y002129D02*
X026200Y002129D01*
X026205Y002228D02*
X028200Y002228D01*
X028200Y002326D02*
X026205Y002326D01*
X026200Y002425D02*
X028200Y002425D01*
X028200Y002523D02*
X026200Y002523D01*
X026200Y002622D02*
X028200Y002622D01*
X028200Y002720D02*
X026200Y002720D01*
X026200Y002819D02*
X028200Y002819D01*
X028200Y002917D02*
X026200Y002917D01*
X025669Y004141D02*
X025811Y004284D01*
X025888Y004469D01*
X025888Y005261D01*
X025811Y005446D01*
X025669Y005589D01*
X025483Y005666D01*
X025282Y005666D01*
X025096Y005589D01*
X024954Y005446D01*
X024883Y005274D01*
X024811Y005446D01*
X024669Y005589D01*
X024483Y005666D01*
X024282Y005666D01*
X024096Y005589D01*
X023954Y005446D01*
X023877Y005261D01*
X023877Y004469D01*
X023954Y004284D01*
X024096Y004141D01*
X024282Y004064D01*
X024483Y004064D01*
X024669Y004141D01*
X024811Y004284D01*
X024883Y004456D01*
X024954Y004284D01*
X025096Y004141D01*
X025282Y004064D01*
X025483Y004064D01*
X025669Y004141D01*
X025725Y004198D02*
X028200Y004198D01*
X028200Y004296D02*
X025816Y004296D01*
X025857Y004395D02*
X028200Y004395D01*
X028200Y004493D02*
X025888Y004493D01*
X025888Y004592D02*
X028200Y004592D01*
X028200Y004690D02*
X025888Y004690D01*
X025888Y004789D02*
X028200Y004789D01*
X028200Y004887D02*
X025888Y004887D01*
X025888Y004986D02*
X028200Y004986D01*
X028200Y005084D02*
X025888Y005084D01*
X025888Y005183D02*
X028200Y005183D01*
X028200Y005250D02*
X028200Y000750D01*
X028200Y003016D02*
X002646Y003016D01*
X002824Y003114D02*
X028200Y003114D01*
X028200Y003213D02*
X002922Y003213D01*
X002964Y003311D02*
X028200Y003311D01*
X028200Y003410D02*
X003001Y003410D01*
X003001Y003508D02*
X028200Y003508D01*
X028200Y003607D02*
X002998Y003607D01*
X002957Y003705D02*
X028200Y003705D01*
X028200Y003804D02*
X002906Y003804D01*
X002808Y003902D02*
X028200Y003902D01*
X028200Y004001D02*
X016924Y004001D01*
X016986Y004026D02*
X017128Y004169D01*
X017205Y004354D01*
X017205Y005146D01*
X017128Y005331D01*
X016986Y005474D01*
X016801Y005551D01*
X016599Y005551D01*
X016414Y005474D01*
X016272Y005331D01*
X016200Y005159D01*
X016128Y005331D01*
X015986Y005474D01*
X015801Y005551D01*
X015599Y005551D01*
X015414Y005474D01*
X015272Y005331D01*
X015200Y005159D01*
X015128Y005331D01*
X014986Y005474D01*
X014801Y005551D01*
X014599Y005551D01*
X014414Y005474D01*
X014272Y005331D01*
X014195Y005146D01*
X014195Y004354D01*
X014272Y004169D01*
X014414Y004026D01*
X014599Y003949D01*
X014801Y003949D01*
X014986Y004026D01*
X015128Y004169D01*
X015200Y004341D01*
X015272Y004169D01*
X015414Y004026D01*
X015599Y003949D01*
X015801Y003949D01*
X015986Y004026D01*
X016128Y004169D01*
X016200Y004341D01*
X016272Y004169D01*
X016414Y004026D01*
X016599Y003949D01*
X016801Y003949D01*
X016986Y004026D01*
X017059Y004099D02*
X024199Y004099D01*
X024040Y004198D02*
X017140Y004198D01*
X017181Y004296D02*
X023949Y004296D01*
X023908Y004395D02*
X017205Y004395D01*
X017205Y004493D02*
X023877Y004493D01*
X023877Y004592D02*
X017205Y004592D01*
X017205Y004690D02*
X023877Y004690D01*
X023877Y004789D02*
X017205Y004789D01*
X017205Y004887D02*
X023877Y004887D01*
X023877Y004986D02*
X017205Y004986D01*
X017205Y005084D02*
X023877Y005084D01*
X023877Y005183D02*
X017190Y005183D01*
X017149Y005281D02*
X023886Y005281D01*
X023926Y005380D02*
X017080Y005380D01*
X016976Y005478D02*
X023986Y005478D01*
X024084Y005577D02*
X003001Y005577D01*
X003001Y005478D02*
X008924Y005478D01*
X008914Y005474D02*
X008772Y005331D01*
X008695Y005146D01*
X008695Y004354D01*
X008772Y004169D01*
X008914Y004026D01*
X009099Y003949D01*
X009301Y003949D01*
X009486Y004026D01*
X009628Y004169D01*
X009700Y004341D01*
X009772Y004169D01*
X009914Y004026D01*
X010099Y003949D01*
X010301Y003949D01*
X010486Y004026D01*
X010628Y004169D01*
X010700Y004341D01*
X010772Y004169D01*
X010914Y004026D01*
X011099Y003949D01*
X011301Y003949D01*
X011486Y004026D01*
X011628Y004169D01*
X011705Y004354D01*
X011705Y005146D01*
X011628Y005331D01*
X011486Y005474D01*
X011301Y005551D01*
X011099Y005551D01*
X010914Y005474D01*
X010772Y005331D01*
X010700Y005159D01*
X010628Y005331D01*
X010486Y005474D01*
X010301Y005551D01*
X010099Y005551D01*
X009914Y005474D01*
X009772Y005331D01*
X009700Y005159D01*
X009628Y005331D01*
X009486Y005474D01*
X009301Y005551D01*
X009099Y005551D01*
X008914Y005474D01*
X008820Y005380D02*
X002992Y005380D01*
X002951Y005281D02*
X008751Y005281D01*
X008710Y005183D02*
X002892Y005183D01*
X002794Y005084D02*
X008695Y005084D01*
X008695Y004986D02*
X002643Y004986D01*
X002823Y004887D02*
X008695Y004887D01*
X008695Y004789D02*
X002921Y004789D01*
X002963Y004690D02*
X008695Y004690D01*
X008695Y004592D02*
X003001Y004592D01*
X003001Y004493D02*
X008695Y004493D01*
X008695Y004395D02*
X002998Y004395D01*
X002958Y004296D02*
X008719Y004296D01*
X008760Y004198D02*
X002907Y004198D01*
X002809Y004099D02*
X008841Y004099D01*
X008976Y004001D02*
X002610Y004001D01*
X001790Y004001D02*
X001200Y004001D01*
X001200Y004099D02*
X001591Y004099D01*
X001493Y004198D02*
X001200Y004198D01*
X001200Y004296D02*
X001442Y004296D01*
X001402Y004395D02*
X001200Y004395D01*
X001200Y004493D02*
X001399Y004493D01*
X001399Y004592D02*
X001200Y004592D01*
X001200Y004690D02*
X001437Y004690D01*
X001479Y004789D02*
X001200Y004789D01*
X001200Y004887D02*
X001577Y004887D01*
X001606Y005084D02*
X001200Y005084D01*
X001200Y004986D02*
X001757Y004986D01*
X001508Y005183D02*
X001200Y005183D01*
X001200Y005281D02*
X001449Y005281D01*
X001408Y005380D02*
X001200Y005380D01*
X001200Y005478D02*
X001399Y005478D01*
X001399Y005577D02*
X001200Y005577D01*
X001200Y005675D02*
X001430Y005675D01*
X001471Y005774D02*
X001200Y005774D01*
X001200Y005872D02*
X001562Y005872D01*
X001720Y005971D02*
X001200Y005971D01*
X001200Y006069D02*
X001625Y006069D01*
X001523Y006168D02*
X001200Y006168D01*
X001200Y006266D02*
X001455Y006266D01*
X001414Y006365D02*
X001200Y006365D01*
X001200Y006463D02*
X001399Y006463D01*
X001399Y006562D02*
X001200Y006562D01*
X001200Y006660D02*
X001424Y006660D01*
X001465Y006759D02*
X001200Y006759D01*
X001200Y006857D02*
X001547Y006857D01*
X001684Y006956D02*
X001200Y006956D01*
X001200Y007054D02*
X025950Y007054D01*
X025950Y006956D02*
X002716Y006956D01*
X002853Y006857D02*
X025950Y006857D01*
X025950Y006759D02*
X002935Y006759D01*
X002976Y006660D02*
X025950Y006660D01*
X025950Y006562D02*
X003001Y006562D01*
X003001Y006463D02*
X025950Y006463D01*
X025950Y006365D02*
X002986Y006365D01*
X002945Y006266D02*
X025950Y006266D01*
X025950Y006168D02*
X002877Y006168D01*
X002775Y006069D02*
X025950Y006069D01*
X025950Y005971D02*
X002680Y005971D01*
X002838Y005872D02*
X025950Y005872D01*
X025950Y005774D02*
X002929Y005774D01*
X002970Y005675D02*
X025950Y005675D01*
X025950Y005577D02*
X025681Y005577D01*
X025779Y005478D02*
X025950Y005478D01*
X025950Y005380D02*
X025839Y005380D01*
X025879Y005281D02*
X025950Y005281D01*
X025950Y005250D02*
X028200Y005250D01*
X028200Y004099D02*
X025566Y004099D01*
X025199Y004099D02*
X024566Y004099D01*
X024725Y004198D02*
X025040Y004198D01*
X024949Y004296D02*
X024816Y004296D01*
X024857Y004395D02*
X024908Y004395D01*
X024879Y005281D02*
X024886Y005281D01*
X024926Y005380D02*
X024839Y005380D01*
X024779Y005478D02*
X024986Y005478D01*
X025084Y005577D02*
X024681Y005577D01*
X025950Y005250D02*
X025950Y007965D01*
X025928Y007913D01*
X025786Y007771D01*
X025600Y007694D01*
X025399Y007694D01*
X025214Y007771D01*
X025072Y007913D01*
X025000Y008086D01*
X024928Y007913D01*
X024786Y007771D01*
X024600Y007694D01*
X024399Y007694D01*
X024214Y007771D01*
X024072Y007913D01*
X023995Y008099D01*
X023995Y008890D01*
X024072Y009076D01*
X024214Y009218D01*
X024399Y009295D01*
X024600Y009295D01*
X024786Y009218D01*
X024928Y009076D01*
X025000Y008903D01*
X025072Y009076D01*
X025214Y009218D01*
X025399Y009295D01*
X025600Y009295D01*
X025786Y009218D01*
X025928Y009076D01*
X025950Y009023D01*
X025950Y011841D01*
X025878Y011669D01*
X025736Y011526D01*
X025551Y011449D01*
X025349Y011449D01*
X025164Y011526D01*
X025022Y011669D01*
X024950Y011841D01*
X024878Y011669D01*
X024736Y011526D01*
X024551Y011449D01*
X024349Y011449D01*
X024164Y011526D01*
X024022Y011669D01*
X023945Y011854D01*
X023945Y012646D01*
X024022Y012831D01*
X024164Y012974D01*
X024349Y013051D01*
X024551Y013051D01*
X024736Y012974D01*
X024878Y012831D01*
X024950Y012659D01*
X025022Y012831D01*
X025164Y012974D01*
X025349Y013051D01*
X025551Y013051D01*
X025736Y012974D01*
X025878Y012831D01*
X025950Y012659D01*
X025950Y015250D01*
X026972Y015250D01*
X027120Y015367D01*
X027120Y015367D01*
X027450Y015527D01*
X027450Y018000D01*
X026450Y018750D01*
X017710Y018750D01*
X017710Y016698D01*
X017670Y016603D01*
X017420Y016353D01*
X017347Y016280D01*
X017252Y016240D01*
X014058Y016240D01*
X013960Y016142D01*
X013960Y011948D01*
X013920Y011853D01*
X013700Y011632D01*
X013700Y011500D01*
X013526Y011500D01*
X013502Y011490D01*
X012178Y011490D01*
X012145Y011458D01*
X012019Y011405D01*
X011881Y011405D01*
X011755Y011458D01*
X011722Y011490D01*
X011648Y011490D01*
X011624Y011500D01*
X011450Y011500D01*
X011450Y011632D01*
X011230Y011853D01*
X011190Y011948D01*
X011190Y013142D01*
X011092Y013240D01*
X004148Y013240D01*
X004053Y013280D01*
X003980Y013353D01*
X003730Y013603D01*
X003690Y013698D01*
X003690Y016157D01*
X003658Y016190D01*
X003605Y016316D01*
X003605Y016454D01*
X003624Y016500D01*
X001200Y016500D01*
X001200Y016412D02*
X003605Y016412D01*
X003606Y016313D02*
X001200Y016313D01*
X001200Y016215D02*
X003647Y016215D01*
X003690Y016116D02*
X001200Y016116D01*
X001200Y016018D02*
X003690Y016018D01*
X003690Y015919D02*
X001200Y015919D01*
X001200Y015821D02*
X003690Y015821D01*
X003690Y015722D02*
X001200Y015722D01*
X001200Y015624D02*
X003690Y015624D01*
X003690Y015525D02*
X001200Y015525D01*
X001200Y015427D02*
X001617Y015427D01*
X001619Y015428D02*
X001476Y015286D01*
X001399Y015101D01*
X001399Y014899D01*
X001476Y014714D01*
X001619Y014572D01*
X001791Y014500D01*
X001619Y014428D01*
X001476Y014286D01*
X001399Y014101D01*
X001399Y013899D01*
X001476Y013714D01*
X001619Y013572D01*
X001791Y013500D01*
X001619Y013428D01*
X001476Y013286D01*
X001399Y013101D01*
X001399Y012899D01*
X001476Y012714D01*
X001619Y012572D01*
X001791Y012500D01*
X001619Y012428D01*
X001476Y012286D01*
X001399Y012101D01*
X001399Y011899D01*
X001476Y011714D01*
X001619Y011572D01*
X001804Y011495D01*
X002596Y011495D01*
X002781Y011572D01*
X002924Y011714D01*
X003001Y011899D01*
X003001Y012101D01*
X002924Y012286D01*
X002781Y012428D01*
X002609Y012500D01*
X002781Y012572D01*
X002924Y012714D01*
X003001Y012899D01*
X003001Y013101D01*
X002924Y013286D01*
X002781Y013428D01*
X002609Y013500D01*
X002781Y013572D01*
X002924Y013714D01*
X003001Y013899D01*
X003001Y014101D01*
X002924Y014286D01*
X002781Y014428D01*
X002609Y014500D01*
X002781Y014572D01*
X002924Y014714D01*
X003001Y014899D01*
X003001Y015101D01*
X002924Y015286D01*
X002781Y015428D01*
X002596Y015505D01*
X001804Y015505D01*
X001619Y015428D01*
X001518Y015328D02*
X001200Y015328D01*
X001200Y015230D02*
X001453Y015230D01*
X001412Y015131D02*
X001200Y015131D01*
X001200Y015033D02*
X001399Y015033D01*
X001399Y014934D02*
X001200Y014934D01*
X001200Y014836D02*
X001426Y014836D01*
X001467Y014737D02*
X001200Y014737D01*
X001200Y014639D02*
X001552Y014639D01*
X001695Y014540D02*
X001200Y014540D01*
X001200Y014442D02*
X001650Y014442D01*
X001533Y014343D02*
X001200Y014343D01*
X001200Y014245D02*
X001459Y014245D01*
X001418Y014146D02*
X001200Y014146D01*
X001200Y014048D02*
X001399Y014048D01*
X001399Y013949D02*
X001200Y013949D01*
X001200Y013851D02*
X001420Y013851D01*
X001461Y013752D02*
X001200Y013752D01*
X001200Y013654D02*
X001537Y013654D01*
X001659Y013555D02*
X001200Y013555D01*
X001200Y013457D02*
X001687Y013457D01*
X001548Y013358D02*
X001200Y013358D01*
X001200Y013260D02*
X001465Y013260D01*
X001425Y013161D02*
X001200Y013161D01*
X001200Y013063D02*
X001399Y013063D01*
X001399Y012964D02*
X001200Y012964D01*
X001200Y012866D02*
X001414Y012866D01*
X001454Y012767D02*
X001200Y012767D01*
X001200Y012669D02*
X001522Y012669D01*
X001622Y012570D02*
X001200Y012570D01*
X001200Y012472D02*
X001723Y012472D01*
X001563Y012373D02*
X001200Y012373D01*
X001200Y012275D02*
X001472Y012275D01*
X001431Y012176D02*
X001200Y012176D01*
X001200Y012078D02*
X001399Y012078D01*
X001399Y011979D02*
X001200Y011979D01*
X001200Y011881D02*
X001407Y011881D01*
X001448Y011782D02*
X001200Y011782D01*
X001200Y011684D02*
X001507Y011684D01*
X001605Y011585D02*
X001200Y011585D01*
X001200Y011487D02*
X011726Y011487D01*
X011450Y011585D02*
X002795Y011585D01*
X002893Y011684D02*
X011399Y011684D01*
X011300Y011782D02*
X002952Y011782D01*
X002993Y011881D02*
X011218Y011881D01*
X011190Y011979D02*
X003001Y011979D01*
X003001Y012078D02*
X011190Y012078D01*
X011190Y012176D02*
X002969Y012176D01*
X002928Y012275D02*
X011190Y012275D01*
X011190Y012373D02*
X002837Y012373D01*
X002677Y012472D02*
X011190Y012472D01*
X011190Y012570D02*
X002778Y012570D01*
X002878Y012669D02*
X011190Y012669D01*
X011190Y012767D02*
X002946Y012767D01*
X002986Y012866D02*
X011190Y012866D01*
X011190Y012964D02*
X003001Y012964D01*
X003001Y013063D02*
X011190Y013063D01*
X011171Y013161D02*
X002975Y013161D01*
X002935Y013260D02*
X004101Y013260D01*
X003974Y013358D02*
X002852Y013358D01*
X002713Y013457D02*
X003876Y013457D01*
X003777Y013555D02*
X002741Y013555D01*
X002863Y013654D02*
X003709Y013654D01*
X003690Y013752D02*
X002939Y013752D01*
X002980Y013851D02*
X003690Y013851D01*
X003690Y013949D02*
X003001Y013949D01*
X003001Y014048D02*
X003690Y014048D01*
X003690Y014146D02*
X002982Y014146D01*
X002941Y014245D02*
X003690Y014245D01*
X003690Y014343D02*
X002867Y014343D01*
X002750Y014442D02*
X003690Y014442D01*
X003690Y014540D02*
X002705Y014540D01*
X002848Y014639D02*
X003690Y014639D01*
X003690Y014737D02*
X002933Y014737D01*
X002974Y014836D02*
X003690Y014836D01*
X003690Y014934D02*
X003001Y014934D01*
X003001Y015033D02*
X003690Y015033D01*
X003690Y015131D02*
X002988Y015131D01*
X002947Y015230D02*
X003690Y015230D01*
X003690Y015328D02*
X002882Y015328D01*
X002783Y015427D02*
X003690Y015427D01*
X004200Y015750D02*
X004200Y014000D01*
X004450Y013750D01*
X011700Y013750D01*
X011950Y013500D01*
X011950Y012500D01*
X013200Y012500D01*
X013450Y012750D01*
X013450Y016500D01*
X013700Y016750D01*
X016950Y016750D01*
X017200Y017000D01*
X017200Y020750D01*
X017700Y021250D01*
X017700Y020250D02*
X017450Y020000D01*
X017450Y016750D01*
X017200Y016500D01*
X013950Y016500D01*
X013700Y016250D01*
X013700Y012000D01*
X013450Y011750D01*
X011950Y011750D01*
X011700Y011750D01*
X011450Y012000D01*
X011450Y013250D01*
X011200Y013500D01*
X004200Y013500D01*
X003950Y013750D01*
X003950Y016385D01*
X011200Y016500D02*
X012450Y016500D01*
X012950Y016000D02*
X011200Y016000D01*
X013960Y016018D02*
X022472Y016018D01*
X022446Y016113D02*
X022517Y015849D01*
X022654Y015611D01*
X022848Y015418D01*
X023085Y015281D01*
X023349Y015210D01*
X023623Y015210D01*
X023888Y015281D01*
X024125Y015418D01*
X024318Y015611D01*
X024455Y015849D01*
X024526Y016113D01*
X024526Y016387D01*
X024455Y016651D01*
X024318Y016889D01*
X024125Y017082D01*
X023888Y017219D01*
X023623Y017290D01*
X023349Y017290D01*
X023085Y017219D01*
X022985Y017161D01*
X021948Y018198D01*
X021921Y018264D01*
X021814Y018371D01*
X021675Y018428D01*
X021525Y018428D01*
X021386Y018371D01*
X021279Y018264D01*
X021222Y018125D01*
X021222Y017975D01*
X021279Y017836D01*
X021386Y017729D01*
X021525Y017672D01*
X021655Y017672D01*
X022575Y016751D01*
X022517Y016651D01*
X022446Y016387D01*
X022446Y016113D01*
X022446Y016116D02*
X013960Y016116D01*
X014032Y016215D02*
X022446Y016215D01*
X022446Y016313D02*
X017381Y016313D01*
X017479Y016412D02*
X022453Y016412D01*
X022479Y016510D02*
X017578Y016510D01*
X017673Y016609D02*
X022506Y016609D01*
X022549Y016707D02*
X017710Y016707D01*
X017710Y016806D02*
X022521Y016806D01*
X022422Y016904D02*
X017710Y016904D01*
X017710Y017003D02*
X022324Y017003D01*
X022225Y017101D02*
X017710Y017101D01*
X017710Y017200D02*
X022127Y017200D01*
X022028Y017298D02*
X017710Y017298D01*
X017710Y017397D02*
X021930Y017397D01*
X021831Y017495D02*
X017710Y017495D01*
X017710Y017594D02*
X021733Y017594D01*
X021475Y017692D02*
X017710Y017692D01*
X017710Y017791D02*
X021324Y017791D01*
X021257Y017889D02*
X017710Y017889D01*
X017710Y017988D02*
X021222Y017988D01*
X021222Y018086D02*
X017710Y018086D01*
X017710Y018185D02*
X021246Y018185D01*
X021298Y018283D02*
X017710Y018283D01*
X017710Y018382D02*
X021412Y018382D01*
X021788Y018382D02*
X026941Y018382D01*
X026810Y018480D02*
X017710Y018480D01*
X017710Y018579D02*
X026679Y018579D01*
X026547Y018677D02*
X017710Y018677D01*
X021902Y018283D02*
X027073Y018283D01*
X027204Y018185D02*
X021962Y018185D01*
X022060Y018086D02*
X027335Y018086D01*
X027450Y017988D02*
X022159Y017988D01*
X022257Y017889D02*
X027450Y017889D01*
X027450Y017791D02*
X022356Y017791D01*
X022454Y017692D02*
X027450Y017692D01*
X027450Y017594D02*
X022553Y017594D01*
X022651Y017495D02*
X027450Y017495D01*
X027450Y017397D02*
X022750Y017397D01*
X022848Y017298D02*
X027450Y017298D01*
X027450Y017200D02*
X023921Y017200D01*
X024092Y017101D02*
X027450Y017101D01*
X027450Y017003D02*
X024204Y017003D01*
X024303Y016904D02*
X027450Y016904D01*
X027450Y016806D02*
X024366Y016806D01*
X024423Y016707D02*
X027450Y016707D01*
X027450Y016609D02*
X024467Y016609D01*
X024493Y016510D02*
X027450Y016510D01*
X027450Y016412D02*
X024520Y016412D01*
X024526Y016313D02*
X027450Y016313D01*
X027450Y016215D02*
X024526Y016215D01*
X024526Y016116D02*
X027450Y016116D01*
X027450Y016018D02*
X024501Y016018D01*
X024474Y015919D02*
X027450Y015919D01*
X027450Y015821D02*
X024439Y015821D01*
X024382Y015722D02*
X027450Y015722D01*
X027450Y015624D02*
X024325Y015624D01*
X024232Y015525D02*
X027447Y015525D01*
X027242Y015427D02*
X024134Y015427D01*
X023969Y015328D02*
X027070Y015328D01*
X025950Y015230D02*
X023696Y015230D01*
X023277Y015230D02*
X013960Y015230D01*
X013960Y015328D02*
X023003Y015328D01*
X022839Y015427D02*
X013960Y015427D01*
X013960Y015525D02*
X022741Y015525D01*
X022647Y015624D02*
X013960Y015624D01*
X013960Y015722D02*
X022590Y015722D01*
X022533Y015821D02*
X013960Y015821D01*
X013960Y015919D02*
X022498Y015919D01*
X022947Y017200D02*
X023051Y017200D01*
X025950Y015131D02*
X013960Y015131D01*
X013960Y015033D02*
X025950Y015033D01*
X025950Y014934D02*
X013960Y014934D01*
X013960Y014836D02*
X025950Y014836D01*
X025950Y014737D02*
X013960Y014737D01*
X013960Y014639D02*
X025950Y014639D01*
X025950Y014540D02*
X013960Y014540D01*
X013960Y014442D02*
X025950Y014442D01*
X025950Y014343D02*
X013960Y014343D01*
X013960Y014245D02*
X025950Y014245D01*
X025950Y014146D02*
X013960Y014146D01*
X013960Y014048D02*
X025950Y014048D01*
X025950Y013949D02*
X013960Y013949D01*
X013960Y013851D02*
X025950Y013851D01*
X025950Y013752D02*
X013960Y013752D01*
X013960Y013654D02*
X025950Y013654D01*
X025950Y013555D02*
X013960Y013555D01*
X013960Y013457D02*
X025950Y013457D01*
X025950Y013358D02*
X013960Y013358D01*
X013960Y013260D02*
X025950Y013260D01*
X025950Y013161D02*
X013960Y013161D01*
X013960Y013063D02*
X025950Y013063D01*
X025950Y012964D02*
X025746Y012964D01*
X025844Y012866D02*
X025950Y012866D01*
X025950Y012767D02*
X025905Y012767D01*
X025946Y012669D02*
X025950Y012669D01*
X025154Y012964D02*
X024746Y012964D01*
X024844Y012866D02*
X025056Y012866D01*
X024995Y012767D02*
X024905Y012767D01*
X024946Y012669D02*
X024954Y012669D01*
X024154Y012964D02*
X013960Y012964D01*
X013960Y012866D02*
X024056Y012866D01*
X023995Y012767D02*
X013960Y012767D01*
X013960Y012669D02*
X023954Y012669D01*
X023945Y012570D02*
X013960Y012570D01*
X013960Y012472D02*
X023945Y012472D01*
X023945Y012373D02*
X013960Y012373D01*
X013960Y012275D02*
X023945Y012275D01*
X023945Y012176D02*
X013960Y012176D01*
X013960Y012078D02*
X023945Y012078D01*
X023945Y011979D02*
X013960Y011979D01*
X013932Y011881D02*
X023945Y011881D01*
X023975Y011782D02*
X013850Y011782D01*
X013751Y011684D02*
X024015Y011684D01*
X024105Y011585D02*
X013700Y011585D01*
X013974Y011338D02*
X013862Y011226D01*
X013802Y011079D01*
X013802Y010921D01*
X013862Y010774D01*
X013974Y010662D01*
X014121Y010602D01*
X014279Y010602D01*
X014426Y010662D01*
X014473Y010710D01*
X018677Y010710D01*
X018724Y010662D01*
X018871Y010602D01*
X019029Y010602D01*
X019176Y010662D01*
X019288Y010774D01*
X019348Y010921D01*
X019348Y011079D01*
X019288Y011226D01*
X019176Y011338D01*
X019029Y011398D01*
X018871Y011398D01*
X018724Y011338D01*
X018677Y011290D01*
X014473Y011290D01*
X014426Y011338D01*
X014279Y011398D01*
X014121Y011398D01*
X013974Y011338D01*
X013927Y011290D02*
X005946Y011290D01*
X005914Y011321D02*
X005775Y011378D01*
X005625Y011378D01*
X005486Y011321D01*
X005379Y011214D01*
X005322Y011075D01*
X005322Y011040D01*
X002920Y011040D01*
X002781Y011178D01*
X002596Y011255D01*
X001804Y011255D01*
X001619Y011178D01*
X001476Y011036D01*
X001399Y010851D01*
X001399Y010649D01*
X001476Y010464D01*
X001619Y010322D01*
X001791Y010250D01*
X001619Y010178D01*
X001476Y010036D01*
X001399Y009851D01*
X001399Y009649D01*
X001476Y009464D01*
X001619Y009322D01*
X001791Y009250D01*
X001619Y009178D01*
X001476Y009036D01*
X001399Y008851D01*
X001399Y008649D01*
X001476Y008464D01*
X001619Y008322D01*
X001791Y008250D01*
X001619Y008178D01*
X001476Y008036D01*
X001399Y007851D01*
X001399Y007649D01*
X001476Y007464D01*
X001619Y007322D01*
X001804Y007245D01*
X002596Y007245D01*
X002781Y007322D01*
X002924Y007464D01*
X003001Y007649D01*
X003001Y007851D01*
X002924Y008036D01*
X002781Y008178D01*
X002609Y008250D01*
X002781Y008322D01*
X002924Y008464D01*
X003001Y008649D01*
X003001Y008851D01*
X002924Y009036D01*
X002781Y009178D01*
X002609Y009250D01*
X002781Y009322D01*
X002924Y009464D01*
X003001Y009649D01*
X003001Y009851D01*
X002924Y010036D01*
X002781Y010178D01*
X002609Y010250D01*
X002781Y010322D01*
X002920Y010460D01*
X005508Y010460D01*
X005614Y010504D01*
X005696Y010586D01*
X005732Y010622D01*
X005775Y010622D01*
X005914Y010679D01*
X006021Y010786D01*
X006078Y010925D01*
X006078Y011075D01*
X006021Y011214D01*
X005914Y011321D01*
X006030Y011191D02*
X013848Y011191D01*
X013807Y011093D02*
X006071Y011093D01*
X006078Y010994D02*
X013802Y010994D01*
X013812Y010896D02*
X006066Y010896D01*
X006026Y010797D02*
X013853Y010797D01*
X013938Y010699D02*
X005934Y010699D01*
X005710Y010600D02*
X025950Y010600D01*
X025950Y010502D02*
X005608Y010502D01*
X005329Y011093D02*
X002867Y011093D01*
X002751Y011191D02*
X005370Y011191D01*
X005454Y011290D02*
X001200Y011290D01*
X001200Y011388D02*
X014096Y011388D01*
X014304Y011388D02*
X018846Y011388D01*
X019054Y011388D02*
X025950Y011388D01*
X025950Y011290D02*
X019223Y011290D01*
X019302Y011191D02*
X025950Y011191D01*
X025950Y011093D02*
X019343Y011093D01*
X019348Y010994D02*
X025950Y010994D01*
X025950Y010896D02*
X019338Y010896D01*
X019297Y010797D02*
X025950Y010797D01*
X025950Y010699D02*
X019212Y010699D01*
X018688Y010699D02*
X014462Y010699D01*
X013864Y009996D02*
X013758Y010040D01*
X009642Y010040D01*
X009536Y009996D01*
X009454Y009914D01*
X009084Y009544D01*
X008914Y009474D01*
X008772Y009331D01*
X008695Y009146D01*
X008695Y008354D01*
X008772Y008169D01*
X008914Y008026D01*
X009099Y007949D01*
X009301Y007949D01*
X009486Y008026D01*
X009628Y008169D01*
X009700Y008341D01*
X009772Y008169D01*
X009914Y008026D01*
X010099Y007949D01*
X010301Y007949D01*
X010486Y008026D01*
X010628Y008169D01*
X010700Y008341D01*
X010772Y008169D01*
X010914Y008026D01*
X011099Y007949D01*
X011301Y007949D01*
X011486Y008026D01*
X011628Y008169D01*
X011705Y008354D01*
X011705Y009146D01*
X011628Y009331D01*
X011500Y009460D01*
X013580Y009460D01*
X014195Y008845D01*
X014195Y008354D01*
X014272Y008169D01*
X014414Y008026D01*
X014599Y007949D01*
X014801Y007949D01*
X014986Y008026D01*
X015128Y008169D01*
X015200Y008341D01*
X015272Y008169D01*
X015414Y008026D01*
X015599Y007949D01*
X015801Y007949D01*
X015986Y008026D01*
X016128Y008169D01*
X016200Y008341D01*
X016272Y008169D01*
X016414Y008026D01*
X016599Y007949D01*
X016801Y007949D01*
X016986Y008026D01*
X017128Y008169D01*
X017205Y008354D01*
X017205Y009146D01*
X017128Y009331D01*
X016986Y009474D01*
X016801Y009551D01*
X016599Y009551D01*
X016414Y009474D01*
X016272Y009331D01*
X016200Y009159D01*
X016128Y009331D01*
X015986Y009474D01*
X015801Y009551D01*
X015599Y009551D01*
X015414Y009474D01*
X015272Y009331D01*
X015200Y009159D01*
X015128Y009331D01*
X014986Y009474D01*
X014801Y009551D01*
X014599Y009551D01*
X014414Y009474D01*
X014400Y009460D01*
X013864Y009996D01*
X013832Y010009D02*
X025950Y010009D01*
X025950Y009911D02*
X013950Y009911D01*
X014048Y009812D02*
X025950Y009812D01*
X025950Y009714D02*
X014147Y009714D01*
X014245Y009615D02*
X025950Y009615D01*
X025950Y009517D02*
X016883Y009517D01*
X017042Y009418D02*
X025950Y009418D01*
X025950Y009320D02*
X017133Y009320D01*
X017174Y009221D02*
X024221Y009221D01*
X024118Y009123D02*
X017205Y009123D01*
X017205Y009024D02*
X024050Y009024D01*
X024009Y008926D02*
X017205Y008926D01*
X017205Y008827D02*
X023995Y008827D01*
X023995Y008729D02*
X017205Y008729D01*
X017205Y008630D02*
X023995Y008630D01*
X023995Y008532D02*
X017205Y008532D01*
X017205Y008433D02*
X023995Y008433D01*
X023995Y008335D02*
X017197Y008335D01*
X017156Y008236D02*
X023995Y008236D01*
X023995Y008138D02*
X017097Y008138D01*
X016999Y008039D02*
X024019Y008039D01*
X024060Y007941D02*
X002963Y007941D01*
X003001Y007842D02*
X024142Y007842D01*
X024279Y007744D02*
X003001Y007744D01*
X002999Y007645D02*
X025950Y007645D01*
X025950Y007547D02*
X002958Y007547D01*
X002908Y007448D02*
X025950Y007448D01*
X025950Y007350D02*
X002809Y007350D01*
X002611Y007251D02*
X025950Y007251D01*
X025950Y007153D02*
X001200Y007153D01*
X001200Y007251D02*
X001789Y007251D01*
X001591Y007350D02*
X001200Y007350D01*
X001200Y007448D02*
X001492Y007448D01*
X001442Y007547D02*
X001200Y007547D01*
X001200Y007645D02*
X001401Y007645D01*
X001399Y007744D02*
X001200Y007744D01*
X001200Y007842D02*
X001399Y007842D01*
X001437Y007941D02*
X001200Y007941D01*
X001200Y008039D02*
X001479Y008039D01*
X001578Y008138D02*
X001200Y008138D01*
X001200Y008236D02*
X001758Y008236D01*
X001606Y008335D02*
X001200Y008335D01*
X001200Y008433D02*
X001507Y008433D01*
X001448Y008532D02*
X001200Y008532D01*
X001200Y008630D02*
X001408Y008630D01*
X001399Y008729D02*
X001200Y008729D01*
X001200Y008827D02*
X001399Y008827D01*
X001431Y008926D02*
X001200Y008926D01*
X001200Y009024D02*
X001471Y009024D01*
X001563Y009123D02*
X001200Y009123D01*
X001200Y009221D02*
X001722Y009221D01*
X001624Y009320D02*
X001200Y009320D01*
X001200Y009418D02*
X001522Y009418D01*
X001455Y009517D02*
X001200Y009517D01*
X001200Y009615D02*
X001414Y009615D01*
X001399Y009714D02*
X001200Y009714D01*
X001200Y009812D02*
X001399Y009812D01*
X001424Y009911D02*
X001200Y009911D01*
X001200Y010009D02*
X001465Y010009D01*
X001548Y010108D02*
X001200Y010108D01*
X001200Y010206D02*
X001685Y010206D01*
X001660Y010305D02*
X001200Y010305D01*
X001200Y010403D02*
X001537Y010403D01*
X001461Y010502D02*
X001200Y010502D01*
X001200Y010600D02*
X001420Y010600D01*
X001399Y010699D02*
X001200Y010699D01*
X001200Y010797D02*
X001399Y010797D01*
X001418Y010896D02*
X001200Y010896D01*
X001200Y010994D02*
X001459Y010994D01*
X001533Y011093D02*
X001200Y011093D01*
X001200Y011191D02*
X001649Y011191D01*
X002740Y010305D02*
X025950Y010305D01*
X025950Y010403D02*
X002863Y010403D01*
X002715Y010206D02*
X025950Y010206D01*
X025950Y010108D02*
X002852Y010108D01*
X002935Y010009D02*
X009568Y010009D01*
X009450Y009911D02*
X002976Y009911D01*
X003001Y009812D02*
X009352Y009812D01*
X009253Y009714D02*
X003001Y009714D01*
X002986Y009615D02*
X009155Y009615D01*
X009017Y009517D02*
X002945Y009517D01*
X002878Y009418D02*
X008858Y009418D01*
X008767Y009320D02*
X002776Y009320D01*
X002678Y009221D02*
X008726Y009221D01*
X008695Y009123D02*
X002837Y009123D01*
X002929Y009024D02*
X008695Y009024D01*
X008695Y008926D02*
X002969Y008926D01*
X003001Y008827D02*
X008695Y008827D01*
X008695Y008729D02*
X003001Y008729D01*
X002992Y008630D02*
X008695Y008630D01*
X008695Y008532D02*
X002952Y008532D01*
X002893Y008433D02*
X008695Y008433D01*
X008703Y008335D02*
X002794Y008335D01*
X002642Y008236D02*
X008744Y008236D01*
X008803Y008138D02*
X002822Y008138D01*
X002921Y008039D02*
X008901Y008039D01*
X009499Y008039D02*
X009901Y008039D01*
X009803Y008138D02*
X009597Y008138D01*
X009656Y008236D02*
X009744Y008236D01*
X009703Y008335D02*
X009697Y008335D01*
X010499Y008039D02*
X010901Y008039D01*
X010803Y008138D02*
X010597Y008138D01*
X010656Y008236D02*
X010744Y008236D01*
X010703Y008335D02*
X010697Y008335D01*
X011499Y008039D02*
X014401Y008039D01*
X014303Y008138D02*
X011597Y008138D01*
X011656Y008236D02*
X014244Y008236D01*
X014203Y008335D02*
X011697Y008335D01*
X011705Y008433D02*
X014195Y008433D01*
X014195Y008532D02*
X011705Y008532D01*
X011705Y008630D02*
X014195Y008630D01*
X014195Y008729D02*
X011705Y008729D01*
X011705Y008827D02*
X014195Y008827D01*
X014114Y008926D02*
X011705Y008926D01*
X011705Y009024D02*
X014016Y009024D01*
X013917Y009123D02*
X011705Y009123D01*
X011674Y009221D02*
X013819Y009221D01*
X013720Y009320D02*
X011633Y009320D01*
X011542Y009418D02*
X013622Y009418D01*
X014344Y009517D02*
X014517Y009517D01*
X014883Y009517D02*
X015517Y009517D01*
X015358Y009418D02*
X015042Y009418D01*
X015133Y009320D02*
X015267Y009320D01*
X015226Y009221D02*
X015174Y009221D01*
X015883Y009517D02*
X016517Y009517D01*
X016358Y009418D02*
X016042Y009418D01*
X016133Y009320D02*
X016267Y009320D01*
X016226Y009221D02*
X016174Y009221D01*
X016197Y008335D02*
X016203Y008335D01*
X016244Y008236D02*
X016156Y008236D01*
X016097Y008138D02*
X016303Y008138D01*
X016401Y008039D02*
X015999Y008039D01*
X015401Y008039D02*
X014999Y008039D01*
X015097Y008138D02*
X015303Y008138D01*
X015244Y008236D02*
X015156Y008236D01*
X015197Y008335D02*
X015203Y008335D01*
X015424Y005478D02*
X014976Y005478D01*
X015080Y005380D02*
X015320Y005380D01*
X015251Y005281D02*
X015149Y005281D01*
X015190Y005183D02*
X015210Y005183D01*
X014424Y005478D02*
X011476Y005478D01*
X011580Y005380D02*
X014320Y005380D01*
X014251Y005281D02*
X011649Y005281D01*
X011690Y005183D02*
X014210Y005183D01*
X014195Y005084D02*
X011705Y005084D01*
X011705Y004986D02*
X014195Y004986D01*
X014195Y004887D02*
X011705Y004887D01*
X011705Y004789D02*
X014195Y004789D01*
X014195Y004690D02*
X011705Y004690D01*
X011705Y004592D02*
X014195Y004592D01*
X014195Y004493D02*
X011705Y004493D01*
X011705Y004395D02*
X014195Y004395D01*
X014219Y004296D02*
X011681Y004296D01*
X011640Y004198D02*
X014260Y004198D01*
X014341Y004099D02*
X011559Y004099D01*
X011424Y004001D02*
X014476Y004001D01*
X014924Y004001D02*
X015476Y004001D01*
X015341Y004099D02*
X015059Y004099D01*
X015140Y004198D02*
X015260Y004198D01*
X015219Y004296D02*
X015181Y004296D01*
X015924Y004001D02*
X016476Y004001D01*
X016341Y004099D02*
X016059Y004099D01*
X016140Y004198D02*
X016260Y004198D01*
X016219Y004296D02*
X016181Y004296D01*
X016190Y005183D02*
X016210Y005183D01*
X016251Y005281D02*
X016149Y005281D01*
X016080Y005380D02*
X016320Y005380D01*
X016424Y005478D02*
X015976Y005478D01*
X010924Y005478D02*
X010476Y005478D01*
X010580Y005380D02*
X010820Y005380D01*
X010751Y005281D02*
X010649Y005281D01*
X010690Y005183D02*
X010710Y005183D01*
X009924Y005478D02*
X009476Y005478D01*
X009580Y005380D02*
X009820Y005380D01*
X009751Y005281D02*
X009649Y005281D01*
X009690Y005183D02*
X009710Y005183D01*
X009681Y004296D02*
X009719Y004296D01*
X009760Y004198D02*
X009640Y004198D01*
X009559Y004099D02*
X009841Y004099D01*
X009976Y004001D02*
X009424Y004001D01*
X010424Y004001D02*
X010976Y004001D01*
X010841Y004099D02*
X010559Y004099D01*
X010640Y004198D02*
X010760Y004198D01*
X010719Y004296D02*
X010681Y004296D01*
X001754Y003016D02*
X001200Y003016D01*
X001200Y003114D02*
X001576Y003114D01*
X001478Y003213D02*
X001200Y003213D01*
X001200Y003311D02*
X001436Y003311D01*
X001399Y003410D02*
X001200Y003410D01*
X001200Y003508D02*
X001399Y003508D01*
X001402Y003607D02*
X001200Y003607D01*
X001200Y003705D02*
X001443Y003705D01*
X001494Y003804D02*
X001200Y003804D01*
X001200Y003902D02*
X001592Y003902D01*
X012174Y011487D02*
X024260Y011487D01*
X024640Y011487D02*
X025260Y011487D01*
X025105Y011585D02*
X024795Y011585D01*
X024885Y011684D02*
X025015Y011684D01*
X024975Y011782D02*
X024925Y011782D01*
X025640Y011487D02*
X025950Y011487D01*
X025950Y011585D02*
X025795Y011585D01*
X025885Y011684D02*
X025950Y011684D01*
X025950Y011782D02*
X025925Y011782D01*
X025950Y009221D02*
X025779Y009221D01*
X025882Y009123D02*
X025950Y009123D01*
X025950Y009024D02*
X025950Y009024D01*
X025221Y009221D02*
X024779Y009221D01*
X024882Y009123D02*
X025118Y009123D01*
X025050Y009024D02*
X024950Y009024D01*
X024991Y008926D02*
X025009Y008926D01*
X024981Y008039D02*
X025019Y008039D01*
X025060Y007941D02*
X024940Y007941D01*
X024858Y007842D02*
X025142Y007842D01*
X025279Y007744D02*
X024721Y007744D01*
X025721Y007744D02*
X025950Y007744D01*
X025950Y007842D02*
X025858Y007842D01*
X025940Y007941D02*
X025950Y007941D01*
D22*
X018950Y011000D02*
X014200Y011000D01*
X013700Y009750D02*
X014700Y008750D01*
X013700Y009750D02*
X009700Y009750D01*
X009200Y009250D01*
X009200Y008750D01*
X005700Y011000D02*
X005450Y010750D01*
X002200Y010750D01*
X010450Y014985D02*
X010700Y014735D01*
X011185Y014735D01*
X011200Y014750D01*
X010450Y014985D02*
X010450Y016500D01*
X010200Y018750D02*
X010450Y019000D01*
X010200Y019500D02*
X015700Y019500D01*
X019200Y019068D02*
X019200Y021500D01*
X021600Y018050D02*
X021686Y018050D01*
X023486Y016250D01*
X026700Y019500D02*
X027200Y019000D01*
X027700Y019000D01*
X026700Y019500D02*
X025450Y019500D01*
X024700Y020250D01*
X007200Y019250D02*
X007200Y021500D01*
D23*
X002450Y016750D02*
X002450Y016500D01*
X024700Y020250D02*
X024700Y021250D01*
M02*
