G75*
%MOIN*%
%OFA0B0*%
%FSLAX24Y24*%
%IPPOS*%
%LPD*%
%AMOC8*
5,1,8,0,0,1.08239X$1,22.5*
%
%ADD10R,0.0671X0.0671*%
%ADD11C,0.0671*%
%ADD12C,0.1740*%
%ADD13C,0.1700*%
%ADD14C,0.0671*%
%ADD15OC8,0.1085*%
%ADD16C,0.0552*%
%ADD17C,0.0417*%
%ADD18C,0.0350*%
%ADD19C,0.0456*%
D10*
X026700Y002250D03*
X026700Y021250D03*
D11*
X004700Y001250D03*
X005700Y001250D03*
X006700Y001250D03*
X007700Y001250D03*
X008700Y001250D03*
X009700Y001250D03*
X010700Y001250D03*
X011700Y001250D03*
X012700Y001250D03*
X013700Y001250D03*
X014700Y001250D03*
X015700Y001250D03*
X016700Y001250D03*
X017700Y001250D03*
X018700Y001250D03*
X019700Y001250D03*
X020700Y001250D03*
X021700Y001250D03*
X022700Y001250D03*
X023700Y001250D03*
X024700Y001250D03*
X025700Y001250D03*
X026700Y001250D03*
X025700Y002250D03*
X024700Y002250D03*
X023700Y002250D03*
X022700Y002250D03*
X021700Y002250D03*
X020700Y002250D03*
X019700Y002250D03*
X018700Y002250D03*
X017700Y002250D03*
X016700Y002250D03*
X015700Y002250D03*
X014700Y002250D03*
X013700Y002250D03*
X012700Y002250D03*
X011700Y002250D03*
X010700Y002250D03*
X009700Y002250D03*
X008700Y002250D03*
X007700Y002250D03*
X006700Y002250D03*
X005700Y002250D03*
X004700Y002250D03*
X004700Y020250D03*
X005700Y020250D03*
X006700Y020250D03*
X007700Y020250D03*
X008700Y020250D03*
X009700Y020250D03*
X010700Y020250D03*
X011700Y020250D03*
X012700Y020250D03*
X013700Y020250D03*
X014700Y020250D03*
X015700Y020250D03*
X016700Y020250D03*
X017700Y020250D03*
X018700Y020250D03*
X019700Y020250D03*
X020700Y020250D03*
X021700Y020250D03*
X022700Y020250D03*
X023700Y020250D03*
X024700Y020250D03*
X025700Y020250D03*
X026700Y020250D03*
X025700Y021250D03*
X024700Y021250D03*
X023700Y021250D03*
X022700Y021250D03*
X021700Y021250D03*
X020700Y021250D03*
X019700Y021250D03*
X018700Y021250D03*
X017700Y021250D03*
X016700Y021250D03*
X015700Y021250D03*
X014700Y021250D03*
X013700Y021250D03*
X012700Y021250D03*
X011700Y021250D03*
X010700Y021250D03*
X009700Y021250D03*
X008700Y021250D03*
X007700Y021250D03*
X006700Y021250D03*
X005700Y021250D03*
X004700Y021250D03*
D12*
X023486Y016250D03*
D13*
X026369Y016260D03*
X024737Y018231D03*
D14*
X024450Y012545D02*
X024450Y011955D01*
X025450Y011955D02*
X025450Y012545D01*
X025500Y008790D02*
X025500Y008199D01*
X024500Y008199D02*
X024500Y008790D01*
X024383Y005160D02*
X024383Y004570D01*
X025383Y004570D02*
X025383Y005160D01*
X018700Y005045D02*
X018700Y004455D01*
X017700Y004455D02*
X017700Y005045D01*
X016700Y005045D02*
X016700Y004455D01*
X015700Y004455D02*
X015700Y005045D01*
X014700Y005045D02*
X014700Y004455D01*
X013200Y004455D02*
X013200Y005045D01*
X012200Y005045D02*
X012200Y004455D01*
X011200Y004455D02*
X011200Y005045D01*
X010200Y005045D02*
X010200Y004455D01*
X009200Y004455D02*
X009200Y005045D01*
X009200Y008455D02*
X009200Y009045D01*
X010200Y009045D02*
X010200Y008455D01*
X011200Y008455D02*
X011200Y009045D01*
X012200Y009045D02*
X012200Y008455D01*
X013200Y008455D02*
X013200Y009045D01*
X014700Y009045D02*
X014700Y008455D01*
X015700Y008455D02*
X015700Y009045D01*
X016700Y009045D02*
X016700Y008455D01*
X017700Y008455D02*
X017700Y009045D01*
X018700Y009045D02*
X018700Y008455D01*
X002495Y008750D02*
X001905Y008750D01*
X001905Y007750D02*
X002495Y007750D01*
X002495Y006500D02*
X001905Y006500D01*
X001905Y005500D02*
X002495Y005500D01*
X002495Y004500D02*
X001905Y004500D01*
X001905Y003500D02*
X002495Y003500D01*
X002495Y009750D02*
X001905Y009750D01*
X001905Y010750D02*
X002495Y010750D01*
X002495Y012000D02*
X001905Y012000D01*
X001905Y013000D02*
X002495Y013000D01*
X002495Y014000D02*
X001905Y014000D01*
X001905Y015000D02*
X002495Y015000D01*
D15*
X002574Y019851D03*
X027700Y019000D03*
X027581Y004565D03*
D16*
X008936Y017250D02*
X008464Y017250D01*
X008464Y018250D02*
X008936Y018250D01*
X002186Y018250D02*
X001714Y018250D01*
X001714Y017250D02*
X002186Y017250D01*
D17*
X005200Y012750D03*
X005700Y011000D03*
X008200Y011500D03*
X007450Y009000D03*
X006700Y003500D03*
X015300Y015150D03*
X015700Y015150D03*
X016100Y015150D03*
X016500Y015150D03*
X019500Y015250D03*
X019900Y015250D03*
X019900Y015650D03*
X019500Y015650D03*
X021550Y016350D03*
X021950Y016350D03*
X021750Y016750D03*
X021600Y018050D03*
D18*
X019450Y018500D03*
X011450Y016000D03*
X009883Y016568D03*
X011100Y017450D03*
X011450Y014750D03*
X011950Y012500D03*
X011950Y011750D03*
X005100Y015850D03*
X004200Y015750D03*
X003950Y016250D03*
D19*
X003450Y017000D03*
X010200Y019500D03*
X015700Y019500D03*
X016200Y019000D03*
X014200Y011000D03*
X018950Y011000D03*
X020450Y010250D03*
X020450Y007250D03*
X021700Y004000D03*
M02*
