%
M48
M72
T01C0.0130
T02C0.0197
T03C0.0236
T04C0.0315
T05C0.0394
T06C0.0670
T07C0.1180
T08C0.1260
%
T01
X11950Y11750
X11950Y12500
X11450Y14750
X11450Y16000
X9883Y16568
X11100Y17450
X5100Y15850
X4200Y15750
X3950Y16250
X19450Y18500
T02
X21600Y18050
X21750Y16750
X21550Y16350
X21950Y16350
X19900Y15650
X19500Y15650
X19500Y15250
X19900Y15250
X16500Y15150
X16100Y15150
X15700Y15150
X15300Y15150
X8200Y11500
X5700Y11000
X5200Y12750
X7450Y9000
X6700Y3500
T03
X14200Y11000
X18950Y11000
X20450Y10250
X20450Y7250
X21700Y4000
X3450Y17000
X10200Y19500
X15700Y19500
X16200Y19000
T04
X8700Y18250
X8700Y17250
X1950Y17250
X1950Y18250
T05
X4700Y1250
X5700Y1250
X6700Y1250
X7700Y1250
X8700Y1250
X9700Y1250
X10700Y1250
X11700Y1250
X12700Y1250
X13700Y1250
X14700Y1250
X15700Y1250
X16700Y1250
X17700Y1250
X18700Y1250
X19700Y1250
X20700Y1250
X21700Y1250
X22700Y1250
X23700Y1250
X24700Y1250
X25700Y1250
X26700Y1250
X26700Y2250
X25700Y2250
X24700Y2250
X23700Y2250
X22700Y2250
X21700Y2250
X20700Y2250
X19700Y2250
X18700Y2250
X17700Y2250
X16700Y2250
X15700Y2250
X14700Y2250
X13700Y2250
X12700Y2250
X11700Y2250
X10700Y2250
X9700Y2250
X8700Y2250
X7700Y2250
X6700Y2250
X5700Y2250
X4700Y2250
X2200Y3500
X2200Y4500
X2200Y5500
X2200Y6500
X2200Y7750
X2200Y8750
X2200Y9750
X2200Y10750
X2200Y12000
X2200Y13000
X2200Y14000
X2200Y15000
X4700Y20250
X5700Y20250
X6700Y20250
X7700Y20250
X8700Y20250
X9700Y20250
X10700Y20250
X11700Y20250
X12700Y20250
X13700Y20250
X14700Y20250
X15700Y20250
X16700Y20250
X17700Y20250
X18700Y20250
X19700Y20250
X20700Y20250
X21700Y20250
X22700Y20250
X23700Y20250
X24700Y20250
X25700Y20250
X26700Y20250
X26700Y21250
X25700Y21250
X24700Y21250
X23700Y21250
X22700Y21250
X21700Y21250
X20700Y21250
X19700Y21250
X18700Y21250
X17700Y21250
X16700Y21250
X15700Y21250
X14700Y21250
X13700Y21250
X12700Y21250
X11700Y21250
X10700Y21250
X9700Y21250
X8700Y21250
X7700Y21250
X6700Y21250
X5700Y21250
X4700Y21250
X9200Y8750
X10200Y8750
X11200Y8750
X12200Y8750
X13200Y8750
X14700Y8750
X15700Y8750
X16700Y8750
X17700Y8750
X18700Y8750
X24500Y8494
X25500Y8494
X25383Y4865
X24383Y4865
X18700Y4750
X17700Y4750
X16700Y4750
X15700Y4750
X14700Y4750
X13200Y4750
X12200Y4750
X11200Y4750
X10200Y4750
X9200Y4750
X24450Y12250
X25450Y12250
T06
X27700Y19000
X27581Y4565
X2574Y19851
T07
X24737Y18231
X26369Y16260
T08
X23486Y16250
M30
