G75*
%MOIN*%
%OFA0B0*%
%FSLAX25Y25*%
%IPPOS*%
%LPD*%
%AMOC8*
5,1,8,0,0,1.08239X$1,22.5*
%
%ADD10R,0.01378X0.03543*%
%ADD11R,0.05906X0.05906*%
%ADD12C,0.05906*%
%ADD13C,0.16598*%
%ADD14C,0.16200*%
%ADD15R,0.10630X0.06299*%
%ADD16R,0.03937X0.04331*%
%ADD17R,0.02200X0.07800*%
%ADD18R,0.09800X0.07900*%
%ADD19R,0.04331X0.03937*%
%ADD20R,0.07283X0.13386*%
%ADD21R,0.07087X0.06299*%
%ADD22C,0.05906*%
%ADD23R,0.04331X0.05512*%
%ADD24R,0.08799X0.04799*%
%ADD25R,0.08661X0.14173*%
%ADD26R,0.03150X0.03150*%
%ADD27R,0.08661X0.02362*%
%ADD28R,0.07900X0.04300*%
%ADD29R,0.05512X0.05512*%
%ADD30OC8,0.10050*%
%ADD31R,0.03937X0.01181*%
%ADD32R,0.01181X0.03937*%
%ADD33R,0.10000X0.10000*%
%ADD34R,0.06299X0.07098*%
%ADD35C,0.03369*%
%ADD36C,0.02700*%
%ADD37C,0.01600*%
%ADD38C,0.03762*%
%ADD39C,0.01200*%
%ADD40C,0.01000*%
%ADD41C,0.04000*%
%ADD42C,0.02000*%
%ADD43C,0.02200*%
%ADD44C,0.02400*%
%ADD45C,0.03200*%
D10*
X0041823Y0040984D03*
X0044382Y0040984D03*
X0046941Y0040984D03*
X0049500Y0040984D03*
X0052059Y0040984D03*
X0054618Y0040984D03*
X0057177Y0040984D03*
X0057177Y0064016D03*
X0054618Y0064016D03*
X0052059Y0064016D03*
X0049500Y0064016D03*
X0046941Y0064016D03*
X0044382Y0064016D03*
X0041823Y0064016D03*
X0051823Y0083484D03*
X0054382Y0083484D03*
X0056941Y0083484D03*
X0059500Y0083484D03*
X0062059Y0083484D03*
X0064618Y0083484D03*
X0067177Y0083484D03*
X0067177Y0106516D03*
X0064618Y0106516D03*
X0062059Y0106516D03*
X0059500Y0106516D03*
X0056941Y0106516D03*
X0054382Y0106516D03*
X0051823Y0106516D03*
D11*
X0267000Y0022500D03*
X0267000Y0212500D03*
D12*
X0257000Y0212500D03*
X0247000Y0212500D03*
X0237000Y0212500D03*
X0227000Y0212500D03*
X0217000Y0212500D03*
X0207000Y0212500D03*
X0197000Y0212500D03*
X0187000Y0212500D03*
X0177000Y0212500D03*
X0167000Y0212500D03*
X0157000Y0212500D03*
X0147000Y0212500D03*
X0137000Y0212500D03*
X0127000Y0212500D03*
X0117000Y0212500D03*
X0107000Y0212500D03*
X0097000Y0212500D03*
X0087000Y0212500D03*
X0077000Y0212500D03*
X0067000Y0212500D03*
X0057000Y0212500D03*
X0047000Y0212500D03*
X0047000Y0202500D03*
X0057000Y0202500D03*
X0067000Y0202500D03*
X0077000Y0202500D03*
X0087000Y0202500D03*
X0097000Y0202500D03*
X0107000Y0202500D03*
X0117000Y0202500D03*
X0127000Y0202500D03*
X0137000Y0202500D03*
X0147000Y0202500D03*
X0157000Y0202500D03*
X0167000Y0202500D03*
X0177000Y0202500D03*
X0187000Y0202500D03*
X0197000Y0202500D03*
X0207000Y0202500D03*
X0217000Y0202500D03*
X0227000Y0202500D03*
X0237000Y0202500D03*
X0247000Y0202500D03*
X0257000Y0202500D03*
X0267000Y0202500D03*
X0257000Y0022500D03*
X0247000Y0022500D03*
X0237000Y0022500D03*
X0227000Y0022500D03*
X0217000Y0022500D03*
X0207000Y0022500D03*
X0197000Y0022500D03*
X0187000Y0022500D03*
X0177000Y0022500D03*
X0167000Y0022500D03*
X0157000Y0022500D03*
X0147000Y0022500D03*
X0137000Y0022500D03*
X0127000Y0022500D03*
X0117000Y0022500D03*
X0107000Y0022500D03*
X0097000Y0022500D03*
X0087000Y0022500D03*
X0077000Y0022500D03*
X0067000Y0022500D03*
X0057000Y0022500D03*
X0047000Y0022500D03*
X0047000Y0012500D03*
X0057000Y0012500D03*
X0067000Y0012500D03*
X0077000Y0012500D03*
X0087000Y0012500D03*
X0097000Y0012500D03*
X0107000Y0012500D03*
X0117000Y0012500D03*
X0127000Y0012500D03*
X0137000Y0012500D03*
X0147000Y0012500D03*
X0157000Y0012500D03*
X0167000Y0012500D03*
X0177000Y0012500D03*
X0187000Y0012500D03*
X0197000Y0012500D03*
X0207000Y0012500D03*
X0217000Y0012500D03*
X0227000Y0012500D03*
X0237000Y0012500D03*
X0247000Y0012500D03*
X0257000Y0012500D03*
X0267000Y0012500D03*
D13*
X0234863Y0162500D03*
D14*
X0263685Y0162600D03*
X0247374Y0182309D03*
D15*
X0217500Y0158012D03*
X0217500Y0146988D03*
D16*
X0209500Y0149154D03*
X0209500Y0155846D03*
X0199500Y0138346D03*
X0199500Y0131654D03*
X0246154Y0105000D03*
X0252846Y0105000D03*
X0252846Y0069325D03*
X0246154Y0069325D03*
X0246154Y0032500D03*
X0252846Y0032500D03*
X0130346Y0117500D03*
X0123654Y0117500D03*
X0123654Y0125000D03*
X0130346Y0125000D03*
X0130346Y0132500D03*
X0123654Y0132500D03*
X0189500Y0174154D03*
X0194500Y0174154D03*
X0194500Y0180846D03*
X0189500Y0180846D03*
X0057000Y0186654D03*
X0049500Y0186654D03*
X0049500Y0193346D03*
X0057000Y0193346D03*
X0035346Y0163850D03*
X0028654Y0163850D03*
X0028654Y0157500D03*
X0035346Y0157500D03*
D17*
X0189500Y0164700D03*
X0194500Y0164700D03*
X0199500Y0164700D03*
X0204500Y0164700D03*
X0204500Y0145300D03*
X0199500Y0145300D03*
X0194500Y0145300D03*
X0189500Y0145300D03*
D18*
X0197000Y0155000D03*
D19*
X0199500Y0174154D03*
X0204500Y0174154D03*
X0209500Y0174154D03*
X0209500Y0180846D03*
X0204500Y0180846D03*
X0199500Y0180846D03*
X0137000Y0180846D03*
X0129500Y0180846D03*
X0129500Y0174154D03*
X0137000Y0174154D03*
X0119500Y0174154D03*
X0112000Y0174154D03*
X0112000Y0180846D03*
X0119500Y0180846D03*
X0072846Y0165000D03*
X0066154Y0165000D03*
X0091325Y0147346D03*
X0097675Y0147346D03*
X0104025Y0147346D03*
X0104025Y0140654D03*
X0097675Y0140654D03*
X0091325Y0140654D03*
X0091154Y0115000D03*
X0097846Y0115000D03*
X0199500Y0111654D03*
X0199500Y0118346D03*
X0199500Y0095846D03*
X0199500Y0089154D03*
X0199500Y0065846D03*
X0199500Y0059154D03*
D20*
X0192630Y0128681D03*
X0170976Y0128681D03*
D21*
X0163000Y0134488D03*
X0154500Y0134488D03*
X0154500Y0145512D03*
X0163000Y0145512D03*
D22*
X0089953Y0172500D02*
X0084047Y0172500D01*
X0084047Y0182500D02*
X0089953Y0182500D01*
X0024953Y0150000D02*
X0019047Y0150000D01*
X0019047Y0140000D02*
X0024953Y0140000D01*
X0024953Y0130000D02*
X0019047Y0130000D01*
X0019047Y0120000D02*
X0024953Y0120000D01*
X0024953Y0107500D02*
X0019047Y0107500D01*
X0019047Y0097500D02*
X0024953Y0097500D01*
X0024953Y0087500D02*
X0019047Y0087500D01*
X0019047Y0077500D02*
X0024953Y0077500D01*
X0024953Y0065000D02*
X0019047Y0065000D01*
X0019047Y0055000D02*
X0024953Y0055000D01*
X0024953Y0045000D02*
X0019047Y0045000D01*
X0019047Y0035000D02*
X0024953Y0035000D01*
X0087000Y0044547D02*
X0087000Y0050453D01*
X0097000Y0050453D02*
X0097000Y0044547D01*
X0107000Y0044547D02*
X0107000Y0050453D01*
X0117000Y0050453D02*
X0117000Y0044547D01*
X0127000Y0044547D02*
X0127000Y0050453D01*
X0147000Y0050453D02*
X0147000Y0044547D01*
X0157000Y0044547D02*
X0157000Y0050453D01*
X0167000Y0050453D02*
X0167000Y0044547D01*
X0177000Y0044547D02*
X0177000Y0050453D01*
X0187000Y0050453D02*
X0187000Y0044547D01*
X0243825Y0045697D02*
X0243825Y0051603D01*
X0253825Y0051603D02*
X0253825Y0045697D01*
X0255000Y0081990D02*
X0255000Y0087896D01*
X0245000Y0087896D02*
X0245000Y0081990D01*
X0244500Y0119547D02*
X0244500Y0125453D01*
X0254500Y0125453D02*
X0254500Y0119547D01*
X0187000Y0090453D02*
X0187000Y0084547D01*
X0177000Y0084547D02*
X0177000Y0090453D01*
X0167000Y0090453D02*
X0167000Y0084547D01*
X0157000Y0084547D02*
X0157000Y0090453D01*
X0147000Y0090453D02*
X0147000Y0084547D01*
X0127000Y0084547D02*
X0127000Y0090453D01*
X0117000Y0090453D02*
X0117000Y0084547D01*
X0107000Y0084547D02*
X0107000Y0090453D01*
X0097000Y0090453D02*
X0097000Y0084547D01*
X0087000Y0084547D02*
X0087000Y0090453D01*
X0022453Y0172500D02*
X0016547Y0172500D01*
X0016547Y0182500D02*
X0022453Y0182500D01*
D23*
X0088063Y0105000D03*
X0095937Y0105000D03*
X0118063Y0105000D03*
X0125937Y0105000D03*
X0148063Y0105000D03*
X0155937Y0105000D03*
X0178063Y0105000D03*
X0185937Y0105000D03*
X0185937Y0065000D03*
X0178063Y0065000D03*
X0155937Y0065000D03*
X0148063Y0065000D03*
X0125937Y0065000D03*
X0118063Y0065000D03*
X0095937Y0065000D03*
X0088063Y0065000D03*
D24*
X0209799Y0066598D03*
X0209799Y0057500D03*
X0209799Y0048402D03*
X0209799Y0078402D03*
X0209799Y0087500D03*
X0209799Y0096598D03*
X0209799Y0108402D03*
X0209799Y0117500D03*
X0209799Y0126598D03*
D25*
X0234201Y0117500D03*
X0234201Y0087500D03*
X0234201Y0057500D03*
D26*
X0234047Y0069325D03*
X0239953Y0069325D03*
X0239953Y0105000D03*
X0234047Y0105000D03*
X0172453Y0105000D03*
X0166547Y0105000D03*
X0112453Y0105000D03*
X0106547Y0105000D03*
X0106547Y0065000D03*
X0112453Y0065000D03*
X0166547Y0065000D03*
X0172453Y0065000D03*
X0234047Y0032500D03*
X0239953Y0032500D03*
D27*
X0109736Y0120000D03*
X0109736Y0125000D03*
X0109736Y0130000D03*
X0109736Y0135000D03*
X0089264Y0135000D03*
X0089264Y0130000D03*
X0089264Y0125000D03*
X0089264Y0120000D03*
D28*
X0077200Y0122500D03*
X0077200Y0132500D03*
X0041800Y0132500D03*
X0041800Y0122500D03*
D29*
X0123000Y0141000D03*
D30*
X0025743Y0198508D03*
X0277000Y0190000D03*
X0275806Y0045648D03*
D31*
X0060268Y0168563D03*
X0060268Y0170531D03*
X0060268Y0172500D03*
X0060268Y0174469D03*
X0060268Y0176437D03*
X0043732Y0176437D03*
X0043732Y0174469D03*
X0043732Y0172500D03*
X0043732Y0170531D03*
X0043732Y0168563D03*
D32*
X0048063Y0164232D03*
X0050031Y0164232D03*
X0052000Y0164232D03*
X0053969Y0164232D03*
X0055937Y0164232D03*
X0055937Y0180768D03*
X0053969Y0180768D03*
X0052000Y0180768D03*
X0050031Y0180768D03*
X0048063Y0180768D03*
D33*
X0052000Y0172500D03*
D34*
X0081402Y0192500D03*
X0092598Y0192500D03*
D35*
X0104500Y0165000D03*
X0112000Y0147500D03*
X0153000Y0151500D03*
X0157000Y0151500D03*
X0161000Y0151500D03*
X0165000Y0151500D03*
X0195000Y0152500D03*
X0199000Y0152500D03*
X0199000Y0156500D03*
X0195000Y0156500D03*
X0215500Y0163500D03*
X0219500Y0163500D03*
X0217500Y0167500D03*
X0216000Y0180500D03*
X0082000Y0115000D03*
X0052000Y0127500D03*
X0049500Y0110000D03*
X0067000Y0090000D03*
X0057000Y0035000D03*
D36*
X0119500Y0117500D03*
X0119500Y0125000D03*
X0112000Y0160000D03*
X0112000Y0165000D03*
X0124500Y0165000D03*
X0129500Y0160000D03*
X0194500Y0185000D03*
X0042000Y0157500D03*
X0039500Y0163850D03*
D37*
X0028654Y0163850D02*
X0028654Y0157500D01*
X0028654Y0156654D01*
X0022000Y0150000D01*
X0019500Y0150000D01*
X0014500Y0145000D01*
X0014500Y0112500D01*
X0019500Y0107500D01*
X0014500Y0102500D01*
X0014500Y0072500D01*
X0022000Y0065000D01*
X0022984Y0064016D01*
X0041823Y0064016D01*
X0067177Y0083484D02*
X0067177Y0089823D01*
X0067000Y0090000D01*
X0087000Y0087500D02*
X0087000Y0105000D01*
X0088063Y0105000D01*
X0095937Y0105000D02*
X0095937Y0088563D01*
X0097000Y0087500D01*
X0087000Y0087500D02*
X0087000Y0066063D01*
X0088063Y0065000D01*
X0088063Y0048563D01*
X0087000Y0047500D01*
X0095937Y0048563D02*
X0097000Y0047500D01*
X0095937Y0048563D02*
X0095937Y0065000D01*
X0125937Y0065000D02*
X0134500Y0065000D01*
X0137000Y0067500D01*
X0137000Y0105000D01*
X0142000Y0110000D01*
X0142000Y0175000D01*
X0152000Y0185000D01*
X0152000Y0205000D01*
X0154500Y0207500D01*
X0252000Y0207500D01*
X0257000Y0212500D01*
X0252000Y0207500D02*
X0257000Y0202500D01*
X0216000Y0180846D02*
X0216000Y0180500D01*
X0216000Y0180846D02*
X0209500Y0180846D01*
X0209500Y0174154D02*
X0209500Y0170000D01*
X0204500Y0165000D01*
X0199500Y0180846D02*
X0199500Y0189350D01*
X0198425Y0190425D01*
X0192250Y0190425D01*
X0192000Y0190675D01*
X0192000Y0190000D01*
X0189500Y0187500D01*
X0189500Y0180846D01*
X0194500Y0180846D02*
X0194500Y0185000D01*
X0199500Y0187500D02*
X0199500Y0180846D01*
X0130346Y0132500D02*
X0130346Y0125000D01*
X0130346Y0117500D01*
X0130346Y0110000D01*
X0142000Y0110000D01*
X0137000Y0105000D02*
X0125937Y0105000D01*
X0130346Y0110000D02*
X0097000Y0110000D01*
X0097846Y0110846D01*
X0097846Y0115000D01*
X0102000Y0119154D01*
X0102000Y0132500D01*
X0104500Y0135000D01*
X0109736Y0135000D01*
X0112000Y0135000D01*
X0111846Y0135154D01*
X0111846Y0147346D01*
X0112000Y0147500D01*
X0111846Y0147346D02*
X0104025Y0147346D01*
X0097675Y0147346D01*
X0091325Y0147346D01*
X0109500Y0135236D02*
X0109736Y0135000D01*
X0123654Y0132500D02*
X0123654Y0137846D01*
X0123000Y0141000D01*
X0148654Y0121654D02*
X0148654Y0105591D01*
X0148063Y0105000D01*
X0147000Y0103937D01*
X0147000Y0087500D01*
X0147000Y0066063D01*
X0148063Y0065000D01*
X0148063Y0048563D01*
X0147000Y0047500D01*
X0155937Y0048563D02*
X0157000Y0047500D01*
X0155937Y0048563D02*
X0155937Y0065000D01*
X0182000Y0077500D02*
X0182000Y0097500D01*
X0185937Y0101437D01*
X0185937Y0105000D01*
X0189500Y0108563D01*
X0189500Y0110000D01*
X0155937Y0105000D02*
X0155937Y0088563D01*
X0157000Y0087500D01*
X0182000Y0077500D02*
X0185937Y0073563D01*
X0185937Y0065000D01*
X0148654Y0121654D02*
X0154500Y0127500D01*
X0097000Y0110000D02*
X0051823Y0110000D01*
X0051823Y0106516D01*
X0051823Y0110000D02*
X0049500Y0110000D01*
X0047000Y0122500D02*
X0041800Y0122500D01*
X0047000Y0122500D02*
X0052000Y0127500D01*
X0047000Y0132500D01*
X0041800Y0132500D01*
X0022000Y0107500D02*
X0019500Y0107500D01*
X0082000Y0115000D02*
X0082000Y0117500D01*
X0084500Y0120000D01*
X0089264Y0120000D01*
X0087000Y0120000D01*
X0091154Y0115000D02*
X0082000Y0115000D01*
X0072846Y0165000D02*
X0104500Y0165000D01*
X0087000Y0172500D02*
X0085031Y0174469D01*
X0087000Y0182500D02*
X0062000Y0182500D01*
X0060268Y0180768D01*
X0057000Y0186654D02*
X0049500Y0186654D01*
X0057000Y0186654D02*
X0066154Y0186654D01*
X0072000Y0192500D01*
X0081402Y0192500D01*
X0092598Y0192500D02*
X0099500Y0192500D01*
X0102000Y0195000D01*
X0072846Y0166654D02*
X0068969Y0170531D01*
X0043732Y0178268D02*
X0039500Y0182500D01*
X0019500Y0182500D01*
X0021469Y0174469D02*
X0019500Y0172500D01*
X0030905Y0193346D02*
X0025743Y0198508D01*
X0030905Y0193346D02*
X0049500Y0193346D01*
X0057000Y0193346D01*
X0057177Y0040984D02*
X0057177Y0035177D01*
X0057000Y0035000D01*
D38*
X0142000Y0110000D03*
X0189500Y0110000D03*
X0204500Y0102500D03*
X0204500Y0072500D03*
X0217000Y0040000D03*
X0034500Y0170000D03*
X0102000Y0195000D03*
X0157000Y0195000D03*
X0192000Y0190675D03*
D39*
X0204500Y0165000D02*
X0204500Y0164700D01*
X0085031Y0174469D02*
X0060268Y0174469D01*
X0060268Y0176437D02*
X0060268Y0180768D01*
X0055937Y0180768D02*
X0055937Y0185591D01*
X0057000Y0186654D01*
X0049500Y0186654D02*
X0048063Y0185217D01*
X0048063Y0180768D01*
X0050031Y0180768D02*
X0050031Y0174469D01*
X0052000Y0172500D01*
X0052000Y0164232D01*
X0053437Y0168563D02*
X0052000Y0170000D01*
X0052000Y0172500D01*
X0043732Y0172500D01*
X0037000Y0172500D01*
X0034500Y0170000D01*
X0043732Y0174469D02*
X0021469Y0174469D01*
X0043732Y0176437D02*
X0043732Y0178268D01*
X0052000Y0180768D02*
X0052000Y0172500D01*
X0053969Y0174469D01*
X0053969Y0180768D01*
X0060268Y0170531D02*
X0068969Y0170531D01*
X0060268Y0168563D02*
X0053437Y0168563D01*
D40*
X0041823Y0027677D02*
X0047000Y0022500D01*
X0052000Y0025000D02*
X0052000Y0017500D01*
X0047000Y0012500D01*
X0057000Y0012500D02*
X0062000Y0017500D01*
X0062000Y0042500D01*
X0044382Y0060118D01*
X0044382Y0064016D01*
X0046941Y0064016D02*
X0047000Y0064075D01*
X0047000Y0067500D01*
X0042000Y0072500D01*
X0027000Y0072500D01*
X0022000Y0077500D01*
X0032000Y0077500D02*
X0042000Y0077500D01*
X0052059Y0067441D01*
X0052059Y0064016D01*
X0049500Y0064016D02*
X0049500Y0060000D01*
X0067000Y0042500D01*
X0067000Y0022500D01*
X0072000Y0017500D02*
X0067000Y0012500D01*
X0072000Y0017500D02*
X0072000Y0042500D01*
X0054618Y0059882D01*
X0054618Y0064016D01*
X0057177Y0064016D02*
X0057177Y0067323D01*
X0042000Y0082500D01*
X0032000Y0082500D01*
X0029500Y0085000D01*
X0029500Y0090000D01*
X0022000Y0097500D01*
X0029500Y0095000D02*
X0029500Y0112500D01*
X0022000Y0120000D01*
X0032000Y0120000D02*
X0022000Y0130000D01*
X0029500Y0127500D02*
X0029500Y0132500D01*
X0022000Y0140000D01*
X0029500Y0127500D02*
X0034500Y0122500D01*
X0034500Y0102500D01*
X0037000Y0100000D01*
X0052000Y0100000D01*
X0064618Y0087382D01*
X0064618Y0083484D01*
X0062059Y0083484D02*
X0062000Y0083425D01*
X0062000Y0077500D01*
X0079500Y0060000D01*
X0079500Y0042500D01*
X0089500Y0032500D01*
X0157000Y0032500D01*
X0162000Y0027500D01*
X0169500Y0027500D01*
X0174500Y0022500D01*
X0177000Y0022500D01*
X0184500Y0022500D02*
X0177000Y0030000D01*
X0164500Y0030000D01*
X0157000Y0037500D01*
X0107000Y0037500D01*
X0102000Y0042500D01*
X0102000Y0082500D01*
X0107000Y0087500D01*
X0107000Y0104547D01*
X0106547Y0105000D01*
X0112453Y0105000D02*
X0118063Y0105000D01*
X0117000Y0117500D02*
X0114500Y0120000D01*
X0109736Y0120000D01*
X0109736Y0125000D02*
X0119500Y0125000D01*
X0123654Y0125000D01*
X0117000Y0130000D02*
X0109736Y0130000D01*
X0117000Y0130000D02*
X0119500Y0132500D01*
X0123654Y0132500D01*
X0123654Y0117500D02*
X0119500Y0117500D01*
X0117000Y0117500D01*
X0099500Y0127500D02*
X0099500Y0136129D01*
X0104025Y0140654D01*
X0097675Y0140654D02*
X0097675Y0133175D01*
X0094500Y0130000D01*
X0089264Y0130000D01*
X0084500Y0130000D01*
X0079500Y0125000D01*
X0079500Y0122500D01*
X0077200Y0122500D01*
X0089264Y0125000D02*
X0097000Y0125000D01*
X0099500Y0127500D01*
X0092000Y0135000D02*
X0089264Y0135000D01*
X0084500Y0135000D01*
X0082000Y0132500D01*
X0077200Y0132500D01*
X0091325Y0135675D02*
X0091325Y0140654D01*
X0091325Y0135675D02*
X0092000Y0135000D01*
X0122000Y0155000D02*
X0124500Y0157500D01*
X0124500Y0165000D01*
X0119500Y0160000D02*
X0117000Y0157500D01*
X0054500Y0157500D01*
X0053969Y0158031D01*
X0053969Y0164232D01*
X0055937Y0164232D02*
X0055937Y0161063D01*
X0057000Y0160000D01*
X0112000Y0160000D01*
X0112000Y0165000D02*
X0112000Y0174154D01*
X0107000Y0177500D02*
X0104500Y0175000D01*
X0104500Y0170000D01*
X0102000Y0167500D01*
X0077000Y0167500D01*
X0072000Y0172500D01*
X0060268Y0172500D01*
X0060268Y0168563D02*
X0062591Y0168563D01*
X0066154Y0165000D01*
X0072846Y0165000D02*
X0072846Y0166654D01*
X0050031Y0164232D02*
X0050031Y0156969D01*
X0052000Y0155000D01*
X0122000Y0155000D01*
X0119500Y0160000D02*
X0119500Y0174154D01*
X0124500Y0177500D02*
X0107000Y0177500D01*
X0112000Y0180846D02*
X0112000Y0207500D01*
X0117000Y0212500D01*
X0122000Y0207500D02*
X0122000Y0187500D01*
X0119500Y0185000D01*
X0119500Y0180846D01*
X0124500Y0177500D02*
X0125525Y0178525D01*
X0125525Y0186375D01*
X0132000Y0192850D01*
X0132000Y0207500D01*
X0137000Y0212500D01*
X0142000Y0207500D02*
X0147000Y0212500D01*
X0142000Y0207500D02*
X0142000Y0190000D01*
X0137000Y0185000D01*
X0137000Y0180846D01*
X0129500Y0180846D02*
X0129500Y0185000D01*
X0137000Y0192500D01*
X0137000Y0202500D01*
X0127000Y0212500D02*
X0122000Y0207500D01*
X0129500Y0174154D02*
X0129500Y0160000D01*
X0137000Y0155000D02*
X0134500Y0152500D01*
X0049500Y0152500D01*
X0048063Y0153937D01*
X0048063Y0164232D01*
X0043732Y0168563D02*
X0043732Y0159232D01*
X0042000Y0157500D01*
X0035346Y0157500D01*
X0034500Y0162500D02*
X0035346Y0163850D01*
X0039500Y0163850D01*
X0039500Y0169000D01*
X0041000Y0170500D01*
X0043701Y0170500D01*
X0032000Y0120000D02*
X0032000Y0097500D01*
X0034500Y0095000D01*
X0052000Y0095000D01*
X0059500Y0087500D01*
X0059500Y0083484D01*
X0056941Y0083484D02*
X0056941Y0077559D01*
X0077000Y0057500D01*
X0077000Y0040000D01*
X0087000Y0030000D01*
X0147000Y0030000D01*
X0152000Y0025000D01*
X0152000Y0020000D01*
X0154500Y0017500D01*
X0182000Y0017500D01*
X0187000Y0012500D01*
X0192000Y0017500D02*
X0192000Y0025000D01*
X0189500Y0027500D01*
X0184500Y0027500D01*
X0179500Y0032500D01*
X0167000Y0032500D01*
X0159500Y0040000D01*
X0114500Y0040000D01*
X0107000Y0047500D01*
X0107000Y0064547D01*
X0106547Y0065000D01*
X0112453Y0065000D02*
X0118063Y0065000D01*
X0162000Y0082500D02*
X0162000Y0042500D01*
X0169500Y0035000D01*
X0182000Y0035000D01*
X0187000Y0030000D01*
X0194500Y0030000D01*
X0197000Y0027500D01*
X0197000Y0022500D01*
X0192000Y0017500D02*
X0197000Y0012500D01*
X0202000Y0017500D02*
X0202000Y0030000D01*
X0199500Y0032500D01*
X0189500Y0032500D01*
X0184500Y0037500D01*
X0177000Y0037500D01*
X0167000Y0047500D01*
X0167000Y0064547D01*
X0166547Y0065000D01*
X0172453Y0065000D02*
X0178063Y0065000D01*
X0194500Y0077500D02*
X0199500Y0082500D01*
X0199500Y0089154D01*
X0204500Y0089378D02*
X0247000Y0089378D01*
X0247000Y0090376D02*
X0219500Y0090376D01*
X0219500Y0090000D02*
X0219500Y0097500D01*
X0247000Y0097500D01*
X0247000Y0077500D01*
X0219500Y0077500D01*
X0219500Y0085000D01*
X0204500Y0085000D01*
X0204500Y0090000D01*
X0219500Y0090000D01*
X0219500Y0091375D02*
X0247000Y0091375D01*
X0247000Y0092373D02*
X0219500Y0092373D01*
X0219500Y0093372D02*
X0247000Y0093372D01*
X0247000Y0094370D02*
X0219500Y0094370D01*
X0219500Y0095369D02*
X0247000Y0095369D01*
X0247000Y0096368D02*
X0219500Y0096368D01*
X0219500Y0097366D02*
X0247000Y0097366D01*
X0249876Y0097366D02*
X0259500Y0097366D01*
X0259500Y0096368D02*
X0249869Y0096368D01*
X0249862Y0095369D02*
X0259500Y0095369D01*
X0259500Y0094370D02*
X0249855Y0094370D01*
X0249848Y0093372D02*
X0259500Y0093372D01*
X0259500Y0092373D02*
X0249842Y0092373D01*
X0249835Y0091375D02*
X0259500Y0091375D01*
X0259500Y0090376D02*
X0249828Y0090376D01*
X0249822Y0089458D02*
X0249905Y0101648D01*
X0250222Y0101965D01*
X0250222Y0108035D01*
X0249951Y0108306D01*
X0250000Y0115500D01*
X0250175Y0130000D01*
X0250650Y0132500D01*
X0237000Y0132500D01*
X0203825Y0132375D01*
X0204000Y0148500D01*
X0226000Y0149500D01*
X0226000Y0172500D01*
X0239500Y0172500D01*
X0244500Y0167500D01*
X0244500Y0148000D01*
X0259500Y0148000D01*
X0259500Y0130000D01*
X0250175Y0130000D01*
X0259500Y0130000D01*
X0259500Y0042500D01*
X0249500Y0042500D01*
X0249659Y0065727D01*
X0250222Y0066290D01*
X0250222Y0072360D01*
X0249708Y0072874D01*
X0249759Y0080276D01*
X0250053Y0080985D01*
X0250053Y0088901D01*
X0249822Y0089458D01*
X0249855Y0089378D02*
X0259500Y0089378D01*
X0259500Y0088379D02*
X0250053Y0088379D01*
X0250053Y0087381D02*
X0259500Y0087381D01*
X0259500Y0086382D02*
X0250053Y0086382D01*
X0250053Y0085384D02*
X0259500Y0085384D01*
X0259500Y0084385D02*
X0250053Y0084385D01*
X0250053Y0083387D02*
X0259500Y0083387D01*
X0259500Y0082388D02*
X0250053Y0082388D01*
X0250053Y0081390D02*
X0259500Y0081390D01*
X0259500Y0080391D02*
X0249807Y0080391D01*
X0249753Y0079393D02*
X0259500Y0079393D01*
X0259500Y0078394D02*
X0249746Y0078394D01*
X0249739Y0077396D02*
X0259500Y0077396D01*
X0259500Y0076397D02*
X0249732Y0076397D01*
X0249725Y0075399D02*
X0259500Y0075399D01*
X0259500Y0074400D02*
X0249718Y0074400D01*
X0249712Y0073402D02*
X0259500Y0073402D01*
X0259500Y0072403D02*
X0250179Y0072403D01*
X0250222Y0071405D02*
X0259500Y0071405D01*
X0259500Y0070406D02*
X0250222Y0070406D01*
X0250222Y0069408D02*
X0259500Y0069408D01*
X0259500Y0068409D02*
X0250222Y0068409D01*
X0250222Y0067411D02*
X0259500Y0067411D01*
X0259500Y0066412D02*
X0250222Y0066412D01*
X0249657Y0065414D02*
X0259500Y0065414D01*
X0259500Y0064415D02*
X0249650Y0064415D01*
X0249643Y0063417D02*
X0259500Y0063417D01*
X0259500Y0062418D02*
X0249636Y0062418D01*
X0249630Y0061420D02*
X0259500Y0061420D01*
X0259500Y0060421D02*
X0249623Y0060421D01*
X0249616Y0059423D02*
X0259500Y0059423D01*
X0259500Y0058424D02*
X0249609Y0058424D01*
X0249602Y0057426D02*
X0259500Y0057426D01*
X0259500Y0056427D02*
X0249595Y0056427D01*
X0249589Y0055429D02*
X0259500Y0055429D01*
X0259500Y0054430D02*
X0249582Y0054430D01*
X0249575Y0053432D02*
X0259500Y0053432D01*
X0259500Y0052433D02*
X0249568Y0052433D01*
X0249561Y0051434D02*
X0259500Y0051434D01*
X0259500Y0050436D02*
X0249554Y0050436D01*
X0249548Y0049437D02*
X0259500Y0049437D01*
X0259500Y0048439D02*
X0249541Y0048439D01*
X0249534Y0047440D02*
X0259500Y0047440D01*
X0259500Y0046442D02*
X0249527Y0046442D01*
X0249520Y0045443D02*
X0259500Y0045443D01*
X0259500Y0044445D02*
X0249513Y0044445D01*
X0249506Y0043446D02*
X0259500Y0043446D01*
X0253825Y0048650D02*
X0253825Y0033479D01*
X0252846Y0032500D01*
X0246154Y0032500D02*
X0239953Y0032500D01*
X0234047Y0032500D02*
X0234047Y0057346D01*
X0234201Y0057500D01*
X0246325Y0057426D02*
X0204500Y0057426D01*
X0204500Y0058424D02*
X0246325Y0058424D01*
X0246325Y0059423D02*
X0204500Y0059423D01*
X0204500Y0060000D02*
X0219500Y0060000D01*
X0219500Y0065000D01*
X0246325Y0065000D01*
X0246325Y0042500D01*
X0220298Y0042500D01*
X0219500Y0043298D01*
X0219500Y0055000D01*
X0204500Y0055000D01*
X0204500Y0060000D01*
X0199500Y0059154D02*
X0199500Y0047500D01*
X0217000Y0030000D01*
X0217000Y0022500D01*
X0212000Y0017500D02*
X0212000Y0030000D01*
X0194500Y0047500D01*
X0194500Y0077500D01*
X0204500Y0085384D02*
X0247000Y0085384D01*
X0247000Y0086382D02*
X0204500Y0086382D01*
X0204500Y0087381D02*
X0247000Y0087381D01*
X0247000Y0088379D02*
X0204500Y0088379D01*
X0209047Y0095846D02*
X0199500Y0095846D01*
X0192000Y0097500D02*
X0199500Y0105000D01*
X0199500Y0111654D01*
X0204500Y0115000D02*
X0204500Y0120000D01*
X0219500Y0120000D01*
X0219500Y0128850D01*
X0242000Y0128650D01*
X0247000Y0128650D01*
X0247000Y0110000D01*
X0219500Y0110000D01*
X0219500Y0115000D01*
X0204500Y0115000D01*
X0204500Y0115339D02*
X0247000Y0115339D01*
X0247000Y0114341D02*
X0219500Y0114341D01*
X0219500Y0113342D02*
X0247000Y0113342D01*
X0247000Y0112344D02*
X0219500Y0112344D01*
X0219500Y0111345D02*
X0247000Y0111345D01*
X0247000Y0110347D02*
X0219500Y0110347D01*
X0234047Y0105000D02*
X0234047Y0117346D01*
X0234201Y0117500D01*
X0247000Y0117336D02*
X0204500Y0117336D01*
X0204500Y0116338D02*
X0247000Y0116338D01*
X0247000Y0118335D02*
X0204500Y0118335D01*
X0204500Y0119333D02*
X0247000Y0119333D01*
X0247000Y0120332D02*
X0219500Y0120332D01*
X0219500Y0121330D02*
X0247000Y0121330D01*
X0247000Y0122329D02*
X0219500Y0122329D01*
X0219500Y0123327D02*
X0247000Y0123327D01*
X0247000Y0124326D02*
X0219500Y0124326D01*
X0219500Y0125324D02*
X0247000Y0125324D01*
X0247000Y0126323D02*
X0219500Y0126323D01*
X0219500Y0127321D02*
X0247000Y0127321D01*
X0247000Y0128320D02*
X0219500Y0128320D01*
X0209799Y0126598D02*
X0203598Y0126598D01*
X0199500Y0122500D01*
X0199500Y0118346D01*
X0178063Y0105000D02*
X0172453Y0105000D01*
X0167000Y0104547D02*
X0166547Y0105000D01*
X0167000Y0104547D02*
X0167000Y0087500D01*
X0162000Y0082500D01*
X0192000Y0097500D02*
X0192000Y0045000D01*
X0207000Y0030000D01*
X0207000Y0022500D01*
X0202000Y0017500D02*
X0207000Y0012500D01*
X0212000Y0017500D02*
X0217000Y0012500D01*
X0187000Y0022500D02*
X0184500Y0022500D01*
X0219500Y0043446D02*
X0246325Y0043446D01*
X0246325Y0044445D02*
X0219500Y0044445D01*
X0219500Y0045443D02*
X0246325Y0045443D01*
X0246325Y0046442D02*
X0219500Y0046442D01*
X0219500Y0047440D02*
X0246325Y0047440D01*
X0246325Y0048439D02*
X0219500Y0048439D01*
X0219500Y0049437D02*
X0246325Y0049437D01*
X0246325Y0050436D02*
X0219500Y0050436D01*
X0219500Y0051434D02*
X0246325Y0051434D01*
X0246325Y0052433D02*
X0219500Y0052433D01*
X0219500Y0053432D02*
X0246325Y0053432D01*
X0246325Y0054430D02*
X0219500Y0054430D01*
X0219500Y0060421D02*
X0246325Y0060421D01*
X0246325Y0061420D02*
X0219500Y0061420D01*
X0219500Y0062418D02*
X0246325Y0062418D01*
X0246325Y0063417D02*
X0219500Y0063417D01*
X0219500Y0064415D02*
X0246325Y0064415D01*
X0246154Y0069325D02*
X0239953Y0069325D01*
X0234047Y0069325D02*
X0234047Y0087346D01*
X0234201Y0087500D01*
X0247000Y0084385D02*
X0219500Y0084385D01*
X0219500Y0083387D02*
X0247000Y0083387D01*
X0247000Y0082388D02*
X0219500Y0082388D01*
X0219500Y0081390D02*
X0247000Y0081390D01*
X0247000Y0080391D02*
X0219500Y0080391D01*
X0219500Y0079393D02*
X0247000Y0079393D01*
X0247000Y0078394D02*
X0219500Y0078394D01*
X0209799Y0066598D02*
X0209047Y0065846D01*
X0199500Y0065846D01*
X0204500Y0056427D02*
X0246325Y0056427D01*
X0246325Y0055429D02*
X0204500Y0055429D01*
X0209047Y0095846D02*
X0209799Y0096598D01*
X0239953Y0105000D02*
X0246154Y0105000D01*
X0250222Y0105354D02*
X0259500Y0105354D01*
X0259500Y0104356D02*
X0250222Y0104356D01*
X0250222Y0103357D02*
X0259500Y0103357D01*
X0259500Y0102359D02*
X0250222Y0102359D01*
X0249903Y0101360D02*
X0259500Y0101360D01*
X0259500Y0100362D02*
X0249896Y0100362D01*
X0249889Y0099363D02*
X0259500Y0099363D01*
X0259500Y0098365D02*
X0249883Y0098365D01*
X0250222Y0106353D02*
X0259500Y0106353D01*
X0259500Y0107351D02*
X0250222Y0107351D01*
X0249951Y0108350D02*
X0259500Y0108350D01*
X0259500Y0109348D02*
X0249958Y0109348D01*
X0249965Y0110347D02*
X0259500Y0110347D01*
X0259500Y0111345D02*
X0249972Y0111345D01*
X0249978Y0112344D02*
X0259500Y0112344D01*
X0259500Y0113342D02*
X0249985Y0113342D01*
X0249992Y0114341D02*
X0259500Y0114341D01*
X0259500Y0115339D02*
X0249999Y0115339D01*
X0250010Y0116338D02*
X0259500Y0116338D01*
X0259500Y0117336D02*
X0250022Y0117336D01*
X0250034Y0118335D02*
X0259500Y0118335D01*
X0259500Y0119333D02*
X0250046Y0119333D01*
X0250058Y0120332D02*
X0259500Y0120332D01*
X0259500Y0121330D02*
X0250070Y0121330D01*
X0250082Y0122329D02*
X0259500Y0122329D01*
X0259500Y0123327D02*
X0250094Y0123327D01*
X0250107Y0124326D02*
X0259500Y0124326D01*
X0259500Y0125324D02*
X0250119Y0125324D01*
X0250131Y0126323D02*
X0259500Y0126323D01*
X0259500Y0127321D02*
X0250143Y0127321D01*
X0250155Y0128320D02*
X0259500Y0128320D01*
X0259500Y0129318D02*
X0250167Y0129318D01*
X0250235Y0130317D02*
X0259500Y0130317D01*
X0259500Y0131315D02*
X0250425Y0131315D01*
X0250615Y0132314D02*
X0259500Y0132314D01*
X0259500Y0133312D02*
X0203835Y0133312D01*
X0203846Y0134311D02*
X0259500Y0134311D01*
X0259500Y0135309D02*
X0203857Y0135309D01*
X0203868Y0136308D02*
X0259500Y0136308D01*
X0259500Y0137306D02*
X0203879Y0137306D01*
X0203889Y0138305D02*
X0259500Y0138305D01*
X0259500Y0139303D02*
X0203900Y0139303D01*
X0203911Y0140302D02*
X0259500Y0140302D01*
X0259500Y0141301D02*
X0203922Y0141301D01*
X0203933Y0142299D02*
X0259500Y0142299D01*
X0259500Y0143298D02*
X0203944Y0143298D01*
X0203954Y0144296D02*
X0259500Y0144296D01*
X0259500Y0145295D02*
X0203965Y0145295D01*
X0203976Y0146293D02*
X0259500Y0146293D01*
X0259500Y0147292D02*
X0203987Y0147292D01*
X0203998Y0148290D02*
X0244500Y0148290D01*
X0244500Y0149289D02*
X0221349Y0149289D01*
X0226000Y0150287D02*
X0244500Y0150287D01*
X0244500Y0151286D02*
X0226000Y0151286D01*
X0226000Y0152284D02*
X0244500Y0152284D01*
X0244500Y0153283D02*
X0226000Y0153283D01*
X0226000Y0154281D02*
X0244500Y0154281D01*
X0244500Y0155280D02*
X0226000Y0155280D01*
X0226000Y0156278D02*
X0244500Y0156278D01*
X0244500Y0157277D02*
X0226000Y0157277D01*
X0226000Y0158275D02*
X0244500Y0158275D01*
X0244500Y0159274D02*
X0226000Y0159274D01*
X0226000Y0160272D02*
X0244500Y0160272D01*
X0244500Y0161271D02*
X0226000Y0161271D01*
X0226000Y0162269D02*
X0244500Y0162269D01*
X0244500Y0163268D02*
X0226000Y0163268D01*
X0226000Y0164266D02*
X0244500Y0164266D01*
X0244500Y0165265D02*
X0226000Y0165265D01*
X0226000Y0166263D02*
X0244500Y0166263D01*
X0244500Y0167262D02*
X0226000Y0167262D01*
X0226000Y0168260D02*
X0243740Y0168260D01*
X0242741Y0169259D02*
X0226000Y0169259D01*
X0226000Y0170257D02*
X0241743Y0170257D01*
X0240744Y0171256D02*
X0226000Y0171256D01*
X0226000Y0172254D02*
X0239746Y0172254D01*
X0242249Y0174251D02*
X0277000Y0174251D01*
X0277000Y0173253D02*
X0243247Y0173253D01*
X0244246Y0172254D02*
X0277000Y0172254D01*
X0277000Y0171256D02*
X0245244Y0171256D01*
X0246243Y0170257D02*
X0277000Y0170257D01*
X0277000Y0169259D02*
X0247241Y0169259D01*
X0248240Y0168260D02*
X0277000Y0168260D01*
X0277000Y0167262D02*
X0249000Y0167262D01*
X0249000Y0167500D02*
X0237000Y0179500D01*
X0239000Y0177500D01*
X0239000Y0175500D01*
X0223000Y0175500D01*
X0223000Y0154500D01*
X0213000Y0154500D01*
X0212000Y0153500D01*
X0202000Y0153500D01*
X0202000Y0151500D01*
X0192000Y0151500D01*
X0192000Y0150770D01*
X0191300Y0150070D01*
X0191300Y0142500D01*
X0151000Y0142500D01*
X0151000Y0165000D01*
X0179500Y0165000D01*
X0184500Y0160000D01*
X0186300Y0160000D01*
X0186300Y0159930D01*
X0187530Y0158700D01*
X0191470Y0158700D01*
X0192000Y0159230D01*
X0192530Y0158700D01*
X0196470Y0158700D01*
X0197000Y0159230D01*
X0197530Y0158700D01*
X0201470Y0158700D01*
X0202000Y0159230D01*
X0202530Y0158700D01*
X0206470Y0158700D01*
X0207700Y0159930D01*
X0207700Y0160700D01*
X0209500Y0162500D01*
X0209500Y0165000D01*
X0214500Y0170000D01*
X0214500Y0175000D01*
X0217000Y0175000D01*
X0219500Y0177500D01*
X0219500Y0179061D01*
X0219784Y0179747D01*
X0219784Y0181253D01*
X0219500Y0181939D01*
X0219500Y0182500D01*
X0224500Y0187500D01*
X0239000Y0187500D01*
X0237000Y0185500D01*
X0237000Y0179500D01*
X0237000Y0185000D01*
X0244500Y0192500D01*
X0254500Y0192500D01*
X0262000Y0200000D01*
X0262000Y0201368D01*
X0262053Y0201495D01*
X0262053Y0203505D01*
X0262000Y0203632D01*
X0262000Y0211368D01*
X0262053Y0211495D01*
X0262053Y0213505D01*
X0262000Y0213632D01*
X0262000Y0217500D01*
X0272000Y0217500D01*
X0272000Y0200000D01*
X0269500Y0197500D01*
X0269500Y0185000D01*
X0277000Y0177500D01*
X0277000Y0160000D01*
X0269500Y0152500D01*
X0249500Y0152500D01*
X0249000Y0153000D01*
X0249000Y0167500D01*
X0249000Y0166263D02*
X0277000Y0166263D01*
X0277000Y0165265D02*
X0249000Y0165265D01*
X0249000Y0164266D02*
X0277000Y0164266D01*
X0277000Y0163268D02*
X0249000Y0163268D01*
X0249000Y0162269D02*
X0277000Y0162269D01*
X0277000Y0161271D02*
X0249000Y0161271D01*
X0249000Y0160272D02*
X0277000Y0160272D01*
X0276274Y0159274D02*
X0249000Y0159274D01*
X0249000Y0158275D02*
X0275275Y0158275D01*
X0274277Y0157277D02*
X0249000Y0157277D01*
X0249000Y0156278D02*
X0273278Y0156278D01*
X0272280Y0155280D02*
X0249000Y0155280D01*
X0249000Y0154281D02*
X0271281Y0154281D01*
X0270283Y0153283D02*
X0249000Y0153283D01*
X0223000Y0155280D02*
X0151000Y0155280D01*
X0151000Y0156278D02*
X0223000Y0156278D01*
X0223000Y0157277D02*
X0151000Y0157277D01*
X0151000Y0158275D02*
X0223000Y0158275D01*
X0223000Y0159274D02*
X0207044Y0159274D01*
X0207700Y0160272D02*
X0223000Y0160272D01*
X0223000Y0161271D02*
X0208271Y0161271D01*
X0209269Y0162269D02*
X0223000Y0162269D01*
X0223000Y0163268D02*
X0209500Y0163268D01*
X0209500Y0164266D02*
X0223000Y0164266D01*
X0223000Y0165265D02*
X0209765Y0165265D01*
X0210763Y0166263D02*
X0223000Y0166263D01*
X0223000Y0167262D02*
X0211762Y0167262D01*
X0212760Y0168260D02*
X0223000Y0168260D01*
X0223000Y0169259D02*
X0213759Y0169259D01*
X0214500Y0170257D02*
X0223000Y0170257D01*
X0223000Y0171256D02*
X0214500Y0171256D01*
X0214500Y0172254D02*
X0223000Y0172254D01*
X0223000Y0173253D02*
X0214500Y0173253D01*
X0214500Y0174251D02*
X0223000Y0174251D01*
X0223000Y0175250D02*
X0217250Y0175250D01*
X0218248Y0176248D02*
X0239000Y0176248D01*
X0239000Y0177247D02*
X0219247Y0177247D01*
X0219500Y0178245D02*
X0238255Y0178245D01*
X0276255Y0178245D01*
X0277000Y0177247D02*
X0239253Y0177247D01*
X0240252Y0176248D02*
X0277000Y0176248D01*
X0277000Y0175250D02*
X0241250Y0175250D01*
X0237256Y0179244D02*
X0219576Y0179244D01*
X0219784Y0180242D02*
X0237000Y0180242D01*
X0274258Y0180242D01*
X0275256Y0179244D02*
X0237256Y0179244D01*
X0237000Y0181241D02*
X0219784Y0181241D01*
X0219500Y0182239D02*
X0237000Y0182239D01*
X0272261Y0182239D01*
X0273259Y0181241D02*
X0237000Y0181241D01*
X0237000Y0183238D02*
X0220238Y0183238D01*
X0221237Y0184237D02*
X0237000Y0184237D01*
X0270263Y0184237D01*
X0269500Y0185235D02*
X0237235Y0185235D01*
X0237000Y0185235D02*
X0222235Y0185235D01*
X0223234Y0186234D02*
X0237734Y0186234D01*
X0238234Y0186234D02*
X0269500Y0186234D01*
X0269500Y0187232D02*
X0239232Y0187232D01*
X0238732Y0187232D02*
X0224232Y0187232D01*
X0237000Y0183238D02*
X0271262Y0183238D01*
X0269500Y0188231D02*
X0240231Y0188231D01*
X0241229Y0189229D02*
X0269500Y0189229D01*
X0269500Y0190228D02*
X0242228Y0190228D01*
X0243226Y0191226D02*
X0269500Y0191226D01*
X0269500Y0192225D02*
X0244225Y0192225D01*
X0255223Y0193223D02*
X0269500Y0193223D01*
X0269500Y0194222D02*
X0256222Y0194222D01*
X0257220Y0195220D02*
X0269500Y0195220D01*
X0269500Y0196219D02*
X0258219Y0196219D01*
X0259217Y0197217D02*
X0269500Y0197217D01*
X0270216Y0198216D02*
X0260216Y0198216D01*
X0261214Y0199214D02*
X0271214Y0199214D01*
X0272000Y0200213D02*
X0262000Y0200213D01*
X0262000Y0201211D02*
X0272000Y0201211D01*
X0272000Y0202210D02*
X0262053Y0202210D01*
X0262053Y0203208D02*
X0272000Y0203208D01*
X0272000Y0204207D02*
X0262000Y0204207D01*
X0262000Y0205205D02*
X0272000Y0205205D01*
X0272000Y0206204D02*
X0262000Y0206204D01*
X0262000Y0207202D02*
X0272000Y0207202D01*
X0272000Y0208201D02*
X0262000Y0208201D01*
X0262000Y0209199D02*
X0272000Y0209199D01*
X0272000Y0210198D02*
X0262000Y0210198D01*
X0262000Y0211196D02*
X0272000Y0211196D01*
X0272000Y0212195D02*
X0262053Y0212195D01*
X0262053Y0213193D02*
X0272000Y0213193D01*
X0272000Y0214192D02*
X0262000Y0214192D01*
X0262000Y0215190D02*
X0272000Y0215190D01*
X0272000Y0216189D02*
X0262000Y0216189D01*
X0262000Y0217187D02*
X0272000Y0217187D01*
X0204500Y0192500D02*
X0204500Y0180846D01*
X0204500Y0192500D02*
X0202000Y0195000D01*
X0180234Y0164266D02*
X0151000Y0164266D01*
X0151000Y0163268D02*
X0181232Y0163268D01*
X0182231Y0162269D02*
X0151000Y0162269D01*
X0151000Y0161271D02*
X0183229Y0161271D01*
X0184228Y0160272D02*
X0151000Y0160272D01*
X0151000Y0159274D02*
X0186956Y0159274D01*
X0192000Y0151286D02*
X0151000Y0151286D01*
X0151000Y0152284D02*
X0202000Y0152284D01*
X0202000Y0153283D02*
X0151000Y0153283D01*
X0151000Y0154281D02*
X0212781Y0154281D01*
X0191517Y0150287D02*
X0151000Y0150287D01*
X0151000Y0149289D02*
X0191300Y0149289D01*
X0191300Y0148290D02*
X0151000Y0148290D01*
X0151000Y0147292D02*
X0191300Y0147292D01*
X0191300Y0146293D02*
X0151000Y0146293D01*
X0151000Y0145295D02*
X0191300Y0145295D01*
X0191300Y0144296D02*
X0151000Y0144296D01*
X0151000Y0143298D02*
X0191300Y0143298D01*
X0174500Y0137500D02*
X0145500Y0137500D01*
X0145500Y0112500D01*
X0174500Y0112500D01*
X0174500Y0137500D01*
X0174500Y0137306D02*
X0145500Y0137306D01*
X0145500Y0136308D02*
X0174500Y0136308D01*
X0174500Y0135309D02*
X0145500Y0135309D01*
X0145500Y0134311D02*
X0174500Y0134311D01*
X0174500Y0133312D02*
X0145500Y0133312D01*
X0145500Y0132314D02*
X0174500Y0132314D01*
X0174500Y0131315D02*
X0145500Y0131315D01*
X0145500Y0130317D02*
X0174500Y0130317D01*
X0174500Y0129318D02*
X0145500Y0129318D01*
X0145500Y0128320D02*
X0174500Y0128320D01*
X0174500Y0127321D02*
X0145500Y0127321D01*
X0145500Y0126323D02*
X0174500Y0126323D01*
X0174500Y0125324D02*
X0145500Y0125324D01*
X0145500Y0124326D02*
X0174500Y0124326D01*
X0174500Y0123327D02*
X0145500Y0123327D01*
X0145500Y0122329D02*
X0174500Y0122329D01*
X0174500Y0121330D02*
X0145500Y0121330D01*
X0145500Y0120332D02*
X0174500Y0120332D01*
X0174500Y0119333D02*
X0145500Y0119333D01*
X0145500Y0118335D02*
X0174500Y0118335D01*
X0174500Y0117336D02*
X0145500Y0117336D01*
X0145500Y0116338D02*
X0174500Y0116338D01*
X0174500Y0115339D02*
X0145500Y0115339D01*
X0145500Y0114341D02*
X0174500Y0114341D01*
X0174500Y0113342D02*
X0145500Y0113342D01*
X0137000Y0155000D02*
X0137000Y0174154D01*
X0034500Y0090000D02*
X0029500Y0095000D01*
X0034500Y0090000D02*
X0052000Y0090000D01*
X0054382Y0087618D01*
X0054382Y0083484D01*
X0051823Y0083484D02*
X0051823Y0077677D01*
X0074500Y0055000D01*
X0074500Y0037500D01*
X0084500Y0027500D01*
X0139500Y0027500D01*
X0142000Y0025000D01*
X0142000Y0017500D01*
X0147000Y0012500D01*
X0057000Y0022500D02*
X0057000Y0025000D01*
X0052059Y0029941D01*
X0052059Y0040984D01*
X0049500Y0040984D02*
X0049500Y0045000D01*
X0042000Y0052500D01*
X0032000Y0052500D01*
X0024500Y0045000D01*
X0022000Y0045000D01*
X0022000Y0035000D02*
X0034500Y0047500D01*
X0042000Y0047500D01*
X0044382Y0045118D01*
X0044382Y0040984D01*
X0046941Y0040984D02*
X0046941Y0030059D01*
X0052000Y0025000D01*
X0041823Y0027677D02*
X0041823Y0040984D01*
X0054618Y0040984D02*
X0054618Y0044882D01*
X0042000Y0057500D01*
X0032000Y0057500D01*
X0029500Y0055000D01*
X0022000Y0055000D01*
X0032000Y0077500D02*
X0022000Y0087500D01*
D41*
X0204500Y0075000D02*
X0204500Y0072500D01*
X0204500Y0075000D02*
X0207902Y0078402D01*
X0209799Y0078402D01*
X0204500Y0102500D02*
X0204500Y0105000D01*
X0207902Y0108402D01*
X0209799Y0108402D01*
X0209799Y0048402D02*
X0209799Y0047201D01*
X0217000Y0040000D01*
D42*
X0194500Y0127500D02*
X0194500Y0131654D01*
X0194500Y0164700D02*
X0194500Y0174154D01*
X0199500Y0174154D02*
X0204500Y0174154D01*
X0199500Y0174154D02*
X0199500Y0164700D01*
X0189500Y0164700D02*
X0189500Y0174154D01*
D43*
X0194500Y0145300D02*
X0194500Y0131654D01*
X0199500Y0138346D02*
X0199500Y0145300D01*
D44*
X0199500Y0131654D02*
X0194500Y0131654D01*
X0194500Y0130000D01*
X0192630Y0130000D01*
X0192630Y0128681D01*
D45*
X0154500Y0127500D02*
X0154500Y0134488D01*
X0154500Y0127500D02*
X0147000Y0135000D01*
X0147000Y0172500D01*
X0157000Y0182500D01*
X0157000Y0195000D01*
X0202000Y0195000D01*
X0239500Y0195000D01*
X0247000Y0202500D01*
M02*
