G75*
%MOIN*%
%OFA0B0*%
%FSLAX24Y24*%
%IPPOS*%
%LPD*%
%AMOC8*
5,1,8,0,0,1.08239X$1,22.5*
%
%ADD10R,0.0138X0.0354*%
%ADD11R,0.0591X0.0591*%
%ADD12C,0.0591*%
%ADD13C,0.1660*%
%ADD14C,0.1620*%
%ADD15R,0.1063X0.0630*%
%ADD16R,0.0394X0.0433*%
%ADD17R,0.0220X0.0780*%
%ADD18R,0.0980X0.0790*%
%ADD19R,0.0433X0.0394*%
%ADD20R,0.0728X0.1339*%
%ADD21R,0.0709X0.0630*%
%ADD22C,0.0591*%
%ADD23R,0.0433X0.0551*%
%ADD24R,0.0880X0.0480*%
%ADD25R,0.0866X0.1417*%
%ADD26R,0.0315X0.0315*%
%ADD27R,0.0866X0.0236*%
%ADD28R,0.0790X0.0430*%
%ADD29R,0.0551X0.0551*%
%ADD30OC8,0.1005*%
%ADD31R,0.0394X0.0118*%
%ADD32R,0.0118X0.0394*%
%ADD33R,0.1000X0.1000*%
%ADD34R,0.0630X0.0710*%
%ADD35C,0.0337*%
%ADD36C,0.0270*%
%ADD37C,0.0160*%
%ADD38C,0.0376*%
%ADD39C,0.0120*%
%ADD40C,0.0100*%
%ADD41C,0.0400*%
%ADD42C,0.0200*%
%ADD43C,0.0220*%
%ADD44C,0.0240*%
%ADD45C,0.0320*%
D10*
X004182Y004098D03*
X004438Y004098D03*
X004694Y004098D03*
X004950Y004098D03*
X005206Y004098D03*
X005462Y004098D03*
X005718Y004098D03*
X005718Y006402D03*
X005462Y006402D03*
X005206Y006402D03*
X004950Y006402D03*
X004694Y006402D03*
X004438Y006402D03*
X004182Y006402D03*
X005182Y008348D03*
X005438Y008348D03*
X005694Y008348D03*
X005950Y008348D03*
X006206Y008348D03*
X006462Y008348D03*
X006718Y008348D03*
X006718Y010652D03*
X006462Y010652D03*
X006206Y010652D03*
X005950Y010652D03*
X005694Y010652D03*
X005438Y010652D03*
X005182Y010652D03*
D11*
X026700Y002250D03*
X026700Y021250D03*
D12*
X025700Y021250D03*
X024700Y021250D03*
X023700Y021250D03*
X022700Y021250D03*
X021700Y021250D03*
X020700Y021250D03*
X019700Y021250D03*
X018700Y021250D03*
X017700Y021250D03*
X016700Y021250D03*
X015700Y021250D03*
X014700Y021250D03*
X013700Y021250D03*
X012700Y021250D03*
X011700Y021250D03*
X010700Y021250D03*
X009700Y021250D03*
X008700Y021250D03*
X007700Y021250D03*
X006700Y021250D03*
X005700Y021250D03*
X004700Y021250D03*
X004700Y020250D03*
X005700Y020250D03*
X006700Y020250D03*
X007700Y020250D03*
X008700Y020250D03*
X009700Y020250D03*
X010700Y020250D03*
X011700Y020250D03*
X012700Y020250D03*
X013700Y020250D03*
X014700Y020250D03*
X015700Y020250D03*
X016700Y020250D03*
X017700Y020250D03*
X018700Y020250D03*
X019700Y020250D03*
X020700Y020250D03*
X021700Y020250D03*
X022700Y020250D03*
X023700Y020250D03*
X024700Y020250D03*
X025700Y020250D03*
X026700Y020250D03*
X025700Y002250D03*
X024700Y002250D03*
X023700Y002250D03*
X022700Y002250D03*
X021700Y002250D03*
X020700Y002250D03*
X019700Y002250D03*
X018700Y002250D03*
X017700Y002250D03*
X016700Y002250D03*
X015700Y002250D03*
X014700Y002250D03*
X013700Y002250D03*
X012700Y002250D03*
X011700Y002250D03*
X010700Y002250D03*
X009700Y002250D03*
X008700Y002250D03*
X007700Y002250D03*
X006700Y002250D03*
X005700Y002250D03*
X004700Y002250D03*
X004700Y001250D03*
X005700Y001250D03*
X006700Y001250D03*
X007700Y001250D03*
X008700Y001250D03*
X009700Y001250D03*
X010700Y001250D03*
X011700Y001250D03*
X012700Y001250D03*
X013700Y001250D03*
X014700Y001250D03*
X015700Y001250D03*
X016700Y001250D03*
X017700Y001250D03*
X018700Y001250D03*
X019700Y001250D03*
X020700Y001250D03*
X021700Y001250D03*
X022700Y001250D03*
X023700Y001250D03*
X024700Y001250D03*
X025700Y001250D03*
X026700Y001250D03*
D13*
X023486Y016250D03*
D14*
X026369Y016260D03*
X024737Y018231D03*
D15*
X021750Y015801D03*
X021750Y014699D03*
D16*
X020950Y014915D03*
X020950Y015585D03*
X019950Y013835D03*
X019950Y013165D03*
X024615Y010500D03*
X025285Y010500D03*
X025285Y006933D03*
X024615Y006933D03*
X024615Y003250D03*
X025285Y003250D03*
X013035Y011750D03*
X012365Y011750D03*
X012365Y012500D03*
X013035Y012500D03*
X013035Y013250D03*
X012365Y013250D03*
X018950Y017415D03*
X019450Y017415D03*
X019450Y018085D03*
X018950Y018085D03*
X005700Y018665D03*
X004950Y018665D03*
X004950Y019335D03*
X005700Y019335D03*
X003535Y016385D03*
X002865Y016385D03*
X002865Y015750D03*
X003535Y015750D03*
D17*
X018950Y016470D03*
X019450Y016470D03*
X019950Y016470D03*
X020450Y016470D03*
X020450Y014530D03*
X019950Y014530D03*
X019450Y014530D03*
X018950Y014530D03*
D18*
X019700Y015500D03*
D19*
X019950Y017415D03*
X020450Y017415D03*
X020950Y017415D03*
X020950Y018085D03*
X020450Y018085D03*
X019950Y018085D03*
X013700Y018085D03*
X012950Y018085D03*
X012950Y017415D03*
X013700Y017415D03*
X011950Y017415D03*
X011200Y017415D03*
X011200Y018085D03*
X011950Y018085D03*
X007285Y016500D03*
X006615Y016500D03*
X009133Y014735D03*
X009768Y014735D03*
X010403Y014735D03*
X010403Y014065D03*
X009768Y014065D03*
X009133Y014065D03*
X009115Y011500D03*
X009785Y011500D03*
X019950Y011165D03*
X019950Y011835D03*
X019950Y009585D03*
X019950Y008915D03*
X019950Y006585D03*
X019950Y005915D03*
D20*
X019263Y012868D03*
X017098Y012868D03*
D21*
X016300Y013449D03*
X015450Y013449D03*
X015450Y014551D03*
X016300Y014551D03*
D22*
X008995Y017250D02*
X008405Y017250D01*
X008405Y018250D02*
X008995Y018250D01*
X002495Y015000D02*
X001905Y015000D01*
X001905Y014000D02*
X002495Y014000D01*
X002495Y013000D02*
X001905Y013000D01*
X001905Y012000D02*
X002495Y012000D01*
X002495Y010750D02*
X001905Y010750D01*
X001905Y009750D02*
X002495Y009750D01*
X002495Y008750D02*
X001905Y008750D01*
X001905Y007750D02*
X002495Y007750D01*
X002495Y006500D02*
X001905Y006500D01*
X001905Y005500D02*
X002495Y005500D01*
X002495Y004500D02*
X001905Y004500D01*
X001905Y003500D02*
X002495Y003500D01*
X008700Y004455D02*
X008700Y005045D01*
X009700Y005045D02*
X009700Y004455D01*
X010700Y004455D02*
X010700Y005045D01*
X011700Y005045D02*
X011700Y004455D01*
X012700Y004455D02*
X012700Y005045D01*
X014700Y005045D02*
X014700Y004455D01*
X015700Y004455D02*
X015700Y005045D01*
X016700Y005045D02*
X016700Y004455D01*
X017700Y004455D02*
X017700Y005045D01*
X018700Y005045D02*
X018700Y004455D01*
X024383Y004570D02*
X024383Y005160D01*
X025383Y005160D02*
X025383Y004570D01*
X025500Y008199D02*
X025500Y008790D01*
X024500Y008790D02*
X024500Y008199D01*
X024450Y011955D02*
X024450Y012545D01*
X025450Y012545D02*
X025450Y011955D01*
X018700Y009045D02*
X018700Y008455D01*
X017700Y008455D02*
X017700Y009045D01*
X016700Y009045D02*
X016700Y008455D01*
X015700Y008455D02*
X015700Y009045D01*
X014700Y009045D02*
X014700Y008455D01*
X012700Y008455D02*
X012700Y009045D01*
X011700Y009045D02*
X011700Y008455D01*
X010700Y008455D02*
X010700Y009045D01*
X009700Y009045D02*
X009700Y008455D01*
X008700Y008455D02*
X008700Y009045D01*
X002245Y017250D02*
X001655Y017250D01*
X001655Y018250D02*
X002245Y018250D01*
D23*
X008806Y010500D03*
X009594Y010500D03*
X011806Y010500D03*
X012594Y010500D03*
X014806Y010500D03*
X015594Y010500D03*
X017806Y010500D03*
X018594Y010500D03*
X018594Y006500D03*
X017806Y006500D03*
X015594Y006500D03*
X014806Y006500D03*
X012594Y006500D03*
X011806Y006500D03*
X009594Y006500D03*
X008806Y006500D03*
D24*
X020980Y006660D03*
X020980Y005750D03*
X020980Y004840D03*
X020980Y007840D03*
X020980Y008750D03*
X020980Y009660D03*
X020980Y010840D03*
X020980Y011750D03*
X020980Y012660D03*
D25*
X023420Y011750D03*
X023420Y008750D03*
X023420Y005750D03*
D26*
X023405Y006933D03*
X023995Y006933D03*
X023995Y010500D03*
X023405Y010500D03*
X017245Y010500D03*
X016655Y010500D03*
X011245Y010500D03*
X010655Y010500D03*
X010655Y006500D03*
X011245Y006500D03*
X016655Y006500D03*
X017245Y006500D03*
X023405Y003250D03*
X023995Y003250D03*
D27*
X010974Y012000D03*
X010974Y012500D03*
X010974Y013000D03*
X010974Y013500D03*
X008926Y013500D03*
X008926Y013000D03*
X008926Y012500D03*
X008926Y012000D03*
D28*
X007720Y012250D03*
X007720Y013250D03*
X004180Y013250D03*
X004180Y012250D03*
D29*
X012300Y014100D03*
D30*
X002574Y019851D03*
X027700Y019000D03*
X027581Y004565D03*
D31*
X006027Y016856D03*
X006027Y017053D03*
X006027Y017250D03*
X006027Y017447D03*
X006027Y017644D03*
X004373Y017644D03*
X004373Y017447D03*
X004373Y017250D03*
X004373Y017053D03*
X004373Y016856D03*
D32*
X004806Y016423D03*
X005003Y016423D03*
X005200Y016423D03*
X005397Y016423D03*
X005594Y016423D03*
X005594Y018077D03*
X005397Y018077D03*
X005200Y018077D03*
X005003Y018077D03*
X004806Y018077D03*
D33*
X005200Y017250D03*
D34*
X008140Y019250D03*
X009260Y019250D03*
D35*
X010450Y016500D03*
X011200Y014750D03*
X015300Y015150D03*
X015700Y015150D03*
X016100Y015150D03*
X016500Y015150D03*
X019500Y015250D03*
X019900Y015250D03*
X019900Y015650D03*
X019500Y015650D03*
X021550Y016350D03*
X021950Y016350D03*
X021750Y016750D03*
X021600Y018050D03*
X008200Y011500D03*
X005200Y012750D03*
X004950Y011000D03*
X006700Y009000D03*
X005700Y003500D03*
D36*
X011950Y011750D03*
X011950Y012500D03*
X011200Y016000D03*
X011200Y016500D03*
X012450Y016500D03*
X012950Y016000D03*
X019450Y018500D03*
X004200Y015750D03*
X003950Y016385D03*
D37*
X002865Y016385D02*
X002865Y015750D01*
X002865Y015665D01*
X002200Y015000D01*
X001950Y015000D01*
X001450Y014500D01*
X001450Y011250D01*
X001950Y010750D01*
X001450Y010250D01*
X001450Y007250D01*
X002200Y006500D01*
X002298Y006402D01*
X004182Y006402D01*
X006718Y008348D02*
X006718Y008982D01*
X006700Y009000D01*
X008700Y008750D02*
X008700Y010500D01*
X008806Y010500D01*
X009594Y010500D02*
X009594Y008856D01*
X009700Y008750D01*
X008700Y008750D02*
X008700Y006606D01*
X008806Y006500D01*
X008806Y004856D01*
X008700Y004750D01*
X009594Y004856D02*
X009700Y004750D01*
X009594Y004856D02*
X009594Y006500D01*
X012594Y006500D02*
X013450Y006500D01*
X013700Y006750D01*
X013700Y010500D01*
X014200Y011000D01*
X014200Y017500D01*
X015200Y018500D01*
X015200Y020500D01*
X015450Y020750D01*
X025200Y020750D01*
X025700Y021250D01*
X025200Y020750D02*
X025700Y020250D01*
X021600Y018085D02*
X021600Y018050D01*
X021600Y018085D02*
X020950Y018085D01*
X020950Y017415D02*
X020950Y017000D01*
X020450Y016500D01*
X019950Y018085D02*
X019950Y018935D01*
X019843Y019043D01*
X019225Y019043D01*
X019200Y019068D01*
X019200Y019000D01*
X018950Y018750D01*
X018950Y018085D01*
X019450Y018085D02*
X019450Y018500D01*
X019950Y018750D02*
X019950Y018085D01*
X013035Y013250D02*
X013035Y012500D01*
X013035Y011750D01*
X013035Y011000D01*
X014200Y011000D01*
X013700Y010500D02*
X012594Y010500D01*
X013035Y011000D02*
X009700Y011000D01*
X009785Y011085D01*
X009785Y011500D01*
X010200Y011915D01*
X010200Y013250D01*
X010450Y013500D01*
X010974Y013500D01*
X011200Y013500D01*
X011185Y013515D01*
X011185Y014735D01*
X011200Y014750D01*
X011185Y014735D02*
X010403Y014735D01*
X009768Y014735D01*
X009133Y014735D01*
X010950Y013524D02*
X010974Y013500D01*
X012365Y013250D02*
X012365Y013785D01*
X012300Y014100D01*
X014865Y012165D02*
X014865Y010559D01*
X014806Y010500D01*
X014700Y010394D01*
X014700Y008750D01*
X014700Y006606D01*
X014806Y006500D01*
X014806Y004856D01*
X014700Y004750D01*
X015594Y004856D02*
X015700Y004750D01*
X015594Y004856D02*
X015594Y006500D01*
X018200Y007750D02*
X018200Y009750D01*
X018594Y010144D01*
X018594Y010500D01*
X018950Y010856D01*
X018950Y011000D01*
X015594Y010500D02*
X015594Y008856D01*
X015700Y008750D01*
X018200Y007750D02*
X018594Y007356D01*
X018594Y006500D01*
X014865Y012165D02*
X015450Y012750D01*
X009700Y011000D02*
X005182Y011000D01*
X005182Y010652D01*
X005182Y011000D02*
X004950Y011000D01*
X004700Y012250D02*
X004180Y012250D01*
X004700Y012250D02*
X005200Y012750D01*
X004700Y013250D01*
X004180Y013250D01*
X002200Y010750D02*
X001950Y010750D01*
X008200Y011500D02*
X008200Y011750D01*
X008450Y012000D01*
X008926Y012000D01*
X008700Y012000D01*
X009115Y011500D02*
X008200Y011500D01*
X007285Y016500D02*
X010450Y016500D01*
X008700Y017250D02*
X008503Y017447D01*
X008700Y018250D02*
X006200Y018250D01*
X006027Y018077D01*
X005700Y018665D02*
X004950Y018665D01*
X005700Y018665D02*
X006615Y018665D01*
X007200Y019250D01*
X008140Y019250D01*
X009260Y019250D02*
X009950Y019250D01*
X010200Y019500D01*
X007285Y016665D02*
X006897Y017053D01*
X004373Y017827D02*
X003950Y018250D01*
X001950Y018250D01*
X002147Y017447D02*
X001950Y017250D01*
X003090Y019335D02*
X002574Y019851D01*
X003090Y019335D02*
X004950Y019335D01*
X005700Y019335D01*
X005718Y004098D02*
X005718Y003518D01*
X005700Y003500D01*
D38*
X014200Y011000D03*
X018950Y011000D03*
X020450Y010250D03*
X020450Y007250D03*
X021700Y004000D03*
X003450Y017000D03*
X010200Y019500D03*
X015700Y019500D03*
X019200Y019068D03*
D39*
X020450Y016500D02*
X020450Y016470D01*
X008503Y017447D02*
X006027Y017447D01*
X006027Y017644D02*
X006027Y018077D01*
X005594Y018077D02*
X005594Y018559D01*
X005700Y018665D01*
X004950Y018665D02*
X004806Y018522D01*
X004806Y018077D01*
X005003Y018077D02*
X005003Y017447D01*
X005200Y017250D01*
X005200Y016423D01*
X005344Y016856D02*
X005200Y017000D01*
X005200Y017250D01*
X004373Y017250D01*
X003700Y017250D01*
X003450Y017000D01*
X004373Y017447D02*
X002147Y017447D01*
X004373Y017644D02*
X004373Y017827D01*
X005200Y018077D02*
X005200Y017250D01*
X005397Y017447D01*
X005397Y018077D01*
X006027Y017053D02*
X006897Y017053D01*
X006027Y016856D02*
X005344Y016856D01*
D40*
X004182Y002768D02*
X004700Y002250D01*
X005200Y002500D02*
X005200Y001750D01*
X004700Y001250D01*
X005700Y001250D02*
X006200Y001750D01*
X006200Y004250D01*
X004438Y006012D01*
X004438Y006402D01*
X004694Y006402D02*
X004700Y006407D01*
X004700Y006750D01*
X004200Y007250D01*
X002700Y007250D01*
X002200Y007750D01*
X003200Y007750D02*
X004200Y007750D01*
X005206Y006744D01*
X005206Y006402D01*
X005462Y006402D02*
X005462Y005988D01*
X007200Y004250D01*
X007200Y001750D01*
X006700Y001250D01*
X006700Y002250D02*
X006700Y004250D01*
X004950Y006000D01*
X004950Y006402D01*
X005718Y006402D02*
X005718Y006732D01*
X004200Y008250D01*
X003200Y008250D01*
X002950Y008500D01*
X002950Y009000D01*
X002200Y009750D01*
X002950Y009500D02*
X002950Y011250D01*
X002200Y012000D01*
X003200Y012000D02*
X002200Y013000D01*
X002950Y012750D02*
X002950Y013250D01*
X002200Y014000D01*
X002950Y012750D02*
X003450Y012250D01*
X003450Y010250D01*
X003700Y010000D01*
X005200Y010000D01*
X006462Y008738D01*
X006462Y008348D01*
X006206Y008348D02*
X006200Y008343D01*
X006200Y007750D01*
X007950Y006000D01*
X007950Y004250D01*
X008950Y003250D01*
X015700Y003250D01*
X016200Y002750D01*
X016950Y002750D01*
X017450Y002250D01*
X017700Y002250D01*
X018450Y002250D02*
X017700Y003000D01*
X016450Y003000D01*
X015700Y003750D01*
X010700Y003750D01*
X010200Y004250D01*
X010200Y008250D01*
X010700Y008750D01*
X010700Y010455D01*
X010655Y010500D01*
X011245Y010500D02*
X011806Y010500D01*
X011700Y011750D02*
X011450Y012000D01*
X010974Y012000D01*
X010974Y012500D02*
X011950Y012500D01*
X012365Y012500D01*
X011700Y013000D02*
X010974Y013000D01*
X011700Y013000D02*
X011950Y013250D01*
X012365Y013250D01*
X012365Y011750D02*
X011950Y011750D01*
X011700Y011750D01*
X009950Y012750D02*
X009950Y013613D01*
X010403Y014065D01*
X009768Y014065D02*
X009768Y013318D01*
X009450Y013000D01*
X008926Y013000D01*
X008450Y013000D01*
X007950Y012500D01*
X007950Y012250D01*
X007720Y012250D01*
X008926Y012500D02*
X009700Y012500D01*
X009950Y012750D01*
X009200Y013500D02*
X008926Y013500D01*
X008450Y013500D01*
X008200Y013250D01*
X007720Y013250D01*
X009133Y013568D02*
X009133Y014065D01*
X009133Y013568D02*
X009200Y013500D01*
X012200Y015500D02*
X012450Y015750D01*
X012450Y016500D01*
X011950Y016000D02*
X011700Y015750D01*
X005450Y015750D01*
X005397Y015803D01*
X005397Y016423D01*
X005594Y016423D02*
X005594Y016106D01*
X005700Y016000D01*
X011200Y016000D01*
X011200Y016500D02*
X011200Y017415D01*
X010700Y017750D02*
X010450Y017500D01*
X010450Y017000D01*
X010200Y016750D01*
X007700Y016750D01*
X007200Y017250D01*
X006027Y017250D01*
X006027Y016856D02*
X006259Y016856D01*
X006615Y016500D01*
X007285Y016500D02*
X007285Y016665D01*
X005003Y016423D02*
X005003Y015697D01*
X005200Y015500D01*
X012200Y015500D01*
X011950Y016000D02*
X011950Y017415D01*
X012450Y017750D02*
X010700Y017750D01*
X011200Y018085D02*
X011200Y020750D01*
X011700Y021250D01*
X012200Y020750D02*
X012200Y018750D01*
X011950Y018500D01*
X011950Y018085D01*
X012450Y017750D02*
X012553Y017853D01*
X012553Y018638D01*
X013200Y019285D01*
X013200Y020750D01*
X013700Y021250D01*
X014200Y020750D02*
X014700Y021250D01*
X014200Y020750D02*
X014200Y019000D01*
X013700Y018500D01*
X013700Y018085D01*
X012950Y018085D02*
X012950Y018500D01*
X013700Y019250D01*
X013700Y020250D01*
X012700Y021250D02*
X012200Y020750D01*
X012950Y017415D02*
X012950Y016000D01*
X013700Y015500D02*
X013450Y015250D01*
X004950Y015250D01*
X004806Y015394D01*
X004806Y016423D01*
X004373Y016856D02*
X004373Y015923D01*
X004200Y015750D01*
X003535Y015750D01*
X003450Y016250D02*
X003535Y016385D01*
X003950Y016385D01*
X003950Y016900D01*
X004100Y017050D01*
X004370Y017050D01*
X003200Y012000D02*
X003200Y009750D01*
X003450Y009500D01*
X005200Y009500D01*
X005950Y008750D01*
X005950Y008348D01*
X005694Y008348D02*
X005694Y007756D01*
X007700Y005750D01*
X007700Y004000D01*
X008700Y003000D01*
X014700Y003000D01*
X015200Y002500D01*
X015200Y002000D01*
X015450Y001750D01*
X018200Y001750D01*
X018700Y001250D01*
X019200Y001750D02*
X019200Y002500D01*
X018950Y002750D01*
X018450Y002750D01*
X017950Y003250D01*
X016700Y003250D01*
X015950Y004000D01*
X011450Y004000D01*
X010700Y004750D01*
X010700Y006455D01*
X010655Y006500D01*
X011245Y006500D02*
X011806Y006500D01*
X016200Y008250D02*
X016200Y004250D01*
X016950Y003500D01*
X018200Y003500D01*
X018700Y003000D01*
X019450Y003000D01*
X019700Y002750D01*
X019700Y002250D01*
X019200Y001750D02*
X019700Y001250D01*
X020200Y001750D02*
X020200Y003000D01*
X019950Y003250D01*
X018950Y003250D01*
X018450Y003750D01*
X017700Y003750D01*
X016700Y004750D01*
X016700Y006455D01*
X016655Y006500D01*
X017245Y006500D02*
X017806Y006500D01*
X019450Y007750D02*
X019950Y008250D01*
X019950Y008915D01*
X020450Y008926D02*
X024700Y008926D01*
X024700Y009024D02*
X021950Y009024D01*
X021950Y009000D02*
X021950Y009750D01*
X024700Y009750D01*
X024700Y007750D01*
X021950Y007750D01*
X021950Y008500D01*
X020450Y008500D01*
X020450Y009000D01*
X021950Y009000D01*
X021950Y009123D02*
X024700Y009123D01*
X024700Y009221D02*
X021950Y009221D01*
X021950Y009320D02*
X024700Y009320D01*
X024700Y009418D02*
X021950Y009418D01*
X021950Y009517D02*
X024700Y009517D01*
X024700Y009615D02*
X021950Y009615D01*
X021950Y009714D02*
X024700Y009714D01*
X024987Y009714D02*
X025950Y009714D01*
X025950Y009812D02*
X024988Y009812D01*
X024989Y009911D02*
X025950Y009911D01*
X025950Y010009D02*
X024989Y010009D01*
X024990Y010108D02*
X025950Y010108D01*
X025950Y010206D02*
X025022Y010206D01*
X025022Y010196D02*
X025022Y010804D01*
X024995Y010831D01*
X025000Y011550D01*
X025018Y013000D01*
X025065Y013250D01*
X023700Y013250D01*
X020383Y013238D01*
X020400Y014850D01*
X022600Y014950D01*
X022600Y017250D01*
X023950Y017250D01*
X024450Y016750D01*
X024450Y014800D01*
X025950Y014800D01*
X025950Y013000D01*
X025018Y013000D01*
X025950Y013000D01*
X025950Y004250D01*
X024950Y004250D01*
X024966Y006573D01*
X025022Y006629D01*
X025022Y007236D01*
X024971Y007287D01*
X024976Y008028D01*
X025005Y008099D01*
X025005Y008890D01*
X024982Y008946D01*
X024991Y010165D01*
X025022Y010196D01*
X025022Y010305D02*
X025950Y010305D01*
X025950Y010403D02*
X025022Y010403D01*
X025022Y010502D02*
X025950Y010502D01*
X025950Y010600D02*
X025022Y010600D01*
X025022Y010699D02*
X025950Y010699D01*
X025950Y010797D02*
X025022Y010797D01*
X024996Y010896D02*
X025950Y010896D01*
X025950Y010994D02*
X024996Y010994D01*
X024997Y011093D02*
X025950Y011093D01*
X025950Y011191D02*
X024998Y011191D01*
X024998Y011290D02*
X025950Y011290D01*
X025950Y011388D02*
X024999Y011388D01*
X025000Y011487D02*
X025950Y011487D01*
X025950Y011585D02*
X025000Y011585D01*
X025002Y011684D02*
X025950Y011684D01*
X025950Y011782D02*
X025003Y011782D01*
X025004Y011881D02*
X025950Y011881D01*
X025950Y011979D02*
X025005Y011979D01*
X025006Y012078D02*
X025950Y012078D01*
X025950Y012176D02*
X025008Y012176D01*
X025009Y012275D02*
X025950Y012275D01*
X025950Y012373D02*
X025010Y012373D01*
X025011Y012472D02*
X025950Y012472D01*
X025950Y012570D02*
X025012Y012570D01*
X025013Y012669D02*
X025950Y012669D01*
X025950Y012767D02*
X025015Y012767D01*
X025016Y012866D02*
X025950Y012866D01*
X025950Y012964D02*
X025017Y012964D01*
X025029Y013063D02*
X025950Y013063D01*
X025950Y013161D02*
X025048Y013161D01*
X024700Y012865D02*
X024700Y011000D01*
X021950Y011000D01*
X021950Y011500D01*
X020450Y011500D01*
X020450Y012000D01*
X021950Y012000D01*
X021950Y012885D01*
X024200Y012865D01*
X024700Y012865D01*
X024700Y012767D02*
X021950Y012767D01*
X021950Y012669D02*
X024700Y012669D01*
X024700Y012570D02*
X021950Y012570D01*
X021950Y012472D02*
X024700Y012472D01*
X024700Y012373D02*
X021950Y012373D01*
X021950Y012275D02*
X024700Y012275D01*
X024700Y012176D02*
X021950Y012176D01*
X021950Y012078D02*
X024700Y012078D01*
X024700Y011979D02*
X020450Y011979D01*
X020450Y011881D02*
X024700Y011881D01*
X024700Y011782D02*
X020450Y011782D01*
X020450Y011684D02*
X024700Y011684D01*
X024700Y011585D02*
X020450Y011585D01*
X019950Y011835D02*
X019950Y012250D01*
X020360Y012660D01*
X020980Y012660D01*
X020383Y013260D02*
X025950Y013260D01*
X025950Y013358D02*
X020384Y013358D01*
X020385Y013457D02*
X025950Y013457D01*
X025950Y013555D02*
X020386Y013555D01*
X020387Y013654D02*
X025950Y013654D01*
X025950Y013752D02*
X020388Y013752D01*
X020389Y013851D02*
X025950Y013851D01*
X025950Y013949D02*
X020390Y013949D01*
X020391Y014048D02*
X025950Y014048D01*
X025950Y014146D02*
X020392Y014146D01*
X020393Y014245D02*
X025950Y014245D01*
X025950Y014343D02*
X020394Y014343D01*
X020396Y014442D02*
X025950Y014442D01*
X025950Y014540D02*
X020397Y014540D01*
X020398Y014639D02*
X025950Y014639D01*
X025950Y014737D02*
X020399Y014737D01*
X020400Y014836D02*
X024450Y014836D01*
X024450Y014934D02*
X022249Y014934D01*
X022600Y015033D02*
X024450Y015033D01*
X024450Y015131D02*
X022600Y015131D01*
X022600Y015230D02*
X024450Y015230D01*
X024450Y015328D02*
X022600Y015328D01*
X022600Y015427D02*
X024450Y015427D01*
X024450Y015525D02*
X022600Y015525D01*
X022600Y015624D02*
X024450Y015624D01*
X024450Y015722D02*
X022600Y015722D01*
X022600Y015821D02*
X024450Y015821D01*
X024450Y015919D02*
X022600Y015919D01*
X022600Y016018D02*
X024450Y016018D01*
X024450Y016116D02*
X022600Y016116D01*
X022600Y016215D02*
X024450Y016215D01*
X024450Y016313D02*
X022600Y016313D01*
X022600Y016412D02*
X024450Y016412D01*
X024450Y016510D02*
X022600Y016510D01*
X022600Y016609D02*
X024450Y016609D01*
X024450Y016707D02*
X022600Y016707D01*
X022600Y016806D02*
X024394Y016806D01*
X024296Y016904D02*
X022600Y016904D01*
X022600Y017003D02*
X024197Y017003D01*
X024099Y017101D02*
X022600Y017101D01*
X022600Y017200D02*
X024000Y017200D01*
X024253Y017397D02*
X027700Y017397D01*
X027700Y017495D02*
X024155Y017495D01*
X024056Y017594D02*
X027700Y017594D01*
X027700Y017692D02*
X023958Y017692D01*
X023900Y017692D02*
X021892Y017692D01*
X021950Y017750D02*
X021950Y017906D01*
X021978Y017975D01*
X021978Y018125D01*
X021950Y018194D01*
X021950Y018250D01*
X022450Y018750D01*
X023900Y018750D01*
X023700Y018550D01*
X023700Y017950D01*
X023900Y017750D01*
X023900Y017550D01*
X022300Y017550D01*
X022300Y015450D01*
X021300Y015450D01*
X021200Y015350D01*
X020200Y015350D01*
X020200Y015150D01*
X019200Y015150D01*
X019200Y015077D01*
X019130Y015007D01*
X019130Y014250D01*
X015100Y014250D01*
X015100Y016500D01*
X017950Y016500D01*
X018450Y016000D01*
X018630Y016000D01*
X018630Y015993D01*
X018753Y015870D01*
X019147Y015870D01*
X019200Y015923D01*
X019253Y015870D01*
X019647Y015870D01*
X019700Y015923D01*
X019753Y015870D01*
X020147Y015870D01*
X020200Y015923D01*
X020253Y015870D01*
X020647Y015870D01*
X020770Y015993D01*
X020770Y016070D01*
X020950Y016250D01*
X020950Y016500D01*
X021450Y017000D01*
X021450Y017500D01*
X021700Y017500D01*
X021950Y017750D01*
X021950Y017791D02*
X023859Y017791D01*
X027659Y017791D01*
X027700Y017750D02*
X027700Y016000D01*
X026950Y015250D01*
X024950Y015250D01*
X024900Y015300D01*
X024900Y016750D01*
X023700Y017950D01*
X023700Y018500D01*
X024450Y019250D01*
X025450Y019250D01*
X026200Y020000D01*
X026200Y020137D01*
X026205Y020149D01*
X026205Y020351D01*
X026200Y020363D01*
X026200Y021137D01*
X026205Y021149D01*
X026205Y021351D01*
X026200Y021363D01*
X026200Y021750D01*
X027200Y021750D01*
X027200Y020000D01*
X026950Y019750D01*
X026950Y018500D01*
X027700Y017750D01*
X027561Y017889D02*
X023761Y017889D01*
X021950Y017889D01*
X021978Y017988D02*
X023700Y017988D01*
X027462Y017988D01*
X027364Y018086D02*
X023700Y018086D01*
X021978Y018086D01*
X021954Y018185D02*
X023700Y018185D01*
X027265Y018185D01*
X027167Y018283D02*
X023700Y018283D01*
X021983Y018283D01*
X022082Y018382D02*
X023700Y018382D01*
X027068Y018382D01*
X026970Y018480D02*
X023700Y018480D01*
X022180Y018480D01*
X022279Y018579D02*
X023729Y018579D01*
X023779Y018579D02*
X026950Y018579D01*
X026950Y018677D02*
X023877Y018677D01*
X023827Y018677D02*
X022377Y018677D01*
X022300Y017495D02*
X021450Y017495D01*
X021450Y017397D02*
X022300Y017397D01*
X022300Y017298D02*
X021450Y017298D01*
X021450Y017200D02*
X022300Y017200D01*
X022300Y017101D02*
X021450Y017101D01*
X021450Y017003D02*
X022300Y017003D01*
X022300Y016904D02*
X021354Y016904D01*
X021256Y016806D02*
X022300Y016806D01*
X022300Y016707D02*
X021157Y016707D01*
X021059Y016609D02*
X022300Y016609D01*
X022300Y016510D02*
X020960Y016510D01*
X020950Y016412D02*
X022300Y016412D01*
X022300Y016313D02*
X020950Y016313D01*
X020915Y016215D02*
X022300Y016215D01*
X022300Y016116D02*
X020816Y016116D01*
X020770Y016018D02*
X022300Y016018D01*
X022300Y015919D02*
X020696Y015919D01*
X020204Y015919D02*
X020196Y015919D01*
X019704Y015919D02*
X019696Y015919D01*
X019204Y015919D02*
X019196Y015919D01*
X018704Y015919D02*
X015100Y015919D01*
X015100Y015821D02*
X022300Y015821D01*
X022300Y015722D02*
X015100Y015722D01*
X015100Y015624D02*
X022300Y015624D01*
X022300Y015525D02*
X015100Y015525D01*
X015100Y015427D02*
X021277Y015427D01*
X020200Y015328D02*
X015100Y015328D01*
X015100Y015230D02*
X020200Y015230D01*
X019200Y015131D02*
X015100Y015131D01*
X015100Y015033D02*
X019156Y015033D01*
X019130Y014934D02*
X015100Y014934D01*
X015100Y014836D02*
X019130Y014836D01*
X019130Y014737D02*
X015100Y014737D01*
X015100Y014639D02*
X019130Y014639D01*
X019130Y014540D02*
X015100Y014540D01*
X015100Y014442D02*
X019130Y014442D01*
X019130Y014343D02*
X015100Y014343D01*
X014550Y013750D02*
X017450Y013750D01*
X017450Y011250D01*
X014550Y011250D01*
X014550Y013750D01*
X014550Y013654D02*
X017450Y013654D01*
X017450Y013555D02*
X014550Y013555D01*
X014550Y013457D02*
X017450Y013457D01*
X017450Y013358D02*
X014550Y013358D01*
X014550Y013260D02*
X017450Y013260D01*
X017450Y013161D02*
X014550Y013161D01*
X014550Y013063D02*
X017450Y013063D01*
X017450Y012964D02*
X014550Y012964D01*
X014550Y012866D02*
X017450Y012866D01*
X017450Y012767D02*
X014550Y012767D01*
X014550Y012669D02*
X017450Y012669D01*
X017450Y012570D02*
X014550Y012570D01*
X014550Y012472D02*
X017450Y012472D01*
X017450Y012373D02*
X014550Y012373D01*
X014550Y012275D02*
X017450Y012275D01*
X017450Y012176D02*
X014550Y012176D01*
X014550Y012078D02*
X017450Y012078D01*
X017450Y011979D02*
X014550Y011979D01*
X014550Y011881D02*
X017450Y011881D01*
X017450Y011782D02*
X014550Y011782D01*
X014550Y011684D02*
X017450Y011684D01*
X017450Y011585D02*
X014550Y011585D01*
X014550Y011487D02*
X017450Y011487D01*
X017450Y011388D02*
X014550Y011388D01*
X014550Y011290D02*
X017450Y011290D01*
X017245Y010500D02*
X017806Y010500D01*
X016700Y010455D02*
X016655Y010500D01*
X016700Y010455D02*
X016700Y008750D01*
X016200Y008250D01*
X019200Y009750D02*
X019950Y010500D01*
X019950Y011165D01*
X019200Y009750D02*
X019200Y004500D01*
X020700Y003000D01*
X020700Y002250D01*
X020200Y001750D02*
X020700Y001250D01*
X021200Y001750D02*
X021200Y003000D01*
X019450Y004750D01*
X019450Y007750D01*
X020450Y008532D02*
X024700Y008532D01*
X024700Y008630D02*
X020450Y008630D01*
X020450Y008729D02*
X024700Y008729D01*
X024700Y008827D02*
X020450Y008827D01*
X020905Y009585D02*
X019950Y009585D01*
X020905Y009585D02*
X020980Y009660D01*
X021950Y008433D02*
X024700Y008433D01*
X024700Y008335D02*
X021950Y008335D01*
X021950Y008236D02*
X024700Y008236D01*
X024700Y008138D02*
X021950Y008138D01*
X021950Y008039D02*
X024700Y008039D01*
X024700Y007941D02*
X021950Y007941D01*
X021950Y007842D02*
X024700Y007842D01*
X024975Y007842D02*
X025950Y007842D01*
X025950Y007744D02*
X024974Y007744D01*
X024973Y007645D02*
X025950Y007645D01*
X025950Y007547D02*
X024973Y007547D01*
X024972Y007448D02*
X025950Y007448D01*
X025950Y007350D02*
X024971Y007350D01*
X025007Y007251D02*
X025950Y007251D01*
X025950Y007153D02*
X025022Y007153D01*
X025022Y007054D02*
X025950Y007054D01*
X025950Y006956D02*
X025022Y006956D01*
X025022Y006857D02*
X025950Y006857D01*
X025950Y006759D02*
X025022Y006759D01*
X025022Y006660D02*
X025950Y006660D01*
X025950Y006562D02*
X024966Y006562D01*
X024965Y006463D02*
X025950Y006463D01*
X025950Y006365D02*
X024964Y006365D01*
X024964Y006266D02*
X025950Y006266D01*
X025950Y006168D02*
X024963Y006168D01*
X024962Y006069D02*
X025950Y006069D01*
X025950Y005971D02*
X024962Y005971D01*
X024961Y005872D02*
X025950Y005872D01*
X025950Y005774D02*
X024960Y005774D01*
X024960Y005675D02*
X025950Y005675D01*
X025950Y005577D02*
X024959Y005577D01*
X024958Y005478D02*
X025950Y005478D01*
X025950Y005380D02*
X024958Y005380D01*
X024957Y005281D02*
X025950Y005281D01*
X025950Y005183D02*
X024956Y005183D01*
X024956Y005084D02*
X025950Y005084D01*
X025950Y004986D02*
X024955Y004986D01*
X024954Y004887D02*
X025950Y004887D01*
X025950Y004789D02*
X024954Y004789D01*
X024953Y004690D02*
X025950Y004690D01*
X025950Y004592D02*
X024952Y004592D01*
X024952Y004493D02*
X025950Y004493D01*
X025950Y004395D02*
X024951Y004395D01*
X024950Y004296D02*
X025950Y004296D01*
X025383Y004865D02*
X025383Y003348D01*
X025285Y003250D01*
X024615Y003250D02*
X023995Y003250D01*
X023405Y003250D02*
X023405Y005735D01*
X023420Y005750D01*
X024633Y005774D02*
X020450Y005774D01*
X020450Y005872D02*
X024633Y005872D01*
X024633Y005971D02*
X020450Y005971D01*
X020450Y006000D02*
X021950Y006000D01*
X021950Y006500D01*
X024633Y006500D01*
X024633Y004250D01*
X022030Y004250D01*
X021950Y004330D01*
X021950Y005500D01*
X020450Y005500D01*
X020450Y006000D01*
X019950Y005915D02*
X019950Y004750D01*
X021700Y003000D01*
X021700Y002250D01*
X021200Y001750D02*
X021700Y001250D01*
X018700Y002250D02*
X018450Y002250D01*
X021984Y004296D02*
X024633Y004296D01*
X024633Y004395D02*
X021950Y004395D01*
X021950Y004493D02*
X024633Y004493D01*
X024633Y004592D02*
X021950Y004592D01*
X021950Y004690D02*
X024633Y004690D01*
X024633Y004789D02*
X021950Y004789D01*
X021950Y004887D02*
X024633Y004887D01*
X024633Y004986D02*
X021950Y004986D01*
X021950Y005084D02*
X024633Y005084D01*
X024633Y005183D02*
X021950Y005183D01*
X021950Y005281D02*
X024633Y005281D01*
X024633Y005380D02*
X021950Y005380D01*
X021950Y005478D02*
X024633Y005478D01*
X024633Y005577D02*
X020450Y005577D01*
X020450Y005675D02*
X024633Y005675D01*
X024633Y006069D02*
X021950Y006069D01*
X021950Y006168D02*
X024633Y006168D01*
X024633Y006266D02*
X021950Y006266D01*
X021950Y006365D02*
X024633Y006365D01*
X024633Y006463D02*
X021950Y006463D01*
X020980Y006660D02*
X020905Y006585D01*
X019950Y006585D01*
X023405Y006933D02*
X023405Y008735D01*
X023420Y008750D01*
X024983Y009024D02*
X025950Y009024D01*
X025950Y008926D02*
X024991Y008926D01*
X025005Y008827D02*
X025950Y008827D01*
X025950Y008729D02*
X025005Y008729D01*
X025005Y008630D02*
X025950Y008630D01*
X025950Y008532D02*
X025005Y008532D01*
X025005Y008433D02*
X025950Y008433D01*
X025950Y008335D02*
X025005Y008335D01*
X025005Y008236D02*
X025950Y008236D01*
X025950Y008138D02*
X025005Y008138D01*
X024981Y008039D02*
X025950Y008039D01*
X025950Y007941D02*
X024975Y007941D01*
X024615Y006933D02*
X023995Y006933D01*
X024983Y009123D02*
X025950Y009123D01*
X025950Y009221D02*
X024984Y009221D01*
X024985Y009320D02*
X025950Y009320D01*
X025950Y009418D02*
X024985Y009418D01*
X024986Y009517D02*
X025950Y009517D01*
X025950Y009615D02*
X024987Y009615D01*
X024615Y010500D02*
X023995Y010500D01*
X023405Y010500D02*
X023405Y011735D01*
X023420Y011750D01*
X024700Y011487D02*
X021950Y011487D01*
X021950Y011388D02*
X024700Y011388D01*
X024700Y011290D02*
X021950Y011290D01*
X021950Y011191D02*
X024700Y011191D01*
X024700Y011093D02*
X021950Y011093D01*
X021950Y012866D02*
X024140Y012866D01*
X024900Y015328D02*
X027028Y015328D01*
X027127Y015427D02*
X024900Y015427D01*
X024900Y015525D02*
X027225Y015525D01*
X027324Y015624D02*
X024900Y015624D01*
X024900Y015722D02*
X027422Y015722D01*
X027521Y015821D02*
X024900Y015821D01*
X024900Y015919D02*
X027619Y015919D01*
X027700Y016018D02*
X024900Y016018D01*
X024900Y016116D02*
X027700Y016116D01*
X027700Y016215D02*
X024900Y016215D01*
X024900Y016313D02*
X027700Y016313D01*
X027700Y016412D02*
X024900Y016412D01*
X024900Y016510D02*
X027700Y016510D01*
X027700Y016609D02*
X024900Y016609D01*
X024900Y016707D02*
X027700Y016707D01*
X027700Y016806D02*
X024844Y016806D01*
X024746Y016904D02*
X027700Y016904D01*
X027700Y017003D02*
X024647Y017003D01*
X024549Y017101D02*
X027700Y017101D01*
X027700Y017200D02*
X024450Y017200D01*
X024352Y017298D02*
X027700Y017298D01*
X026950Y018776D02*
X023976Y018776D01*
X024074Y018874D02*
X026950Y018874D01*
X026950Y018973D02*
X024173Y018973D01*
X024271Y019071D02*
X026950Y019071D01*
X026950Y019170D02*
X024370Y019170D01*
X025468Y019268D02*
X026950Y019268D01*
X026950Y019367D02*
X025567Y019367D01*
X025665Y019465D02*
X026950Y019465D01*
X026950Y019564D02*
X025764Y019564D01*
X025862Y019662D02*
X026950Y019662D01*
X026961Y019761D02*
X025961Y019761D01*
X026059Y019859D02*
X027059Y019859D01*
X027158Y019958D02*
X026158Y019958D01*
X026200Y020056D02*
X027200Y020056D01*
X027200Y020155D02*
X026205Y020155D01*
X026205Y020253D02*
X027200Y020253D01*
X027200Y020352D02*
X026205Y020352D01*
X026200Y020450D02*
X027200Y020450D01*
X027200Y020549D02*
X026200Y020549D01*
X026200Y020647D02*
X027200Y020647D01*
X027200Y020746D02*
X026200Y020746D01*
X026200Y020844D02*
X027200Y020844D01*
X027200Y020943D02*
X026200Y020943D01*
X026200Y021041D02*
X027200Y021041D01*
X027200Y021140D02*
X026201Y021140D01*
X026205Y021238D02*
X027200Y021238D01*
X027200Y021337D02*
X026205Y021337D01*
X026200Y021435D02*
X027200Y021435D01*
X027200Y021534D02*
X026200Y021534D01*
X026200Y021632D02*
X027200Y021632D01*
X027200Y021731D02*
X026200Y021731D01*
X020450Y019250D02*
X020450Y018085D01*
X021794Y017594D02*
X023900Y017594D01*
X020450Y019250D02*
X020200Y019500D01*
X018038Y016412D02*
X015100Y016412D01*
X015100Y016313D02*
X018137Y016313D01*
X018235Y016215D02*
X015100Y016215D01*
X015100Y016116D02*
X018334Y016116D01*
X018432Y016018D02*
X015100Y016018D01*
X013700Y015500D02*
X013700Y017415D01*
X003450Y009000D02*
X002950Y009500D01*
X003450Y009000D02*
X005200Y009000D01*
X005438Y008762D01*
X005438Y008348D01*
X005182Y008348D02*
X005182Y007768D01*
X007450Y005500D01*
X007450Y003750D01*
X008450Y002750D01*
X013950Y002750D01*
X014200Y002500D01*
X014200Y001750D01*
X014700Y001250D01*
X005700Y002250D02*
X005700Y002500D01*
X005206Y002994D01*
X005206Y004098D01*
X005462Y004098D02*
X005462Y004488D01*
X004200Y005750D01*
X003200Y005750D01*
X002950Y005500D01*
X002200Y005500D01*
X003200Y005250D02*
X004200Y005250D01*
X004950Y004500D01*
X004950Y004098D01*
X004694Y004098D02*
X004694Y003006D01*
X005200Y002500D01*
X004182Y002768D02*
X004182Y004098D01*
X004438Y004098D02*
X004438Y004512D01*
X004200Y004750D01*
X003450Y004750D01*
X002200Y003500D01*
X002200Y004500D02*
X002450Y004500D01*
X003200Y005250D01*
X003200Y007750D02*
X002200Y008750D01*
D41*
X020450Y007500D02*
X020450Y007250D01*
X020450Y007500D02*
X020790Y007840D01*
X020980Y007840D01*
X020450Y010250D02*
X020450Y010500D01*
X020790Y010840D01*
X020980Y010840D01*
X020980Y004840D02*
X020980Y004720D01*
X021700Y004000D01*
D42*
X019450Y012750D02*
X019450Y013165D01*
X019450Y016470D02*
X019450Y017415D01*
X019950Y017415D02*
X020450Y017415D01*
X019950Y017415D02*
X019950Y016470D01*
X018950Y016470D02*
X018950Y017415D01*
D43*
X019450Y014530D02*
X019450Y013165D01*
X019950Y013835D02*
X019950Y014530D01*
D44*
X019950Y013165D02*
X019450Y013165D01*
X019450Y013000D01*
X019263Y013000D01*
X019263Y012868D01*
D45*
X015450Y012750D02*
X015450Y013449D01*
X015450Y012750D02*
X014700Y013500D01*
X014700Y017250D01*
X015700Y018250D01*
X015700Y019500D01*
X020200Y019500D01*
X023950Y019500D01*
X024700Y020250D01*
M02*
