%
M48
M72
T01C0.01300
T02C0.01969
T03C0.02362
T04C0.03937
T05C0.06700
T06C0.11800
T07C0.12598
%
T01
X119500Y117500
X119500Y125000
X112000Y160000
X112000Y165000
X124500Y165000
X129500Y160000
X194500Y185000
X42000Y157500
X39500Y163850
T02
X52000Y127500
X49500Y110000
X67000Y90000
X82000Y115000
X112000Y147500
X104500Y165000
X153000Y151500
X157000Y151500
X161000Y151500
X165000Y151500
X195000Y152500
X199000Y152500
X199000Y156500
X195000Y156500
X215500Y163500
X219500Y163500
X217500Y167500
X216000Y180500
X57000Y35000
T03
X142000Y110000
X189500Y110000
X204500Y102500
X204500Y72500
X217000Y40000
X34500Y170000
X102000Y195000
X157000Y195000
X192000Y190675
T04
X47000Y12500
X57000Y12500
X67000Y12500
X77000Y12500
X87000Y12500
X97000Y12500
X107000Y12500
X117000Y12500
X127000Y12500
X137000Y12500
X147000Y12500
X157000Y12500
X167000Y12500
X177000Y12500
X187000Y12500
X197000Y12500
X207000Y12500
X217000Y12500
X227000Y12500
X237000Y12500
X247000Y12500
X257000Y12500
X267000Y12500
X267000Y22500
X257000Y22500
X247000Y22500
X237000Y22500
X227000Y22500
X217000Y22500
X207000Y22500
X197000Y22500
X187000Y22500
X177000Y22500
X167000Y22500
X157000Y22500
X147000Y22500
X137000Y22500
X127000Y22500
X117000Y22500
X107000Y22500
X97000Y22500
X87000Y22500
X77000Y22500
X67000Y22500
X57000Y22500
X47000Y22500
X22000Y35000
X22000Y45000
X22000Y55000
X22000Y65000
X22000Y77500
X22000Y87500
X22000Y97500
X22000Y107500
X22000Y120000
X22000Y130000
X22000Y140000
X22000Y150000
X19500Y172500
X19500Y182500
X47000Y202500
X57000Y202500
X67000Y202500
X77000Y202500
X87000Y202500
X97000Y202500
X107000Y202500
X117000Y202500
X127000Y202500
X137000Y202500
X147000Y202500
X157000Y202500
X167000Y202500
X177000Y202500
X187000Y202500
X197000Y202500
X207000Y202500
X217000Y202500
X227000Y202500
X237000Y202500
X247000Y202500
X257000Y202500
X267000Y202500
X267000Y212500
X257000Y212500
X247000Y212500
X237000Y212500
X227000Y212500
X217000Y212500
X207000Y212500
X197000Y212500
X187000Y212500
X177000Y212500
X167000Y212500
X157000Y212500
X147000Y212500
X137000Y212500
X127000Y212500
X117000Y212500
X107000Y212500
X97000Y212500
X87000Y212500
X77000Y212500
X67000Y212500
X57000Y212500
X47000Y212500
X87000Y182500
X87000Y172500
X87000Y87500
X97000Y87500
X107000Y87500
X117000Y87500
X127000Y87500
X147000Y87500
X157000Y87500
X167000Y87500
X177000Y87500
X187000Y87500
X245000Y84943
X255000Y84943
X253825Y48650
X243825Y48650
X187000Y47500
X177000Y47500
X167000Y47500
X157000Y47500
X147000Y47500
X127000Y47500
X117000Y47500
X107000Y47500
X97000Y47500
X87000Y47500
X244500Y122500
X254500Y122500
T05
X277000Y190000
X275806Y45648
X25743Y198508
T06
X247374Y182309
X263685Y162600
T07
X234863Y162500
M30
