G75*
%MOIN*%
%OFA0B0*%
%FSLAX25Y25*%
%IPPOS*%
%LPD*%
%AMOC8*
5,1,8,0,0,1.08239X$1,22.5*
%
%ADD10C,0.00300*%
%ADD11R,0.01240X0.00250*%
%ADD12R,0.01000X0.00250*%
%ADD13R,0.01740X0.00250*%
%ADD14R,0.00240X0.00250*%
%ADD15R,0.02250X0.00250*%
%ADD16R,0.02990X0.00250*%
%ADD17R,0.01250X0.00250*%
%ADD18R,0.07000X0.00250*%
%ADD19R,0.06750X0.00250*%
%ADD20R,0.02500X0.00250*%
%ADD21R,0.06250X0.00250*%
%ADD22R,0.00990X0.00250*%
%ADD23R,0.01750X0.00250*%
%ADD24R,0.01260X0.00250*%
%ADD25R,0.02240X0.00250*%
%ADD26R,0.01490X0.00250*%
%ADD27R,0.02010X0.00250*%
%ADD28R,0.02490X0.00250*%
%ADD29R,0.01500X0.00250*%
%ADD30R,0.02260X0.00250*%
%ADD31R,0.03240X0.00250*%
%ADD32R,0.03010X0.00250*%
%ADD33R,0.03490X0.00250*%
%ADD34R,0.06000X0.00250*%
%ADD35R,0.03740X0.00250*%
%ADD36R,0.01010X0.00250*%
%ADD37R,0.05750X0.00250*%
%ADD38R,0.03250X0.00250*%
%ADD39R,0.04990X0.00250*%
%ADD40R,0.00750X0.00250*%
%ADD41R,0.02740X0.00250*%
%ADD42R,0.01760X0.00250*%
%ADD43R,0.02510X0.00250*%
%ADD44R,0.01990X0.00250*%
%ADD45R,0.02000X0.00250*%
%ADD46R,0.01510X0.00250*%
%ADD47R,0.00740X0.00250*%
%ADD48R,0.00760X0.00250*%
%ADD49R,0.04240X0.00250*%
%ADD50R,0.04750X0.00250*%
%ADD51R,0.00500X0.00250*%
%ADD52R,0.04740X0.00250*%
%ADD53R,0.05240X0.00250*%
%ADD54R,0.05000X0.00250*%
%ADD55C,0.00500*%
%ADD56C,0.00600*%
%ADD57C,0.00200*%
%ADD58C,0.00800*%
%ADD59C,0.03619*%
%ADD60C,0.01100*%
%ADD61R,0.02559X0.05512*%
%ADD62R,0.00984X0.00984*%
%ADD63R,0.06000X0.06000*%
D10*
X0041932Y0051634D02*
X0041932Y0052602D01*
X0041932Y0052118D02*
X0044834Y0052118D01*
X0044834Y0051634D02*
X0044834Y0052602D01*
X0044351Y0053599D02*
X0044834Y0054082D01*
X0044834Y0055050D01*
X0044351Y0055534D01*
X0044834Y0056545D02*
X0044834Y0058480D01*
X0044834Y0057513D02*
X0041932Y0057513D01*
X0042899Y0056545D01*
X0042416Y0055534D02*
X0041932Y0055050D01*
X0041932Y0054082D01*
X0042416Y0053599D01*
X0044351Y0053599D01*
X0076000Y0063925D02*
X0076000Y0066827D01*
X0077451Y0066827D01*
X0077935Y0066344D01*
X0077935Y0065376D01*
X0077451Y0064892D01*
X0076000Y0064892D01*
X0076967Y0064892D02*
X0077935Y0063925D01*
X0078947Y0063925D02*
X0080881Y0063925D01*
X0079914Y0063925D02*
X0079914Y0066827D01*
X0078947Y0065860D01*
X0081893Y0066344D02*
X0082377Y0066827D01*
X0083344Y0066827D01*
X0083828Y0066344D01*
X0081893Y0064409D01*
X0082377Y0063925D01*
X0083344Y0063925D01*
X0083828Y0064409D01*
X0083828Y0066344D01*
X0081893Y0066344D02*
X0081893Y0064409D01*
X0116650Y0069150D02*
X0116650Y0072052D01*
X0118101Y0072052D01*
X0118585Y0071569D01*
X0118585Y0070601D01*
X0118101Y0070117D01*
X0116650Y0070117D01*
X0117617Y0070117D02*
X0118585Y0069150D01*
X0119597Y0069150D02*
X0121531Y0069150D01*
X0120564Y0069150D02*
X0120564Y0072052D01*
X0119597Y0071085D01*
X0122543Y0071085D02*
X0123511Y0072052D01*
X0123511Y0069150D01*
X0124478Y0069150D02*
X0122543Y0069150D01*
X0136485Y0066202D02*
X0136485Y0063300D01*
X0136485Y0064267D02*
X0137937Y0064267D01*
X0138420Y0064751D01*
X0138420Y0065719D01*
X0137937Y0066202D01*
X0136485Y0066202D01*
X0137453Y0064267D02*
X0138420Y0063300D01*
X0139432Y0063300D02*
X0141367Y0063300D01*
X0140399Y0063300D02*
X0140399Y0066202D01*
X0139432Y0065235D01*
X0142378Y0065719D02*
X0142862Y0066202D01*
X0143830Y0066202D01*
X0144313Y0065719D01*
X0144313Y0065235D01*
X0142378Y0063300D01*
X0144313Y0063300D01*
X0176650Y0069150D02*
X0176650Y0072052D01*
X0178101Y0072052D01*
X0178585Y0071569D01*
X0178585Y0070601D01*
X0178101Y0070117D01*
X0176650Y0070117D01*
X0177617Y0070117D02*
X0178585Y0069150D01*
X0179597Y0069150D02*
X0181531Y0069150D01*
X0180564Y0069150D02*
X0180564Y0072052D01*
X0179597Y0071085D01*
X0182543Y0071569D02*
X0183027Y0072052D01*
X0183994Y0072052D01*
X0184478Y0071569D01*
X0184478Y0071085D01*
X0183994Y0070601D01*
X0184478Y0070117D01*
X0184478Y0069634D01*
X0183994Y0069150D01*
X0183027Y0069150D01*
X0182543Y0069634D01*
X0183511Y0070601D02*
X0183994Y0070601D01*
X0193273Y0066144D02*
X0193273Y0065177D01*
X0193756Y0064693D01*
X0194240Y0064693D01*
X0194724Y0065177D01*
X0194724Y0066628D01*
X0195691Y0066628D02*
X0193756Y0066628D01*
X0193273Y0066144D01*
X0195691Y0066628D02*
X0196175Y0066144D01*
X0196175Y0065177D01*
X0195691Y0064693D01*
X0195691Y0063681D02*
X0196175Y0063198D01*
X0196175Y0062230D01*
X0195691Y0061747D01*
X0196175Y0060735D02*
X0195208Y0059767D01*
X0195208Y0060251D02*
X0195208Y0058800D01*
X0196175Y0058800D02*
X0193273Y0058800D01*
X0193273Y0060251D01*
X0193756Y0060735D01*
X0194724Y0060735D01*
X0195208Y0060251D01*
X0193756Y0061747D02*
X0193273Y0062230D01*
X0193273Y0063198D01*
X0193756Y0063681D01*
X0194240Y0063681D01*
X0194724Y0063198D01*
X0195208Y0063681D01*
X0195691Y0063681D01*
X0194724Y0063198D02*
X0194724Y0062714D01*
X0222348Y0062241D02*
X0222831Y0061757D01*
X0224766Y0061757D01*
X0225250Y0062241D01*
X0225250Y0063208D01*
X0224766Y0063692D01*
X0222831Y0063692D01*
X0222348Y0063208D01*
X0222348Y0062241D01*
X0224283Y0062724D02*
X0225250Y0063692D01*
X0224766Y0064703D02*
X0225250Y0065187D01*
X0225250Y0066155D01*
X0224766Y0066638D01*
X0224283Y0066638D01*
X0223799Y0066155D01*
X0223799Y0065671D01*
X0223799Y0066155D02*
X0223315Y0066638D01*
X0222831Y0066638D01*
X0222348Y0066155D01*
X0222348Y0065187D01*
X0222831Y0064703D01*
X0256048Y0064287D02*
X0256048Y0062835D01*
X0258950Y0062835D01*
X0257983Y0062835D02*
X0257983Y0064287D01*
X0257499Y0064770D01*
X0256531Y0064770D01*
X0256048Y0064287D01*
X0257015Y0065782D02*
X0256048Y0066749D01*
X0258950Y0066749D01*
X0258950Y0065782D02*
X0258950Y0067717D01*
X0258466Y0068728D02*
X0258950Y0069212D01*
X0258950Y0070180D01*
X0258466Y0070663D01*
X0256531Y0070663D01*
X0256048Y0070180D01*
X0256048Y0069212D01*
X0256531Y0068728D01*
X0257015Y0068728D01*
X0257499Y0069212D01*
X0257499Y0070663D01*
X0258950Y0064770D02*
X0257983Y0063803D01*
X0257637Y0034002D02*
X0256185Y0034002D01*
X0256185Y0031100D01*
X0256185Y0032067D02*
X0257637Y0032067D01*
X0258120Y0032551D01*
X0258120Y0033519D01*
X0257637Y0034002D01*
X0259132Y0033519D02*
X0259616Y0034002D01*
X0260583Y0034002D01*
X0261067Y0033519D01*
X0261067Y0033035D01*
X0259132Y0031100D01*
X0261067Y0031100D01*
X0262078Y0031584D02*
X0264013Y0033519D01*
X0264013Y0031584D01*
X0263530Y0031100D01*
X0262562Y0031100D01*
X0262078Y0031584D01*
X0262078Y0033519D01*
X0262562Y0034002D01*
X0263530Y0034002D01*
X0264013Y0033519D01*
X0258120Y0031100D02*
X0257153Y0032067D01*
X0196175Y0088800D02*
X0193273Y0088800D01*
X0193273Y0090251D01*
X0193756Y0090735D01*
X0194724Y0090735D01*
X0195208Y0090251D01*
X0195208Y0088800D01*
X0195208Y0089767D02*
X0196175Y0090735D01*
X0195691Y0091747D02*
X0196175Y0092230D01*
X0196175Y0093198D01*
X0195691Y0093681D01*
X0195208Y0093681D01*
X0194724Y0093198D01*
X0194724Y0092714D01*
X0194724Y0093198D02*
X0194240Y0093681D01*
X0193756Y0093681D01*
X0193273Y0093198D01*
X0193273Y0092230D01*
X0193756Y0091747D01*
X0193756Y0094693D02*
X0194240Y0094693D01*
X0194724Y0095177D01*
X0194724Y0096144D01*
X0195208Y0096628D01*
X0195691Y0096628D01*
X0196175Y0096144D01*
X0196175Y0095177D01*
X0195691Y0094693D01*
X0195208Y0094693D01*
X0194724Y0095177D01*
X0194724Y0096144D02*
X0194240Y0096628D01*
X0193756Y0096628D01*
X0193273Y0096144D01*
X0193273Y0095177D01*
X0193756Y0094693D01*
X0193948Y0105900D02*
X0193948Y0107351D01*
X0194431Y0107835D01*
X0195399Y0107835D01*
X0195883Y0107351D01*
X0195883Y0105900D01*
X0196850Y0105900D02*
X0193948Y0105900D01*
X0195883Y0106867D02*
X0196850Y0107835D01*
X0195399Y0108847D02*
X0193948Y0110298D01*
X0196850Y0110298D01*
X0195399Y0110781D02*
X0195399Y0108847D01*
X0196366Y0111793D02*
X0194431Y0113728D01*
X0196366Y0113728D01*
X0196850Y0113244D01*
X0196850Y0112277D01*
X0196366Y0111793D01*
X0194431Y0111793D01*
X0193948Y0112277D01*
X0193948Y0113244D01*
X0194431Y0113728D01*
X0184478Y0112052D02*
X0184478Y0111569D01*
X0182543Y0109634D01*
X0182543Y0109150D01*
X0181531Y0109150D02*
X0179597Y0109150D01*
X0180564Y0109150D02*
X0180564Y0112052D01*
X0179597Y0111085D01*
X0178585Y0111569D02*
X0178585Y0110601D01*
X0178101Y0110117D01*
X0176650Y0110117D01*
X0176650Y0109150D02*
X0176650Y0112052D01*
X0178101Y0112052D01*
X0178585Y0111569D01*
X0177617Y0110117D02*
X0178585Y0109150D01*
X0182543Y0112052D02*
X0184478Y0112052D01*
X0166583Y0115170D02*
X0166583Y0117105D01*
X0166583Y0118117D02*
X0166583Y0120052D01*
X0166583Y0119084D02*
X0163681Y0119084D01*
X0164648Y0118117D01*
X0163681Y0115170D02*
X0166583Y0115170D01*
X0163066Y0124257D02*
X0163550Y0124741D01*
X0163550Y0125708D01*
X0163066Y0126192D01*
X0162099Y0127203D02*
X0162099Y0129138D01*
X0163550Y0128655D02*
X0160648Y0128655D01*
X0162099Y0127203D01*
X0161131Y0126192D02*
X0160648Y0125708D01*
X0160648Y0124741D01*
X0161131Y0124257D01*
X0163066Y0124257D01*
X0155050Y0124741D02*
X0155050Y0125708D01*
X0154566Y0126192D01*
X0154566Y0127203D02*
X0155050Y0127687D01*
X0155050Y0128655D01*
X0154566Y0129138D01*
X0153599Y0129138D01*
X0153115Y0128655D01*
X0153115Y0128171D01*
X0153599Y0127203D01*
X0152148Y0127203D01*
X0152148Y0129138D01*
X0152631Y0126192D02*
X0152148Y0125708D01*
X0152148Y0124741D01*
X0152631Y0124257D01*
X0154566Y0124257D01*
X0155050Y0124741D01*
X0141603Y0125201D02*
X0141603Y0124234D01*
X0141119Y0123750D01*
X0140152Y0123750D01*
X0139668Y0124234D01*
X0139668Y0125201D02*
X0140636Y0125685D01*
X0141119Y0125685D01*
X0141603Y0125201D01*
X0141603Y0126652D02*
X0139668Y0126652D01*
X0139668Y0125201D01*
X0138656Y0125685D02*
X0136722Y0123750D01*
X0138656Y0123750D01*
X0138656Y0125685D02*
X0138656Y0126169D01*
X0138173Y0126652D01*
X0137205Y0126652D01*
X0136722Y0126169D01*
X0135710Y0126169D02*
X0135710Y0125201D01*
X0135226Y0124717D01*
X0133775Y0124717D01*
X0133775Y0123750D02*
X0133775Y0126652D01*
X0135226Y0126652D01*
X0135710Y0126169D01*
X0134742Y0124717D02*
X0135710Y0123750D01*
X0135226Y0119227D02*
X0135710Y0118744D01*
X0135710Y0117776D01*
X0135226Y0117292D01*
X0133775Y0117292D01*
X0133775Y0116325D02*
X0133775Y0119227D01*
X0135226Y0119227D01*
X0136722Y0118744D02*
X0137205Y0119227D01*
X0138173Y0119227D01*
X0138656Y0118744D01*
X0138656Y0118260D01*
X0136722Y0116325D01*
X0138656Y0116325D01*
X0139668Y0117776D02*
X0141603Y0117776D01*
X0141119Y0116325D02*
X0141119Y0119227D01*
X0139668Y0117776D01*
X0135710Y0116325D02*
X0134742Y0117292D01*
X0124478Y0112052D02*
X0122543Y0112052D01*
X0122543Y0110601D01*
X0123511Y0111085D01*
X0123994Y0111085D01*
X0124478Y0110601D01*
X0124478Y0109634D01*
X0123994Y0109150D01*
X0123027Y0109150D01*
X0122543Y0109634D01*
X0121531Y0109150D02*
X0119597Y0109150D01*
X0120564Y0109150D02*
X0120564Y0112052D01*
X0119597Y0111085D01*
X0118585Y0111569D02*
X0118585Y0110601D01*
X0118101Y0110117D01*
X0116650Y0110117D01*
X0116650Y0109150D02*
X0116650Y0112052D01*
X0118101Y0112052D01*
X0118585Y0111569D01*
X0117617Y0110117D02*
X0118585Y0109150D01*
X0105763Y0114284D02*
X0105280Y0113800D01*
X0104312Y0113800D01*
X0103828Y0114284D01*
X0103828Y0114767D01*
X0104312Y0115251D01*
X0105280Y0115251D01*
X0105763Y0114767D01*
X0105763Y0114284D01*
X0105280Y0115251D02*
X0105763Y0115735D01*
X0105763Y0116219D01*
X0105280Y0116702D01*
X0104312Y0116702D01*
X0103828Y0116219D01*
X0103828Y0115735D01*
X0104312Y0115251D01*
X0102817Y0114284D02*
X0102333Y0113800D01*
X0101366Y0113800D01*
X0100882Y0114284D01*
X0100882Y0116219D01*
X0101366Y0116702D01*
X0102333Y0116702D01*
X0102817Y0116219D01*
X0097700Y0119025D02*
X0097700Y0120960D01*
X0097700Y0121972D02*
X0094798Y0121972D01*
X0094798Y0123906D01*
X0094798Y0124918D02*
X0094798Y0126369D01*
X0095281Y0126853D01*
X0096249Y0126853D01*
X0096733Y0126369D01*
X0096733Y0124918D01*
X0097700Y0124918D02*
X0094798Y0124918D01*
X0096249Y0122939D02*
X0096249Y0121972D01*
X0097700Y0121972D02*
X0097700Y0123906D01*
X0097700Y0127865D02*
X0094798Y0127865D01*
X0094798Y0129316D01*
X0095281Y0129800D01*
X0096249Y0129800D01*
X0096733Y0129316D01*
X0096733Y0127865D01*
X0096733Y0128832D02*
X0097700Y0129800D01*
X0097216Y0130811D02*
X0095281Y0130811D01*
X0094798Y0131295D01*
X0094798Y0132262D01*
X0095281Y0132746D01*
X0097216Y0132746D01*
X0097700Y0132262D01*
X0097700Y0131295D01*
X0097216Y0130811D01*
X0097700Y0133758D02*
X0094798Y0133758D01*
X0095765Y0134725D01*
X0094798Y0135693D01*
X0097700Y0135693D01*
X0098583Y0150010D02*
X0098583Y0151462D01*
X0098099Y0151945D01*
X0097131Y0151945D01*
X0096648Y0151462D01*
X0096648Y0150010D01*
X0099550Y0150010D01*
X0098583Y0150978D02*
X0099550Y0151945D01*
X0099550Y0152957D02*
X0097615Y0154892D01*
X0097131Y0154892D01*
X0096648Y0154408D01*
X0096648Y0153441D01*
X0097131Y0152957D01*
X0099550Y0152957D02*
X0099550Y0154892D01*
X0099066Y0155903D02*
X0098583Y0155903D01*
X0098099Y0156387D01*
X0098099Y0157355D01*
X0098583Y0157838D01*
X0099066Y0157838D01*
X0099550Y0157355D01*
X0099550Y0156387D01*
X0099066Y0155903D01*
X0098099Y0156387D02*
X0097615Y0155903D01*
X0097131Y0155903D01*
X0096648Y0156387D01*
X0096648Y0157355D01*
X0097131Y0157838D01*
X0097615Y0157838D01*
X0098099Y0157355D01*
X0102723Y0157838D02*
X0102723Y0155903D01*
X0103206Y0154892D02*
X0102723Y0154408D01*
X0102723Y0153441D01*
X0103206Y0152957D01*
X0103206Y0151945D02*
X0104174Y0151945D01*
X0104658Y0151462D01*
X0104658Y0150010D01*
X0105625Y0150010D02*
X0102723Y0150010D01*
X0102723Y0151462D01*
X0103206Y0151945D01*
X0104658Y0150978D02*
X0105625Y0151945D01*
X0105625Y0152957D02*
X0103690Y0154892D01*
X0103206Y0154892D01*
X0105141Y0155903D02*
X0103206Y0157838D01*
X0102723Y0157838D01*
X0105141Y0155903D02*
X0105625Y0155903D01*
X0105625Y0154892D02*
X0105625Y0152957D01*
X0092800Y0152957D02*
X0090865Y0154892D01*
X0090381Y0154892D01*
X0089898Y0154408D01*
X0089898Y0153441D01*
X0090381Y0152957D01*
X0090381Y0151945D02*
X0089898Y0151462D01*
X0089898Y0150010D01*
X0092800Y0150010D01*
X0091833Y0150010D02*
X0091833Y0151462D01*
X0091349Y0151945D01*
X0090381Y0151945D01*
X0091833Y0150978D02*
X0092800Y0151945D01*
X0092800Y0152957D02*
X0092800Y0154892D01*
X0092316Y0155903D02*
X0092800Y0156387D01*
X0092800Y0157355D01*
X0092316Y0157838D01*
X0090381Y0157838D01*
X0089898Y0157355D01*
X0089898Y0156387D01*
X0090381Y0155903D01*
X0090865Y0155903D01*
X0091349Y0156387D01*
X0091349Y0157838D01*
X0071138Y0159934D02*
X0071138Y0161869D01*
X0070655Y0162352D01*
X0069687Y0162352D01*
X0069203Y0161869D01*
X0069203Y0161385D01*
X0069687Y0160901D01*
X0071138Y0160901D01*
X0071138Y0159934D02*
X0070655Y0159450D01*
X0069687Y0159450D01*
X0069203Y0159934D01*
X0068192Y0159934D02*
X0067708Y0159450D01*
X0066741Y0159450D01*
X0066257Y0159934D01*
X0066257Y0161869D01*
X0066741Y0162352D01*
X0067708Y0162352D01*
X0068192Y0161869D01*
X0068527Y0178325D02*
X0069494Y0178325D01*
X0069978Y0178809D01*
X0068527Y0178325D02*
X0068043Y0178809D01*
X0068043Y0180744D01*
X0068527Y0181227D01*
X0069494Y0181227D01*
X0069978Y0180744D01*
X0067031Y0180260D02*
X0067031Y0178325D01*
X0067031Y0179776D02*
X0065097Y0179776D01*
X0065097Y0180260D02*
X0066064Y0181227D01*
X0067031Y0180260D01*
X0065097Y0180260D02*
X0065097Y0178325D01*
X0064085Y0178809D02*
X0064085Y0180744D01*
X0063601Y0181227D01*
X0062150Y0181227D01*
X0062150Y0178325D01*
X0063601Y0178325D01*
X0064085Y0178809D01*
X0062116Y0186525D02*
X0062600Y0187009D01*
X0062600Y0187976D01*
X0062116Y0188460D01*
X0062600Y0189472D02*
X0062600Y0191406D01*
X0062600Y0190439D02*
X0059698Y0190439D01*
X0060665Y0189472D01*
X0060181Y0188460D02*
X0059698Y0187976D01*
X0059698Y0187009D01*
X0060181Y0186525D01*
X0062116Y0186525D01*
X0062116Y0192418D02*
X0060181Y0194353D01*
X0062116Y0194353D01*
X0062600Y0193869D01*
X0062600Y0192902D01*
X0062116Y0192418D01*
X0060181Y0192418D01*
X0059698Y0192902D01*
X0059698Y0193869D01*
X0060181Y0194353D01*
X0069810Y0194102D02*
X0069810Y0191200D01*
X0069810Y0192651D02*
X0070778Y0192651D01*
X0071745Y0194102D02*
X0069810Y0194102D01*
X0072757Y0194102D02*
X0074208Y0194102D01*
X0074692Y0193619D01*
X0074692Y0193135D01*
X0074208Y0192651D01*
X0072757Y0192651D01*
X0072757Y0191200D02*
X0072757Y0194102D01*
X0074208Y0192651D02*
X0074692Y0192167D01*
X0074692Y0191684D01*
X0074208Y0191200D01*
X0072757Y0191200D01*
X0075703Y0191200D02*
X0077638Y0191200D01*
X0076671Y0191200D02*
X0076671Y0194102D01*
X0075703Y0193135D01*
X0046600Y0193386D02*
X0043698Y0193386D01*
X0044665Y0192418D01*
X0046600Y0192418D02*
X0046600Y0194353D01*
X0046600Y0191406D02*
X0046600Y0189472D01*
X0046600Y0190439D02*
X0043698Y0190439D01*
X0044665Y0189472D01*
X0044181Y0188460D02*
X0043698Y0187976D01*
X0043698Y0187009D01*
X0044181Y0186525D01*
X0046116Y0186525D01*
X0046600Y0187009D01*
X0046600Y0187976D01*
X0046116Y0188460D01*
X0025463Y0165527D02*
X0023528Y0165527D01*
X0022517Y0165044D02*
X0022517Y0164560D01*
X0022033Y0164076D01*
X0022517Y0163592D01*
X0022517Y0163109D01*
X0022033Y0162625D01*
X0021066Y0162625D01*
X0020582Y0163109D01*
X0019570Y0162625D02*
X0018603Y0163592D01*
X0019087Y0163592D02*
X0017635Y0163592D01*
X0017635Y0162625D02*
X0017635Y0165527D01*
X0019087Y0165527D01*
X0019570Y0165044D01*
X0019570Y0164076D01*
X0019087Y0163592D01*
X0020582Y0165044D02*
X0021066Y0165527D01*
X0022033Y0165527D01*
X0022517Y0165044D01*
X0022033Y0164076D02*
X0021549Y0164076D01*
X0023528Y0163109D02*
X0023528Y0162625D01*
X0023528Y0163109D02*
X0025463Y0165044D01*
X0025463Y0165527D01*
X0025463Y0159177D02*
X0024496Y0158694D01*
X0023528Y0157726D01*
X0024980Y0157726D01*
X0025463Y0157242D01*
X0025463Y0156759D01*
X0024980Y0156275D01*
X0024012Y0156275D01*
X0023528Y0156759D01*
X0023528Y0157726D01*
X0022517Y0157242D02*
X0022517Y0156759D01*
X0022033Y0156275D01*
X0021066Y0156275D01*
X0020582Y0156759D01*
X0019570Y0156275D02*
X0018603Y0157242D01*
X0019087Y0157242D02*
X0017635Y0157242D01*
X0017635Y0156275D02*
X0017635Y0159177D01*
X0019087Y0159177D01*
X0019570Y0158694D01*
X0019570Y0157726D01*
X0019087Y0157242D01*
X0020582Y0158694D02*
X0021066Y0159177D01*
X0022033Y0159177D01*
X0022517Y0158694D01*
X0022517Y0158210D01*
X0022033Y0157726D01*
X0022517Y0157242D01*
X0022033Y0157726D02*
X0021549Y0157726D01*
X0040625Y0138994D02*
X0041109Y0139477D01*
X0042076Y0139477D01*
X0042560Y0138994D01*
X0042076Y0138026D02*
X0042560Y0137542D01*
X0042560Y0137059D01*
X0042076Y0136575D01*
X0041109Y0136575D01*
X0040625Y0137059D01*
X0041109Y0138026D02*
X0042076Y0138026D01*
X0041109Y0138026D02*
X0040625Y0138510D01*
X0040625Y0138994D01*
X0043572Y0138510D02*
X0044539Y0139477D01*
X0044539Y0136575D01*
X0043572Y0136575D02*
X0045506Y0136575D01*
X0054647Y0130701D02*
X0058350Y0130701D01*
X0058350Y0129467D02*
X0058350Y0131936D01*
X0055881Y0129467D02*
X0054647Y0130701D01*
X0076385Y0106302D02*
X0077837Y0106302D01*
X0078320Y0105819D01*
X0078320Y0104851D01*
X0077837Y0104367D01*
X0076385Y0104367D01*
X0076385Y0103400D02*
X0076385Y0106302D01*
X0077353Y0104367D02*
X0078320Y0103400D01*
X0079332Y0103400D02*
X0081267Y0103400D01*
X0080299Y0103400D02*
X0080299Y0106302D01*
X0079332Y0105335D01*
X0082278Y0104851D02*
X0084213Y0104851D01*
X0083730Y0103400D02*
X0083730Y0106302D01*
X0082278Y0104851D01*
X0094798Y0119025D02*
X0097700Y0119025D01*
X0096249Y0119025D02*
X0096249Y0119992D01*
X0094798Y0119025D02*
X0094798Y0120960D01*
X0133775Y0131175D02*
X0133775Y0134077D01*
X0135226Y0134077D01*
X0135710Y0133594D01*
X0135710Y0132626D01*
X0135226Y0132142D01*
X0133775Y0132142D01*
X0134742Y0132142D02*
X0135710Y0131175D01*
X0136722Y0131175D02*
X0138656Y0133110D01*
X0138656Y0133594D01*
X0138173Y0134077D01*
X0137205Y0134077D01*
X0136722Y0133594D01*
X0136722Y0131175D02*
X0138656Y0131175D01*
X0139668Y0131659D02*
X0140152Y0131175D01*
X0141119Y0131175D01*
X0141603Y0131659D01*
X0141603Y0132142D01*
X0141119Y0132626D01*
X0139668Y0132626D01*
X0139668Y0131659D01*
X0139668Y0132626D02*
X0140636Y0133594D01*
X0141603Y0134077D01*
X0174874Y0150425D02*
X0175224Y0150075D01*
X0175925Y0150075D01*
X0176275Y0150425D01*
X0176275Y0151126D01*
X0175925Y0151476D01*
X0175224Y0151476D01*
X0174874Y0151126D01*
X0174874Y0150425D01*
X0174874Y0152285D02*
X0174874Y0153336D01*
X0175224Y0153686D01*
X0175925Y0153686D01*
X0176275Y0153336D01*
X0176275Y0152285D01*
X0176976Y0152285D02*
X0174874Y0152285D01*
X0175224Y0154495D02*
X0174874Y0154845D01*
X0174874Y0155546D01*
X0175224Y0155896D01*
X0175574Y0155896D01*
X0175574Y0154495D01*
X0175224Y0154495D02*
X0175925Y0154495D01*
X0176275Y0154845D01*
X0176275Y0155546D01*
X0176275Y0156705D02*
X0174874Y0156705D01*
X0175574Y0156705D02*
X0174874Y0157405D01*
X0174874Y0157756D01*
X0174874Y0158897D02*
X0174874Y0159597D01*
X0175224Y0159947D01*
X0176275Y0159947D01*
X0176275Y0158897D01*
X0175925Y0158546D01*
X0175574Y0158897D01*
X0175574Y0159947D01*
X0174874Y0160756D02*
X0174874Y0161807D01*
X0175224Y0162157D01*
X0176275Y0162157D01*
X0175925Y0163316D02*
X0176275Y0163667D01*
X0175925Y0163316D02*
X0174524Y0163316D01*
X0174874Y0162966D02*
X0174874Y0163667D01*
X0174874Y0160756D02*
X0176275Y0160756D01*
X0175925Y0166649D02*
X0176275Y0166999D01*
X0176275Y0168050D01*
X0175925Y0168859D02*
X0176275Y0169209D01*
X0176275Y0169910D01*
X0175925Y0170260D01*
X0175224Y0170260D01*
X0174874Y0169910D01*
X0174874Y0169209D01*
X0175224Y0168859D01*
X0175925Y0168859D01*
X0174874Y0168050D02*
X0174874Y0166999D01*
X0175224Y0166649D01*
X0175925Y0166649D01*
X0176275Y0171069D02*
X0174874Y0171069D01*
X0174874Y0172120D01*
X0175224Y0172470D01*
X0176275Y0172470D01*
X0175925Y0173629D02*
X0176275Y0173979D01*
X0175925Y0173629D02*
X0174524Y0173629D01*
X0174874Y0173279D02*
X0174874Y0173979D01*
X0174874Y0174752D02*
X0176275Y0174752D01*
X0175574Y0174752D02*
X0174874Y0175453D01*
X0174874Y0175803D01*
X0175224Y0176594D02*
X0175925Y0176594D01*
X0176275Y0176944D01*
X0176275Y0177644D01*
X0175925Y0177995D01*
X0175224Y0177995D01*
X0174874Y0177644D01*
X0174874Y0176944D01*
X0175224Y0176594D01*
X0174173Y0178803D02*
X0174173Y0179154D01*
X0176275Y0179154D01*
X0176275Y0179504D02*
X0176275Y0178803D01*
X0175925Y0182487D02*
X0176275Y0182837D01*
X0176275Y0183888D01*
X0175925Y0184696D02*
X0175574Y0185047D01*
X0175574Y0186098D01*
X0175224Y0186098D02*
X0176275Y0186098D01*
X0176275Y0185047D01*
X0175925Y0184696D01*
X0174874Y0185047D02*
X0174874Y0185747D01*
X0175224Y0186098D01*
X0174874Y0186906D02*
X0174874Y0187957D01*
X0175224Y0188308D01*
X0175925Y0188308D01*
X0176275Y0187957D01*
X0176275Y0186906D01*
X0176976Y0186906D02*
X0174874Y0186906D01*
X0175224Y0189116D02*
X0174874Y0189467D01*
X0174874Y0190167D01*
X0175224Y0190517D01*
X0175574Y0190517D01*
X0175574Y0189116D01*
X0175224Y0189116D02*
X0175925Y0189116D01*
X0176275Y0189467D01*
X0176275Y0190167D01*
X0174874Y0183888D02*
X0174874Y0182837D01*
X0175224Y0182487D01*
X0175925Y0182487D01*
X0188123Y0184634D02*
X0188606Y0184150D01*
X0190541Y0184150D01*
X0191025Y0184634D01*
X0191025Y0185601D01*
X0190541Y0186085D01*
X0190541Y0187097D02*
X0191025Y0187097D01*
X0190541Y0187097D02*
X0188606Y0189031D01*
X0188123Y0189031D01*
X0188123Y0187097D01*
X0188606Y0186085D02*
X0188123Y0185601D01*
X0188123Y0184634D01*
X0194473Y0187459D02*
X0194473Y0188426D01*
X0194956Y0188910D01*
X0195924Y0189922D02*
X0195924Y0191373D01*
X0196408Y0191856D01*
X0196891Y0191856D01*
X0197375Y0191373D01*
X0197375Y0190405D01*
X0196891Y0189922D01*
X0195924Y0189922D01*
X0194956Y0190889D01*
X0194473Y0191856D01*
X0196891Y0188910D02*
X0197375Y0188426D01*
X0197375Y0187459D01*
X0196891Y0186975D01*
X0194956Y0186975D01*
X0194473Y0187459D01*
X0198823Y0187241D02*
X0198823Y0188208D01*
X0199306Y0188692D01*
X0199790Y0188692D01*
X0201725Y0186757D01*
X0201725Y0188692D01*
X0201241Y0189703D02*
X0201725Y0190187D01*
X0201725Y0191155D01*
X0201241Y0191638D01*
X0200758Y0191638D01*
X0200274Y0191155D01*
X0200274Y0190671D01*
X0200274Y0191155D02*
X0199790Y0191638D01*
X0199306Y0191638D01*
X0198823Y0191155D01*
X0198823Y0190187D01*
X0199306Y0189703D01*
X0198823Y0187241D02*
X0199306Y0186757D01*
X0199306Y0185745D02*
X0200274Y0185745D01*
X0200758Y0185262D01*
X0200758Y0183810D01*
X0201725Y0183810D02*
X0198823Y0183810D01*
X0198823Y0185262D01*
X0199306Y0185745D01*
X0200758Y0184778D02*
X0201725Y0185745D01*
X0203823Y0185262D02*
X0204306Y0185745D01*
X0205274Y0185745D01*
X0205758Y0185262D01*
X0205758Y0183810D01*
X0206725Y0183810D02*
X0203823Y0183810D01*
X0203823Y0185262D01*
X0204306Y0186757D02*
X0203823Y0187241D01*
X0203823Y0188208D01*
X0204306Y0188692D01*
X0204790Y0188692D01*
X0206725Y0186757D01*
X0206725Y0188692D01*
X0206725Y0189703D02*
X0204790Y0191638D01*
X0204306Y0191638D01*
X0203823Y0191155D01*
X0203823Y0190187D01*
X0204306Y0189703D01*
X0206725Y0189703D02*
X0206725Y0191638D01*
X0208623Y0191011D02*
X0209590Y0190043D01*
X0209590Y0189031D02*
X0209106Y0189031D01*
X0208623Y0188548D01*
X0208623Y0187580D01*
X0209106Y0187097D01*
X0209106Y0186085D02*
X0210074Y0186085D01*
X0210558Y0185601D01*
X0210558Y0184150D01*
X0211525Y0184150D02*
X0208623Y0184150D01*
X0208623Y0185601D01*
X0209106Y0186085D01*
X0210558Y0185117D02*
X0211525Y0186085D01*
X0211525Y0187097D02*
X0209590Y0189031D01*
X0211525Y0189031D02*
X0211525Y0187097D01*
X0211525Y0190043D02*
X0211525Y0191978D01*
X0211525Y0191011D02*
X0208623Y0191011D01*
X0206725Y0185745D02*
X0205758Y0184778D01*
X0207134Y0167850D02*
X0210270Y0164714D01*
X0208702Y0164714D02*
X0208702Y0167850D01*
X0210270Y0167850D02*
X0207134Y0164714D01*
X0207134Y0166282D02*
X0210270Y0166282D01*
X0190750Y0158919D02*
X0190266Y0159403D01*
X0189299Y0159403D01*
X0189299Y0158436D01*
X0188331Y0159403D02*
X0187848Y0158919D01*
X0187848Y0157952D01*
X0188331Y0157468D01*
X0190266Y0157468D01*
X0190750Y0157952D01*
X0190750Y0158919D01*
X0190750Y0156456D02*
X0190750Y0154522D01*
X0187848Y0154522D01*
X0187848Y0156456D01*
X0189299Y0155489D02*
X0189299Y0154522D01*
X0189299Y0153510D02*
X0189783Y0153026D01*
X0189783Y0151575D01*
X0190750Y0151575D02*
X0187848Y0151575D01*
X0187848Y0153026D01*
X0188331Y0153510D01*
X0189299Y0153510D01*
X0189783Y0152542D02*
X0190750Y0153510D01*
X0207948Y0145373D02*
X0207948Y0144405D01*
X0208431Y0143922D01*
X0208431Y0142910D02*
X0207948Y0142426D01*
X0207948Y0141459D01*
X0208431Y0140975D01*
X0210366Y0140975D01*
X0210850Y0141459D01*
X0210850Y0142426D01*
X0210366Y0142910D01*
X0210850Y0143922D02*
X0208915Y0145856D01*
X0208431Y0145856D01*
X0207948Y0145373D01*
X0210850Y0145856D02*
X0210850Y0143922D01*
X0218948Y0141564D02*
X0221850Y0141564D01*
X0221850Y0140597D02*
X0221850Y0142531D01*
X0219915Y0140597D02*
X0218948Y0141564D01*
X0219431Y0139585D02*
X0218948Y0139101D01*
X0218948Y0138134D01*
X0219431Y0137650D01*
X0221366Y0137650D01*
X0221850Y0138134D01*
X0221850Y0139101D01*
X0221366Y0139585D01*
X0225250Y0126638D02*
X0225250Y0124703D01*
X0225250Y0125671D02*
X0222348Y0125671D01*
X0223315Y0124703D01*
X0222831Y0123692D02*
X0224766Y0123692D01*
X0225250Y0123208D01*
X0225250Y0122241D01*
X0224766Y0121757D01*
X0222831Y0121757D01*
X0222348Y0122241D01*
X0222348Y0123208D01*
X0222831Y0123692D01*
X0224283Y0122724D02*
X0225250Y0123692D01*
X0201350Y0123759D02*
X0201350Y0124726D01*
X0200866Y0125210D01*
X0200866Y0126222D02*
X0201350Y0126705D01*
X0201350Y0127673D01*
X0200866Y0128156D01*
X0200383Y0128156D01*
X0199899Y0127673D01*
X0199899Y0127189D01*
X0199899Y0127673D02*
X0199415Y0128156D01*
X0198931Y0128156D01*
X0198448Y0127673D01*
X0198448Y0126705D01*
X0198931Y0126222D01*
X0198931Y0125210D02*
X0198448Y0124726D01*
X0198448Y0123759D01*
X0198931Y0123275D01*
X0200866Y0123275D01*
X0201350Y0123759D01*
X0222831Y0096638D02*
X0222348Y0096155D01*
X0222348Y0095187D01*
X0222831Y0094703D01*
X0222831Y0093692D02*
X0224766Y0093692D01*
X0225250Y0093208D01*
X0225250Y0092241D01*
X0224766Y0091757D01*
X0222831Y0091757D01*
X0222348Y0092241D01*
X0222348Y0093208D01*
X0222831Y0093692D01*
X0224283Y0092724D02*
X0225250Y0093692D01*
X0225250Y0094703D02*
X0223315Y0096638D01*
X0222831Y0096638D01*
X0225250Y0096638D02*
X0225250Y0094703D01*
X0255948Y0101150D02*
X0255948Y0102601D01*
X0256431Y0103085D01*
X0257399Y0103085D01*
X0257883Y0102601D01*
X0257883Y0101150D01*
X0258850Y0101150D02*
X0255948Y0101150D01*
X0257883Y0102117D02*
X0258850Y0103085D01*
X0258850Y0104097D02*
X0258850Y0106031D01*
X0258850Y0105064D02*
X0255948Y0105064D01*
X0256915Y0104097D01*
X0256915Y0107043D02*
X0256431Y0107043D01*
X0255948Y0107527D01*
X0255948Y0108494D01*
X0256431Y0108978D01*
X0256915Y0108978D01*
X0257399Y0108494D01*
X0257399Y0107527D01*
X0256915Y0107043D01*
X0257399Y0107527D02*
X0257883Y0107043D01*
X0258366Y0107043D01*
X0258850Y0107527D01*
X0258850Y0108494D01*
X0258366Y0108978D01*
X0257883Y0108978D01*
X0257399Y0108494D01*
X0144563Y0106302D02*
X0143596Y0105819D01*
X0142628Y0104851D01*
X0144080Y0104851D01*
X0144563Y0104367D01*
X0144563Y0103884D01*
X0144080Y0103400D01*
X0143112Y0103400D01*
X0142628Y0103884D01*
X0142628Y0104851D01*
X0141617Y0103400D02*
X0139682Y0103400D01*
X0140649Y0103400D02*
X0140649Y0106302D01*
X0139682Y0105335D01*
X0138670Y0105819D02*
X0138187Y0106302D01*
X0136735Y0106302D01*
X0136735Y0103400D01*
X0136735Y0104367D02*
X0138187Y0104367D01*
X0138670Y0104851D01*
X0138670Y0105819D01*
X0137703Y0104367D02*
X0138670Y0103400D01*
X0054834Y0100980D02*
X0054834Y0099045D01*
X0052899Y0100980D01*
X0052416Y0100980D01*
X0051932Y0100496D01*
X0051932Y0099529D01*
X0052416Y0099045D01*
X0052416Y0098034D02*
X0051932Y0097550D01*
X0051932Y0096582D01*
X0052416Y0096099D01*
X0054351Y0096099D01*
X0054834Y0096582D01*
X0054834Y0097550D01*
X0054351Y0098034D01*
X0054834Y0095102D02*
X0054834Y0094134D01*
X0054834Y0094618D02*
X0051932Y0094618D01*
X0051932Y0094134D02*
X0051932Y0095102D01*
X0006850Y0120150D02*
X0004381Y0120150D01*
X0004381Y0121384D02*
X0004381Y0122002D01*
X0004381Y0121384D02*
X0005616Y0120150D01*
X0006233Y0122650D02*
X0006850Y0123267D01*
X0006850Y0125119D01*
X0007467Y0125119D02*
X0004381Y0125119D01*
X0004381Y0123267D01*
X0004998Y0122650D01*
X0006233Y0122650D01*
X0008084Y0123884D02*
X0008084Y0124502D01*
X0007467Y0125119D01*
X0006850Y0126650D02*
X0006850Y0128502D01*
X0006233Y0129119D01*
X0004998Y0129119D01*
X0004381Y0128502D01*
X0004381Y0126650D01*
X0003147Y0126650D02*
X0006850Y0126650D01*
X0109648Y0183810D02*
X0109648Y0185262D01*
X0110131Y0185745D01*
X0111099Y0185745D01*
X0111583Y0185262D01*
X0111583Y0183810D01*
X0112550Y0183810D02*
X0109648Y0183810D01*
X0111583Y0184778D02*
X0112550Y0185745D01*
X0112066Y0186757D02*
X0112550Y0187241D01*
X0112550Y0188208D01*
X0112066Y0188692D01*
X0111583Y0188692D01*
X0111099Y0188208D01*
X0111099Y0187724D01*
X0111099Y0188208D02*
X0110615Y0188692D01*
X0110131Y0188692D01*
X0109648Y0188208D01*
X0109648Y0187241D01*
X0110131Y0186757D01*
X0110131Y0189703D02*
X0109648Y0190187D01*
X0109648Y0191155D01*
X0110131Y0191638D01*
X0110615Y0191638D01*
X0112550Y0189703D01*
X0112550Y0191638D01*
X0117148Y0191155D02*
X0117148Y0190187D01*
X0117631Y0189703D01*
X0117631Y0188692D02*
X0118115Y0188692D01*
X0118599Y0188208D01*
X0119083Y0188692D01*
X0119566Y0188692D01*
X0120050Y0188208D01*
X0120050Y0187241D01*
X0119566Y0186757D01*
X0120050Y0185745D02*
X0119083Y0184778D01*
X0119083Y0185262D02*
X0119083Y0183810D01*
X0120050Y0183810D02*
X0117148Y0183810D01*
X0117148Y0185262D01*
X0117631Y0185745D01*
X0118599Y0185745D01*
X0119083Y0185262D01*
X0117631Y0186757D02*
X0117148Y0187241D01*
X0117148Y0188208D01*
X0117631Y0188692D01*
X0118599Y0188208D02*
X0118599Y0187724D01*
X0119566Y0189703D02*
X0120050Y0190187D01*
X0120050Y0191155D01*
X0119566Y0191638D01*
X0119083Y0191638D01*
X0118599Y0191155D01*
X0118599Y0190671D01*
X0118599Y0191155D02*
X0118115Y0191638D01*
X0117631Y0191638D01*
X0117148Y0191155D01*
X0127148Y0191155D02*
X0128599Y0189703D01*
X0128599Y0191638D01*
X0130050Y0191155D02*
X0127148Y0191155D01*
X0127631Y0188692D02*
X0128115Y0188692D01*
X0128599Y0188208D01*
X0129083Y0188692D01*
X0129566Y0188692D01*
X0130050Y0188208D01*
X0130050Y0187241D01*
X0129566Y0186757D01*
X0130050Y0185745D02*
X0129083Y0184778D01*
X0129083Y0185262D02*
X0129083Y0183810D01*
X0130050Y0183810D02*
X0127148Y0183810D01*
X0127148Y0185262D01*
X0127631Y0185745D01*
X0128599Y0185745D01*
X0129083Y0185262D01*
X0127631Y0186757D02*
X0127148Y0187241D01*
X0127148Y0188208D01*
X0127631Y0188692D01*
X0128599Y0188208D02*
X0128599Y0187724D01*
X0134648Y0187241D02*
X0134648Y0188208D01*
X0135131Y0188692D01*
X0135615Y0188692D01*
X0136099Y0188208D01*
X0136583Y0188692D01*
X0137066Y0188692D01*
X0137550Y0188208D01*
X0137550Y0187241D01*
X0137066Y0186757D01*
X0137550Y0185745D02*
X0136583Y0184778D01*
X0136583Y0185262D02*
X0136583Y0183810D01*
X0137550Y0183810D02*
X0134648Y0183810D01*
X0134648Y0185262D01*
X0135131Y0185745D01*
X0136099Y0185745D01*
X0136583Y0185262D01*
X0135131Y0186757D02*
X0134648Y0187241D01*
X0136099Y0187724D02*
X0136099Y0188208D01*
X0136099Y0189703D02*
X0135615Y0190671D01*
X0135615Y0191155D01*
X0136099Y0191638D01*
X0137066Y0191638D01*
X0137550Y0191155D01*
X0137550Y0190187D01*
X0137066Y0189703D01*
X0136099Y0189703D02*
X0134648Y0189703D01*
X0134648Y0191638D01*
D11*
X0147600Y0178675D03*
X0147850Y0178925D03*
X0147350Y0178425D03*
X0147100Y0178175D03*
X0155850Y0162925D03*
X0155600Y0162675D03*
X0149350Y0157425D03*
X0155100Y0153925D03*
X0141600Y0157425D03*
X0138100Y0156175D03*
X0137850Y0155925D03*
X0137600Y0157925D03*
X0137850Y0158175D03*
D12*
X0137230Y0157425D03*
X0136980Y0157175D03*
X0136730Y0156925D03*
X0135980Y0155925D03*
X0135730Y0155675D03*
X0140480Y0156425D03*
X0138720Y0159425D03*
X0139980Y0161925D03*
X0140230Y0162425D03*
X0140480Y0163175D03*
X0141720Y0166925D03*
X0141720Y0167175D03*
X0142980Y0169925D03*
X0142980Y0170175D03*
X0143230Y0170425D03*
X0143230Y0170675D03*
X0143480Y0170925D03*
X0143730Y0171425D03*
X0145980Y0176925D03*
X0146230Y0177175D03*
X0148720Y0179925D03*
X0148970Y0180175D03*
X0148970Y0180425D03*
X0149720Y0183425D03*
X0149720Y0183675D03*
X0149970Y0183925D03*
X0149970Y0184175D03*
X0150220Y0184425D03*
X0150470Y0184675D03*
X0150470Y0184925D03*
X0150720Y0185175D03*
X0150970Y0185425D03*
X0159280Y0183425D03*
X0158730Y0181425D03*
X0158730Y0181175D03*
X0158730Y0178925D03*
X0158730Y0169425D03*
X0158730Y0169175D03*
X0158480Y0168175D03*
X0157220Y0164675D03*
X0156970Y0164425D03*
X0156470Y0163675D03*
X0156220Y0163425D03*
X0150970Y0159425D03*
X0151220Y0158925D03*
X0150470Y0158175D03*
X0150720Y0157925D03*
X0150970Y0157425D03*
X0152480Y0157175D03*
X0152730Y0156925D03*
X0149970Y0158925D03*
X0149720Y0159425D03*
X0148970Y0157925D03*
X0149970Y0154175D03*
D13*
X0154850Y0154175D03*
X0144350Y0159675D03*
X0140600Y0156675D03*
X0154850Y0162175D03*
X0163925Y0185175D03*
D14*
X0135600Y0154425D03*
D15*
X0136105Y0154925D03*
X0150595Y0154425D03*
X0161030Y0184175D03*
X0153105Y0187175D03*
D16*
X0161850Y0184425D03*
X0154725Y0154425D03*
D17*
X0152855Y0156675D03*
X0143605Y0159175D03*
X0140355Y0158175D03*
X0137355Y0157675D03*
X0136105Y0156175D03*
X0135855Y0154675D03*
X0156595Y0163925D03*
X0156845Y0164175D03*
X0146355Y0177425D03*
X0146605Y0177675D03*
X0146855Y0177925D03*
X0148105Y0179175D03*
X0151095Y0185675D03*
X0157095Y0186925D03*
D18*
X0152970Y0154675D03*
D19*
X0153095Y0154925D03*
D20*
X0136230Y0155175D03*
D21*
X0153345Y0155175D03*
D22*
X0147975Y0157425D03*
X0147725Y0157925D03*
X0147225Y0158925D03*
X0147975Y0159675D03*
X0149225Y0160175D03*
X0149475Y0159925D03*
X0149475Y0159675D03*
X0155975Y0163175D03*
X0141475Y0166175D03*
X0141475Y0166425D03*
X0141225Y0165675D03*
X0141225Y0165425D03*
X0140975Y0164925D03*
X0140975Y0164675D03*
X0140725Y0164175D03*
X0140725Y0163925D03*
X0138475Y0159175D03*
X0138475Y0158925D03*
X0138225Y0158675D03*
X0137975Y0158425D03*
X0135475Y0155425D03*
X0143975Y0171925D03*
X0143975Y0172175D03*
X0144225Y0172675D03*
X0144475Y0173425D03*
X0144475Y0173675D03*
X0144725Y0174175D03*
X0144725Y0174425D03*
X0149225Y0180925D03*
X0149475Y0182925D03*
D23*
X0154355Y0161925D03*
X0153855Y0161675D03*
X0153355Y0161425D03*
X0137105Y0155425D03*
D24*
X0136350Y0156425D03*
X0141850Y0157675D03*
X0142100Y0157925D03*
X0142350Y0158175D03*
X0142600Y0158425D03*
X0138850Y0159675D03*
X0151850Y0155425D03*
X0145850Y0176675D03*
X0148350Y0179425D03*
X0151350Y0185925D03*
X0151600Y0186175D03*
X0151850Y0186425D03*
X0152100Y0186675D03*
D25*
X0155100Y0187925D03*
X0148350Y0160925D03*
X0148600Y0157675D03*
X0147100Y0156175D03*
X0154600Y0155425D03*
D26*
X0155225Y0162425D03*
X0143975Y0159425D03*
X0138475Y0156425D03*
X0137475Y0155675D03*
D27*
X0151475Y0155675D03*
X0151475Y0160425D03*
X0151725Y0160675D03*
D28*
X0148225Y0160675D03*
X0154475Y0155675D03*
X0163350Y0184925D03*
D29*
X0159905Y0183675D03*
X0156720Y0187175D03*
X0143230Y0158925D03*
X0140230Y0157925D03*
X0138730Y0156675D03*
X0146730Y0155925D03*
D30*
X0151100Y0155925D03*
D31*
X0154600Y0155925D03*
X0162725Y0184675D03*
D32*
X0150725Y0156175D03*
D33*
X0154475Y0156175D03*
D34*
X0148980Y0156425D03*
D35*
X0146100Y0160175D03*
X0154350Y0156425D03*
X0154850Y0187675D03*
D36*
X0148475Y0179675D03*
X0145725Y0176425D03*
X0145475Y0176175D03*
X0145475Y0175925D03*
X0145225Y0175675D03*
X0145225Y0175425D03*
X0144975Y0174925D03*
X0142725Y0169675D03*
X0142725Y0169425D03*
X0142475Y0168925D03*
X0142225Y0168425D03*
X0141975Y0167675D03*
X0139725Y0161425D03*
X0139725Y0161175D03*
X0139475Y0160925D03*
X0139475Y0160675D03*
X0139225Y0160425D03*
X0139225Y0160175D03*
X0138975Y0159925D03*
X0136475Y0156675D03*
X0148475Y0158675D03*
X0151475Y0158425D03*
X0151725Y0158175D03*
X0151975Y0157925D03*
X0152225Y0157425D03*
X0157475Y0165175D03*
X0157725Y0165925D03*
X0157975Y0166425D03*
X0157975Y0166675D03*
X0158225Y0167175D03*
D37*
X0149105Y0156675D03*
D38*
X0140345Y0157175D03*
X0140095Y0156925D03*
D39*
X0149225Y0156925D03*
D40*
X0148095Y0157175D03*
X0150345Y0158425D03*
X0150845Y0159675D03*
X0150845Y0159925D03*
X0146855Y0159675D03*
X0140355Y0158425D03*
X0139855Y0161675D03*
X0140105Y0162175D03*
X0140355Y0162675D03*
X0140355Y0162925D03*
X0140605Y0163425D03*
X0140605Y0163675D03*
X0141595Y0166675D03*
X0141845Y0167425D03*
X0143605Y0171175D03*
X0143855Y0171675D03*
X0144845Y0174675D03*
X0149595Y0183175D03*
X0158855Y0182675D03*
X0158855Y0182425D03*
X0158855Y0182175D03*
X0158855Y0181925D03*
X0158855Y0181675D03*
X0158605Y0180925D03*
X0158605Y0180675D03*
X0158605Y0180425D03*
X0158605Y0180175D03*
X0158605Y0179925D03*
X0158605Y0179675D03*
X0158605Y0179425D03*
X0158605Y0179175D03*
X0158855Y0178675D03*
X0158855Y0178425D03*
X0158855Y0178175D03*
X0158855Y0177925D03*
X0158855Y0177675D03*
X0158855Y0177425D03*
X0158855Y0177175D03*
X0158855Y0176925D03*
X0158855Y0176675D03*
X0158855Y0176425D03*
X0158855Y0176175D03*
X0158855Y0175925D03*
X0158855Y0175675D03*
X0158855Y0175425D03*
X0158855Y0175175D03*
X0158855Y0174925D03*
X0158855Y0174675D03*
X0158855Y0174425D03*
X0158855Y0174175D03*
X0158855Y0173925D03*
X0158855Y0173675D03*
X0158855Y0173425D03*
X0158855Y0173175D03*
X0158855Y0172925D03*
X0158855Y0172675D03*
X0158855Y0172425D03*
X0158855Y0172175D03*
X0158855Y0171925D03*
X0158855Y0171675D03*
X0158855Y0171425D03*
X0158855Y0171175D03*
X0158855Y0170925D03*
X0158855Y0170675D03*
X0158855Y0170425D03*
X0158855Y0170175D03*
X0158855Y0169925D03*
X0158855Y0169675D03*
X0158605Y0168925D03*
X0158605Y0168675D03*
X0158605Y0168425D03*
X0158355Y0167925D03*
X0158355Y0167675D03*
X0158355Y0167425D03*
X0157345Y0164925D03*
X0158955Y0182925D03*
X0159055Y0183175D03*
D41*
X0150350Y0157175D03*
D42*
X0152600Y0160925D03*
X0140100Y0157675D03*
X0139850Y0157425D03*
X0152600Y0186925D03*
X0158350Y0186175D03*
D43*
X0151475Y0157675D03*
D44*
X0148225Y0158175D03*
X0147475Y0159425D03*
D45*
X0147730Y0159175D03*
X0147980Y0158425D03*
X0150470Y0159175D03*
X0150720Y0158675D03*
X0152980Y0161175D03*
X0160405Y0183925D03*
D46*
X0157725Y0186425D03*
X0157475Y0186675D03*
X0151225Y0160175D03*
X0142975Y0158675D03*
D47*
X0147350Y0158675D03*
X0140850Y0164425D03*
X0141100Y0165175D03*
X0141350Y0165925D03*
X0144100Y0172425D03*
X0144350Y0172925D03*
X0144350Y0173175D03*
X0144600Y0173925D03*
X0149100Y0180675D03*
X0149350Y0181175D03*
X0149350Y0181425D03*
X0149350Y0181675D03*
X0149350Y0181925D03*
X0149350Y0182175D03*
X0149350Y0182425D03*
X0149350Y0182675D03*
D48*
X0145100Y0175175D03*
X0142600Y0169175D03*
X0142350Y0168675D03*
X0142100Y0168175D03*
X0142100Y0167925D03*
X0148350Y0158925D03*
X0157600Y0165425D03*
X0157600Y0165675D03*
X0157850Y0166175D03*
X0158100Y0166925D03*
D49*
X0146100Y0159925D03*
D50*
X0147095Y0160425D03*
D51*
X0145730Y0160675D03*
D52*
X0162325Y0185425D03*
X0154850Y0187425D03*
D53*
X0161525Y0185675D03*
D54*
X0160220Y0185925D03*
D55*
X0099500Y0187205D02*
X0099500Y0182500D01*
X0091213Y0182500D01*
X0091213Y0172500D01*
X0099500Y0172500D01*
X0099500Y0167795D01*
X0074500Y0167795D01*
X0074500Y0187205D01*
X0099500Y0187205D01*
X0099500Y0182500D02*
X0099500Y0172500D01*
X0073577Y0174476D02*
X0071775Y0174476D01*
X0060858Y0177421D02*
X0060858Y0181358D01*
X0056921Y0181358D01*
X0047079Y0181358D02*
X0044126Y0181358D01*
X0043142Y0180374D01*
X0043142Y0177421D01*
X0035102Y0174476D02*
X0033300Y0174476D01*
X0032000Y0172500D02*
X0023713Y0172500D01*
X0023713Y0182500D01*
X0032000Y0182500D01*
X0032000Y0172500D01*
X0032000Y0167795D01*
X0007000Y0167795D01*
X0007000Y0187205D01*
X0032000Y0187205D01*
X0032000Y0182500D01*
X0033400Y0182751D02*
X0035202Y0182751D01*
X0034301Y0183652D02*
X0034301Y0181850D01*
X0043142Y0167579D02*
X0043142Y0163642D01*
X0047079Y0163642D01*
X0056921Y0163642D02*
X0060858Y0163642D01*
X0060858Y0167579D01*
X0072676Y0181675D02*
X0072676Y0183477D01*
X0071775Y0182576D02*
X0073577Y0182576D01*
X0040808Y0205009D02*
X0040808Y0208011D01*
X0040057Y0208762D01*
X0037805Y0208762D01*
X0037805Y0204258D01*
X0040057Y0204258D01*
X0040808Y0205009D01*
X0036204Y0204258D02*
X0036204Y0208762D01*
X0033201Y0208762D02*
X0036204Y0204258D01*
X0033201Y0204258D02*
X0033201Y0208762D01*
X0031600Y0208011D02*
X0030849Y0208762D01*
X0029348Y0208762D01*
X0028597Y0208011D01*
X0028597Y0205009D01*
X0029348Y0204258D01*
X0030849Y0204258D01*
X0031600Y0205009D01*
X0031600Y0206510D01*
X0030099Y0206510D01*
X0026996Y0206510D02*
X0023993Y0206510D01*
X0023993Y0207260D02*
X0025495Y0208762D01*
X0026996Y0207260D01*
X0026996Y0204258D01*
X0023993Y0204258D02*
X0023993Y0207260D01*
X0034500Y0154705D02*
X0009500Y0154705D01*
X0009500Y0150000D01*
X0017787Y0150000D01*
X0017787Y0120000D01*
X0009500Y0120000D01*
X0009500Y0150000D01*
X0034500Y0154705D02*
X0034500Y0115295D01*
X0009500Y0115295D01*
X0009500Y0120000D01*
X0009500Y0112205D02*
X0034500Y0112205D01*
X0034500Y0072795D01*
X0009500Y0072795D01*
X0009500Y0077500D01*
X0017787Y0077500D01*
X0017787Y0107500D01*
X0009500Y0107500D01*
X0009500Y0112205D01*
X0009500Y0107500D02*
X0009500Y0077500D01*
X0009500Y0069705D02*
X0034500Y0069705D01*
X0034500Y0030295D01*
X0009500Y0030295D01*
X0009500Y0035000D01*
X0017787Y0035000D01*
X0017787Y0065000D01*
X0009500Y0065000D01*
X0009500Y0069705D01*
X0009500Y0065000D02*
X0009500Y0035000D01*
X0082295Y0035000D02*
X0131705Y0035000D01*
X0131705Y0060000D01*
X0127000Y0060000D01*
X0127000Y0051713D01*
X0087000Y0051713D01*
X0087000Y0060000D01*
X0127000Y0060000D01*
X0142295Y0060000D02*
X0147000Y0060000D01*
X0147000Y0051713D01*
X0187000Y0051713D01*
X0187000Y0060000D01*
X0191705Y0060000D01*
X0191705Y0035000D01*
X0142295Y0035000D01*
X0142295Y0060000D01*
X0147000Y0060000D02*
X0187000Y0060000D01*
X0191705Y0075000D02*
X0142295Y0075000D01*
X0142295Y0100000D01*
X0147000Y0100000D01*
X0147000Y0091713D01*
X0187000Y0091713D01*
X0187000Y0100000D01*
X0191705Y0100000D01*
X0191705Y0075000D01*
X0187000Y0100000D02*
X0147000Y0100000D01*
X0131705Y0100000D02*
X0131705Y0075000D01*
X0082295Y0075000D01*
X0082295Y0100000D01*
X0087000Y0100000D01*
X0087000Y0091713D01*
X0127000Y0091713D01*
X0127000Y0100000D01*
X0131705Y0100000D01*
X0127000Y0100000D02*
X0087000Y0100000D01*
X0087000Y0060000D02*
X0082295Y0060000D01*
X0082295Y0035000D01*
X0167827Y0115295D02*
X0167827Y0140886D01*
X0195780Y0140886D01*
X0195780Y0115295D01*
X0167827Y0115295D01*
X0239795Y0110000D02*
X0239795Y0135000D01*
X0259205Y0135000D01*
X0259205Y0110000D01*
X0254500Y0110000D01*
X0254500Y0118287D01*
X0244500Y0118287D01*
X0244500Y0110000D01*
X0239795Y0110000D01*
X0244500Y0110000D02*
X0254500Y0110000D01*
X0259705Y0097443D02*
X0240295Y0097443D01*
X0240295Y0072443D01*
X0245000Y0072443D01*
X0245000Y0080730D01*
X0255000Y0080730D01*
X0255000Y0072443D01*
X0245000Y0072443D01*
X0255000Y0072443D02*
X0259705Y0072443D01*
X0259705Y0097443D01*
X0258530Y0061150D02*
X0239120Y0061150D01*
X0239120Y0036150D01*
X0243825Y0036150D01*
X0243825Y0044437D01*
X0253825Y0044437D01*
X0253825Y0036150D01*
X0243825Y0036150D01*
X0253825Y0036150D02*
X0258530Y0036150D01*
X0258530Y0061150D01*
X0274623Y0037320D02*
X0273873Y0036570D01*
X0273873Y0034318D01*
X0278377Y0034318D01*
X0278377Y0036570D01*
X0277626Y0037320D01*
X0274623Y0037320D01*
X0273873Y0032717D02*
X0278377Y0032717D01*
X0273873Y0029714D01*
X0278377Y0029714D01*
X0277626Y0028113D02*
X0276125Y0028113D01*
X0276125Y0026611D01*
X0277626Y0025110D02*
X0274623Y0025110D01*
X0273873Y0025861D01*
X0273873Y0027362D01*
X0274623Y0028113D01*
X0277626Y0028113D02*
X0278377Y0027362D01*
X0278377Y0025861D01*
X0277626Y0025110D01*
X0277626Y0023509D02*
X0274623Y0023509D01*
X0273873Y0022758D01*
X0273873Y0020506D01*
X0278377Y0020506D01*
X0278377Y0022758D01*
X0277626Y0023509D01*
X0276998Y0197750D02*
X0276998Y0200753D01*
X0276998Y0202354D02*
X0276247Y0203855D01*
X0276247Y0204606D01*
X0276998Y0205356D01*
X0278499Y0205356D01*
X0279250Y0204606D01*
X0279250Y0203105D01*
X0278499Y0202354D01*
X0276998Y0202354D02*
X0274746Y0202354D01*
X0274746Y0205356D01*
X0274746Y0206958D02*
X0277749Y0206958D01*
X0279250Y0208459D01*
X0277749Y0209960D01*
X0274746Y0209960D01*
X0275497Y0199251D02*
X0278499Y0199251D01*
D56*
X0044500Y0007500D02*
X0042000Y0010000D01*
X0042000Y0025000D01*
X0044500Y0027500D01*
X0049500Y0027500D01*
X0052000Y0025000D01*
X0052000Y0010000D01*
X0049500Y0007500D01*
X0044500Y0007500D01*
X0052000Y0010000D02*
X0054500Y0007500D01*
X0059500Y0007500D01*
X0062000Y0010000D01*
X0062000Y0025000D01*
X0059500Y0027500D01*
X0054500Y0027500D01*
X0052000Y0025000D01*
X0062000Y0025000D02*
X0064500Y0027500D01*
X0069500Y0027500D01*
X0072000Y0025000D01*
X0072000Y0010000D01*
X0069500Y0007500D01*
X0064500Y0007500D01*
X0062000Y0010000D01*
X0072000Y0010000D02*
X0074500Y0007500D01*
X0079500Y0007500D01*
X0082000Y0010000D01*
X0082000Y0025000D01*
X0079500Y0027500D01*
X0074500Y0027500D01*
X0072000Y0025000D01*
X0082000Y0025000D02*
X0084500Y0027500D01*
X0089500Y0027500D01*
X0092000Y0025000D01*
X0092000Y0010000D01*
X0089500Y0007500D01*
X0084500Y0007500D01*
X0082000Y0010000D01*
X0092000Y0010000D02*
X0094500Y0007500D01*
X0099500Y0007500D01*
X0102000Y0010000D01*
X0102000Y0025000D01*
X0099500Y0027500D01*
X0094500Y0027500D01*
X0092000Y0025000D01*
X0102000Y0025000D02*
X0104500Y0027500D01*
X0109500Y0027500D01*
X0112000Y0025000D01*
X0112000Y0010000D01*
X0109500Y0007500D01*
X0104500Y0007500D01*
X0102000Y0010000D01*
X0112000Y0010000D02*
X0114500Y0007500D01*
X0119500Y0007500D01*
X0122000Y0010000D01*
X0122000Y0025000D01*
X0124500Y0027500D01*
X0129500Y0027500D01*
X0132000Y0025000D01*
X0132000Y0010000D01*
X0129500Y0007500D01*
X0124500Y0007500D01*
X0122000Y0010000D01*
X0132000Y0010000D02*
X0134500Y0007500D01*
X0139500Y0007500D01*
X0142000Y0010000D01*
X0142000Y0025000D01*
X0144500Y0027500D01*
X0149500Y0027500D01*
X0152000Y0025000D01*
X0152000Y0010000D01*
X0149500Y0007500D01*
X0144500Y0007500D01*
X0142000Y0010000D01*
X0152000Y0010000D02*
X0154500Y0007500D01*
X0159500Y0007500D01*
X0162000Y0010000D01*
X0162000Y0025000D01*
X0164500Y0027500D01*
X0169500Y0027500D01*
X0172000Y0025000D01*
X0172000Y0010000D01*
X0169500Y0007500D01*
X0164500Y0007500D01*
X0162000Y0010000D01*
X0172000Y0010000D02*
X0174500Y0007500D01*
X0179500Y0007500D01*
X0182000Y0010000D01*
X0182000Y0025000D01*
X0184500Y0027500D01*
X0189500Y0027500D01*
X0192000Y0025000D01*
X0192000Y0010000D01*
X0189500Y0007500D01*
X0184500Y0007500D01*
X0182000Y0010000D01*
X0192000Y0010000D02*
X0194500Y0007500D01*
X0199500Y0007500D01*
X0202000Y0010000D01*
X0202000Y0025000D01*
X0204500Y0027500D01*
X0209500Y0027500D01*
X0212000Y0025000D01*
X0212000Y0010000D01*
X0209500Y0007500D01*
X0204500Y0007500D01*
X0202000Y0010000D01*
X0212000Y0010000D02*
X0214500Y0007500D01*
X0219500Y0007500D01*
X0222000Y0010000D01*
X0222000Y0025000D01*
X0219500Y0027500D01*
X0214500Y0027500D01*
X0212000Y0025000D01*
X0222000Y0025000D02*
X0224500Y0027500D01*
X0229500Y0027500D01*
X0232000Y0025000D01*
X0232000Y0010000D01*
X0229500Y0007500D01*
X0224500Y0007500D01*
X0222000Y0010000D01*
X0232000Y0010000D02*
X0234500Y0007500D01*
X0239500Y0007500D01*
X0242000Y0010000D01*
X0242000Y0025000D01*
X0239500Y0027500D01*
X0234500Y0027500D01*
X0232000Y0025000D01*
X0242000Y0025000D02*
X0244500Y0027500D01*
X0249500Y0027500D01*
X0252000Y0025000D01*
X0252000Y0010000D01*
X0249500Y0007500D01*
X0244500Y0007500D01*
X0242000Y0010000D01*
X0252000Y0010000D02*
X0254500Y0007500D01*
X0259500Y0007500D01*
X0262000Y0010000D01*
X0262000Y0025000D01*
X0259500Y0027500D01*
X0254500Y0027500D01*
X0252000Y0025000D01*
X0262000Y0025000D02*
X0264500Y0027500D01*
X0269500Y0027500D01*
X0272000Y0025000D01*
X0272000Y0010000D01*
X0269500Y0007500D01*
X0264500Y0007500D01*
X0262000Y0010000D01*
X0262641Y0047050D02*
X0262641Y0048751D01*
X0262074Y0049319D01*
X0260939Y0049319D01*
X0260372Y0048751D01*
X0260372Y0047050D01*
X0263775Y0047050D01*
X0262641Y0048184D02*
X0263775Y0049319D01*
X0263775Y0050733D02*
X0260372Y0050733D01*
X0262074Y0050733D02*
X0262074Y0053002D01*
X0263775Y0053002D02*
X0260372Y0053002D01*
X0260939Y0054416D02*
X0263208Y0054416D01*
X0263775Y0054983D01*
X0263775Y0056118D01*
X0263208Y0056685D01*
X0260939Y0056685D01*
X0260372Y0056118D01*
X0260372Y0054983D01*
X0260939Y0054416D01*
X0260372Y0058099D02*
X0260372Y0059801D01*
X0260939Y0060368D01*
X0262074Y0060368D01*
X0262641Y0059801D01*
X0262641Y0058099D01*
X0263775Y0058099D02*
X0260372Y0058099D01*
X0202000Y0025000D02*
X0199500Y0027500D01*
X0194500Y0027500D01*
X0192000Y0025000D01*
X0182000Y0025000D02*
X0179500Y0027500D01*
X0174500Y0027500D01*
X0172000Y0025000D01*
X0162000Y0025000D02*
X0159500Y0027500D01*
X0154500Y0027500D01*
X0152000Y0025000D01*
X0142000Y0025000D02*
X0139500Y0027500D01*
X0134500Y0027500D01*
X0132000Y0025000D01*
X0122000Y0025000D02*
X0119500Y0027500D01*
X0114500Y0027500D01*
X0112000Y0025000D01*
X0240532Y0098275D02*
X0242801Y0098275D01*
X0244215Y0098275D02*
X0244215Y0101678D01*
X0244215Y0099976D02*
X0246484Y0099976D01*
X0246484Y0098275D02*
X0246484Y0101678D01*
X0247898Y0101111D02*
X0247898Y0098842D01*
X0248465Y0098275D01*
X0249600Y0098275D01*
X0250167Y0098842D01*
X0250167Y0101111D01*
X0249600Y0101678D01*
X0248465Y0101678D01*
X0247898Y0101111D01*
X0251581Y0101678D02*
X0251581Y0098275D01*
X0251581Y0099409D02*
X0253283Y0099409D01*
X0253850Y0099976D01*
X0253850Y0101111D01*
X0253283Y0101678D01*
X0251581Y0101678D01*
X0240532Y0101678D02*
X0240532Y0098275D01*
X0240450Y0135800D02*
X0242719Y0135800D01*
X0244133Y0135800D02*
X0245267Y0135800D01*
X0244700Y0135800D02*
X0244700Y0139203D01*
X0244133Y0139203D02*
X0245267Y0139203D01*
X0246589Y0138636D02*
X0246589Y0136367D01*
X0247156Y0135800D01*
X0248290Y0135800D01*
X0248857Y0136367D01*
X0248857Y0137501D01*
X0247723Y0137501D01*
X0248857Y0138636D02*
X0248290Y0139203D01*
X0247156Y0139203D01*
X0246589Y0138636D01*
X0250272Y0139203D02*
X0250272Y0135800D01*
X0250272Y0137501D02*
X0252540Y0137501D01*
X0252540Y0135800D02*
X0252540Y0139203D01*
X0253955Y0139203D02*
X0256223Y0139203D01*
X0255089Y0139203D02*
X0255089Y0135800D01*
X0257638Y0136367D02*
X0258205Y0135800D01*
X0259339Y0135800D01*
X0259907Y0136367D01*
X0259907Y0136934D01*
X0259339Y0137501D01*
X0258205Y0137501D01*
X0257638Y0138069D01*
X0257638Y0138636D01*
X0258205Y0139203D01*
X0259339Y0139203D01*
X0259907Y0138636D01*
X0240450Y0139203D02*
X0240450Y0135800D01*
X0206800Y0149600D02*
X0206800Y0153800D01*
X0206800Y0156200D01*
X0206800Y0160400D01*
X0206800Y0156200D02*
X0206731Y0156198D01*
X0206663Y0156192D01*
X0206595Y0156182D01*
X0206528Y0156169D01*
X0206462Y0156151D01*
X0206397Y0156130D01*
X0206333Y0156105D01*
X0206271Y0156077D01*
X0206210Y0156045D01*
X0206151Y0156010D01*
X0206095Y0155971D01*
X0206040Y0155929D01*
X0205989Y0155884D01*
X0205939Y0155836D01*
X0205893Y0155786D01*
X0205850Y0155733D01*
X0205809Y0155677D01*
X0205772Y0155620D01*
X0205739Y0155560D01*
X0205708Y0155498D01*
X0205682Y0155435D01*
X0205659Y0155371D01*
X0205639Y0155305D01*
X0205624Y0155238D01*
X0205612Y0155171D01*
X0205604Y0155103D01*
X0205600Y0155034D01*
X0205600Y0154966D01*
X0205604Y0154897D01*
X0205612Y0154829D01*
X0205624Y0154762D01*
X0205639Y0154695D01*
X0205659Y0154629D01*
X0205682Y0154565D01*
X0205708Y0154502D01*
X0205739Y0154440D01*
X0205772Y0154380D01*
X0205809Y0154323D01*
X0205850Y0154267D01*
X0205893Y0154214D01*
X0205939Y0154164D01*
X0205989Y0154116D01*
X0206040Y0154071D01*
X0206095Y0154029D01*
X0206151Y0153990D01*
X0206210Y0153955D01*
X0206271Y0153923D01*
X0206333Y0153895D01*
X0206397Y0153870D01*
X0206462Y0153849D01*
X0206528Y0153831D01*
X0206595Y0153818D01*
X0206663Y0153808D01*
X0206731Y0153802D01*
X0206800Y0153800D01*
X0187200Y0149600D02*
X0187200Y0160400D01*
X0172725Y0160021D02*
X0170456Y0160021D01*
X0170456Y0161156D02*
X0170456Y0161723D01*
X0170456Y0161156D02*
X0171591Y0160021D01*
X0171591Y0158607D02*
X0171591Y0156905D01*
X0172158Y0156338D01*
X0172725Y0156905D01*
X0172725Y0158607D01*
X0171024Y0158607D01*
X0170456Y0158040D01*
X0170456Y0156905D01*
X0170456Y0155017D02*
X0170456Y0153883D01*
X0169889Y0154450D02*
X0172158Y0154450D01*
X0172725Y0155017D01*
X0172158Y0152468D02*
X0171591Y0151901D01*
X0171591Y0150767D01*
X0171024Y0150200D01*
X0170456Y0150767D01*
X0170456Y0152468D01*
X0172158Y0152468D02*
X0172725Y0151901D01*
X0172725Y0150200D01*
X0172725Y0163091D02*
X0169322Y0163091D01*
X0170456Y0163091D02*
X0170456Y0164792D01*
X0171024Y0165359D01*
X0172158Y0165359D01*
X0172725Y0164792D01*
X0172725Y0163091D01*
X0172158Y0166774D02*
X0172725Y0167341D01*
X0172725Y0168475D01*
X0172158Y0169042D01*
X0171024Y0169042D01*
X0170456Y0168475D01*
X0170456Y0167341D01*
X0171024Y0166774D01*
X0172158Y0166774D01*
X0172158Y0170457D02*
X0171591Y0171024D01*
X0171591Y0172725D01*
X0171024Y0172725D02*
X0172725Y0172725D01*
X0172725Y0171024D01*
X0172158Y0170457D01*
X0170456Y0171024D02*
X0170456Y0172158D01*
X0171024Y0172725D01*
X0171591Y0174140D02*
X0170456Y0175274D01*
X0170456Y0175841D01*
X0171024Y0177209D02*
X0170456Y0177776D01*
X0170456Y0179478D01*
X0169322Y0179478D02*
X0172725Y0179478D01*
X0172725Y0177776D01*
X0172158Y0177209D01*
X0171024Y0177209D01*
X0170456Y0174140D02*
X0172725Y0174140D01*
X0172725Y0184576D02*
X0170456Y0184576D01*
X0169322Y0185710D01*
X0170456Y0186844D01*
X0172725Y0186844D01*
X0172725Y0188259D02*
X0170456Y0190527D01*
X0169889Y0190527D01*
X0169322Y0189960D01*
X0169322Y0188826D01*
X0169889Y0188259D01*
X0171024Y0186844D02*
X0171024Y0184576D01*
X0172725Y0188259D02*
X0172725Y0190527D01*
X0172725Y0191942D02*
X0172725Y0193643D01*
X0172158Y0194210D01*
X0171591Y0194210D01*
X0171024Y0193643D01*
X0171024Y0191942D01*
X0172725Y0191942D02*
X0169322Y0191942D01*
X0169322Y0193643D01*
X0169889Y0194210D01*
X0170456Y0194210D01*
X0171024Y0193643D01*
X0169500Y0197500D02*
X0164500Y0197500D01*
X0162000Y0200000D01*
X0162000Y0215000D01*
X0164500Y0217500D01*
X0169500Y0217500D01*
X0172000Y0215000D01*
X0172000Y0200000D01*
X0169500Y0197500D01*
X0172000Y0200000D02*
X0174500Y0197500D01*
X0179500Y0197500D01*
X0182000Y0200000D01*
X0182000Y0215000D01*
X0184500Y0217500D01*
X0189500Y0217500D01*
X0192000Y0215000D01*
X0192000Y0200000D01*
X0189500Y0197500D01*
X0184500Y0197500D01*
X0182000Y0200000D01*
X0192000Y0200000D02*
X0194500Y0197500D01*
X0199500Y0197500D01*
X0202000Y0200000D01*
X0202000Y0215000D01*
X0204500Y0217500D01*
X0209500Y0217500D01*
X0212000Y0215000D01*
X0212000Y0200000D01*
X0209500Y0197500D01*
X0204500Y0197500D01*
X0202000Y0200000D01*
X0212000Y0200000D02*
X0214500Y0197500D01*
X0219500Y0197500D01*
X0222000Y0200000D01*
X0222000Y0215000D01*
X0219500Y0217500D01*
X0214500Y0217500D01*
X0212000Y0215000D01*
X0222000Y0215000D02*
X0224500Y0217500D01*
X0229500Y0217500D01*
X0232000Y0215000D01*
X0232000Y0200000D01*
X0229500Y0197500D01*
X0224500Y0197500D01*
X0222000Y0200000D01*
X0232000Y0200000D02*
X0234500Y0197500D01*
X0239500Y0197500D01*
X0242000Y0200000D01*
X0242000Y0215000D01*
X0239500Y0217500D01*
X0234500Y0217500D01*
X0232000Y0215000D01*
X0242000Y0215000D02*
X0244500Y0217500D01*
X0249500Y0217500D01*
X0252000Y0215000D01*
X0252000Y0200000D01*
X0249500Y0197500D01*
X0244500Y0197500D01*
X0242000Y0200000D01*
X0252000Y0200000D02*
X0254500Y0197500D01*
X0259500Y0197500D01*
X0262000Y0200000D01*
X0262000Y0215000D01*
X0259500Y0217500D01*
X0254500Y0217500D01*
X0252000Y0215000D01*
X0262000Y0215000D02*
X0264500Y0217500D01*
X0269500Y0217500D01*
X0272000Y0215000D01*
X0272000Y0200000D01*
X0269500Y0197500D01*
X0264500Y0197500D01*
X0262000Y0200000D01*
X0202000Y0215000D02*
X0199500Y0217500D01*
X0194500Y0217500D01*
X0192000Y0215000D01*
X0182000Y0215000D02*
X0179500Y0217500D01*
X0174500Y0217500D01*
X0172000Y0215000D01*
X0162000Y0215000D02*
X0159500Y0217500D01*
X0154500Y0217500D01*
X0152000Y0215000D01*
X0152000Y0200000D01*
X0149500Y0197500D01*
X0144500Y0197500D01*
X0142000Y0200000D01*
X0142000Y0215000D01*
X0144500Y0217500D01*
X0149500Y0217500D01*
X0152000Y0215000D01*
X0142000Y0215000D02*
X0139500Y0217500D01*
X0134500Y0217500D01*
X0132000Y0215000D01*
X0132000Y0200000D01*
X0129500Y0197500D01*
X0124500Y0197500D01*
X0122000Y0200000D01*
X0122000Y0215000D01*
X0124500Y0217500D01*
X0129500Y0217500D01*
X0132000Y0215000D01*
X0122000Y0215000D02*
X0119500Y0217500D01*
X0114500Y0217500D01*
X0112000Y0215000D01*
X0109500Y0217500D01*
X0104500Y0217500D01*
X0102000Y0215000D01*
X0099500Y0217500D01*
X0094500Y0217500D01*
X0092000Y0215000D01*
X0089500Y0217500D01*
X0084500Y0217500D01*
X0082000Y0215000D01*
X0079500Y0217500D01*
X0074500Y0217500D01*
X0072000Y0215000D01*
X0069500Y0217500D01*
X0064500Y0217500D01*
X0062000Y0215000D01*
X0059500Y0217500D01*
X0054500Y0217500D01*
X0052000Y0215000D01*
X0049500Y0217500D01*
X0044500Y0217500D01*
X0042000Y0215000D01*
X0042000Y0200000D01*
X0044500Y0197500D01*
X0049500Y0197500D01*
X0052000Y0200000D01*
X0052000Y0215000D01*
X0062000Y0215000D02*
X0062000Y0200000D01*
X0059500Y0197500D01*
X0054500Y0197500D01*
X0052000Y0200000D01*
X0062000Y0200000D02*
X0064500Y0197500D01*
X0069500Y0197500D01*
X0072000Y0200000D01*
X0072000Y0215000D01*
X0082000Y0215000D02*
X0082000Y0200000D01*
X0079500Y0197500D01*
X0074500Y0197500D01*
X0072000Y0200000D01*
X0082000Y0200000D02*
X0084500Y0197500D01*
X0089500Y0197500D01*
X0092000Y0200000D01*
X0092000Y0215000D01*
X0102000Y0215000D02*
X0102000Y0200000D01*
X0099500Y0197500D01*
X0094500Y0197500D01*
X0092000Y0200000D01*
X0102000Y0200000D02*
X0104500Y0197500D01*
X0109500Y0197500D01*
X0112000Y0200000D01*
X0112000Y0215000D01*
X0112000Y0200000D02*
X0114500Y0197500D01*
X0119500Y0197500D01*
X0122000Y0200000D01*
X0132000Y0200000D02*
X0134500Y0197500D01*
X0139500Y0197500D01*
X0142000Y0200000D01*
X0152000Y0200000D02*
X0154500Y0197500D01*
X0159500Y0197500D01*
X0162000Y0200000D01*
X0137734Y0148703D02*
X0138301Y0148136D01*
X0138301Y0147001D01*
X0137734Y0146434D01*
X0136033Y0146434D01*
X0136033Y0145300D02*
X0136033Y0148703D01*
X0137734Y0148703D01*
X0134618Y0148703D02*
X0134618Y0145300D01*
X0133484Y0146434D01*
X0132349Y0145300D01*
X0132349Y0148703D01*
X0130935Y0148136D02*
X0130935Y0147001D01*
X0130368Y0146434D01*
X0128666Y0146434D01*
X0128666Y0145300D02*
X0128666Y0148703D01*
X0130368Y0148703D01*
X0130935Y0148136D01*
X0129801Y0146434D02*
X0130935Y0145300D01*
X0127252Y0147001D02*
X0126685Y0146434D01*
X0124983Y0146434D01*
X0124983Y0145300D02*
X0124983Y0148703D01*
X0126685Y0148703D01*
X0127252Y0148136D01*
X0127252Y0147001D01*
X0123569Y0145300D02*
X0121300Y0145300D01*
X0121300Y0148703D01*
X0123569Y0148703D01*
X0122434Y0147001D02*
X0121300Y0147001D01*
X0106980Y0136949D02*
X0092020Y0136949D01*
X0098000Y0137000D02*
X0098002Y0136924D01*
X0098008Y0136848D01*
X0098017Y0136773D01*
X0098031Y0136698D01*
X0098048Y0136624D01*
X0098069Y0136551D01*
X0098093Y0136479D01*
X0098122Y0136408D01*
X0098153Y0136339D01*
X0098188Y0136272D01*
X0098227Y0136207D01*
X0098269Y0136143D01*
X0098314Y0136082D01*
X0098362Y0136023D01*
X0098413Y0135967D01*
X0098467Y0135913D01*
X0098523Y0135862D01*
X0098582Y0135814D01*
X0098643Y0135769D01*
X0098707Y0135727D01*
X0098772Y0135688D01*
X0098839Y0135653D01*
X0098908Y0135622D01*
X0098979Y0135593D01*
X0099051Y0135569D01*
X0099124Y0135548D01*
X0099198Y0135531D01*
X0099273Y0135517D01*
X0099348Y0135508D01*
X0099424Y0135502D01*
X0099500Y0135500D01*
X0099576Y0135502D01*
X0099652Y0135508D01*
X0099727Y0135517D01*
X0099802Y0135531D01*
X0099876Y0135548D01*
X0099949Y0135569D01*
X0100021Y0135593D01*
X0100092Y0135622D01*
X0100161Y0135653D01*
X0100228Y0135688D01*
X0100293Y0135727D01*
X0100357Y0135769D01*
X0100418Y0135814D01*
X0100477Y0135862D01*
X0100533Y0135913D01*
X0100587Y0135967D01*
X0100638Y0136023D01*
X0100686Y0136082D01*
X0100731Y0136143D01*
X0100773Y0136207D01*
X0100812Y0136272D01*
X0100847Y0136339D01*
X0100878Y0136408D01*
X0100907Y0136479D01*
X0100931Y0136551D01*
X0100952Y0136624D01*
X0100969Y0136698D01*
X0100983Y0136773D01*
X0100992Y0136848D01*
X0100998Y0136924D01*
X0101000Y0137000D01*
X0106980Y0118051D02*
X0092020Y0118051D01*
X0072100Y0115000D02*
X0072100Y0140000D01*
X0046900Y0140000D01*
X0046900Y0115000D01*
X0072100Y0115000D01*
X0067500Y0119500D02*
X0051500Y0119500D01*
X0051500Y0125500D01*
X0067500Y0125500D01*
X0067500Y0119500D01*
X0067500Y0129500D02*
X0051500Y0129500D01*
X0051500Y0135500D01*
X0067500Y0135500D01*
X0067500Y0129500D01*
D57*
X0177873Y0150100D02*
X0179675Y0150100D01*
X0178774Y0150100D02*
X0178474Y0150400D01*
X0178474Y0151001D01*
X0178774Y0151301D01*
X0179675Y0151301D01*
X0179375Y0152242D02*
X0179675Y0152542D01*
X0179375Y0152242D02*
X0178174Y0152242D01*
X0178474Y0151942D02*
X0178474Y0152542D01*
X0178474Y0153169D02*
X0178474Y0153770D01*
X0178174Y0153470D02*
X0179375Y0153470D01*
X0179675Y0153770D01*
X0179675Y0154397D02*
X0179675Y0155298D01*
X0179375Y0155598D01*
X0178774Y0155598D01*
X0178474Y0155298D01*
X0178474Y0154397D01*
X0180276Y0154397D01*
X0179675Y0156239D02*
X0179375Y0156239D01*
X0179375Y0156539D01*
X0179675Y0156539D01*
X0179675Y0156239D01*
X0178774Y0156239D02*
X0178474Y0156239D01*
X0178474Y0156539D01*
X0178774Y0156539D01*
X0178774Y0156239D01*
X0179675Y0157159D02*
X0177873Y0158360D01*
X0177873Y0160202D02*
X0179675Y0159001D01*
X0179675Y0160842D02*
X0178474Y0160842D01*
X0178474Y0161143D01*
X0178774Y0161443D01*
X0178474Y0161743D01*
X0178774Y0162044D01*
X0179675Y0162044D01*
X0179675Y0161443D02*
X0178774Y0161443D01*
X0178774Y0162684D02*
X0178474Y0162984D01*
X0178474Y0163585D01*
X0178774Y0163885D01*
X0179074Y0163885D01*
X0179074Y0162684D01*
X0178774Y0162684D02*
X0179375Y0162684D01*
X0179675Y0162984D01*
X0179675Y0163585D01*
X0179675Y0164526D02*
X0179675Y0165126D01*
X0179675Y0164826D02*
X0177873Y0164826D01*
X0177873Y0164526D01*
X0178474Y0165753D02*
X0178474Y0166054D01*
X0179675Y0166054D01*
X0179675Y0166354D02*
X0179675Y0165753D01*
X0179675Y0166981D02*
X0179675Y0168182D01*
X0179375Y0168823D02*
X0179074Y0169123D01*
X0179074Y0170024D01*
X0178774Y0170024D02*
X0179675Y0170024D01*
X0179675Y0169123D01*
X0179375Y0168823D01*
X0178474Y0169123D02*
X0178474Y0169723D01*
X0178774Y0170024D01*
X0179375Y0170664D02*
X0179375Y0170964D01*
X0179675Y0170964D01*
X0179675Y0170664D01*
X0179375Y0170664D01*
X0179375Y0171585D02*
X0179675Y0171885D01*
X0179675Y0172486D01*
X0179375Y0172786D01*
X0178774Y0172786D01*
X0178474Y0172486D01*
X0178474Y0171885D01*
X0178774Y0171585D01*
X0179375Y0171585D01*
X0179675Y0173427D02*
X0178474Y0173427D01*
X0178474Y0174027D02*
X0178474Y0174327D01*
X0178474Y0174027D02*
X0179074Y0173427D01*
X0178774Y0174961D02*
X0179375Y0174961D01*
X0179675Y0175261D01*
X0179675Y0176162D01*
X0179975Y0176162D02*
X0178474Y0176162D01*
X0178474Y0175261D01*
X0178774Y0174961D01*
X0180276Y0175562D02*
X0180276Y0175862D01*
X0179975Y0176162D01*
X0179675Y0176803D02*
X0177873Y0178004D01*
X0178774Y0178644D02*
X0178474Y0178945D01*
X0178474Y0179845D01*
X0178474Y0180486D02*
X0178474Y0181086D01*
X0178174Y0180786D02*
X0179375Y0180786D01*
X0179675Y0181086D01*
X0179375Y0181714D02*
X0179074Y0182014D01*
X0179074Y0182915D01*
X0178774Y0182915D02*
X0179675Y0182915D01*
X0179675Y0182014D01*
X0179375Y0181714D01*
X0178474Y0182014D02*
X0178474Y0182614D01*
X0178774Y0182915D01*
X0178474Y0183555D02*
X0179675Y0183555D01*
X0179074Y0183555D02*
X0178474Y0184156D01*
X0178474Y0184456D01*
X0178474Y0185090D02*
X0178474Y0185991D01*
X0178774Y0186291D01*
X0179375Y0186291D01*
X0179675Y0185991D01*
X0179675Y0185090D01*
X0177873Y0185090D01*
X0178774Y0186931D02*
X0179375Y0186931D01*
X0179675Y0187232D01*
X0179675Y0187832D01*
X0179375Y0188132D01*
X0178774Y0188132D01*
X0178474Y0187832D01*
X0178474Y0187232D01*
X0178774Y0186931D01*
X0179375Y0188773D02*
X0179074Y0189073D01*
X0179074Y0189974D01*
X0178774Y0189974D02*
X0179675Y0189974D01*
X0179675Y0189073D01*
X0179375Y0188773D01*
X0178474Y0189073D02*
X0178474Y0189674D01*
X0178774Y0189974D01*
X0178474Y0190615D02*
X0179675Y0190615D01*
X0179074Y0190615D02*
X0178474Y0191215D01*
X0178474Y0191515D01*
X0178774Y0192149D02*
X0178474Y0192449D01*
X0178474Y0193350D01*
X0177873Y0193350D02*
X0179675Y0193350D01*
X0179675Y0192449D01*
X0179375Y0192149D01*
X0178774Y0192149D01*
X0179375Y0179845D02*
X0179074Y0179545D01*
X0179074Y0178945D01*
X0178774Y0178644D01*
X0179675Y0178644D02*
X0179675Y0179545D01*
X0179375Y0179845D01*
X0178474Y0168182D02*
X0179675Y0166981D01*
X0178474Y0166981D02*
X0178474Y0168182D01*
X0177873Y0166054D02*
X0177573Y0166054D01*
D58*
X0233363Y0171949D02*
X0233363Y0179617D01*
X0238319Y0179617D01*
X0256823Y0179617D02*
X0276689Y0179617D01*
X0276689Y0145383D01*
X0233363Y0145383D01*
X0233363Y0153051D01*
X0229000Y0130402D02*
X0215000Y0130402D01*
X0215000Y0104598D01*
X0229000Y0104598D01*
X0229000Y0130402D01*
X0229000Y0100402D02*
X0215000Y0100402D01*
X0215000Y0074598D01*
X0229000Y0074598D01*
X0229000Y0100402D01*
X0229000Y0070402D02*
X0215000Y0070402D01*
X0215000Y0044598D01*
X0229000Y0044598D01*
X0229000Y0070402D01*
X0141900Y0075981D02*
X0141900Y0077382D01*
X0141199Y0078083D01*
X0140499Y0079884D02*
X0140499Y0081986D01*
X0139798Y0082687D01*
X0138397Y0082687D01*
X0137696Y0081986D01*
X0137696Y0079884D01*
X0141900Y0079884D01*
X0138397Y0078083D02*
X0137696Y0077382D01*
X0137696Y0075981D01*
X0138397Y0075280D01*
X0141199Y0075280D01*
X0141900Y0075981D01*
X0141900Y0084488D02*
X0137696Y0084488D01*
X0137696Y0087291D01*
X0138397Y0089092D02*
X0141199Y0089092D01*
X0141900Y0089793D01*
X0141900Y0091194D01*
X0141199Y0091894D01*
X0140499Y0093696D02*
X0137696Y0096498D01*
X0137696Y0093696D02*
X0141900Y0093696D01*
X0139798Y0094397D02*
X0141900Y0096498D01*
X0138397Y0091894D02*
X0137696Y0091194D01*
X0137696Y0089793D01*
X0138397Y0089092D01*
X0141900Y0087291D02*
X0141900Y0084488D01*
X0139798Y0084488D02*
X0139798Y0085889D01*
X0141600Y0057098D02*
X0139498Y0054997D01*
X0140199Y0054296D02*
X0137396Y0057098D01*
X0137396Y0054296D02*
X0141600Y0054296D01*
X0140899Y0052494D02*
X0141600Y0051794D01*
X0141600Y0050393D01*
X0140899Y0049692D01*
X0138097Y0049692D01*
X0137396Y0050393D01*
X0137396Y0051794D01*
X0138097Y0052494D01*
X0137396Y0047891D02*
X0137396Y0045088D01*
X0141600Y0045088D01*
X0141600Y0047891D01*
X0139498Y0046489D02*
X0139498Y0045088D01*
X0139498Y0043287D02*
X0138097Y0043287D01*
X0137396Y0042586D01*
X0137396Y0040484D01*
X0141600Y0040484D01*
X0140199Y0040484D02*
X0140199Y0042586D01*
X0139498Y0043287D01*
X0139498Y0038683D02*
X0138097Y0038683D01*
X0137396Y0037982D01*
X0137396Y0035880D01*
X0141600Y0035880D01*
X0140199Y0035880D02*
X0140199Y0037982D01*
X0139498Y0038683D01*
X0140199Y0037282D02*
X0141600Y0038683D01*
X0080925Y0038391D02*
X0076721Y0038391D01*
X0077422Y0040192D02*
X0080224Y0040192D01*
X0080925Y0040893D01*
X0080925Y0042294D01*
X0080224Y0042995D01*
X0077422Y0042995D01*
X0076721Y0042294D01*
X0076721Y0040893D01*
X0077422Y0040192D01*
X0078823Y0038391D02*
X0078823Y0035588D01*
X0080925Y0035588D02*
X0076721Y0035588D01*
X0076721Y0044796D02*
X0076721Y0046898D01*
X0077422Y0047598D01*
X0078823Y0047598D01*
X0079524Y0046898D01*
X0079524Y0044796D01*
X0080925Y0044796D02*
X0076721Y0044796D01*
X0059146Y0044035D02*
X0039854Y0044035D01*
X0039854Y0060965D01*
X0059146Y0060965D01*
X0059146Y0044035D01*
X0076721Y0075400D02*
X0080925Y0075400D01*
X0080925Y0078202D01*
X0080925Y0080004D02*
X0076721Y0080004D01*
X0076721Y0082106D01*
X0077422Y0082806D01*
X0078823Y0082806D01*
X0079524Y0082106D01*
X0079524Y0080004D01*
X0078823Y0084608D02*
X0078823Y0086009D01*
X0076721Y0084608D02*
X0080925Y0084608D01*
X0080925Y0087410D01*
X0080224Y0089212D02*
X0077422Y0089212D01*
X0076721Y0089912D01*
X0076721Y0091314D01*
X0077422Y0092014D01*
X0076721Y0093816D02*
X0080925Y0093816D01*
X0079524Y0093816D02*
X0076721Y0096618D01*
X0078823Y0094516D02*
X0080925Y0096618D01*
X0080224Y0092014D02*
X0080925Y0091314D01*
X0080925Y0089912D01*
X0080224Y0089212D01*
X0076721Y0087410D02*
X0076721Y0084608D01*
X0069146Y0086535D02*
X0049854Y0086535D01*
X0049854Y0103465D01*
X0069146Y0103465D01*
X0069146Y0086535D01*
X0007600Y0095985D02*
X0007600Y0097386D01*
X0006899Y0098087D01*
X0006899Y0099888D02*
X0007600Y0100589D01*
X0007600Y0101990D01*
X0006899Y0102691D01*
X0006899Y0104492D02*
X0003396Y0104492D01*
X0004097Y0102691D02*
X0003396Y0101990D01*
X0003396Y0100589D01*
X0004097Y0099888D01*
X0006899Y0099888D01*
X0004097Y0098087D02*
X0003396Y0097386D01*
X0003396Y0095985D01*
X0004097Y0095284D01*
X0006899Y0095284D01*
X0007600Y0095985D01*
X0006899Y0104492D02*
X0007600Y0105193D01*
X0007600Y0106594D01*
X0006899Y0107295D01*
X0003396Y0107295D01*
X0003396Y0109096D02*
X0007600Y0109096D01*
X0007600Y0111898D01*
X0005498Y0110497D02*
X0005498Y0109096D01*
X0003396Y0109096D02*
X0003396Y0111898D01*
X0003296Y0137525D02*
X0003296Y0139627D01*
X0003997Y0140327D01*
X0005398Y0140327D01*
X0006099Y0139627D01*
X0006099Y0137525D01*
X0007500Y0137525D02*
X0003296Y0137525D01*
X0006099Y0138926D02*
X0007500Y0140327D01*
X0006799Y0142129D02*
X0007500Y0142830D01*
X0007500Y0144231D01*
X0006799Y0144931D01*
X0006799Y0146733D02*
X0003296Y0146733D01*
X0003997Y0144931D02*
X0003296Y0144231D01*
X0003296Y0142830D01*
X0003997Y0142129D01*
X0006799Y0142129D01*
X0006799Y0146733D02*
X0007500Y0147433D01*
X0007500Y0148835D01*
X0006799Y0149535D01*
X0003296Y0149535D01*
X0003296Y0151337D02*
X0007500Y0151337D01*
X0007500Y0154139D01*
X0005398Y0152738D02*
X0005398Y0151337D01*
X0003296Y0151337D02*
X0003296Y0154139D01*
X0010751Y0188325D02*
X0010050Y0189026D01*
X0010751Y0188325D02*
X0012152Y0188325D01*
X0012852Y0189026D01*
X0012852Y0189726D01*
X0012152Y0190427D01*
X0010751Y0190427D01*
X0010050Y0191127D01*
X0010050Y0191828D01*
X0010751Y0192529D01*
X0012152Y0192529D01*
X0012852Y0191828D01*
X0014654Y0192529D02*
X0014654Y0188325D01*
X0014654Y0189726D02*
X0016756Y0189726D01*
X0017456Y0190427D01*
X0017456Y0191828D01*
X0016756Y0192529D01*
X0014654Y0192529D01*
X0019258Y0192529D02*
X0019258Y0188325D01*
X0019258Y0189726D02*
X0022060Y0192529D01*
X0023862Y0192529D02*
X0023862Y0188325D01*
X0026664Y0188325D01*
X0022060Y0188325D02*
X0019958Y0190427D01*
X0078900Y0164828D02*
X0078900Y0164127D01*
X0079601Y0163427D01*
X0081002Y0163427D01*
X0081702Y0162726D01*
X0081702Y0162026D01*
X0081002Y0161325D01*
X0079601Y0161325D01*
X0078900Y0162026D01*
X0078900Y0164828D02*
X0079601Y0165529D01*
X0081002Y0165529D01*
X0081702Y0164828D01*
X0083504Y0165529D02*
X0085606Y0165529D01*
X0086306Y0164828D01*
X0086306Y0163427D01*
X0085606Y0162726D01*
X0083504Y0162726D01*
X0083504Y0161325D02*
X0083504Y0165529D01*
X0088108Y0165529D02*
X0088108Y0161325D01*
X0088108Y0162726D02*
X0090910Y0165529D01*
X0092712Y0165529D02*
X0094814Y0165529D01*
X0095514Y0164828D01*
X0095514Y0163427D01*
X0094814Y0162726D01*
X0092712Y0162726D01*
X0094113Y0162726D02*
X0095514Y0161325D01*
X0092712Y0161325D02*
X0092712Y0165529D01*
X0088808Y0163427D02*
X0090910Y0161325D01*
X0008600Y0069598D02*
X0008600Y0066796D01*
X0004396Y0066796D01*
X0004396Y0069598D01*
X0006498Y0068197D02*
X0006498Y0066796D01*
X0007899Y0064995D02*
X0004396Y0064995D01*
X0004396Y0062192D02*
X0007899Y0062192D01*
X0008600Y0062893D01*
X0008600Y0064294D01*
X0007899Y0064995D01*
X0007899Y0060391D02*
X0008600Y0059690D01*
X0008600Y0058289D01*
X0007899Y0057588D01*
X0005097Y0057588D01*
X0004396Y0058289D01*
X0004396Y0059690D01*
X0005097Y0060391D01*
X0008600Y0055787D02*
X0008600Y0052984D01*
X0004396Y0052984D01*
D59*
X0043102Y0047382D03*
X0053102Y0089882D03*
D60*
X0246927Y0156336D02*
X0248895Y0154368D01*
X0246927Y0156336D02*
X0252832Y0156336D01*
X0252832Y0154368D02*
X0252832Y0158305D01*
X0252832Y0160813D02*
X0248895Y0164750D01*
X0247911Y0164750D01*
X0246927Y0163766D01*
X0246927Y0161798D01*
X0247911Y0160813D01*
X0252832Y0160813D02*
X0252832Y0164750D01*
X0250863Y0167259D02*
X0246927Y0167259D01*
X0250863Y0167259D02*
X0252832Y0169227D01*
X0250863Y0171196D01*
X0246927Y0171196D01*
D61*
X0184880Y0105006D03*
X0179080Y0105006D03*
X0154880Y0105006D03*
X0149080Y0105006D03*
X0124880Y0105006D03*
X0119080Y0105006D03*
X0094880Y0105006D03*
X0089080Y0105006D03*
X0089080Y0065006D03*
X0094880Y0065006D03*
X0119080Y0065006D03*
X0124880Y0065006D03*
X0149080Y0065006D03*
X0154880Y0065006D03*
X0179080Y0065006D03*
X0184880Y0065006D03*
D62*
X0169008Y0065000D03*
X0109008Y0065000D03*
X0109008Y0105000D03*
X0169008Y0105000D03*
X0236508Y0105000D03*
X0236508Y0069325D03*
X0236508Y0032500D03*
D63*
X0064500Y0122500D03*
X0064500Y0132500D03*
M02*
