G75*
%MOIN*%
%OFA0B0*%
%FSLAX25Y25*%
%IPPOS*%
%LPD*%
%AMOC8*
5,1,8,0,0,1.08239X$1,22.5*
%
%ADD10C,0.00500*%
D10*
X0052000Y0005000D02*
X0284500Y0005000D01*
X0284500Y0055000D01*
X0283956Y0055007D01*
X0283413Y0055026D01*
X0282870Y0055059D01*
X0282328Y0055105D01*
X0281788Y0055164D01*
X0281249Y0055236D01*
X0280712Y0055321D01*
X0280177Y0055419D01*
X0279645Y0055530D01*
X0279115Y0055654D01*
X0278589Y0055790D01*
X0278066Y0055939D01*
X0277547Y0056101D01*
X0277032Y0056275D01*
X0276521Y0056462D01*
X0276015Y0056661D01*
X0275514Y0056872D01*
X0275018Y0057095D01*
X0274528Y0057330D01*
X0274044Y0057577D01*
X0273565Y0057836D01*
X0273093Y0058106D01*
X0272628Y0058387D01*
X0272170Y0058679D01*
X0271719Y0058983D01*
X0271275Y0059297D01*
X0270839Y0059622D01*
X0270411Y0059957D01*
X0269991Y0060303D01*
X0269580Y0060659D01*
X0269177Y0061024D01*
X0268783Y0061399D01*
X0268399Y0061783D01*
X0268024Y0062177D01*
X0267659Y0062580D01*
X0267303Y0062991D01*
X0266957Y0063411D01*
X0266622Y0063839D01*
X0266297Y0064275D01*
X0265983Y0064719D01*
X0265679Y0065170D01*
X0265387Y0065628D01*
X0265106Y0066093D01*
X0264836Y0066565D01*
X0264577Y0067044D01*
X0264330Y0067528D01*
X0264095Y0068018D01*
X0263872Y0068514D01*
X0263661Y0069015D01*
X0263462Y0069521D01*
X0263275Y0070032D01*
X0263101Y0070547D01*
X0262939Y0071066D01*
X0262790Y0071589D01*
X0262654Y0072115D01*
X0262530Y0072645D01*
X0262419Y0073177D01*
X0262321Y0073712D01*
X0262236Y0074249D01*
X0262164Y0074788D01*
X0262105Y0075328D01*
X0262059Y0075870D01*
X0262026Y0076413D01*
X0262007Y0076956D01*
X0262000Y0077500D01*
X0262000Y0132500D01*
X0262007Y0133044D01*
X0262026Y0133587D01*
X0262059Y0134130D01*
X0262105Y0134672D01*
X0262164Y0135212D01*
X0262236Y0135751D01*
X0262321Y0136288D01*
X0262419Y0136823D01*
X0262530Y0137355D01*
X0262654Y0137885D01*
X0262790Y0138411D01*
X0262939Y0138934D01*
X0263101Y0139453D01*
X0263275Y0139968D01*
X0263462Y0140479D01*
X0263661Y0140985D01*
X0263872Y0141486D01*
X0264095Y0141982D01*
X0264330Y0142472D01*
X0264577Y0142956D01*
X0264836Y0143435D01*
X0265106Y0143907D01*
X0265387Y0144372D01*
X0265679Y0144830D01*
X0265983Y0145281D01*
X0266297Y0145725D01*
X0266622Y0146161D01*
X0266957Y0146589D01*
X0267303Y0147009D01*
X0267659Y0147420D01*
X0268024Y0147823D01*
X0268399Y0148217D01*
X0268783Y0148601D01*
X0269177Y0148976D01*
X0269580Y0149341D01*
X0269991Y0149697D01*
X0270411Y0150043D01*
X0270839Y0150378D01*
X0271275Y0150703D01*
X0271719Y0151017D01*
X0272170Y0151321D01*
X0272628Y0151613D01*
X0273093Y0151894D01*
X0273565Y0152164D01*
X0274044Y0152423D01*
X0274528Y0152670D01*
X0275018Y0152905D01*
X0275514Y0153128D01*
X0276015Y0153339D01*
X0276521Y0153538D01*
X0277032Y0153725D01*
X0277547Y0153899D01*
X0278066Y0154061D01*
X0278589Y0154210D01*
X0279115Y0154346D01*
X0279645Y0154470D01*
X0280177Y0154581D01*
X0280712Y0154679D01*
X0281249Y0154764D01*
X0281788Y0154836D01*
X0282328Y0154895D01*
X0282870Y0154941D01*
X0283413Y0154974D01*
X0283956Y0154993D01*
X0284500Y0155000D01*
X0284500Y0220000D01*
X0052000Y0220000D01*
X0050792Y0219985D01*
X0049584Y0219942D01*
X0048378Y0219869D01*
X0047174Y0219767D01*
X0045973Y0219635D01*
X0044776Y0219475D01*
X0043582Y0219286D01*
X0042394Y0219069D01*
X0041211Y0218822D01*
X0040034Y0218547D01*
X0038865Y0218244D01*
X0037703Y0217912D01*
X0036549Y0217553D01*
X0035405Y0217166D01*
X0034270Y0216751D01*
X0033145Y0216309D01*
X0032032Y0215840D01*
X0030930Y0215344D01*
X0029840Y0214821D01*
X0028764Y0214273D01*
X0027701Y0213698D01*
X0026652Y0213098D01*
X0025618Y0212473D01*
X0024599Y0211824D01*
X0023597Y0211149D01*
X0022611Y0210451D01*
X0021642Y0209729D01*
X0020691Y0208984D01*
X0019758Y0208216D01*
X0018844Y0207426D01*
X0017949Y0206613D01*
X0017074Y0205780D01*
X0016220Y0204926D01*
X0015387Y0204051D01*
X0014574Y0203156D01*
X0013784Y0202242D01*
X0013016Y0201309D01*
X0012271Y0200358D01*
X0011549Y0199389D01*
X0010851Y0198403D01*
X0010176Y0197401D01*
X0009527Y0196382D01*
X0008902Y0195348D01*
X0008302Y0194299D01*
X0007727Y0193236D01*
X0007179Y0192160D01*
X0006656Y0191070D01*
X0006160Y0189968D01*
X0005691Y0188855D01*
X0005249Y0187730D01*
X0004834Y0186595D01*
X0004447Y0185451D01*
X0004088Y0184297D01*
X0003756Y0183135D01*
X0003453Y0181966D01*
X0003178Y0180789D01*
X0002931Y0179606D01*
X0002714Y0178418D01*
X0002525Y0177224D01*
X0002365Y0176027D01*
X0002233Y0174826D01*
X0002131Y0173622D01*
X0002058Y0172416D01*
X0002015Y0171208D01*
X0002000Y0170000D01*
X0002000Y0055000D01*
X0002015Y0053792D01*
X0002058Y0052584D01*
X0002131Y0051378D01*
X0002233Y0050174D01*
X0002365Y0048973D01*
X0002525Y0047776D01*
X0002714Y0046582D01*
X0002931Y0045394D01*
X0003178Y0044211D01*
X0003453Y0043034D01*
X0003756Y0041865D01*
X0004088Y0040703D01*
X0004447Y0039549D01*
X0004834Y0038405D01*
X0005249Y0037270D01*
X0005691Y0036145D01*
X0006160Y0035032D01*
X0006656Y0033930D01*
X0007179Y0032840D01*
X0007727Y0031764D01*
X0008302Y0030701D01*
X0008902Y0029652D01*
X0009527Y0028618D01*
X0010176Y0027599D01*
X0010851Y0026597D01*
X0011549Y0025611D01*
X0012271Y0024642D01*
X0013016Y0023691D01*
X0013784Y0022758D01*
X0014574Y0021844D01*
X0015387Y0020949D01*
X0016220Y0020074D01*
X0017074Y0019220D01*
X0017949Y0018387D01*
X0018844Y0017574D01*
X0019758Y0016784D01*
X0020691Y0016016D01*
X0021642Y0015271D01*
X0022611Y0014549D01*
X0023597Y0013851D01*
X0024599Y0013176D01*
X0025618Y0012527D01*
X0026652Y0011902D01*
X0027701Y0011302D01*
X0028764Y0010727D01*
X0029840Y0010179D01*
X0030930Y0009656D01*
X0032032Y0009160D01*
X0033145Y0008691D01*
X0034270Y0008249D01*
X0035405Y0007834D01*
X0036549Y0007447D01*
X0037703Y0007088D01*
X0038865Y0006756D01*
X0040034Y0006453D01*
X0041211Y0006178D01*
X0042394Y0005931D01*
X0043582Y0005714D01*
X0044776Y0005525D01*
X0045973Y0005365D01*
X0047174Y0005233D01*
X0048378Y0005131D01*
X0049584Y0005058D01*
X0050792Y0005015D01*
X0052000Y0005000D01*
M02*
