G75*
%MOIN*%
%OFA0B0*%
%FSLAX25Y25*%
%IPPOS*%
%LPD*%
%AMOC8*
5,1,8,0,0,1.08239X$1,22.5*
%
%ADD10C,0.00300*%
%ADD11R,0.05906X0.05906*%
%ADD12C,0.05906*%
%ADD13C,0.16598*%
%ADD14C,0.16200*%
%ADD15C,0.05906*%
%ADD16OC8,0.10050*%
%ADD17C,0.03369*%
%ADD18C,0.02700*%
%ADD19C,0.03762*%
%ADD20C,0.01200*%
%ADD21C,0.01000*%
%ADD22C,0.01600*%
%ADD23C,0.03200*%
D10*
X0004150Y0118650D02*
X0006619Y0121119D01*
X0007236Y0121119D01*
X0007853Y0120502D01*
X0007853Y0119267D01*
X0007236Y0118650D01*
X0004150Y0118650D02*
X0004150Y0121119D01*
X0004767Y0122333D02*
X0007236Y0124802D01*
X0004767Y0124802D01*
X0004150Y0124185D01*
X0004150Y0122950D01*
X0004767Y0122333D01*
X0007236Y0122333D01*
X0007853Y0122950D01*
X0007853Y0124185D01*
X0007236Y0124802D01*
X0006619Y0126016D02*
X0007853Y0127251D01*
X0004150Y0127251D01*
X0004150Y0128485D02*
X0004150Y0126016D01*
X0004767Y0129699D02*
X0004150Y0130317D01*
X0004150Y0131551D01*
X0004767Y0132168D01*
X0006002Y0132168D01*
X0006619Y0131551D01*
X0006619Y0130934D01*
X0006002Y0129699D01*
X0007853Y0129699D01*
X0007853Y0132168D01*
X0006002Y0133383D02*
X0006002Y0135851D01*
X0007236Y0137066D02*
X0007853Y0137683D01*
X0007853Y0138917D01*
X0007236Y0139534D01*
X0006619Y0139534D01*
X0006002Y0138917D01*
X0005384Y0139534D01*
X0004767Y0139534D01*
X0004150Y0138917D01*
X0004150Y0137683D01*
X0004767Y0137066D01*
X0006002Y0138300D02*
X0006002Y0138917D01*
D11*
X0267000Y0212500D03*
X0267000Y0022500D03*
D12*
X0257000Y0022500D03*
X0247000Y0022500D03*
X0237000Y0022500D03*
X0227000Y0022500D03*
X0217000Y0022500D03*
X0207000Y0022500D03*
X0197000Y0022500D03*
X0187000Y0022500D03*
X0177000Y0022500D03*
X0167000Y0022500D03*
X0157000Y0022500D03*
X0147000Y0022500D03*
X0137000Y0022500D03*
X0127000Y0022500D03*
X0117000Y0022500D03*
X0107000Y0022500D03*
X0097000Y0022500D03*
X0087000Y0022500D03*
X0077000Y0022500D03*
X0067000Y0022500D03*
X0057000Y0022500D03*
X0047000Y0022500D03*
X0047000Y0012500D03*
X0057000Y0012500D03*
X0067000Y0012500D03*
X0077000Y0012500D03*
X0087000Y0012500D03*
X0097000Y0012500D03*
X0107000Y0012500D03*
X0117000Y0012500D03*
X0127000Y0012500D03*
X0137000Y0012500D03*
X0147000Y0012500D03*
X0157000Y0012500D03*
X0167000Y0012500D03*
X0177000Y0012500D03*
X0187000Y0012500D03*
X0197000Y0012500D03*
X0207000Y0012500D03*
X0217000Y0012500D03*
X0227000Y0012500D03*
X0237000Y0012500D03*
X0247000Y0012500D03*
X0257000Y0012500D03*
X0267000Y0012500D03*
X0267000Y0202500D03*
X0257000Y0202500D03*
X0247000Y0202500D03*
X0237000Y0202500D03*
X0227000Y0202500D03*
X0217000Y0202500D03*
X0207000Y0202500D03*
X0197000Y0202500D03*
X0187000Y0202500D03*
X0177000Y0202500D03*
X0167000Y0202500D03*
X0157000Y0202500D03*
X0147000Y0202500D03*
X0137000Y0202500D03*
X0127000Y0202500D03*
X0117000Y0202500D03*
X0107000Y0202500D03*
X0097000Y0202500D03*
X0087000Y0202500D03*
X0077000Y0202500D03*
X0067000Y0202500D03*
X0057000Y0202500D03*
X0047000Y0202500D03*
X0047000Y0212500D03*
X0057000Y0212500D03*
X0067000Y0212500D03*
X0077000Y0212500D03*
X0087000Y0212500D03*
X0097000Y0212500D03*
X0107000Y0212500D03*
X0117000Y0212500D03*
X0127000Y0212500D03*
X0137000Y0212500D03*
X0147000Y0212500D03*
X0157000Y0212500D03*
X0167000Y0212500D03*
X0177000Y0212500D03*
X0187000Y0212500D03*
X0197000Y0212500D03*
X0207000Y0212500D03*
X0217000Y0212500D03*
X0227000Y0212500D03*
X0237000Y0212500D03*
X0247000Y0212500D03*
X0257000Y0212500D03*
D13*
X0234863Y0162500D03*
D14*
X0263685Y0162600D03*
X0247374Y0182309D03*
D15*
X0244500Y0125453D02*
X0244500Y0119547D01*
X0254500Y0119547D02*
X0254500Y0125453D01*
X0255000Y0087896D02*
X0255000Y0081990D01*
X0245000Y0081990D02*
X0245000Y0087896D01*
X0243825Y0051603D02*
X0243825Y0045697D01*
X0253825Y0045697D02*
X0253825Y0051603D01*
X0187000Y0050453D02*
X0187000Y0044547D01*
X0177000Y0044547D02*
X0177000Y0050453D01*
X0167000Y0050453D02*
X0167000Y0044547D01*
X0157000Y0044547D02*
X0157000Y0050453D01*
X0147000Y0050453D02*
X0147000Y0044547D01*
X0127000Y0044547D02*
X0127000Y0050453D01*
X0117000Y0050453D02*
X0117000Y0044547D01*
X0107000Y0044547D02*
X0107000Y0050453D01*
X0097000Y0050453D02*
X0097000Y0044547D01*
X0087000Y0044547D02*
X0087000Y0050453D01*
X0087000Y0084547D02*
X0087000Y0090453D01*
X0097000Y0090453D02*
X0097000Y0084547D01*
X0107000Y0084547D02*
X0107000Y0090453D01*
X0117000Y0090453D02*
X0117000Y0084547D01*
X0127000Y0084547D02*
X0127000Y0090453D01*
X0147000Y0090453D02*
X0147000Y0084547D01*
X0157000Y0084547D02*
X0157000Y0090453D01*
X0167000Y0090453D02*
X0167000Y0084547D01*
X0177000Y0084547D02*
X0177000Y0090453D01*
X0187000Y0090453D02*
X0187000Y0084547D01*
X0089953Y0172500D02*
X0084047Y0172500D01*
X0084047Y0182500D02*
X0089953Y0182500D01*
X0024953Y0150000D02*
X0019047Y0150000D01*
X0019047Y0140000D02*
X0024953Y0140000D01*
X0024953Y0130000D02*
X0019047Y0130000D01*
X0019047Y0120000D02*
X0024953Y0120000D01*
X0024953Y0107500D02*
X0019047Y0107500D01*
X0019047Y0097500D02*
X0024953Y0097500D01*
X0024953Y0087500D02*
X0019047Y0087500D01*
X0019047Y0077500D02*
X0024953Y0077500D01*
X0024953Y0065000D02*
X0019047Y0065000D01*
X0019047Y0055000D02*
X0024953Y0055000D01*
X0024953Y0045000D02*
X0019047Y0045000D01*
X0019047Y0035000D02*
X0024953Y0035000D01*
X0022453Y0172500D02*
X0016547Y0172500D01*
X0016547Y0182500D02*
X0022453Y0182500D01*
D16*
X0025743Y0198508D03*
X0277000Y0190000D03*
X0275806Y0045648D03*
D17*
X0112000Y0147500D03*
X0104500Y0165000D03*
X0153000Y0151500D03*
X0157000Y0151500D03*
X0161000Y0151500D03*
X0165000Y0151500D03*
X0195000Y0152500D03*
X0199000Y0152500D03*
X0199000Y0156500D03*
X0195000Y0156500D03*
X0215500Y0163500D03*
X0219500Y0163500D03*
X0217500Y0167500D03*
X0216000Y0180500D03*
X0082000Y0115000D03*
X0052000Y0127500D03*
X0049500Y0110000D03*
X0067000Y0090000D03*
X0057000Y0035000D03*
D18*
X0119500Y0117500D03*
X0119500Y0125000D03*
X0112000Y0160000D03*
X0112000Y0165000D03*
X0124500Y0165000D03*
X0129500Y0160000D03*
X0194500Y0185000D03*
X0042000Y0157500D03*
X0039500Y0163850D03*
D19*
X0034500Y0170000D03*
X0102000Y0195000D03*
X0157000Y0195000D03*
X0192000Y0190675D03*
X0189500Y0110000D03*
X0204500Y0102500D03*
X0204500Y0072500D03*
X0217000Y0040000D03*
X0142000Y0110000D03*
D20*
X0062000Y0165000D02*
X0042866Y0165000D01*
X0042510Y0165861D01*
X0041511Y0166860D01*
X0040206Y0167400D01*
X0039500Y0167400D01*
X0039500Y0167500D01*
X0023846Y0167500D01*
X0025372Y0168132D01*
X0026821Y0169581D01*
X0027605Y0171475D01*
X0027605Y0173525D01*
X0026821Y0175419D01*
X0025372Y0176868D01*
X0023846Y0177500D01*
X0025372Y0178132D01*
X0026821Y0179581D01*
X0027605Y0181475D01*
X0027605Y0183525D01*
X0026821Y0185419D01*
X0025372Y0186868D01*
X0023478Y0187653D01*
X0015522Y0187653D01*
X0013628Y0186868D01*
X0012179Y0185419D01*
X0012000Y0184987D01*
X0012000Y0195592D01*
X0015843Y0200881D01*
X0021119Y0206157D01*
X0022967Y0207500D01*
X0039500Y0207500D01*
X0039500Y0195000D01*
X0097919Y0195000D01*
X0097919Y0194188D01*
X0098540Y0192688D01*
X0099688Y0191540D01*
X0101188Y0190919D01*
X0102812Y0190919D01*
X0104312Y0191540D01*
X0104500Y0191728D01*
X0104500Y0170000D01*
X0094495Y0170000D01*
X0095105Y0171475D01*
X0095105Y0173525D01*
X0094321Y0175419D01*
X0092872Y0176868D01*
X0091346Y0177500D01*
X0092872Y0178132D01*
X0094321Y0179581D01*
X0095105Y0181475D01*
X0095105Y0183525D01*
X0094321Y0185419D01*
X0092872Y0186868D01*
X0090978Y0187653D01*
X0083022Y0187653D01*
X0081128Y0186868D01*
X0079679Y0185419D01*
X0078894Y0183525D01*
X0078894Y0181475D01*
X0079679Y0179581D01*
X0081128Y0178132D01*
X0082654Y0177500D01*
X0081128Y0176868D01*
X0079679Y0175419D01*
X0078894Y0173525D01*
X0078894Y0171475D01*
X0079505Y0170000D01*
X0062000Y0170000D01*
X0062000Y0165000D01*
X0062000Y0165703D02*
X0042575Y0165703D01*
X0041408Y0166902D02*
X0062000Y0166902D01*
X0062000Y0168101D02*
X0025296Y0168101D01*
X0026539Y0169299D02*
X0062000Y0169299D01*
X0078894Y0171696D02*
X0027605Y0171696D01*
X0027605Y0172895D02*
X0078894Y0172895D01*
X0079130Y0174093D02*
X0027370Y0174093D01*
X0026874Y0175292D02*
X0079626Y0175292D01*
X0080750Y0176490D02*
X0025750Y0176490D01*
X0024302Y0177689D02*
X0082198Y0177689D01*
X0080373Y0178887D02*
X0026127Y0178887D01*
X0027030Y0180086D02*
X0079470Y0180086D01*
X0078974Y0181284D02*
X0027526Y0181284D01*
X0027605Y0182483D02*
X0078894Y0182483D01*
X0078959Y0183681D02*
X0027541Y0183681D01*
X0027044Y0184880D02*
X0079456Y0184880D01*
X0080338Y0186078D02*
X0026162Y0186078D01*
X0024386Y0187277D02*
X0082114Y0187277D01*
X0091886Y0187277D02*
X0104500Y0187277D01*
X0104500Y0188475D02*
X0012000Y0188475D01*
X0012000Y0187277D02*
X0014614Y0187277D01*
X0012838Y0186078D02*
X0012000Y0186078D01*
X0012000Y0189674D02*
X0104500Y0189674D01*
X0104500Y0190872D02*
X0012000Y0190872D01*
X0012000Y0192071D02*
X0022811Y0192071D01*
X0022999Y0191883D02*
X0025143Y0191883D01*
X0025143Y0197908D01*
X0019118Y0197908D01*
X0019118Y0195764D01*
X0022999Y0191883D01*
X0021613Y0193269D02*
X0012000Y0193269D01*
X0012000Y0194468D02*
X0020414Y0194468D01*
X0019216Y0195666D02*
X0012054Y0195666D01*
X0012925Y0196865D02*
X0019118Y0196865D01*
X0019118Y0199108D02*
X0025143Y0199108D01*
X0025143Y0197908D01*
X0026343Y0197908D01*
X0026343Y0191883D01*
X0028488Y0191883D01*
X0032368Y0195764D01*
X0032368Y0197908D01*
X0026344Y0197908D01*
X0026344Y0199108D01*
X0032368Y0199108D01*
X0032368Y0201252D01*
X0028488Y0205133D01*
X0026343Y0205133D01*
X0026343Y0199108D01*
X0025143Y0199108D01*
X0025143Y0205133D01*
X0022999Y0205133D01*
X0019118Y0201252D01*
X0019118Y0199108D01*
X0019118Y0199262D02*
X0014666Y0199262D01*
X0015537Y0200460D02*
X0019118Y0200460D01*
X0019525Y0201659D02*
X0016620Y0201659D01*
X0017819Y0202857D02*
X0020724Y0202857D01*
X0021922Y0204056D02*
X0019017Y0204056D01*
X0020216Y0205254D02*
X0039500Y0205254D01*
X0039500Y0204056D02*
X0029565Y0204056D01*
X0030763Y0202857D02*
X0039500Y0202857D01*
X0039500Y0201659D02*
X0031962Y0201659D01*
X0032368Y0200460D02*
X0039500Y0200460D01*
X0039500Y0199262D02*
X0032368Y0199262D01*
X0032368Y0196865D02*
X0039500Y0196865D01*
X0039500Y0198063D02*
X0026344Y0198063D01*
X0026343Y0196865D02*
X0025143Y0196865D01*
X0025143Y0198063D02*
X0013795Y0198063D01*
X0021526Y0206453D02*
X0039500Y0206453D01*
X0026343Y0204056D02*
X0025143Y0204056D01*
X0025143Y0202857D02*
X0026343Y0202857D01*
X0026343Y0201659D02*
X0025143Y0201659D01*
X0025143Y0200460D02*
X0026343Y0200460D01*
X0026343Y0199262D02*
X0025143Y0199262D01*
X0025143Y0195666D02*
X0026343Y0195666D01*
X0026343Y0194468D02*
X0025143Y0194468D01*
X0025143Y0193269D02*
X0026343Y0193269D01*
X0026343Y0192071D02*
X0025143Y0192071D01*
X0028676Y0192071D02*
X0099158Y0192071D01*
X0098300Y0193269D02*
X0029874Y0193269D01*
X0031073Y0194468D02*
X0097919Y0194468D01*
X0093662Y0186078D02*
X0104500Y0186078D01*
X0104500Y0184880D02*
X0094544Y0184880D01*
X0095041Y0183681D02*
X0104500Y0183681D01*
X0104500Y0182483D02*
X0095105Y0182483D01*
X0095026Y0181284D02*
X0104500Y0181284D01*
X0104500Y0180086D02*
X0094530Y0180086D01*
X0093627Y0178887D02*
X0104500Y0178887D01*
X0104500Y0177689D02*
X0091802Y0177689D01*
X0093250Y0176490D02*
X0104500Y0176490D01*
X0104500Y0175292D02*
X0094374Y0175292D01*
X0094870Y0174093D02*
X0104500Y0174093D01*
X0104500Y0172895D02*
X0095105Y0172895D01*
X0095105Y0171696D02*
X0104500Y0171696D01*
X0104500Y0170498D02*
X0094701Y0170498D01*
X0079299Y0170498D02*
X0027201Y0170498D01*
X0032271Y0195666D02*
X0039500Y0195666D01*
X0072000Y0215000D02*
X0074500Y0217500D01*
X0189500Y0217500D01*
X0192000Y0215000D01*
D21*
X0012000Y0165000D02*
X0012000Y0030000D01*
X0017915Y0030000D01*
X0016185Y0030716D01*
X0014764Y0032138D01*
X0013994Y0033995D01*
X0013994Y0036005D01*
X0014764Y0037862D01*
X0016185Y0039284D01*
X0017915Y0040000D01*
X0016185Y0040716D01*
X0014764Y0042138D01*
X0013994Y0043995D01*
X0013994Y0046005D01*
X0014764Y0047862D01*
X0016185Y0049284D01*
X0017915Y0050000D01*
X0016185Y0050716D01*
X0014764Y0052138D01*
X0013994Y0053995D01*
X0013994Y0056005D01*
X0014764Y0057862D01*
X0016185Y0059284D01*
X0017915Y0060000D01*
X0016185Y0060716D01*
X0014764Y0062138D01*
X0013994Y0063995D01*
X0013994Y0066005D01*
X0014764Y0067862D01*
X0016185Y0069284D01*
X0018042Y0070053D01*
X0025958Y0070053D01*
X0027815Y0069284D01*
X0029236Y0067862D01*
X0030005Y0066005D01*
X0030005Y0063995D01*
X0029236Y0062138D01*
X0027815Y0060716D01*
X0026085Y0060000D01*
X0027815Y0059284D01*
X0029236Y0057862D01*
X0030005Y0056005D01*
X0030005Y0053995D01*
X0029236Y0052138D01*
X0027815Y0050716D01*
X0026085Y0050000D01*
X0027815Y0049284D01*
X0029236Y0047862D01*
X0030005Y0046005D01*
X0030005Y0043995D01*
X0029236Y0042138D01*
X0027815Y0040716D01*
X0026085Y0040000D01*
X0027815Y0039284D01*
X0029236Y0037862D01*
X0030005Y0036005D01*
X0030005Y0033995D01*
X0029236Y0032138D01*
X0027815Y0030716D01*
X0026085Y0030000D01*
X0262000Y0030000D01*
X0262000Y0023632D01*
X0262053Y0023505D01*
X0262053Y0021495D01*
X0262000Y0021368D01*
X0262000Y0013632D01*
X0262053Y0013505D01*
X0262053Y0011495D01*
X0262000Y0011368D01*
X0262000Y0007500D01*
X0282000Y0007500D01*
X0262000Y0007500D01*
X0262000Y0008499D02*
X0282000Y0008499D01*
X0282000Y0009497D02*
X0262000Y0009497D01*
X0262000Y0010496D02*
X0282000Y0010496D01*
X0282000Y0011494D02*
X0262052Y0011494D01*
X0262053Y0012493D02*
X0282000Y0012493D01*
X0282000Y0013491D02*
X0262053Y0013491D01*
X0262000Y0014490D02*
X0282000Y0014490D01*
X0282000Y0015488D02*
X0262000Y0015488D01*
X0262000Y0016487D02*
X0282000Y0016487D01*
X0282000Y0017485D02*
X0262000Y0017485D01*
X0262000Y0018484D02*
X0282000Y0018484D01*
X0282000Y0019482D02*
X0262000Y0019482D01*
X0262000Y0020481D02*
X0282000Y0020481D01*
X0282000Y0021479D02*
X0262046Y0021479D01*
X0262053Y0022478D02*
X0282000Y0022478D01*
X0282000Y0023476D02*
X0262053Y0023476D01*
X0262000Y0024475D02*
X0282000Y0024475D01*
X0282000Y0025473D02*
X0262000Y0025473D01*
X0262000Y0026472D02*
X0282000Y0026472D01*
X0282000Y0027470D02*
X0262000Y0027470D01*
X0262000Y0028469D02*
X0282000Y0028469D01*
X0282000Y0029467D02*
X0262000Y0029467D01*
X0256687Y0041414D02*
X0258109Y0042835D01*
X0258878Y0044692D01*
X0258878Y0052608D01*
X0258109Y0054465D01*
X0256687Y0055886D01*
X0254830Y0056655D01*
X0252820Y0056655D01*
X0250963Y0055886D01*
X0249541Y0054465D01*
X0248825Y0052735D01*
X0248109Y0054465D01*
X0246687Y0055886D01*
X0244830Y0056655D01*
X0242820Y0056655D01*
X0240963Y0055886D01*
X0239541Y0054465D01*
X0238772Y0052608D01*
X0238772Y0044692D01*
X0239541Y0042835D01*
X0240963Y0041414D01*
X0242820Y0040644D01*
X0244830Y0040644D01*
X0246687Y0041414D01*
X0248109Y0042835D01*
X0248825Y0044565D01*
X0249541Y0042835D01*
X0250963Y0041414D01*
X0252820Y0040644D01*
X0254830Y0040644D01*
X0256687Y0041414D01*
X0256723Y0041449D02*
X0282000Y0041449D01*
X0282000Y0040451D02*
X0170049Y0040451D01*
X0169862Y0040264D02*
X0171284Y0041685D01*
X0172053Y0043542D01*
X0172053Y0051458D01*
X0171284Y0053315D01*
X0169862Y0054736D01*
X0168005Y0055505D01*
X0165995Y0055505D01*
X0164138Y0054736D01*
X0162716Y0053315D01*
X0162000Y0051585D01*
X0161284Y0053315D01*
X0159862Y0054736D01*
X0158005Y0055505D01*
X0155995Y0055505D01*
X0154138Y0054736D01*
X0152716Y0053315D01*
X0152000Y0051585D01*
X0151284Y0053315D01*
X0149862Y0054736D01*
X0148005Y0055505D01*
X0145995Y0055505D01*
X0144138Y0054736D01*
X0142716Y0053315D01*
X0141947Y0051458D01*
X0141947Y0043542D01*
X0142716Y0041685D01*
X0144138Y0040264D01*
X0145995Y0039494D01*
X0148005Y0039494D01*
X0149862Y0040264D01*
X0151284Y0041685D01*
X0152000Y0043415D01*
X0152716Y0041685D01*
X0154138Y0040264D01*
X0155995Y0039494D01*
X0158005Y0039494D01*
X0159862Y0040264D01*
X0161284Y0041685D01*
X0162000Y0043415D01*
X0162716Y0041685D01*
X0164138Y0040264D01*
X0165995Y0039494D01*
X0168005Y0039494D01*
X0169862Y0040264D01*
X0171048Y0041449D02*
X0240927Y0041449D01*
X0239929Y0042448D02*
X0171599Y0042448D01*
X0172013Y0043446D02*
X0239288Y0043446D01*
X0238875Y0044445D02*
X0172053Y0044445D01*
X0172053Y0045443D02*
X0238772Y0045443D01*
X0238772Y0046442D02*
X0172053Y0046442D01*
X0172053Y0047440D02*
X0238772Y0047440D01*
X0238772Y0048439D02*
X0172053Y0048439D01*
X0172053Y0049437D02*
X0238772Y0049437D01*
X0238772Y0050436D02*
X0172053Y0050436D01*
X0172053Y0051434D02*
X0238772Y0051434D01*
X0238772Y0052433D02*
X0171649Y0052433D01*
X0171167Y0053432D02*
X0239113Y0053432D01*
X0239527Y0054430D02*
X0170168Y0054430D01*
X0168191Y0055429D02*
X0240505Y0055429D01*
X0242268Y0056427D02*
X0029831Y0056427D01*
X0030005Y0055429D02*
X0085809Y0055429D01*
X0085995Y0055505D02*
X0084138Y0054736D01*
X0082716Y0053315D01*
X0081947Y0051458D01*
X0081947Y0043542D01*
X0082716Y0041685D01*
X0084138Y0040264D01*
X0085995Y0039494D01*
X0088005Y0039494D01*
X0089862Y0040264D01*
X0091284Y0041685D01*
X0092000Y0043415D01*
X0092716Y0041685D01*
X0094138Y0040264D01*
X0095995Y0039494D01*
X0098005Y0039494D01*
X0099862Y0040264D01*
X0101284Y0041685D01*
X0102000Y0043415D01*
X0102716Y0041685D01*
X0104138Y0040264D01*
X0105995Y0039494D01*
X0108005Y0039494D01*
X0109862Y0040264D01*
X0111284Y0041685D01*
X0112053Y0043542D01*
X0112053Y0051458D01*
X0111284Y0053315D01*
X0109862Y0054736D01*
X0108005Y0055505D01*
X0105995Y0055505D01*
X0104138Y0054736D01*
X0102716Y0053315D01*
X0102000Y0051585D01*
X0101284Y0053315D01*
X0099862Y0054736D01*
X0098005Y0055505D01*
X0095995Y0055505D01*
X0094138Y0054736D01*
X0092716Y0053315D01*
X0092000Y0051585D01*
X0091284Y0053315D01*
X0089862Y0054736D01*
X0088005Y0055505D01*
X0085995Y0055505D01*
X0088191Y0055429D02*
X0095809Y0055429D01*
X0093832Y0054430D02*
X0090168Y0054430D01*
X0091167Y0053432D02*
X0092833Y0053432D01*
X0092351Y0052433D02*
X0091649Y0052433D01*
X0098191Y0055429D02*
X0105809Y0055429D01*
X0103832Y0054430D02*
X0100168Y0054430D01*
X0101167Y0053432D02*
X0102833Y0053432D01*
X0102351Y0052433D02*
X0101649Y0052433D01*
X0108191Y0055429D02*
X0145809Y0055429D01*
X0143832Y0054430D02*
X0110168Y0054430D01*
X0111167Y0053432D02*
X0142833Y0053432D01*
X0142351Y0052433D02*
X0111649Y0052433D01*
X0112053Y0051434D02*
X0141947Y0051434D01*
X0141947Y0050436D02*
X0112053Y0050436D01*
X0112053Y0049437D02*
X0141947Y0049437D01*
X0141947Y0048439D02*
X0112053Y0048439D01*
X0112053Y0047440D02*
X0141947Y0047440D01*
X0141947Y0046442D02*
X0112053Y0046442D01*
X0112053Y0045443D02*
X0141947Y0045443D01*
X0141947Y0044445D02*
X0112053Y0044445D01*
X0112013Y0043446D02*
X0141987Y0043446D01*
X0142401Y0042448D02*
X0111599Y0042448D01*
X0111048Y0041449D02*
X0142952Y0041449D01*
X0143951Y0040451D02*
X0110049Y0040451D01*
X0103951Y0040451D02*
X0100049Y0040451D01*
X0101048Y0041449D02*
X0102952Y0041449D01*
X0102401Y0042448D02*
X0101599Y0042448D01*
X0093951Y0040451D02*
X0090049Y0040451D01*
X0091048Y0041449D02*
X0092952Y0041449D01*
X0092401Y0042448D02*
X0091599Y0042448D01*
X0083951Y0040451D02*
X0027174Y0040451D01*
X0027407Y0039452D02*
X0282000Y0039452D01*
X0282000Y0038454D02*
X0028645Y0038454D01*
X0029405Y0037455D02*
X0282000Y0037455D01*
X0282000Y0036457D02*
X0029818Y0036457D01*
X0030005Y0035458D02*
X0282000Y0035458D01*
X0282000Y0034460D02*
X0030005Y0034460D01*
X0029784Y0033461D02*
X0282000Y0033461D01*
X0282000Y0032463D02*
X0029371Y0032463D01*
X0028563Y0031464D02*
X0282000Y0031464D01*
X0282000Y0030466D02*
X0027210Y0030466D01*
X0016790Y0030466D02*
X0012000Y0030466D01*
X0012000Y0031464D02*
X0015437Y0031464D01*
X0014629Y0032463D02*
X0012000Y0032463D01*
X0012000Y0033461D02*
X0014216Y0033461D01*
X0013994Y0034460D02*
X0012000Y0034460D01*
X0012000Y0035458D02*
X0013994Y0035458D01*
X0014182Y0036457D02*
X0012000Y0036457D01*
X0012000Y0037455D02*
X0014595Y0037455D01*
X0015355Y0038454D02*
X0012000Y0038454D01*
X0012000Y0039452D02*
X0016593Y0039452D01*
X0016826Y0040451D02*
X0012000Y0040451D01*
X0012000Y0041449D02*
X0015452Y0041449D01*
X0014635Y0042448D02*
X0012000Y0042448D01*
X0012000Y0043446D02*
X0014222Y0043446D01*
X0013994Y0044445D02*
X0012000Y0044445D01*
X0012000Y0045443D02*
X0013994Y0045443D01*
X0014175Y0046442D02*
X0012000Y0046442D01*
X0012000Y0047440D02*
X0014589Y0047440D01*
X0015341Y0048439D02*
X0012000Y0048439D01*
X0012000Y0049437D02*
X0016557Y0049437D01*
X0016862Y0050436D02*
X0012000Y0050436D01*
X0012000Y0051434D02*
X0015467Y0051434D01*
X0014641Y0052433D02*
X0012000Y0052433D01*
X0012000Y0053432D02*
X0014228Y0053432D01*
X0013994Y0054430D02*
X0012000Y0054430D01*
X0012000Y0055429D02*
X0013994Y0055429D01*
X0014169Y0056427D02*
X0012000Y0056427D01*
X0012000Y0057426D02*
X0014583Y0057426D01*
X0015326Y0058424D02*
X0012000Y0058424D01*
X0012000Y0059423D02*
X0016521Y0059423D01*
X0016898Y0060421D02*
X0012000Y0060421D01*
X0012000Y0061420D02*
X0015482Y0061420D01*
X0014648Y0062418D02*
X0012000Y0062418D01*
X0012000Y0063417D02*
X0014234Y0063417D01*
X0013994Y0064415D02*
X0012000Y0064415D01*
X0012000Y0065414D02*
X0013994Y0065414D01*
X0014163Y0066412D02*
X0012000Y0066412D01*
X0012000Y0067411D02*
X0014577Y0067411D01*
X0015311Y0068409D02*
X0012000Y0068409D01*
X0012000Y0069408D02*
X0016485Y0069408D01*
X0018042Y0072447D02*
X0025958Y0072447D01*
X0027815Y0073216D01*
X0029236Y0074638D01*
X0030005Y0076495D01*
X0030005Y0078505D01*
X0029236Y0080362D01*
X0027815Y0081784D01*
X0026085Y0082500D01*
X0027815Y0083216D01*
X0029236Y0084638D01*
X0030005Y0086495D01*
X0030005Y0088505D01*
X0029236Y0090362D01*
X0027815Y0091784D01*
X0026085Y0092500D01*
X0027815Y0093216D01*
X0029236Y0094638D01*
X0030005Y0096495D01*
X0030005Y0098505D01*
X0029236Y0100362D01*
X0027815Y0101784D01*
X0026085Y0102500D01*
X0027815Y0103216D01*
X0029198Y0104600D01*
X0047577Y0104600D01*
X0048643Y0105041D01*
X0049458Y0105857D01*
X0049817Y0106216D01*
X0050253Y0106216D01*
X0051644Y0106792D01*
X0052708Y0107856D01*
X0053284Y0109247D01*
X0053284Y0110753D01*
X0052708Y0112144D01*
X0051644Y0113208D01*
X0050253Y0113784D01*
X0048747Y0113784D01*
X0047356Y0113208D01*
X0046292Y0112144D01*
X0045716Y0110753D01*
X0045716Y0110400D01*
X0029198Y0110400D01*
X0027815Y0111784D01*
X0025958Y0112553D01*
X0018042Y0112553D01*
X0016185Y0111784D01*
X0014764Y0110362D01*
X0013994Y0108505D01*
X0013994Y0106495D01*
X0014764Y0104638D01*
X0016185Y0103216D01*
X0017915Y0102500D01*
X0016185Y0101784D01*
X0014764Y0100362D01*
X0013994Y0098505D01*
X0013994Y0096495D01*
X0014764Y0094638D01*
X0016185Y0093216D01*
X0017915Y0092500D01*
X0016185Y0091784D01*
X0014764Y0090362D01*
X0013994Y0088505D01*
X0013994Y0086495D01*
X0014764Y0084638D01*
X0016185Y0083216D01*
X0017915Y0082500D01*
X0016185Y0081784D01*
X0014764Y0080362D01*
X0013994Y0078505D01*
X0013994Y0076495D01*
X0014764Y0074638D01*
X0016185Y0073216D01*
X0018042Y0072447D01*
X0016000Y0073402D02*
X0012000Y0073402D01*
X0012000Y0074400D02*
X0015001Y0074400D01*
X0014449Y0075399D02*
X0012000Y0075399D01*
X0012000Y0076397D02*
X0014035Y0076397D01*
X0013994Y0077396D02*
X0012000Y0077396D01*
X0012000Y0078394D02*
X0013994Y0078394D01*
X0014362Y0079393D02*
X0012000Y0079393D01*
X0012000Y0080391D02*
X0014793Y0080391D01*
X0015791Y0081390D02*
X0012000Y0081390D01*
X0012000Y0082388D02*
X0017645Y0082388D01*
X0016015Y0083387D02*
X0012000Y0083387D01*
X0012000Y0084385D02*
X0015016Y0084385D01*
X0014455Y0085384D02*
X0012000Y0085384D01*
X0012000Y0086382D02*
X0014041Y0086382D01*
X0013994Y0087381D02*
X0012000Y0087381D01*
X0012000Y0088379D02*
X0013994Y0088379D01*
X0014356Y0089378D02*
X0012000Y0089378D01*
X0012000Y0090376D02*
X0014778Y0090376D01*
X0015777Y0091375D02*
X0012000Y0091375D01*
X0012000Y0092373D02*
X0017609Y0092373D01*
X0016030Y0093372D02*
X0012000Y0093372D01*
X0012000Y0094370D02*
X0015031Y0094370D01*
X0014461Y0095369D02*
X0012000Y0095369D01*
X0012000Y0096368D02*
X0014047Y0096368D01*
X0013994Y0097366D02*
X0012000Y0097366D01*
X0012000Y0098365D02*
X0013994Y0098365D01*
X0014350Y0099363D02*
X0012000Y0099363D01*
X0012000Y0100362D02*
X0014763Y0100362D01*
X0015762Y0101360D02*
X0012000Y0101360D01*
X0012000Y0102359D02*
X0017573Y0102359D01*
X0016044Y0103357D02*
X0012000Y0103357D01*
X0012000Y0104356D02*
X0015046Y0104356D01*
X0014467Y0105354D02*
X0012000Y0105354D01*
X0012000Y0106353D02*
X0014053Y0106353D01*
X0013994Y0107351D02*
X0012000Y0107351D01*
X0012000Y0108350D02*
X0013994Y0108350D01*
X0014344Y0109348D02*
X0012000Y0109348D01*
X0012000Y0110347D02*
X0014757Y0110347D01*
X0015747Y0111345D02*
X0012000Y0111345D01*
X0012000Y0112344D02*
X0017537Y0112344D01*
X0018042Y0114947D02*
X0025958Y0114947D01*
X0027815Y0115716D01*
X0029236Y0117138D01*
X0030005Y0118995D01*
X0030005Y0121005D01*
X0029236Y0122862D01*
X0027815Y0124284D01*
X0026085Y0125000D01*
X0027815Y0125716D01*
X0029236Y0127138D01*
X0030005Y0128995D01*
X0030005Y0131005D01*
X0029236Y0132862D01*
X0027815Y0134284D01*
X0026085Y0135000D01*
X0027815Y0135716D01*
X0029236Y0137138D01*
X0030005Y0138995D01*
X0030005Y0141005D01*
X0029236Y0142862D01*
X0027815Y0144284D01*
X0026085Y0145000D01*
X0027815Y0145716D01*
X0029236Y0147138D01*
X0030005Y0148995D01*
X0030005Y0151005D01*
X0029236Y0152862D01*
X0027815Y0154284D01*
X0025958Y0155053D01*
X0018042Y0155053D01*
X0016185Y0154284D01*
X0014764Y0152862D01*
X0013994Y0151005D01*
X0013994Y0148995D01*
X0014764Y0147138D01*
X0016185Y0145716D01*
X0017915Y0145000D01*
X0016185Y0144284D01*
X0014764Y0142862D01*
X0013994Y0141005D01*
X0013994Y0138995D01*
X0014764Y0137138D01*
X0016185Y0135716D01*
X0017915Y0135000D01*
X0016185Y0134284D01*
X0014764Y0132862D01*
X0013994Y0131005D01*
X0013994Y0128995D01*
X0014764Y0127138D01*
X0016185Y0125716D01*
X0017915Y0125000D01*
X0016185Y0124284D01*
X0014764Y0122862D01*
X0013994Y0121005D01*
X0013994Y0118995D01*
X0014764Y0117138D01*
X0016185Y0115716D01*
X0018042Y0114947D01*
X0017096Y0115339D02*
X0012000Y0115339D01*
X0012000Y0114341D02*
X0118112Y0114341D01*
X0117546Y0114575D02*
X0118814Y0114050D01*
X0120186Y0114050D01*
X0121454Y0114575D01*
X0121779Y0114900D01*
X0135017Y0114900D01*
X0135259Y0115000D01*
X0137000Y0115000D01*
X0137000Y0116323D01*
X0139204Y0118527D01*
X0139600Y0119483D01*
X0139600Y0161423D01*
X0140577Y0162400D01*
X0172517Y0162400D01*
X0173473Y0162796D01*
X0174204Y0163527D01*
X0176704Y0166027D01*
X0177100Y0166983D01*
X0177100Y0187500D01*
X0264500Y0187500D01*
X0274500Y0180000D01*
X0274500Y0155266D01*
X0271195Y0153674D01*
X0269723Y0152500D01*
X0259500Y0152500D01*
X0259500Y0126585D01*
X0258784Y0128315D01*
X0257362Y0129736D01*
X0255505Y0130505D01*
X0253495Y0130505D01*
X0251638Y0129736D01*
X0250216Y0128315D01*
X0249500Y0126585D01*
X0248784Y0128315D01*
X0247362Y0129736D01*
X0245505Y0130505D01*
X0243495Y0130505D01*
X0241638Y0129736D01*
X0240216Y0128315D01*
X0239447Y0126458D01*
X0239447Y0118542D01*
X0240216Y0116685D01*
X0241638Y0115264D01*
X0243495Y0114494D01*
X0245505Y0114494D01*
X0247362Y0115264D01*
X0248784Y0116685D01*
X0249500Y0118415D01*
X0250216Y0116685D01*
X0251638Y0115264D01*
X0253495Y0114494D01*
X0255505Y0114494D01*
X0257362Y0115264D01*
X0258784Y0116685D01*
X0259500Y0118415D01*
X0259500Y0090235D01*
X0259283Y0090758D01*
X0257862Y0092179D01*
X0256005Y0092949D01*
X0253995Y0092949D01*
X0252138Y0092179D01*
X0250716Y0090758D01*
X0250000Y0089028D01*
X0249283Y0090758D01*
X0247862Y0092179D01*
X0246005Y0092949D01*
X0243995Y0092949D01*
X0242138Y0092179D01*
X0240716Y0090758D01*
X0239947Y0088901D01*
X0239947Y0080985D01*
X0240716Y0079128D01*
X0242138Y0077707D01*
X0243995Y0076938D01*
X0246005Y0076938D01*
X0247862Y0077707D01*
X0249283Y0079128D01*
X0250000Y0080858D01*
X0250716Y0079128D01*
X0252138Y0077707D01*
X0253995Y0076938D01*
X0256005Y0076938D01*
X0257862Y0077707D01*
X0259283Y0079128D01*
X0259500Y0079651D01*
X0259500Y0052500D01*
X0282000Y0052500D01*
X0282000Y0007500D01*
X0250927Y0041449D02*
X0246723Y0041449D01*
X0247721Y0042448D02*
X0249929Y0042448D01*
X0249288Y0043446D02*
X0248362Y0043446D01*
X0248775Y0044445D02*
X0248875Y0044445D01*
X0257721Y0042448D02*
X0282000Y0042448D01*
X0282000Y0043446D02*
X0258362Y0043446D01*
X0258775Y0044445D02*
X0282000Y0044445D01*
X0282000Y0045443D02*
X0258878Y0045443D01*
X0258878Y0046442D02*
X0282000Y0046442D01*
X0282000Y0047440D02*
X0258878Y0047440D01*
X0258878Y0048439D02*
X0282000Y0048439D01*
X0282000Y0049437D02*
X0258878Y0049437D01*
X0258878Y0050436D02*
X0282000Y0050436D01*
X0282000Y0051434D02*
X0258878Y0051434D01*
X0258878Y0052433D02*
X0282000Y0052433D01*
X0259500Y0053432D02*
X0258537Y0053432D01*
X0258123Y0054430D02*
X0259500Y0054430D01*
X0259500Y0055429D02*
X0257145Y0055429D01*
X0255382Y0056427D02*
X0259500Y0056427D01*
X0259500Y0057426D02*
X0029417Y0057426D01*
X0028674Y0058424D02*
X0259500Y0058424D01*
X0259500Y0059423D02*
X0027479Y0059423D01*
X0027102Y0060421D02*
X0259500Y0060421D01*
X0259500Y0061420D02*
X0028518Y0061420D01*
X0029352Y0062418D02*
X0259500Y0062418D01*
X0259500Y0063417D02*
X0029766Y0063417D01*
X0030005Y0064415D02*
X0259500Y0064415D01*
X0259500Y0065414D02*
X0030005Y0065414D01*
X0029837Y0066412D02*
X0259500Y0066412D01*
X0259500Y0067411D02*
X0029423Y0067411D01*
X0028689Y0068409D02*
X0259500Y0068409D01*
X0259500Y0069408D02*
X0027515Y0069408D01*
X0028000Y0073402D02*
X0259500Y0073402D01*
X0259500Y0074400D02*
X0028999Y0074400D01*
X0029551Y0075399D02*
X0259500Y0075399D01*
X0259500Y0076397D02*
X0029965Y0076397D01*
X0030005Y0077396D02*
X0242889Y0077396D01*
X0241450Y0078394D02*
X0030005Y0078394D01*
X0029638Y0079393D02*
X0240607Y0079393D01*
X0240193Y0080391D02*
X0169990Y0080391D01*
X0169862Y0080264D02*
X0171284Y0081685D01*
X0172053Y0083542D01*
X0172053Y0091458D01*
X0171284Y0093315D01*
X0169862Y0094736D01*
X0168005Y0095505D01*
X0165995Y0095505D01*
X0164138Y0094736D01*
X0162716Y0093315D01*
X0162000Y0091585D01*
X0161284Y0093315D01*
X0159862Y0094736D01*
X0158005Y0095505D01*
X0155995Y0095505D01*
X0154138Y0094736D01*
X0152716Y0093315D01*
X0152000Y0091585D01*
X0151284Y0093315D01*
X0149862Y0094736D01*
X0148005Y0095505D01*
X0145995Y0095505D01*
X0144138Y0094736D01*
X0144001Y0094600D01*
X0138643Y0099958D01*
X0137577Y0100400D01*
X0091423Y0100400D01*
X0090357Y0099958D01*
X0089541Y0099143D01*
X0085840Y0095441D01*
X0084138Y0094736D01*
X0082716Y0093315D01*
X0081947Y0091458D01*
X0081947Y0083542D01*
X0082716Y0081685D01*
X0084138Y0080264D01*
X0085995Y0079494D01*
X0088005Y0079494D01*
X0089862Y0080264D01*
X0091284Y0081685D01*
X0092000Y0083415D01*
X0092716Y0081685D01*
X0094138Y0080264D01*
X0095995Y0079494D01*
X0098005Y0079494D01*
X0099862Y0080264D01*
X0101284Y0081685D01*
X0102000Y0083415D01*
X0102716Y0081685D01*
X0104138Y0080264D01*
X0105995Y0079494D01*
X0108005Y0079494D01*
X0109862Y0080264D01*
X0111284Y0081685D01*
X0112053Y0083542D01*
X0112053Y0091458D01*
X0111284Y0093315D01*
X0109998Y0094600D01*
X0135799Y0094600D01*
X0141947Y0088452D01*
X0141947Y0083542D01*
X0142716Y0081685D01*
X0144138Y0080264D01*
X0145995Y0079494D01*
X0148005Y0079494D01*
X0149862Y0080264D01*
X0151284Y0081685D01*
X0152000Y0083415D01*
X0152716Y0081685D01*
X0154138Y0080264D01*
X0155995Y0079494D01*
X0158005Y0079494D01*
X0159862Y0080264D01*
X0161284Y0081685D01*
X0162000Y0083415D01*
X0162716Y0081685D01*
X0164138Y0080264D01*
X0165995Y0079494D01*
X0168005Y0079494D01*
X0169862Y0080264D01*
X0170988Y0081390D02*
X0239947Y0081390D01*
X0239947Y0082388D02*
X0171575Y0082388D01*
X0171988Y0083387D02*
X0239947Y0083387D01*
X0239947Y0084385D02*
X0172053Y0084385D01*
X0172053Y0085384D02*
X0239947Y0085384D01*
X0239947Y0086382D02*
X0172053Y0086382D01*
X0172053Y0087381D02*
X0239947Y0087381D01*
X0239947Y0088379D02*
X0172053Y0088379D01*
X0172053Y0089378D02*
X0240145Y0089378D01*
X0240558Y0090376D02*
X0172053Y0090376D01*
X0172053Y0091375D02*
X0241333Y0091375D01*
X0242606Y0092373D02*
X0171673Y0092373D01*
X0171226Y0093372D02*
X0259500Y0093372D01*
X0259500Y0094370D02*
X0170228Y0094370D01*
X0168335Y0095369D02*
X0259500Y0095369D01*
X0259500Y0096368D02*
X0142234Y0096368D01*
X0141235Y0097366D02*
X0259500Y0097366D01*
X0259500Y0098365D02*
X0140237Y0098365D01*
X0139238Y0099363D02*
X0259500Y0099363D01*
X0259500Y0100362D02*
X0137670Y0100362D01*
X0139745Y0106625D02*
X0141208Y0106019D01*
X0142792Y0106019D01*
X0144255Y0106625D01*
X0144730Y0107100D01*
X0186770Y0107100D01*
X0187245Y0106625D01*
X0188708Y0106019D01*
X0190292Y0106019D01*
X0191755Y0106625D01*
X0192875Y0107745D01*
X0193481Y0109208D01*
X0193481Y0110792D01*
X0192875Y0112255D01*
X0191755Y0113375D01*
X0190292Y0113981D01*
X0188708Y0113981D01*
X0187245Y0113375D01*
X0186770Y0112900D01*
X0144730Y0112900D01*
X0144255Y0113375D01*
X0142792Y0113981D01*
X0141208Y0113981D01*
X0139745Y0113375D01*
X0138625Y0112255D01*
X0138019Y0110792D01*
X0138019Y0109208D01*
X0138625Y0107745D01*
X0139745Y0106625D01*
X0140402Y0106353D02*
X0050583Y0106353D01*
X0052203Y0107351D02*
X0139019Y0107351D01*
X0138374Y0108350D02*
X0052912Y0108350D01*
X0053284Y0109348D02*
X0138019Y0109348D01*
X0138019Y0110347D02*
X0053284Y0110347D01*
X0053039Y0111345D02*
X0138248Y0111345D01*
X0138714Y0112344D02*
X0052508Y0112344D01*
X0051320Y0113342D02*
X0139712Y0113342D01*
X0137000Y0115339D02*
X0241562Y0115339D01*
X0240564Y0116338D02*
X0137015Y0116338D01*
X0138013Y0117336D02*
X0239947Y0117336D01*
X0239533Y0118335D02*
X0139012Y0118335D01*
X0139538Y0119333D02*
X0239447Y0119333D01*
X0239447Y0120332D02*
X0139600Y0120332D01*
X0139600Y0121330D02*
X0239447Y0121330D01*
X0239447Y0122329D02*
X0139600Y0122329D01*
X0139600Y0123327D02*
X0239447Y0123327D01*
X0239447Y0124326D02*
X0139600Y0124326D01*
X0139600Y0125324D02*
X0239447Y0125324D01*
X0239447Y0126323D02*
X0139600Y0126323D01*
X0139600Y0127321D02*
X0239805Y0127321D01*
X0240221Y0128320D02*
X0139600Y0128320D01*
X0139600Y0129318D02*
X0241220Y0129318D01*
X0243040Y0130317D02*
X0139600Y0130317D01*
X0139600Y0131315D02*
X0259500Y0131315D01*
X0259500Y0130317D02*
X0255960Y0130317D01*
X0257780Y0129318D02*
X0259500Y0129318D01*
X0259500Y0128320D02*
X0258779Y0128320D01*
X0259195Y0127321D02*
X0259500Y0127321D01*
X0259500Y0132314D02*
X0139600Y0132314D01*
X0139600Y0133312D02*
X0259500Y0133312D01*
X0259500Y0134311D02*
X0139600Y0134311D01*
X0139600Y0135309D02*
X0259500Y0135309D01*
X0259500Y0136308D02*
X0139600Y0136308D01*
X0139600Y0137306D02*
X0259500Y0137306D01*
X0259500Y0138305D02*
X0139600Y0138305D01*
X0139600Y0139303D02*
X0259500Y0139303D01*
X0259500Y0140302D02*
X0139600Y0140302D01*
X0139600Y0141301D02*
X0259500Y0141301D01*
X0259500Y0142299D02*
X0139600Y0142299D01*
X0139600Y0143298D02*
X0259500Y0143298D01*
X0259500Y0144296D02*
X0139600Y0144296D01*
X0139600Y0145295D02*
X0259500Y0145295D01*
X0259500Y0146293D02*
X0139600Y0146293D01*
X0139600Y0147292D02*
X0259500Y0147292D01*
X0259500Y0148290D02*
X0139600Y0148290D01*
X0139600Y0149289D02*
X0259500Y0149289D01*
X0259500Y0150287D02*
X0139600Y0150287D01*
X0139600Y0151286D02*
X0259500Y0151286D01*
X0259500Y0152284D02*
X0236916Y0152284D01*
X0236232Y0152101D02*
X0238877Y0152809D01*
X0241248Y0154179D01*
X0243184Y0156115D01*
X0244554Y0158486D01*
X0245262Y0161131D01*
X0245262Y0163869D01*
X0244554Y0166514D01*
X0243184Y0168885D01*
X0241248Y0170821D01*
X0238877Y0172191D01*
X0236232Y0172899D01*
X0233494Y0172899D01*
X0230849Y0172191D01*
X0229850Y0171614D01*
X0219482Y0181982D01*
X0219208Y0182644D01*
X0218144Y0183708D01*
X0216753Y0184284D01*
X0215247Y0184284D01*
X0213856Y0183708D01*
X0212792Y0182644D01*
X0212216Y0181253D01*
X0212216Y0179747D01*
X0212792Y0178356D01*
X0213856Y0177292D01*
X0215247Y0176716D01*
X0216546Y0176716D01*
X0225749Y0167513D01*
X0225172Y0166514D01*
X0224464Y0163869D01*
X0224464Y0161131D01*
X0225172Y0158486D01*
X0226542Y0156115D01*
X0228478Y0154179D01*
X0230849Y0152809D01*
X0233494Y0152101D01*
X0236232Y0152101D01*
X0232810Y0152284D02*
X0139600Y0152284D01*
X0139600Y0153283D02*
X0230029Y0153283D01*
X0228375Y0154281D02*
X0139600Y0154281D01*
X0139600Y0155280D02*
X0227377Y0155280D01*
X0226447Y0156278D02*
X0139600Y0156278D01*
X0139600Y0157277D02*
X0225871Y0157277D01*
X0225294Y0158275D02*
X0139600Y0158275D01*
X0139600Y0159274D02*
X0224961Y0159274D01*
X0224694Y0160272D02*
X0139600Y0160272D01*
X0139600Y0161271D02*
X0224464Y0161271D01*
X0224464Y0162269D02*
X0140446Y0162269D01*
X0139500Y0165000D02*
X0137000Y0162500D01*
X0137000Y0120000D01*
X0134500Y0117500D01*
X0119500Y0117500D01*
X0117000Y0117500D01*
X0114500Y0120000D01*
X0114500Y0132500D01*
X0112000Y0135000D01*
X0042000Y0135000D01*
X0039500Y0137500D01*
X0039500Y0163850D01*
X0036242Y0165000D02*
X0036050Y0164536D01*
X0036050Y0163164D01*
X0036575Y0161896D01*
X0036900Y0161571D01*
X0036900Y0136983D01*
X0037296Y0136027D01*
X0039796Y0133527D01*
X0040527Y0132796D01*
X0041483Y0132400D01*
X0110923Y0132400D01*
X0111900Y0131423D01*
X0111900Y0119483D01*
X0112296Y0118527D01*
X0114500Y0116323D01*
X0114500Y0115000D01*
X0116241Y0115000D01*
X0116483Y0114900D01*
X0117221Y0114900D01*
X0117546Y0114575D01*
X0114500Y0115339D02*
X0026904Y0115339D01*
X0028436Y0116338D02*
X0114485Y0116338D01*
X0113487Y0117336D02*
X0029318Y0117336D01*
X0029732Y0118335D02*
X0112488Y0118335D01*
X0111962Y0119333D02*
X0030005Y0119333D01*
X0030005Y0120332D02*
X0111900Y0120332D01*
X0111900Y0121330D02*
X0029871Y0121330D01*
X0029457Y0122329D02*
X0111900Y0122329D01*
X0111900Y0123327D02*
X0028771Y0123327D01*
X0027713Y0124326D02*
X0111900Y0124326D01*
X0111900Y0125324D02*
X0026868Y0125324D01*
X0028421Y0126323D02*
X0111900Y0126323D01*
X0111900Y0127321D02*
X0029312Y0127321D01*
X0029726Y0128320D02*
X0111900Y0128320D01*
X0111900Y0129318D02*
X0030005Y0129318D01*
X0030005Y0130317D02*
X0111900Y0130317D01*
X0111900Y0131315D02*
X0029877Y0131315D01*
X0029463Y0132314D02*
X0111009Y0132314D01*
X0117000Y0137500D02*
X0044500Y0137500D01*
X0042000Y0140000D01*
X0042000Y0157500D01*
X0036900Y0157277D02*
X0012000Y0157277D01*
X0012000Y0158275D02*
X0036900Y0158275D01*
X0036900Y0159274D02*
X0012000Y0159274D01*
X0012000Y0160272D02*
X0036900Y0160272D01*
X0036900Y0161271D02*
X0012000Y0161271D01*
X0012000Y0162269D02*
X0036421Y0162269D01*
X0036050Y0163268D02*
X0012000Y0163268D01*
X0012000Y0164266D02*
X0036050Y0164266D01*
X0036242Y0165000D02*
X0012000Y0165000D01*
X0012000Y0156278D02*
X0036900Y0156278D01*
X0036900Y0155280D02*
X0012000Y0155280D01*
X0012000Y0154281D02*
X0016183Y0154281D01*
X0015184Y0153283D02*
X0012000Y0153283D01*
X0012000Y0152284D02*
X0014524Y0152284D01*
X0014111Y0151286D02*
X0012000Y0151286D01*
X0012000Y0150287D02*
X0013994Y0150287D01*
X0013994Y0149289D02*
X0012000Y0149289D01*
X0012000Y0148290D02*
X0014286Y0148290D01*
X0014700Y0147292D02*
X0012000Y0147292D01*
X0012000Y0146293D02*
X0015608Y0146293D01*
X0017204Y0145295D02*
X0012000Y0145295D01*
X0012000Y0144296D02*
X0016215Y0144296D01*
X0015199Y0143298D02*
X0012000Y0143298D01*
X0012000Y0142299D02*
X0014530Y0142299D01*
X0014117Y0141301D02*
X0012000Y0141301D01*
X0012000Y0140302D02*
X0013994Y0140302D01*
X0013994Y0139303D02*
X0012000Y0139303D01*
X0012000Y0138305D02*
X0014280Y0138305D01*
X0014694Y0137306D02*
X0012000Y0137306D01*
X0012000Y0136308D02*
X0015594Y0136308D01*
X0017168Y0135309D02*
X0012000Y0135309D01*
X0012000Y0134311D02*
X0016251Y0134311D01*
X0015214Y0133312D02*
X0012000Y0133312D01*
X0012000Y0132314D02*
X0014537Y0132314D01*
X0014123Y0131315D02*
X0012000Y0131315D01*
X0012000Y0130317D02*
X0013994Y0130317D01*
X0013994Y0129318D02*
X0012000Y0129318D01*
X0012000Y0128320D02*
X0014274Y0128320D01*
X0014688Y0127321D02*
X0012000Y0127321D01*
X0012000Y0126323D02*
X0015579Y0126323D01*
X0017132Y0125324D02*
X0012000Y0125324D01*
X0012000Y0124326D02*
X0016287Y0124326D01*
X0015229Y0123327D02*
X0012000Y0123327D01*
X0012000Y0122329D02*
X0014543Y0122329D01*
X0014129Y0121330D02*
X0012000Y0121330D01*
X0012000Y0120332D02*
X0013994Y0120332D01*
X0013994Y0119333D02*
X0012000Y0119333D01*
X0012000Y0118335D02*
X0014268Y0118335D01*
X0014682Y0117336D02*
X0012000Y0117336D01*
X0012000Y0116338D02*
X0015564Y0116338D01*
X0012000Y0113342D02*
X0047680Y0113342D01*
X0046492Y0112344D02*
X0026463Y0112344D01*
X0028253Y0111345D02*
X0045961Y0111345D01*
X0048955Y0105354D02*
X0259500Y0105354D01*
X0259500Y0104356D02*
X0028954Y0104356D01*
X0027955Y0103357D02*
X0259500Y0103357D01*
X0259500Y0102359D02*
X0026427Y0102359D01*
X0028238Y0101360D02*
X0259500Y0101360D01*
X0259500Y0106353D02*
X0191098Y0106353D01*
X0192481Y0107351D02*
X0259500Y0107351D01*
X0259500Y0108350D02*
X0193125Y0108350D01*
X0193481Y0109348D02*
X0259500Y0109348D01*
X0259500Y0110347D02*
X0193481Y0110347D01*
X0193252Y0111345D02*
X0259500Y0111345D01*
X0259500Y0112344D02*
X0192786Y0112344D01*
X0191788Y0113342D02*
X0259500Y0113342D01*
X0259500Y0114341D02*
X0120888Y0114341D01*
X0119500Y0125000D02*
X0119500Y0135000D01*
X0117000Y0137500D01*
X0132000Y0125000D02*
X0134500Y0127500D01*
X0134500Y0165000D01*
X0137000Y0167500D01*
X0169500Y0167500D01*
X0172000Y0170000D01*
X0172000Y0207500D01*
X0177000Y0212500D01*
X0177000Y0202500D02*
X0174500Y0200000D01*
X0174500Y0167500D01*
X0172000Y0165000D01*
X0139500Y0165000D01*
X0129500Y0160000D02*
X0112000Y0160000D01*
X0112000Y0165000D02*
X0124500Y0165000D01*
X0173945Y0163268D02*
X0224464Y0163268D01*
X0224570Y0164266D02*
X0174943Y0164266D01*
X0175942Y0165265D02*
X0224838Y0165265D01*
X0225105Y0166263D02*
X0176802Y0166263D01*
X0177100Y0167262D02*
X0225604Y0167262D01*
X0225001Y0168260D02*
X0177100Y0168260D01*
X0177100Y0169259D02*
X0224003Y0169259D01*
X0223004Y0170257D02*
X0177100Y0170257D01*
X0177100Y0171256D02*
X0222006Y0171256D01*
X0221007Y0172254D02*
X0177100Y0172254D01*
X0177100Y0173253D02*
X0220009Y0173253D01*
X0219010Y0174251D02*
X0177100Y0174251D01*
X0177100Y0175250D02*
X0218012Y0175250D01*
X0217013Y0176248D02*
X0177100Y0176248D01*
X0177100Y0177247D02*
X0213965Y0177247D01*
X0212903Y0178245D02*
X0177100Y0178245D01*
X0177100Y0179244D02*
X0212424Y0179244D01*
X0212216Y0180242D02*
X0177100Y0180242D01*
X0177100Y0181241D02*
X0212216Y0181241D01*
X0212624Y0182239D02*
X0177100Y0182239D01*
X0177100Y0183238D02*
X0213386Y0183238D01*
X0215132Y0184237D02*
X0177100Y0184237D01*
X0177100Y0185235D02*
X0267520Y0185235D01*
X0268851Y0184237D02*
X0216868Y0184237D01*
X0218614Y0183238D02*
X0270183Y0183238D01*
X0271514Y0182239D02*
X0219376Y0182239D01*
X0220223Y0181241D02*
X0272845Y0181241D01*
X0274177Y0180242D02*
X0221222Y0180242D01*
X0222220Y0179244D02*
X0274500Y0179244D01*
X0274500Y0178245D02*
X0223219Y0178245D01*
X0224217Y0177247D02*
X0274500Y0177247D01*
X0274500Y0176248D02*
X0225216Y0176248D01*
X0226214Y0175250D02*
X0274500Y0175250D01*
X0274500Y0174251D02*
X0227213Y0174251D01*
X0228211Y0173253D02*
X0274500Y0173253D01*
X0274500Y0172254D02*
X0238639Y0172254D01*
X0240496Y0171256D02*
X0274500Y0171256D01*
X0274500Y0170257D02*
X0241812Y0170257D01*
X0242811Y0169259D02*
X0274500Y0169259D01*
X0274500Y0168260D02*
X0243545Y0168260D01*
X0244122Y0167262D02*
X0274500Y0167262D01*
X0274500Y0166263D02*
X0244621Y0166263D01*
X0244888Y0165265D02*
X0274500Y0165265D01*
X0274500Y0164266D02*
X0245156Y0164266D01*
X0245262Y0163268D02*
X0274500Y0163268D01*
X0274500Y0162269D02*
X0245262Y0162269D01*
X0245262Y0161271D02*
X0274500Y0161271D01*
X0274500Y0160272D02*
X0245032Y0160272D01*
X0244765Y0159274D02*
X0274500Y0159274D01*
X0274500Y0158275D02*
X0244432Y0158275D01*
X0243855Y0157277D02*
X0274500Y0157277D01*
X0274500Y0156278D02*
X0243279Y0156278D01*
X0242349Y0155280D02*
X0274500Y0155280D01*
X0272456Y0154281D02*
X0241351Y0154281D01*
X0239696Y0153283D02*
X0270704Y0153283D01*
X0271195Y0153674D02*
X0271195Y0153674D01*
X0253040Y0130317D02*
X0245960Y0130317D01*
X0247780Y0129318D02*
X0251220Y0129318D01*
X0250221Y0128320D02*
X0248779Y0128320D01*
X0249195Y0127321D02*
X0249805Y0127321D01*
X0249533Y0118335D02*
X0249467Y0118335D01*
X0249053Y0117336D02*
X0249947Y0117336D01*
X0250564Y0116338D02*
X0248436Y0116338D01*
X0247438Y0115339D02*
X0251562Y0115339D01*
X0257438Y0115339D02*
X0259500Y0115339D01*
X0259500Y0116338D02*
X0258436Y0116338D01*
X0259053Y0117336D02*
X0259500Y0117336D01*
X0259467Y0118335D02*
X0259500Y0118335D01*
X0259500Y0092373D02*
X0257393Y0092373D01*
X0258666Y0091375D02*
X0259500Y0091375D01*
X0259500Y0090376D02*
X0259441Y0090376D01*
X0252606Y0092373D02*
X0247393Y0092373D01*
X0248666Y0091375D02*
X0251333Y0091375D01*
X0250558Y0090376D02*
X0249441Y0090376D01*
X0249855Y0089378D02*
X0250145Y0089378D01*
X0250193Y0080391D02*
X0249807Y0080391D01*
X0249393Y0079393D02*
X0250607Y0079393D01*
X0251450Y0078394D02*
X0248549Y0078394D01*
X0247111Y0077396D02*
X0252889Y0077396D01*
X0257111Y0077396D02*
X0259500Y0077396D01*
X0259500Y0078394D02*
X0258549Y0078394D01*
X0259393Y0079393D02*
X0259500Y0079393D01*
X0259500Y0072403D02*
X0012000Y0072403D01*
X0012000Y0071405D02*
X0259500Y0071405D01*
X0259500Y0070406D02*
X0012000Y0070406D01*
X0028209Y0081390D02*
X0083012Y0081390D01*
X0082425Y0082388D02*
X0026355Y0082388D01*
X0027985Y0083387D02*
X0082012Y0083387D01*
X0081947Y0084385D02*
X0028984Y0084385D01*
X0029545Y0085384D02*
X0081947Y0085384D01*
X0081947Y0086382D02*
X0029959Y0086382D01*
X0030005Y0087381D02*
X0081947Y0087381D01*
X0081947Y0088379D02*
X0030005Y0088379D01*
X0029644Y0089378D02*
X0081947Y0089378D01*
X0081947Y0090376D02*
X0029222Y0090376D01*
X0028223Y0091375D02*
X0081947Y0091375D01*
X0082327Y0092373D02*
X0026391Y0092373D01*
X0027970Y0093372D02*
X0082774Y0093372D01*
X0083772Y0094370D02*
X0028969Y0094370D01*
X0029539Y0095369D02*
X0085665Y0095369D01*
X0086766Y0096368D02*
X0029953Y0096368D01*
X0030005Y0097366D02*
X0087765Y0097366D01*
X0088763Y0098365D02*
X0030005Y0098365D01*
X0029650Y0099363D02*
X0089762Y0099363D01*
X0091330Y0100362D02*
X0029237Y0100362D01*
X0029207Y0080391D02*
X0084010Y0080391D01*
X0089990Y0080391D02*
X0094010Y0080391D01*
X0093012Y0081390D02*
X0090988Y0081390D01*
X0091575Y0082388D02*
X0092425Y0082388D01*
X0092012Y0083387D02*
X0091988Y0083387D01*
X0099990Y0080391D02*
X0104010Y0080391D01*
X0103012Y0081390D02*
X0100988Y0081390D01*
X0101575Y0082388D02*
X0102425Y0082388D01*
X0102012Y0083387D02*
X0101988Y0083387D01*
X0109990Y0080391D02*
X0144010Y0080391D01*
X0143012Y0081390D02*
X0110988Y0081390D01*
X0111575Y0082388D02*
X0142425Y0082388D01*
X0142012Y0083387D02*
X0111988Y0083387D01*
X0112053Y0084385D02*
X0141947Y0084385D01*
X0141947Y0085384D02*
X0112053Y0085384D01*
X0112053Y0086382D02*
X0141947Y0086382D01*
X0141947Y0087381D02*
X0112053Y0087381D01*
X0112053Y0088379D02*
X0141947Y0088379D01*
X0141021Y0089378D02*
X0112053Y0089378D01*
X0112053Y0090376D02*
X0140022Y0090376D01*
X0139024Y0091375D02*
X0112053Y0091375D01*
X0111673Y0092373D02*
X0138025Y0092373D01*
X0137027Y0093372D02*
X0111226Y0093372D01*
X0110228Y0094370D02*
X0136028Y0094370D01*
X0143232Y0095369D02*
X0145665Y0095369D01*
X0148335Y0095369D02*
X0155665Y0095369D01*
X0153772Y0094370D02*
X0150228Y0094370D01*
X0151226Y0093372D02*
X0152774Y0093372D01*
X0152327Y0092373D02*
X0151673Y0092373D01*
X0158335Y0095369D02*
X0165665Y0095369D01*
X0163772Y0094370D02*
X0160228Y0094370D01*
X0161226Y0093372D02*
X0162774Y0093372D01*
X0162327Y0092373D02*
X0161673Y0092373D01*
X0161988Y0083387D02*
X0162012Y0083387D01*
X0162425Y0082388D02*
X0161575Y0082388D01*
X0160988Y0081390D02*
X0163012Y0081390D01*
X0164010Y0080391D02*
X0159990Y0080391D01*
X0154010Y0080391D02*
X0149990Y0080391D01*
X0150988Y0081390D02*
X0153012Y0081390D01*
X0152425Y0082388D02*
X0151575Y0082388D01*
X0151988Y0083387D02*
X0152012Y0083387D01*
X0143598Y0106353D02*
X0187902Y0106353D01*
X0187212Y0113342D02*
X0144288Y0113342D01*
X0132000Y0125000D02*
X0119500Y0125000D01*
X0040011Y0133312D02*
X0028786Y0133312D01*
X0027749Y0134311D02*
X0039012Y0134311D01*
X0038014Y0135309D02*
X0026832Y0135309D01*
X0028406Y0136308D02*
X0037180Y0136308D01*
X0036900Y0137306D02*
X0029306Y0137306D01*
X0029720Y0138305D02*
X0036900Y0138305D01*
X0036900Y0139303D02*
X0030005Y0139303D01*
X0030005Y0140302D02*
X0036900Y0140302D01*
X0036900Y0141301D02*
X0029883Y0141301D01*
X0029470Y0142299D02*
X0036900Y0142299D01*
X0036900Y0143298D02*
X0028801Y0143298D01*
X0027785Y0144296D02*
X0036900Y0144296D01*
X0036900Y0145295D02*
X0026796Y0145295D01*
X0028391Y0146293D02*
X0036900Y0146293D01*
X0036900Y0147292D02*
X0029300Y0147292D01*
X0029714Y0148290D02*
X0036900Y0148290D01*
X0036900Y0149289D02*
X0030005Y0149289D01*
X0030005Y0150287D02*
X0036900Y0150287D01*
X0036900Y0151286D02*
X0029889Y0151286D01*
X0029476Y0152284D02*
X0036900Y0152284D01*
X0036900Y0153283D02*
X0028816Y0153283D01*
X0027817Y0154281D02*
X0036900Y0154281D01*
X0177100Y0186234D02*
X0266189Y0186234D01*
X0264857Y0187232D02*
X0177100Y0187232D01*
X0229210Y0172254D02*
X0231087Y0172254D01*
X0245382Y0056427D02*
X0252268Y0056427D01*
X0250505Y0055429D02*
X0247145Y0055429D01*
X0248123Y0054430D02*
X0249527Y0054430D01*
X0249113Y0053432D02*
X0248537Y0053432D01*
X0165809Y0055429D02*
X0158191Y0055429D01*
X0160168Y0054430D02*
X0163832Y0054430D01*
X0162833Y0053432D02*
X0161167Y0053432D01*
X0161649Y0052433D02*
X0162351Y0052433D01*
X0155809Y0055429D02*
X0148191Y0055429D01*
X0150168Y0054430D02*
X0153832Y0054430D01*
X0152833Y0053432D02*
X0151167Y0053432D01*
X0151649Y0052433D02*
X0152351Y0052433D01*
X0152401Y0042448D02*
X0151599Y0042448D01*
X0151048Y0041449D02*
X0152952Y0041449D01*
X0153951Y0040451D02*
X0150049Y0040451D01*
X0160049Y0040451D02*
X0163951Y0040451D01*
X0162952Y0041449D02*
X0161048Y0041449D01*
X0161599Y0042448D02*
X0162401Y0042448D01*
X0083832Y0054430D02*
X0030005Y0054430D01*
X0029772Y0053432D02*
X0082833Y0053432D01*
X0082351Y0052433D02*
X0029359Y0052433D01*
X0028533Y0051434D02*
X0081947Y0051434D01*
X0081947Y0050436D02*
X0027138Y0050436D01*
X0027443Y0049437D02*
X0081947Y0049437D01*
X0081947Y0048439D02*
X0028659Y0048439D01*
X0029411Y0047440D02*
X0081947Y0047440D01*
X0081947Y0046442D02*
X0029825Y0046442D01*
X0030005Y0045443D02*
X0081947Y0045443D01*
X0081947Y0044445D02*
X0030005Y0044445D01*
X0029778Y0043446D02*
X0081987Y0043446D01*
X0082401Y0042448D02*
X0029365Y0042448D01*
X0028548Y0041449D02*
X0082952Y0041449D01*
D22*
X0087000Y0087500D02*
X0087000Y0092500D01*
X0092000Y0097500D01*
X0137000Y0097500D01*
X0147000Y0087500D01*
X0142000Y0110000D02*
X0189500Y0110000D01*
X0112000Y0147500D02*
X0111846Y0147346D01*
X0107000Y0147346D01*
X0104500Y0149846D01*
X0104500Y0165000D01*
X0102000Y0187500D02*
X0104500Y0190000D01*
X0102000Y0195000D02*
X0157000Y0195000D01*
X0192000Y0190675D02*
X0192000Y0215000D01*
X0216000Y0180500D02*
X0216863Y0180500D01*
X0234863Y0162500D01*
X0267000Y0195000D02*
X0272000Y0190000D01*
X0277000Y0190000D01*
X0267000Y0195000D02*
X0254500Y0195000D01*
X0247000Y0202500D01*
X0072000Y0192500D02*
X0072000Y0215000D01*
X0049500Y0110000D02*
X0047000Y0107500D01*
X0022000Y0107500D01*
D23*
X0024500Y0165000D02*
X0024500Y0167500D01*
X0247000Y0202500D02*
X0247000Y0212500D01*
M02*
