G75*
%MOIN*%
%OFA0B0*%
%FSLAX24Y24*%
%IPPOS*%
%LPD*%
%AMOC8*
5,1,8,0,0,1.08239X$1,22.5*
%
%ADD10R,0.0138X0.0354*%
%ADD11R,0.0394X0.0433*%
%ADD12R,0.1063X0.0630*%
%ADD13R,0.0220X0.0780*%
%ADD14R,0.0980X0.0790*%
%ADD15R,0.0433X0.0394*%
%ADD16R,0.0728X0.1339*%
%ADD17R,0.0709X0.0630*%
%ADD18R,0.0433X0.0551*%
%ADD19R,0.0880X0.0480*%
%ADD20R,0.0866X0.1417*%
%ADD21R,0.0315X0.0315*%
%ADD22R,0.0866X0.0236*%
%ADD23R,0.0790X0.0430*%
%ADD24R,0.0394X0.0118*%
%ADD25R,0.0118X0.0394*%
%ADD26R,0.0276X0.0157*%
%ADD27R,0.0630X0.0710*%
D10*
X005182Y004098D03*
X005438Y004098D03*
X005694Y004098D03*
X005950Y004098D03*
X006206Y004098D03*
X006462Y004098D03*
X006718Y004098D03*
X006718Y006402D03*
X006462Y006402D03*
X006206Y006402D03*
X005950Y006402D03*
X005694Y006402D03*
X005438Y006402D03*
X005182Y006402D03*
X005932Y008348D03*
X006188Y008348D03*
X006444Y008348D03*
X006700Y008348D03*
X006956Y008348D03*
X007212Y008348D03*
X007468Y008348D03*
X007468Y010652D03*
X007212Y010652D03*
X006956Y010652D03*
X006700Y010652D03*
X006444Y010652D03*
X006188Y010652D03*
X005932Y010652D03*
D11*
X004535Y010000D03*
X003865Y010000D03*
X003865Y009500D03*
X003865Y009000D03*
X004535Y009000D03*
X004535Y009500D03*
X004535Y008250D03*
X004535Y007750D03*
X003865Y007750D03*
X003865Y008250D03*
X003865Y007250D03*
X004535Y007250D03*
X004535Y005750D03*
X004535Y005250D03*
X004535Y004750D03*
X003865Y004750D03*
X003865Y005250D03*
X003865Y005750D03*
X009365Y010500D03*
X010035Y010500D03*
X012365Y010500D03*
X013035Y010500D03*
X014865Y010500D03*
X015535Y010500D03*
X017865Y010500D03*
X018535Y010500D03*
X019950Y013165D03*
X019950Y013835D03*
X020950Y014915D03*
X020950Y015585D03*
X019450Y017415D03*
X018950Y017415D03*
X018950Y018085D03*
X019450Y018085D03*
X012535Y018000D03*
X011865Y018000D03*
X011865Y017000D03*
X011865Y016500D03*
X012535Y016500D03*
X012535Y017000D03*
X012365Y013250D03*
X013035Y013250D03*
X013035Y012500D03*
X012365Y012500D03*
X012365Y011750D03*
X013035Y011750D03*
X013035Y006500D03*
X012365Y006500D03*
X014865Y006500D03*
X015535Y006500D03*
X017865Y006500D03*
X018535Y006500D03*
X024615Y006933D03*
X025285Y006933D03*
X025285Y010500D03*
X024615Y010500D03*
X024615Y003250D03*
X025285Y003250D03*
X003535Y015750D03*
X003535Y016250D03*
X002865Y016250D03*
X002865Y015750D03*
X005200Y018665D03*
X005700Y018665D03*
X005700Y019335D03*
X005200Y019335D03*
D12*
X021750Y015801D03*
X021750Y014699D03*
D13*
X020450Y014530D03*
X019950Y014530D03*
X019450Y014530D03*
X018950Y014530D03*
X018950Y016470D03*
X019450Y016470D03*
X019950Y016470D03*
X020450Y016470D03*
D14*
X019700Y015500D03*
D15*
X019950Y017415D03*
X020450Y017415D03*
X020950Y017415D03*
X020950Y018085D03*
X020450Y018085D03*
X019950Y018085D03*
X019950Y011835D03*
X019950Y011165D03*
X019950Y009585D03*
X019950Y008915D03*
X019950Y006585D03*
X019950Y005915D03*
X009785Y011500D03*
X009115Y011500D03*
X009200Y014065D03*
X009700Y014065D03*
X010200Y014065D03*
X010200Y014735D03*
X009700Y014735D03*
X009200Y014735D03*
X007285Y016500D03*
X006615Y016500D03*
X006450Y015335D03*
X006450Y014665D03*
X005450Y014665D03*
X004550Y014665D03*
X004550Y015335D03*
X005450Y015335D03*
D16*
X017098Y012868D03*
X019263Y012868D03*
D17*
X016300Y013449D03*
X015450Y013449D03*
X015450Y014551D03*
X016300Y014551D03*
D18*
X010094Y006500D03*
X009306Y006500D03*
D19*
X020980Y006660D03*
X020980Y005750D03*
X020980Y004840D03*
X020980Y007840D03*
X020980Y008750D03*
X020980Y009660D03*
X020980Y010840D03*
X020980Y011750D03*
X020980Y012660D03*
D20*
X023420Y011750D03*
X023420Y008750D03*
X023420Y005750D03*
D21*
X023405Y006933D03*
X023995Y006933D03*
X023995Y010500D03*
X023405Y010500D03*
X017245Y010500D03*
X016655Y010500D03*
X011745Y010500D03*
X011155Y010500D03*
X011155Y006500D03*
X011745Y006500D03*
X016655Y006500D03*
X017245Y006500D03*
X023405Y003250D03*
X023995Y003250D03*
X005515Y016935D03*
X004885Y016935D03*
X004885Y017565D03*
X005515Y017565D03*
D22*
X008926Y013500D03*
X008926Y013000D03*
X008926Y012500D03*
X008926Y012000D03*
X010974Y012000D03*
X010974Y012500D03*
X010974Y013000D03*
X010974Y013500D03*
D23*
X007720Y013250D03*
X007720Y012250D03*
X004180Y012250D03*
X004180Y013250D03*
D24*
X004373Y016856D03*
X004373Y017053D03*
X004373Y017250D03*
X004373Y017447D03*
X004373Y017644D03*
X006027Y017644D03*
X006027Y017447D03*
X006027Y017250D03*
X006027Y017053D03*
X006027Y016856D03*
D25*
X005594Y016423D03*
X005397Y016423D03*
X005200Y016423D03*
X005003Y016423D03*
X004806Y016423D03*
X004806Y018077D03*
X005003Y018077D03*
X005200Y018077D03*
X005397Y018077D03*
X005594Y018077D03*
D26*
X010365Y016756D03*
X010365Y016244D03*
X011035Y016244D03*
X011035Y016500D03*
X011035Y016756D03*
D27*
X009260Y019250D03*
X008140Y019250D03*
M02*
