G75*
%MOIN*%
%OFA0B0*%
%FSLAX25Y25*%
%IPPOS*%
%LPD*%
%AMOC8*
5,1,8,0,0,1.08239X$1,22.5*
%
%ADD10R,0.01772X0.03937*%
%ADD11R,0.06706X0.06706*%
%ADD12C,0.06706*%
%ADD13C,0.17398*%
%ADD14C,0.17000*%
%ADD15R,0.11430X0.07099*%
%ADD16R,0.04737X0.05131*%
%ADD17R,0.03000X0.08600*%
%ADD18R,0.10600X0.08700*%
%ADD19R,0.05131X0.04737*%
%ADD20R,0.08083X0.14186*%
%ADD21R,0.07887X0.07099*%
%ADD22C,0.06706*%
%ADD23R,0.05131X0.06312*%
%ADD24R,0.09599X0.05599*%
%ADD25R,0.09461X0.14973*%
%ADD26R,0.03950X0.03950*%
%ADD27R,0.09461X0.03162*%
%ADD28R,0.08700X0.05100*%
%ADD29R,0.06312X0.06312*%
%ADD30OC8,0.10850*%
%ADD31R,0.10236X0.10236*%
%ADD32R,0.01575X0.04331*%
%ADD33R,0.04331X0.01575*%
%ADD34R,0.07099X0.07898*%
%ADD35C,0.04169*%
%ADD36C,0.03500*%
%ADD37C,0.04562*%
D10*
X0041823Y0040984D03*
X0044382Y0040984D03*
X0046941Y0040984D03*
X0049500Y0040984D03*
X0052059Y0040984D03*
X0054618Y0040984D03*
X0057177Y0040984D03*
X0057177Y0064016D03*
X0054618Y0064016D03*
X0052059Y0064016D03*
X0049500Y0064016D03*
X0046941Y0064016D03*
X0044382Y0064016D03*
X0041823Y0064016D03*
X0051823Y0083484D03*
X0054382Y0083484D03*
X0056941Y0083484D03*
X0059500Y0083484D03*
X0062059Y0083484D03*
X0064618Y0083484D03*
X0067177Y0083484D03*
X0067177Y0106516D03*
X0064618Y0106516D03*
X0062059Y0106516D03*
X0059500Y0106516D03*
X0056941Y0106516D03*
X0054382Y0106516D03*
X0051823Y0106516D03*
D11*
X0267000Y0022500D03*
X0267000Y0212500D03*
D12*
X0047000Y0012500D03*
X0057000Y0012500D03*
X0067000Y0012500D03*
X0077000Y0012500D03*
X0087000Y0012500D03*
X0097000Y0012500D03*
X0107000Y0012500D03*
X0117000Y0012500D03*
X0127000Y0012500D03*
X0137000Y0012500D03*
X0147000Y0012500D03*
X0157000Y0012500D03*
X0167000Y0012500D03*
X0177000Y0012500D03*
X0187000Y0012500D03*
X0197000Y0012500D03*
X0207000Y0012500D03*
X0217000Y0012500D03*
X0227000Y0012500D03*
X0237000Y0012500D03*
X0247000Y0012500D03*
X0257000Y0012500D03*
X0267000Y0012500D03*
X0257000Y0022500D03*
X0247000Y0022500D03*
X0237000Y0022500D03*
X0227000Y0022500D03*
X0217000Y0022500D03*
X0207000Y0022500D03*
X0197000Y0022500D03*
X0187000Y0022500D03*
X0177000Y0022500D03*
X0167000Y0022500D03*
X0157000Y0022500D03*
X0147000Y0022500D03*
X0137000Y0022500D03*
X0127000Y0022500D03*
X0117000Y0022500D03*
X0107000Y0022500D03*
X0097000Y0022500D03*
X0087000Y0022500D03*
X0077000Y0022500D03*
X0067000Y0022500D03*
X0057000Y0022500D03*
X0047000Y0022500D03*
X0047000Y0202500D03*
X0057000Y0202500D03*
X0067000Y0202500D03*
X0077000Y0202500D03*
X0087000Y0202500D03*
X0097000Y0202500D03*
X0107000Y0202500D03*
X0117000Y0202500D03*
X0127000Y0202500D03*
X0137000Y0202500D03*
X0147000Y0202500D03*
X0157000Y0202500D03*
X0167000Y0202500D03*
X0177000Y0202500D03*
X0187000Y0202500D03*
X0197000Y0202500D03*
X0207000Y0202500D03*
X0217000Y0202500D03*
X0227000Y0202500D03*
X0237000Y0202500D03*
X0247000Y0202500D03*
X0257000Y0202500D03*
X0267000Y0202500D03*
X0257000Y0212500D03*
X0247000Y0212500D03*
X0237000Y0212500D03*
X0227000Y0212500D03*
X0217000Y0212500D03*
X0207000Y0212500D03*
X0197000Y0212500D03*
X0187000Y0212500D03*
X0177000Y0212500D03*
X0167000Y0212500D03*
X0157000Y0212500D03*
X0147000Y0212500D03*
X0137000Y0212500D03*
X0127000Y0212500D03*
X0117000Y0212500D03*
X0107000Y0212500D03*
X0097000Y0212500D03*
X0087000Y0212500D03*
X0077000Y0212500D03*
X0067000Y0212500D03*
X0057000Y0212500D03*
X0047000Y0212500D03*
D13*
X0234863Y0162500D03*
D14*
X0263685Y0162600D03*
X0247374Y0182309D03*
D15*
X0217500Y0158012D03*
X0217500Y0146988D03*
D16*
X0209500Y0149154D03*
X0209500Y0155846D03*
X0199500Y0138346D03*
X0199500Y0131654D03*
X0246154Y0105000D03*
X0252846Y0105000D03*
X0252846Y0069325D03*
X0246154Y0069325D03*
X0246154Y0032500D03*
X0252846Y0032500D03*
X0130346Y0117500D03*
X0123654Y0117500D03*
X0123654Y0125000D03*
X0130346Y0125000D03*
X0130346Y0132500D03*
X0123654Y0132500D03*
X0189500Y0174154D03*
X0194500Y0174154D03*
X0194500Y0180846D03*
X0189500Y0180846D03*
X0057000Y0186654D03*
X0049500Y0186654D03*
X0049500Y0193346D03*
X0057000Y0193346D03*
X0035346Y0163850D03*
X0028654Y0163850D03*
X0028654Y0157500D03*
X0035346Y0157500D03*
D17*
X0189500Y0164700D03*
X0194500Y0164700D03*
X0199500Y0164700D03*
X0204500Y0164700D03*
X0204500Y0145300D03*
X0199500Y0145300D03*
X0194500Y0145300D03*
X0189500Y0145300D03*
D18*
X0197000Y0155000D03*
D19*
X0199500Y0174154D03*
X0204500Y0174154D03*
X0209500Y0174154D03*
X0209500Y0180846D03*
X0204500Y0180846D03*
X0199500Y0180846D03*
X0137000Y0180846D03*
X0129500Y0180846D03*
X0129500Y0174154D03*
X0137000Y0174154D03*
X0119500Y0174154D03*
X0112000Y0174154D03*
X0112000Y0180846D03*
X0119500Y0180846D03*
X0072846Y0165000D03*
X0066154Y0165000D03*
X0091325Y0147346D03*
X0097675Y0147346D03*
X0104025Y0147346D03*
X0104025Y0140654D03*
X0097675Y0140654D03*
X0091325Y0140654D03*
X0091154Y0115000D03*
X0097846Y0115000D03*
X0199500Y0111654D03*
X0199500Y0118346D03*
X0199500Y0095846D03*
X0199500Y0089154D03*
X0199500Y0065846D03*
X0199500Y0059154D03*
D20*
X0192630Y0128681D03*
X0170976Y0128681D03*
D21*
X0163000Y0134488D03*
X0154500Y0134488D03*
X0154500Y0145512D03*
X0163000Y0145512D03*
D22*
X0089953Y0172500D02*
X0084047Y0172500D01*
X0084047Y0182500D02*
X0089953Y0182500D01*
X0024953Y0150000D02*
X0019047Y0150000D01*
X0019047Y0140000D02*
X0024953Y0140000D01*
X0024953Y0130000D02*
X0019047Y0130000D01*
X0019047Y0120000D02*
X0024953Y0120000D01*
X0024953Y0107500D02*
X0019047Y0107500D01*
X0019047Y0097500D02*
X0024953Y0097500D01*
X0024953Y0087500D02*
X0019047Y0087500D01*
X0019047Y0077500D02*
X0024953Y0077500D01*
X0024953Y0065000D02*
X0019047Y0065000D01*
X0019047Y0055000D02*
X0024953Y0055000D01*
X0024953Y0045000D02*
X0019047Y0045000D01*
X0019047Y0035000D02*
X0024953Y0035000D01*
X0087000Y0044547D02*
X0087000Y0050453D01*
X0097000Y0050453D02*
X0097000Y0044547D01*
X0107000Y0044547D02*
X0107000Y0050453D01*
X0117000Y0050453D02*
X0117000Y0044547D01*
X0127000Y0044547D02*
X0127000Y0050453D01*
X0147000Y0050453D02*
X0147000Y0044547D01*
X0157000Y0044547D02*
X0157000Y0050453D01*
X0167000Y0050453D02*
X0167000Y0044547D01*
X0177000Y0044547D02*
X0177000Y0050453D01*
X0187000Y0050453D02*
X0187000Y0044547D01*
X0243825Y0045697D02*
X0243825Y0051603D01*
X0253825Y0051603D02*
X0253825Y0045697D01*
X0255000Y0081990D02*
X0255000Y0087896D01*
X0245000Y0087896D02*
X0245000Y0081990D01*
X0244500Y0119547D02*
X0244500Y0125453D01*
X0254500Y0125453D02*
X0254500Y0119547D01*
X0187000Y0090453D02*
X0187000Y0084547D01*
X0177000Y0084547D02*
X0177000Y0090453D01*
X0167000Y0090453D02*
X0167000Y0084547D01*
X0157000Y0084547D02*
X0157000Y0090453D01*
X0147000Y0090453D02*
X0147000Y0084547D01*
X0127000Y0084547D02*
X0127000Y0090453D01*
X0117000Y0090453D02*
X0117000Y0084547D01*
X0107000Y0084547D02*
X0107000Y0090453D01*
X0097000Y0090453D02*
X0097000Y0084547D01*
X0087000Y0084547D02*
X0087000Y0090453D01*
X0022453Y0172500D02*
X0016547Y0172500D01*
X0016547Y0182500D02*
X0022453Y0182500D01*
D23*
X0088063Y0105000D03*
X0095937Y0105000D03*
X0118063Y0105000D03*
X0125937Y0105000D03*
X0148063Y0105000D03*
X0155937Y0105000D03*
X0178063Y0105000D03*
X0185937Y0105000D03*
X0185937Y0065000D03*
X0178063Y0065000D03*
X0155937Y0065000D03*
X0148063Y0065000D03*
X0125937Y0065000D03*
X0118063Y0065000D03*
X0095937Y0065000D03*
X0088063Y0065000D03*
D24*
X0209799Y0066598D03*
X0209799Y0057500D03*
X0209799Y0048402D03*
X0209799Y0078402D03*
X0209799Y0087500D03*
X0209799Y0096598D03*
X0209799Y0108402D03*
X0209799Y0117500D03*
X0209799Y0126598D03*
D25*
X0234201Y0117500D03*
X0234201Y0087500D03*
X0234201Y0057500D03*
D26*
X0234047Y0069325D03*
X0239953Y0069325D03*
X0239953Y0105000D03*
X0234047Y0105000D03*
X0172453Y0105000D03*
X0166547Y0105000D03*
X0112453Y0105000D03*
X0106547Y0105000D03*
X0106547Y0065000D03*
X0112453Y0065000D03*
X0166547Y0065000D03*
X0172453Y0065000D03*
X0234047Y0032500D03*
X0239953Y0032500D03*
D27*
X0109736Y0120000D03*
X0109736Y0125000D03*
X0109736Y0130000D03*
X0109736Y0135000D03*
X0089264Y0135000D03*
X0089264Y0130000D03*
X0089264Y0125000D03*
X0089264Y0120000D03*
D28*
X0077200Y0122500D03*
X0077200Y0132500D03*
X0041800Y0132500D03*
X0041800Y0122500D03*
D29*
X0123000Y0141000D03*
D30*
X0025743Y0198508D03*
X0277000Y0190000D03*
X0275806Y0045648D03*
D31*
X0052000Y0172500D03*
D32*
X0052000Y0164232D03*
X0050031Y0164232D03*
X0048063Y0164232D03*
X0053969Y0164232D03*
X0055937Y0164232D03*
X0055937Y0180768D03*
X0053969Y0180768D03*
X0052000Y0180768D03*
X0050031Y0180768D03*
X0048063Y0180768D03*
D33*
X0043732Y0176437D03*
X0043732Y0174469D03*
X0043732Y0172500D03*
X0043732Y0170531D03*
X0043732Y0168563D03*
X0060268Y0168563D03*
X0060268Y0170531D03*
X0060268Y0172500D03*
X0060268Y0174469D03*
X0060268Y0176437D03*
D34*
X0081402Y0192500D03*
X0092598Y0192500D03*
D35*
X0104500Y0165000D03*
X0112000Y0147500D03*
X0153000Y0151500D03*
X0157000Y0151500D03*
X0161000Y0151500D03*
X0165000Y0151500D03*
X0195000Y0152500D03*
X0199000Y0152500D03*
X0199000Y0156500D03*
X0195000Y0156500D03*
X0215500Y0163500D03*
X0219500Y0163500D03*
X0217500Y0167500D03*
X0216000Y0180500D03*
X0082000Y0115000D03*
X0052000Y0127500D03*
X0049500Y0110000D03*
X0067000Y0090000D03*
X0057000Y0035000D03*
D36*
X0119500Y0117500D03*
X0119500Y0125000D03*
X0112000Y0160000D03*
X0112000Y0165000D03*
X0124500Y0165000D03*
X0129500Y0160000D03*
X0194500Y0185000D03*
X0042000Y0157500D03*
X0039500Y0163850D03*
D37*
X0034500Y0170000D03*
X0102000Y0195000D03*
X0157000Y0195000D03*
X0192000Y0190675D03*
X0189500Y0110000D03*
X0204500Y0102500D03*
X0204500Y0072500D03*
X0217000Y0040000D03*
X0142000Y0110000D03*
M02*
